<svg width="99" height="99" viewBox="0 0 99 99" fill="none" >
<g clip-path="url(#clip0)">
<path d="M92.4425 9.88127L89.1185 6.5124C84.9202 2.39728 79.2758 0.0922852 73.3971 0.0922852C67.5183 0.0922852 61.8739 2.39728 57.6757 6.5124L41.6398 22.5932C37.5247 26.7914 35.2197 32.4358 35.2197 38.3146C35.2197 44.1933 37.5247 49.8377 41.6398 54.036L44.9638 57.3599C47.987 60.3845 51.8274 62.4608 56.0137 63.3341V58.8423C53.053 58.0405 50.3469 56.4941 48.153 54.3504L44.829 50.9815C41.5099 47.619 39.6488 43.0843 39.6488 38.3595C39.6488 33.6347 41.5099 29.1 44.829 25.7374L60.8649 9.7016C64.2274 6.38242 68.7621 4.52133 73.4869 4.52133C78.2117 4.52133 82.7464 6.38242 86.109 9.7016L89.4329 13.0256C92.7521 16.3881 94.6132 20.9228 94.6132 25.6476C94.6132 30.3724 92.7521 34.9071 89.4329 38.2697L73.3971 54.3504C72.0852 55.665 70.5681 56.7574 68.9053 57.5845V62.5705C71.7137 61.4676 74.2666 59.8014 76.4066 57.6744L92.4425 41.6385C96.6529 37.4268 99.0182 31.7153 99.0182 25.7599C99.0182 19.8045 96.6529 14.093 92.4425 9.88127V9.88127Z" fill="black"/>
<path d="M57.4952 44.7834L54.306 41.4595C51.2828 38.4349 47.4424 36.3586 43.2561 35.4854V39.9772C46.2271 40.7539 48.9393 42.3037 51.1168 44.469L54.4857 47.793C57.8048 51.1555 59.6659 55.6902 59.6659 60.415C59.6659 65.1398 57.8048 69.6745 54.4857 73.0371L38.2701 89.1178C34.9076 92.437 30.3729 94.2981 25.6481 94.2981C20.9233 94.2981 16.3886 92.437 13.026 89.1178L9.70209 85.7939C6.38291 82.4313 4.52182 77.8966 4.52182 73.1718C4.52182 68.447 6.38291 63.9123 9.70209 60.5498L25.7379 44.5139C27.0604 43.236 28.5763 42.1748 30.2298 41.3696L29.556 36.6532C26.9805 37.6874 24.631 39.213 22.6386 41.1451L6.51289 57.675C2.39776 61.8733 0.0927734 67.5177 0.0927734 73.3964C0.0927734 79.2752 2.39776 84.9196 6.51289 89.1178L9.88176 92.4418C14.08 96.5569 19.7244 98.8619 25.6032 98.8619C31.4819 98.8619 37.1263 96.5569 41.3246 92.4418L57.3604 76.4059C61.5478 72.2176 63.9113 66.5449 63.9366 60.6224C63.9618 54.7 61.6467 49.0073 57.4952 44.7834Z" fill="black"/>
<path d="M43.0308 52.5988C39.2756 48.8202 37.168 43.7094 37.168 38.3822C37.168 33.055 39.2756 27.9441 43.0308 24.1655" stroke="black" stroke-linecap="round" stroke-linejoin="round"/>
</g>
<defs>
<clipPath id="clip0">
<rect width="99" height="99" fill="white"/>
</clipPath>
</defs>
</svg>
