<svg width="114" height="95" viewBox="0 0 114 95" fill="none" >
<path d="M21.0117 30.588C21.0117 28.7033 21.5706 26.8608 22.6177 25.2937C23.6648 23.7266 25.1531 22.5052 26.8944 21.784C28.6356 21.0627 30.5517 20.874 32.4002 21.2417C34.2487 21.6094 35.9467 22.517 37.2794 23.8497C38.6121 25.1824 39.5197 26.8804 39.8874 28.7289C40.2551 30.5774 40.0664 32.4935 39.3451 34.2347C38.6239 35.976 37.4025 37.4643 35.8354 38.5114C34.2683 39.5585 32.4258 40.1174 30.5411 40.1174C28.0138 40.1174 25.5899 39.1134 23.8028 37.3263C22.0157 35.5392 21.0117 33.1153 21.0117 30.588Z" stroke="white" stroke-width="4" stroke-linejoin="round"/>
<path d="M49.9805 20.6776C50.7045 22.1191 51.2639 23.6374 51.6481 25.2041V25.2041L56.4128 26.0141C57.1577 26.138 57.8344 26.522 58.3229 27.0977C58.8114 27.6735 59.08 28.4037 59.0811 29.1588V33.3041C59.0707 34.0565 58.7988 34.7819 58.3119 35.3558C57.825 35.9296 57.1536 36.316 56.4128 36.4488L51.2193 37.3064C50.6903 38.842 50.0203 40.3254 49.2181 41.7376L52.0293 45.6923C52.4654 46.3051 52.671 47.0523 52.61 47.8019C52.549 48.5516 52.2252 49.2556 51.6958 49.7899L48.7893 52.6964C48.2473 53.2295 47.5351 53.555 46.7773 53.616C46.0194 53.6769 45.2643 53.4695 44.644 53.0299L40.3558 49.9805C38.8386 50.7216 37.2394 51.2814 35.5911 51.6481V51.6481L34.7811 56.4128C34.6664 57.1618 34.285 57.8442 33.7072 58.3344C33.1295 58.8247 32.3941 59.0898 31.6364 59.0811H27.8247C27.0665 59.0727 26.3345 58.8024 25.7527 58.3162C25.1709 57.8299 24.7751 57.1575 24.6323 56.4128L23.7747 51.2193C22.2508 50.6991 20.7824 50.0288 19.3911 49.2181V49.2181L15.4364 52.0293C14.8162 52.4689 14.061 52.6764 13.3032 52.6154C12.5454 52.5544 11.8332 52.2289 11.2912 51.6958L8.38469 48.7893C7.85159 48.2473 7.52607 47.5351 7.4651 46.7773C7.40413 46.0194 7.61158 45.2643 8.05117 44.644L11.1006 40.3558C10.3594 38.8386 9.79968 37.2394 9.43293 35.5911V35.5911L4.66823 34.7811C3.92342 34.6572 3.24665 34.2732 2.75815 33.6975C2.26964 33.1217 2.00102 32.3915 2 31.6364V27.5388C2.00102 26.7837 2.26964 26.0535 2.75815 25.4777C3.24665 24.902 3.92342 24.518 4.66823 24.3941L9.86175 23.4888C10.3782 21.9554 11.0655 20.485 11.9106 19.1053V19.1053L9.0994 15.4364C8.65982 14.8162 8.45236 14.061 8.51333 13.3032C8.57431 12.5454 8.89983 11.8332 9.43293 11.2912L12.3394 8.38469C12.8814 7.85159 13.5937 7.52608 14.3515 7.4651C15.1093 7.40413 15.8644 7.61158 16.4847 8.05117L20.7729 11.1482C22.2778 10.3671 23.8801 9.79021 25.5376 9.43293V9.43293L26.3476 4.66823C26.4716 3.92342 26.8555 3.24665 27.4313 2.75815C28.007 2.26964 28.7372 2.00102 29.4923 2H33.5899C34.3481 2.00841 35.0801 2.27863 35.6619 2.76489C36.2437 3.25115 36.6395 3.92357 36.7823 4.66823L37.6399 9.9094C39.1799 10.3883 40.6528 11.0607 42.0235 11.9106V11.9106L45.9782 9.05175C46.5984 8.61217 47.3536 8.40472 48.1114 8.46569C48.8692 8.52666 49.5814 8.85218 50.1234 9.38528L53.0299 12.2917C53.563 12.8338 53.8885 13.546 53.9495 14.3038C54.0105 15.0616 53.803 15.8167 53.3634 16.437L49.9805 20.6776Z" stroke="white" stroke-width="4" stroke-linejoin="round"/>
<path d="M73.3301 63.9901C73.3301 62.1054 73.889 60.2629 74.9361 58.6958C75.9832 57.1287 77.4715 55.9073 79.2127 55.1861C80.954 54.4648 82.87 54.2761 84.7186 54.6438C86.5671 55.0115 88.2651 55.9191 89.5978 57.2518C90.9305 58.5845 91.8381 60.2825 92.2058 62.131C92.5735 63.9795 92.3847 65.8956 91.6635 67.6368C90.9422 69.3781 89.7208 70.8664 88.1537 71.9135C86.5866 72.9606 84.7442 73.5195 82.8595 73.5195C80.3321 73.5195 77.9083 72.5155 76.1212 70.7284C74.3341 68.9413 73.3301 66.5174 73.3301 63.9901Z" stroke="white" stroke-width="4" stroke-linejoin="round"/>
<path d="M102.346 54.1261C103.065 55.575 103.639 57.0911 104.061 58.6526L108.826 59.4626C109.575 59.5774 110.257 59.9587 110.747 60.5365C111.238 61.1143 111.503 61.8496 111.494 62.6073V66.7049C111.503 67.4626 111.238 68.198 110.747 68.7758C110.257 69.3535 109.575 69.7349 108.826 69.8496L103.632 70.7549C103.132 72.2868 102.461 73.7573 101.631 75.1385L104.442 79.0932C104.882 79.7134 105.089 80.4686 105.028 81.2264C104.967 81.9842 104.642 82.6964 104.109 83.2384L101.202 86.1449C100.66 86.678 99.9479 87.0035 99.1901 87.0645C98.4323 87.1255 97.6772 86.918 97.0569 86.4784L92.7687 83.3814C91.3389 84.1432 89.8178 84.7196 88.2422 85.0967V85.0967L87.4322 89.8614C87.3083 90.6062 86.9243 91.2829 86.3486 91.7714C85.7728 92.2599 85.0426 92.5286 84.2875 92.5296H80.1899C79.4348 92.5286 78.7046 92.2599 78.1288 91.7714C77.5531 91.2829 77.1692 90.6062 77.0452 89.8614L76.1399 84.6202C74.5999 84.1413 73.127 83.4689 71.7564 82.619L67.8017 85.4778C67.1794 85.9207 66.4189 86.1258 65.6584 86.0558C64.8978 85.9859 64.1875 85.6456 63.6564 85.0967L60.7499 82.1902C60.2205 81.6559 59.8968 80.9519 59.8357 80.2022C59.7747 79.4526 59.9804 78.7054 60.4164 78.0926L63.5135 73.8043C62.7516 72.3746 62.1752 70.8535 61.7982 69.2779V69.2779L57.0335 68.4679C56.2927 68.3352 55.6213 67.9487 55.1344 67.3749C54.6475 66.8011 54.3756 66.0757 54.3652 65.3232V61.1779C54.3663 60.4228 54.6349 59.6926 55.1234 59.1168C55.6119 58.5411 56.2887 58.1572 57.0335 58.0332L62.2746 57.1755C62.763 55.6241 63.4348 54.1366 64.2758 52.7444L61.417 48.7897C60.9775 48.1748 60.7742 47.4223 60.8442 46.6699C60.9142 45.9174 61.2529 45.2153 61.7982 44.692L64.7046 41.7856C65.2389 41.2562 65.9429 40.9324 66.6926 40.8714C67.4423 40.8104 68.1894 41.016 68.8023 41.452L73.0905 44.5015C74.5393 43.7825 76.0555 43.2079 77.6169 42.7862V42.7862L78.4269 38.0215C78.5509 37.2767 78.9349 36.5999 79.5106 36.1114C80.0863 35.6229 80.8166 35.3543 81.5716 35.3532H85.7169C86.4746 35.3445 87.21 35.6096 87.7878 36.0999C88.3655 36.5901 88.7469 37.2725 88.8616 38.0215L89.7193 43.215C91.2629 43.7237 92.7482 44.3945 94.1505 45.2162V45.2162L98.1052 42.405C98.718 41.969 99.4651 41.7633 100.215 41.8243C100.964 41.8854 101.669 42.2091 102.203 42.7385L105.109 45.645C105.642 46.187 105.968 46.8992 106.029 47.657C106.09 48.4149 105.882 49.17 105.443 49.7903L102.346 54.1261Z" stroke="white" stroke-width="4" stroke-linejoin="round"/>
</svg>
