<svg width="77" height="97" viewBox="0 0 77 97" fill="none" >
<path d="M38.3721 96.9696V79.5" stroke="black" stroke-width="4" stroke-linejoin="round"/>
<path d="M47.6672 94.9702H29.0771" stroke="black" stroke-width="4" stroke-linecap="round" stroke-linejoin="round"/>
<path d="M61.5283 59.3867C62.2056 57.0906 62.5459 54.7083 62.5386 52.3144V44.7773" stroke="black" stroke-width="4" stroke-linecap="round" stroke-linejoin="round"/>
<path d="M14.2041 46.7773V54.3346C14.1748 57.5375 14.7802 60.7146 15.9857 63.6822C17.1911 66.6498 18.9726 69.3491 21.2271 71.6243C23.4817 73.8995 26.1647 75.7055 29.1212 76.938C32.0776 78.1704 35.249 78.8049 38.452 78.8048C43.5474 78.7977 48.5057 77.1543 52.5966 74.1168" stroke="black" stroke-width="4" stroke-linecap="round" stroke-linejoin="round"/>
<path d="M22.207 21.4589V18.1653C22.207 13.878 23.9103 9.76627 26.9418 6.7347C29.9734 3.70312 34.085 2 38.3723 2C42.6596 2 46.7713 3.70312 49.8029 6.7347C52.8345 9.76627 54.5376 13.878 54.5376 18.1653V52.5165" stroke="black" stroke-width="4" stroke-linecap="round" stroke-linejoin="round"/>
<path d="M46.2717 66.6609C43.8702 68.0021 41.162 68.6983 38.4114 68.6816V68.6816C34.1241 68.6816 30.0124 66.9785 26.9808 63.9469C23.9492 60.9153 22.2461 56.8036 22.2461 52.5163V43.2617" stroke="black" stroke-width="4" stroke-linecap="round" stroke-linejoin="round"/>
<path d="M2 12.123L74.7437 84.8667" stroke="black" stroke-width="4" stroke-miterlimit="10" stroke-linecap="round"/>
</svg>
