<svg width="110" height="107" viewBox="0 0 110 107" fill="none" >
<path d="M56.7302 38.48C66.8039 38.48 74.9702 30.3137 74.9702 20.24C74.9702 10.1663 66.8039 2 56.7302 2C46.6566 2 38.4902 10.1663 38.4902 20.24C38.4902 30.3137 46.6566 38.48 56.7302 38.48Z" stroke="black" stroke-width="4" stroke-miterlimit="10"/>
<path d="M5.65039 74.9702V93.2102C5.65039 93.2102 23.9004 89.5602 56.7204 104.16C56.7204 104.16 78.6104 93.2102 104.15 93.2102V74.9702" stroke="black" stroke-width="4" stroke-linecap="round" stroke-linejoin="round"/>
<path d="M5.65039 38.4901V31.1901C5.65039 31.1901 23.9004 27.5401 56.7204 42.1301C56.7204 42.1301 78.6104 31.1901 104.15 31.1901V38.4901" stroke="black" stroke-width="4" stroke-linecap="round" stroke-linejoin="round"/>
<path d="M56.7305 42.1299V104.15" stroke="black" stroke-width="4" stroke-miterlimit="10"/>
<path d="M7.48 49.4302H7.47C4.449 49.4302 2 51.8792 2 54.9002V58.5502C2 61.5712 4.449 64.0202 7.47 64.0202H7.48C10.501 64.0202 12.95 61.5712 12.95 58.5502V54.9002C12.95 51.8792 10.501 49.4302 7.48 49.4302Z" stroke="black" stroke-width="4" stroke-miterlimit="10"/>
<path d="M102.34 49.4302H102.33C99.3094 49.4302 96.8604 51.8792 96.8604 54.9002V58.5502C96.8604 61.5712 99.3094 64.0202 102.33 64.0202H102.34C105.361 64.0202 107.81 61.5712 107.81 58.5502V54.9002C107.81 51.8792 105.361 49.4302 102.34 49.4302Z" stroke="black" stroke-width="4" stroke-miterlimit="10"/>
</svg>
