<svg width="112" height="95" viewBox="0 0 112 95" fill="none" >
<path d="M2 50.0471L49.25 5.04706C50.0946 4.0894 51.1333 3.32242 52.2971 2.79706C53.4609 2.2717 54.7231 2 56 2C57.2769 2 58.5391 2.2717 59.7029 2.79706C60.8667 3.32242 61.9054 4.0894 62.75 5.04706L110 50.0471" stroke="black" stroke-width="4" stroke-linecap="round" stroke-linejoin="round"/>
<path d="M13.25 41.0474V88.2974C13.25 89.4908 13.7241 90.6354 14.568 91.4793C15.4119 92.3233 16.5565 92.7974 17.75 92.7974H40.25V52.2974H71.75V92.7974H94.25C95.4435 92.7974 96.5881 92.3233 97.432 91.4793C98.2759 90.6354 98.75 89.4908 98.75 88.2974V41.0474" stroke="black" stroke-width="4" stroke-linecap="round" stroke-linejoin="round"/>
</svg>
