<svg width="109" height="94" viewBox="0 0 109 94" fill="none" >
<path d="M33.501 62.4054C36.4505 59.3985 40.0025 57.0589 43.9205 55.5423C47.8384 54.0257 52.0324 53.367 56.223 53.61" stroke="white" stroke-width="4" stroke-linecap="round" stroke-linejoin="round"/>
<path d="M56.2236 30.0569C69.6486 30.4994 82.407 36.053 91.9236 45.5967" stroke="white" stroke-width="4" stroke-linecap="round" stroke-linejoin="round"/>
<path d="M17.0156 45.7026C22.4524 40.1781 29.0356 35.9327 36.2936 33.2708" stroke="white" stroke-width="4" stroke-linecap="round" stroke-linejoin="round"/>
<path d="M38.0566 10.5204C50.2986 7.75331 63.0364 8.14349 75.0886 11.6547C87.1408 15.166 98.1171 21.6845 107 30.6059" stroke="white" stroke-width="4" stroke-linecap="round" stroke-linejoin="round"/>
<path d="M2 30.5852C7.24027 25.2545 13.2599 20.7626 19.85 17.2654" stroke="white" stroke-width="4" stroke-linecap="round" stroke-linejoin="round"/>
<path d="M60.5059 89.4887C59.325 90.6554 57.8281 91.4451 56.203 91.7585C54.578 92.0719 52.8972 91.8951 51.3715 91.2504C49.8459 90.6056 48.5433 89.5216 47.6273 88.1343C46.7113 86.747 46.2227 85.1183 46.2227 83.4524C46.2227 81.7866 46.7113 80.1578 47.6273 78.7705C48.5433 77.3833 49.8459 76.2993 51.3715 75.6545C52.8972 75.0097 54.578 74.833 56.203 75.1464C57.8281 75.4598 59.325 76.2495 60.5059 77.4162C61.3028 78.2035 61.9358 79.1428 62.3679 80.1792C62.8 81.2157 63.0226 82.3284 63.0226 83.4524C63.0226 84.5765 62.8 85.6892 62.3679 86.7257C61.9358 87.7621 61.3028 88.7014 60.5059 89.4887V89.4887Z" stroke="white" stroke-width="4" stroke-linecap="round" stroke-linejoin="round"/>
<path d="M16.6582 2L92.2581 78.1135" stroke="white" stroke-width="4" stroke-miterlimit="10" stroke-linecap="round"/>
</svg>
