<svg width="73" height="104" viewBox="0 0 73 104" fill="none" >
<path d="M11.1797 42.9091V27C11.1797 13.3636 20.2706 2 31.6342 2H40.7251C51.9979 2 61.1797 13.3636 61.1797 27" stroke="white" stroke-width="4" stroke-linecap="round" stroke-linejoin="round"/>
<path d="M36.1795 70.182C39.9451 70.182 42.9977 67.1294 42.9977 63.3638C42.9977 59.5983 39.9451 56.5457 36.1795 56.5457C32.4139 56.5457 29.3613 59.5983 29.3613 63.3638C29.3613 67.1294 32.4139 70.182 36.1795 70.182Z" stroke="white" stroke-width="4"/>
<path d="M36.1797 70.1819V83.8182" stroke="white" stroke-width="4" stroke-linecap="round"/>
<path d="M6.54545 42.9089H65.6364C66.8419 42.9089 67.9981 43.3878 68.8505 44.2403C69.7029 45.0927 70.1818 46.2489 70.1818 47.4544V88.3635C70.1818 91.9801 68.7451 95.4485 66.1878 98.0059C63.6305 100.563 60.162 102 56.5455 102H15.6364C12.0198 102 8.55131 100.563 5.994 98.0059C3.43668 95.4485 2 91.9801 2 88.3635V47.4544C2 46.2489 2.47889 45.0927 3.33133 44.2403C4.18377 43.3878 5.33993 42.9089 6.54545 42.9089V42.9089Z" stroke="white" stroke-width="4" stroke-linecap="round" stroke-linejoin="round"/>
</svg>
