<svg width="106" height="116" viewBox="0 0 106 116" fill="none" >
<path d="M103.431 63.2951C103.431 73.3104 100.456 83.1007 94.8836 91.4281C89.3109 99.7555 81.3903 106.246 72.1232 110.079C62.8562 113.911 52.6591 114.914 42.8213 112.96C32.9835 111.006 23.9469 106.184 16.8542 99.1017C9.76153 92.0198 4.93137 82.9969 2.9745 73.1741C1.01764 63.3512 2.02197 53.1696 5.86049 43.9167C9.69901 34.6638 16.1993 26.7552 24.5394 21.191C32.8795 15.6268 42.6848 12.657 52.7153 12.657C66.1659 12.657 79.0655 17.9921 88.5765 27.4886C98.0875 36.985 103.431 49.8651 103.431 63.2951V63.2951Z" stroke="white" stroke-width="4" stroke-miterlimit="10"/>
<path d="M26.0234 63.2988H52.7157V31.2402" stroke="white" stroke-width="4" stroke-miterlimit="10" stroke-linecap="round"/>
<path d="M39.3691 2H66.0581" stroke="white" stroke-width="4" stroke-linecap="round" stroke-linejoin="round"/>
</svg>
