<svg width="113" height="108" viewBox="0 0 113 108" fill="none" >
<path d="M2 46.3101V73.3801" stroke="white" stroke-width="4" stroke-linecap="round" stroke-linejoin="round"/>
<path d="M110.31 46.3101V73.3801" stroke="white" stroke-width="4" stroke-linecap="round" stroke-linejoin="round"/>
<path d="M11.8398 63.16V45.25C11.8398 21.37 31.6798 2 56.1498 2C80.6198 2 100.46 21.37 100.46 45.25V54.76" stroke="white" stroke-width="4" stroke-linecap="round" stroke-linejoin="round"/>
<path d="M65.6396 100.09H75.0996C75.0996 100.09 99.1696 98.5198 100.46 76.0898V72.3198" stroke="white" stroke-width="4" stroke-linecap="round" stroke-linejoin="round"/>
<path d="M48.8001 95.54H59.9201C60.4539 95.5399 60.9823 95.6466 61.4743 95.8538C61.9662 96.061 62.4117 96.3647 62.7845 96.7467C63.1572 97.1288 63.4498 97.5817 63.6448 98.0786C63.8398 98.5755 63.9334 99.1064 63.9201 99.64V101.29C63.9334 101.824 63.8398 102.355 63.6448 102.852C63.4498 103.348 63.1572 103.801 62.7845 104.183C62.4117 104.565 61.9662 104.869 61.4743 105.076C60.9823 105.284 60.4539 105.39 59.9201 105.39H48.8001C48.2663 105.39 47.7378 105.284 47.2459 105.076C46.7539 104.869 46.3085 104.565 45.9357 104.183C45.5629 103.801 45.2704 103.348 45.0754 102.852C44.8803 102.355 44.7867 101.824 44.8001 101.29V99.62C44.7894 99.0881 44.885 98.5593 45.0813 98.0647C45.2775 97.5702 45.5705 97.1197 45.943 96.7398C46.3155 96.3598 46.76 96.058 47.2506 95.852C47.7412 95.646 48.268 95.5399 48.8001 95.54V95.54Z" stroke="white" stroke-width="4" stroke-linecap="round" stroke-linejoin="round"/>
</svg>
