<svg width="111" height="114" viewBox="0 0 111 114" fill="none" >
<path d="M92.9887 59.4178L64.8387 7.80776C63.8818 6.05042 62.469 4.58353 60.7488 3.56147C59.0285 2.53942 57.0646 2 55.0637 2C53.0627 2 51.0988 2.53942 49.3786 3.56147C47.6584 4.58353 46.2455 6.05042 45.2887 7.80776L37.1387 22.8078" stroke="white" stroke-width="4" stroke-linecap="round" stroke-linejoin="round"/>
<path d="M39.8887 101.138H96.9887C98.9206 101.138 100.819 100.635 102.498 99.6789C104.177 98.723 105.579 97.3469 106.565 95.6858C107.551 94.0246 108.089 92.1355 108.125 90.2038C108.16 88.2722 107.693 86.3645 106.769 84.668L98.0487 68.668" stroke="white" stroke-width="4" stroke-linecap="round" stroke-linejoin="round"/>
<path d="M31.6178 32.8677L3.35784 84.6677C2.43348 86.3642 1.9662 88.2719 2.0019 90.2035C2.0376 92.1352 2.57504 94.0243 3.56146 95.6855C4.54787 97.3467 5.94935 98.7227 7.62828 99.6786C9.30721 100.634 11.2059 101.137 13.1378 101.138H27.2478" stroke="white" stroke-width="4" stroke-linecap="round" stroke-linejoin="round"/>
<path d="M47.4782 111.258L37.3682 101.148L47.4782 91.0278" stroke="white" stroke-width="4" stroke-linecap="round" stroke-linejoin="round"/>
<path d="M97.4487 46.9678L93.7487 60.7878L79.9287 57.0878" stroke="white" stroke-width="4" stroke-linecap="round" stroke-linejoin="round"/>
<path d="M18.9688 34.388L32.7788 30.688L36.4788 44.498" stroke="white" stroke-width="4" stroke-linecap="round" stroke-linejoin="round"/>
</svg>
