<svg width="111" height="111" viewBox="0 0 111 111" fill="none" >
<path d="M55.4992 70.4803C62.5905 70.4803 68.3392 64.7316 68.3392 57.6403C68.3392 50.549 62.5905 44.8003 55.4992 44.8003C48.4078 44.8003 42.6592 50.549 42.6592 57.6403C42.6592 64.7316 48.4078 70.4803 55.4992 70.4803Z" stroke="black" stroke-width="4" stroke-linecap="round" stroke-linejoin="round"/>
<path d="M27.6797 44.8003H36.2397" stroke="black" stroke-width="4" stroke-linecap="round" stroke-linejoin="round"/>
<path d="M68.3391 36.2402L64.0591 27.6802H46.9391L42.6591 36.2402H21.2591C20.695 36.2511 20.157 36.4801 19.7581 36.8791C19.3591 37.2781 19.1301 37.816 19.1191 38.3802V76.9002C19.1301 77.4643 19.3591 78.0023 19.7581 78.4013C20.157 78.8002 20.695 79.0292 21.2591 79.0402H89.7391C90.3033 79.0292 90.8413 78.8002 91.2402 78.4013C91.6392 78.0023 91.8682 77.4643 91.8791 76.9002V38.3802C91.8682 37.816 91.6392 37.2781 91.2402 36.8791C90.8413 36.4801 90.3033 36.2511 89.7391 36.2402H68.3391Z" stroke="black" stroke-width="4" stroke-linecap="round" stroke-linejoin="round"/>
<path d="M55.5 109C85.0472 109 109 85.0472 109 55.5C109 25.9528 85.0472 2 55.5 2C25.9528 2 2 25.9528 2 55.5C2 85.0472 25.9528 109 55.5 109Z" stroke="black" stroke-width="4" stroke-linecap="round" stroke-linejoin="round"/>
<path d="M16.9795 16.98L94.0195 94.02" stroke="black" stroke-width="4" stroke-linejoin="round"/>
</svg>
