<svg width="86" height="111" viewBox="0 0 86 111" fill="none" >
<path d="M60.5604 10.1802H25.1304C24.7724 10.1789 24.4176 10.2483 24.0864 10.3844C23.7553 10.5205 23.4542 10.7206 23.2006 10.9733C22.947 11.226 22.7457 11.5263 22.6084 11.857C22.4711 12.1876 22.4004 12.5422 22.4004 12.9002V21.0802C22.4004 21.8042 22.688 22.4986 23.2 23.0106C23.712 23.5226 24.4063 23.8102 25.1304 23.8102H60.5604C61.2844 23.8102 61.9788 23.5226 62.4908 23.0106C63.0028 22.4986 63.2904 21.8042 63.2904 21.0802V12.9002C63.2904 12.5422 63.2197 12.1876 63.0824 11.857C62.9451 11.5263 62.7438 11.226 62.4902 10.9733C62.2366 10.7206 61.9355 10.5205 61.6044 10.3844C61.2732 10.2483 60.9184 10.1789 60.5604 10.1802Z" stroke="black" stroke-width="4" stroke-linecap="round" stroke-linejoin="round"/>
<path d="M30.5801 10.18C31.5801 5.11999 37.0001 2 42.3101 2C47.6201 2 54.0901 5.11999 55.1101 10.18" stroke="black" stroke-width="4" stroke-linecap="round" stroke-linejoin="round"/>
<path d="M63.8077 14.3599H78.4362C79.9118 14.3599 81.327 14.8867 82.3704 15.8243C83.4138 16.762 84 18.0338 84 19.3599V103.3C84 104.626 83.4138 105.898 82.3704 106.835C81.327 107.773 79.9118 108.3 78.4362 108.3H7.56385C6.08822 108.3 4.67304 107.773 3.62961 106.835C2.58619 105.898 2 104.626 2 103.3V19.3699C2 18.0438 2.58619 16.772 3.62961 15.8344C4.67304 14.8967 6.08822 14.3699 7.56385 14.3699H21.9794" stroke="black" stroke-width="4" stroke-linecap="round" stroke-linejoin="round"/>
<path d="M68.2904 42.8901H17.4004" stroke="black" stroke-width="4" stroke-miterlimit="10" stroke-linecap="round"/>
<path d="M68.2904 86.5H17.4004" stroke="black" stroke-width="4" stroke-miterlimit="10" stroke-linecap="round"/>
<path d="M68.2904 64.6899H17.4004" stroke="black" stroke-width="4" stroke-miterlimit="10" stroke-linecap="round"/>
</svg>
