<svg width="53" height="97" viewBox="0 0 53 97" fill="none" >
<path d="M26.2637 94.969V78.4692" stroke="white" stroke-width="4" stroke-linejoin="round"/>
<path d="M35.5648 94.9692H16.9629" stroke="white" stroke-width="4" stroke-linecap="round" stroke-linejoin="round"/>
<path d="M2.08087 44.7441V52.3062C1.80732 55.6482 2.22951 59.0106 3.32065 62.1812C4.41179 65.3519 6.14819 68.2619 8.42045 70.7278C10.6927 73.1936 13.4514 75.1617 16.5224 76.5079C19.5935 77.8541 22.9103 78.5491 26.2634 78.5491C29.6166 78.5491 32.9333 77.8541 36.0043 76.5079C39.0754 75.1617 41.8341 73.1936 44.1063 70.7278C46.3786 68.2619 48.1151 65.3519 49.2062 62.1812C50.2974 59.0106 50.7194 55.6482 50.4459 52.3062V44.7644" stroke="white" stroke-width="4" stroke-linecap="round" stroke-linejoin="round"/>
<path d="M26.324 2C30.6141 2 34.7284 3.70421 37.7619 6.73772C40.7954 9.77124 42.4996 13.8856 42.4996 18.1756V52.5488C42.4996 56.8388 40.7954 60.9531 37.7619 63.9866C34.7284 67.0201 30.6141 68.7244 26.324 68.7244V68.7244C22.034 68.7244 17.9197 67.0201 14.8862 63.9866C11.8526 60.9531 10.1484 56.8388 10.1484 52.5488V18.1756C10.1484 13.8856 11.8526 9.77124 14.8862 6.73772C17.9197 3.70421 22.034 2 26.324 2V2Z" stroke="white" stroke-width="4" stroke-linecap="round" stroke-linejoin="round"/>
</svg>
