<svg width="109" height="94" viewBox="0 0 109 94" fill="none" >
<path d="M33.501 62.4051C36.4505 59.3983 40.0025 57.0586 43.9205 55.5421C47.8384 54.0255 52.0324 53.3668 56.223 53.6098" stroke="black" stroke-width="4" stroke-linecap="round" stroke-linejoin="round"/>
<path d="M56.2236 30.0571C69.6486 30.4996 82.407 36.0532 91.9236 45.597" stroke="black" stroke-width="4" stroke-linecap="round" stroke-linejoin="round"/>
<path d="M17.0156 45.7029C22.4524 40.1783 29.0356 35.933 36.2936 33.271" stroke="black" stroke-width="4" stroke-linecap="round" stroke-linejoin="round"/>
<path d="M38.0566 10.5206C50.2986 7.75355 63.0364 8.14373 75.0886 11.655C87.1408 15.1662 98.1171 21.6848 107 30.6062" stroke="black" stroke-width="4" stroke-linecap="round" stroke-linejoin="round"/>
<path d="M2 30.585C7.24027 25.2543 13.2599 20.7623 19.85 17.2651" stroke="black" stroke-width="4" stroke-linecap="round" stroke-linejoin="round"/>
<path d="M60.5059 89.4889C59.325 90.6557 57.8281 91.4453 56.203 91.7587C54.578 92.0721 52.8972 91.8954 51.3715 91.2506C49.8459 90.6059 48.5433 89.5219 47.6273 88.1346C46.7113 86.7473 46.2227 85.1185 46.2227 83.4527C46.2227 81.7868 46.7113 80.1581 47.6273 78.7708C48.5433 77.3835 49.8459 76.2995 51.3715 75.6547C52.8972 75.01 54.578 74.8332 56.203 75.1466C57.8281 75.46 59.325 76.2497 60.5059 77.4165C61.3028 78.2037 61.9358 79.143 62.3679 80.1795C62.8 81.2159 63.0226 82.3286 63.0226 83.4527C63.0226 84.5767 62.8 85.6895 62.3679 86.7259C61.9358 87.7623 61.3028 88.7016 60.5059 89.4889V89.4889Z" stroke="black" stroke-width="4" stroke-linecap="round" stroke-linejoin="round"/>
<path d="M16.6582 2L92.2581 78.1135" stroke="black" stroke-width="4" stroke-miterlimit="10" stroke-linecap="round"/>
</svg>
