<svg width="74" height="102" viewBox="0 0 74 102" fill="none" >
<path d="M62.7581 39.3333H11.4248V27.6667C11.4248 13.6667 20.7581 2 32.4248 2H41.7581C53.3315 2 62.7581 13.6667 62.7581 27.6667V39.3333Z" stroke="white" stroke-width="4"/>
<path d="M37.0908 67.3333C40.9568 67.3333 44.0908 64.1992 44.0908 60.3333C44.0908 56.4673 40.9568 53.3333 37.0908 53.3333C33.2248 53.3333 30.0908 56.4673 30.0908 60.3333C30.0908 64.1992 33.2248 67.3333 37.0908 67.3333Z" stroke="white" stroke-width="4"/>
<path d="M6.66667 39.3333H67.3333C68.571 39.3333 69.758 39.8249 70.6332 40.7001C71.5083 41.5753 72 42.7622 72 43.9999V85.9999C72 89.713 70.525 93.2739 67.8995 95.8994C65.274 98.5249 61.713 99.9999 58 99.9999H16C12.287 99.9999 8.72601 98.5249 6.1005 95.8994C3.475 93.2739 2 89.713 2 85.9999V43.9999C2 42.7622 2.49167 41.5753 3.36683 40.7001C4.242 39.8249 5.42899 39.3333 6.66667 39.3333V39.3333Z" stroke="white" stroke-width="4" stroke-linecap="round" stroke-linejoin="round"/>
</svg>
