<svg width="109" height="116" viewBox="0 0 109 116" fill="none" >
<path d="M44.218 12.9597L3.348 89.4997C2.41723 91.2441 1.95406 93.1999 2.00359 95.1765C2.05313 97.1531 2.61369 99.0833 3.63068 100.779C4.64767 102.475 6.08643 103.878 7.80686 104.852C9.52729 105.827 11.4708 106.339 13.448 106.34H94.608C96.5852 106.339 98.5287 105.827 100.249 104.852C101.97 103.878 103.408 102.475 104.425 100.779C105.442 99.0833 106.003 97.1531 106.052 95.1765C106.102 93.1999 105.639 91.2441 104.708 89.4997L63.838 12.9697C62.8471 11.2472 61.417 9.81853 59.6936 8.82943C57.9701 7.84033 56.0151 7.32625 54.028 7.33965C52.0389 7.30949 50.0784 7.81541 48.3523 8.80428C46.6261 9.79315 45.1981 11.2285 44.218 12.9597V12.9597Z" stroke="white" stroke-width="4" stroke-miterlimit="10"/>
<path d="M59.0786 89.7289C59.0786 87.4968 58.0157 86.4339 56.1024 86.4339H51.9571C49.9376 86.4339 48.8747 87.4968 48.8747 89.7289V92.5987C48.8747 94.9371 49.9376 96 51.9571 96H56.1024C58.0157 96 59.0786 94.9371 59.0786 92.5987V89.7289ZM59.2911 24.5731V24.148C59.2911 22.0222 58.2282 21.0655 56.2087 21.0655H51.8508C49.9376 21.0655 48.7684 22.0222 48.7684 24.148V24.5731L49.9376 72.0847C50.0439 74.4231 51.0005 75.5923 53.02 75.5923H55.2521C57.1653 75.5923 58.0157 74.4231 58.1219 72.0847L59.2911 24.5731Z" fill="white"/>
</svg>
