<svg width="73" height="104" viewBox="0 0 73 104" fill="none" >
<path d="M11.1797 42.9091V27C11.1797 13.3636 20.2706 2 31.6342 2H40.7251C51.9979 2 61.1797 13.3636 61.1797 27" stroke="black" stroke-width="4" stroke-linecap="round" stroke-linejoin="round"/>
<path d="M36.1795 70.1823C39.9451 70.1823 42.9977 67.1297 42.9977 63.3641C42.9977 59.5985 39.9451 56.5459 36.1795 56.5459C32.4139 56.5459 29.3613 59.5985 29.3613 63.3641C29.3613 67.1297 32.4139 70.1823 36.1795 70.1823Z" stroke="black" stroke-width="4"/>
<path d="M36.1797 70.1816V83.818" stroke="black" stroke-width="4" stroke-linecap="round"/>
<path d="M6.54545 42.9092H65.6364C66.8419 42.9092 67.9981 43.3881 68.8505 44.2405C69.7029 45.093 70.1818 46.2491 70.1818 47.4546V88.3637C70.1818 91.9803 68.7451 95.4488 66.1878 98.0061C63.6305 100.563 60.162 102 56.5455 102H15.6364C12.0198 102 8.55131 100.563 5.994 98.0061C3.43668 95.4488 2 91.9803 2 88.3637V47.4546C2 46.2491 2.47889 45.093 3.33133 44.2405C4.18377 43.3881 5.33993 42.9092 6.54545 42.9092V42.9092Z" stroke="black" stroke-width="4" stroke-linecap="round" stroke-linejoin="round"/>
</svg>
