<svg width="74" height="102" viewBox="0 0 74 102" fill="none" >
<path d="M62.7581 39.3333H11.4248V27.6667C11.4248 13.6667 20.7581 2 32.4248 2H41.7581C53.3315 2 62.7581 13.6667 62.7581 27.6667V39.3333Z" stroke="black" stroke-width="4"/>
<path d="M37.0908 67.333C40.9568 67.333 44.0908 64.199 44.0908 60.333C44.0908 56.467 40.9568 53.333 37.0908 53.333C33.2248 53.333 30.0908 56.467 30.0908 60.333C30.0908 64.199 33.2248 67.333 37.0908 67.333Z" stroke="black" stroke-width="4"/>
<path d="M6.66667 39.3335H67.3333C68.571 39.3335 69.758 39.8252 70.6332 40.7003C71.5083 41.5755 72 42.7625 72 44.0002V86.0002C72 89.7132 70.525 93.2742 67.8995 95.8997C65.274 98.5252 61.713 100 58 100H16C12.287 100 8.72601 98.5252 6.1005 95.8997C3.475 93.2742 2 89.7132 2 86.0002V44.0002C2 42.7625 2.49167 41.5755 3.36683 40.7003C4.242 39.8252 5.42899 39.3335 6.66667 39.3335V39.3335Z" stroke="black" stroke-width="4" stroke-linecap="round" stroke-linejoin="round"/>
</svg>
