<svg width="86" height="111" viewBox="0 0 86 111" fill="none" >
<path d="M60.5604 10.18H25.1304C24.7724 10.1786 24.4176 10.248 24.0864 10.3841C23.7553 10.5202 23.4542 10.7204 23.2006 10.9731C22.947 11.2258 22.7457 11.5261 22.6084 11.8567C22.4711 12.1874 22.4004 12.5419 22.4004 12.9V21.0799C22.4004 21.804 22.688 22.4984 23.2 23.0104C23.712 23.5223 24.4063 23.81 25.1304 23.81H60.5604C61.2844 23.81 61.9788 23.5223 62.4908 23.0104C63.0028 22.4984 63.2904 21.804 63.2904 21.0799V12.9C63.2904 12.5419 63.2197 12.1874 63.0824 11.8567C62.9451 11.5261 62.7438 11.2258 62.4902 10.9731C62.2366 10.7204 61.9355 10.5202 61.6044 10.3841C61.2732 10.248 60.9184 10.1786 60.5604 10.18Z" stroke="white" stroke-width="4" stroke-linecap="round" stroke-linejoin="round"/>
<path d="M30.5801 10.18C31.5801 5.11999 37.0001 2 42.3101 2C47.6201 2 54.0901 5.11999 55.1101 10.18" stroke="white" stroke-width="4" stroke-linecap="round" stroke-linejoin="round"/>
<path d="M63.8077 14.3599H78.4362C79.9118 14.3599 81.327 14.8867 82.3704 15.8243C83.4138 16.762 84 18.0338 84 19.3599V103.3C84 104.626 83.4138 105.898 82.3704 106.835C81.327 107.773 79.9118 108.3 78.4362 108.3H7.56385C6.08822 108.3 4.67304 107.773 3.62961 106.835C2.58619 105.898 2 104.626 2 103.3V19.3699C2 18.0438 2.58619 16.772 3.62961 15.8344C4.67304 14.8967 6.08822 14.3699 7.56385 14.3699H21.9794" stroke="white" stroke-width="4" stroke-linecap="round" stroke-linejoin="round"/>
<path d="M68.2904 42.8901H17.4004" stroke="white" stroke-width="4" stroke-miterlimit="10" stroke-linecap="round"/>
<path d="M68.2904 86.5H17.4004" stroke="white" stroke-width="4" stroke-miterlimit="10" stroke-linecap="round"/>
<path d="M68.2904 64.6899H17.4004" stroke="white" stroke-width="4" stroke-miterlimit="10" stroke-linecap="round"/>
</svg>
