<svg width="102" height="102" viewBox="0 0 102 102" fill="none" >
<path d="M25.21 22.6316H99.9994L93.3973 53.579C93.1698 55.0637 92.4012 56.4118 91.2396 57.3639C90.0779 58.3161 88.6052 58.8051 87.1047 58.7369H30.3679" stroke="white" stroke-width="4" stroke-linecap="round" stroke-linejoin="round"/>
<path d="M2 2H16.5453C18.2125 2.01297 19.818 2.63271 21.0615 3.74335C22.3051 4.854 23.1016 6.37953 23.3021 8.03474L29.6979 68.0211C29.877 69.7263 30.6835 71.304 31.9608 72.4478C33.2381 73.5917 34.8949 74.2199 36.6095 74.2105H84.5263" stroke="white" stroke-width="4" stroke-linecap="round" stroke-linejoin="round"/>
<path d="M38.106 99.9998C42.3789 99.9998 45.8428 96.5359 45.8428 92.263C45.8428 87.99 42.3789 84.5261 38.106 84.5261C33.833 84.5261 30.3691 87.99 30.3691 92.263C30.3691 96.5359 33.833 99.9998 38.106 99.9998Z" stroke="white" stroke-width="4" stroke-linecap="round" stroke-linejoin="round"/>
<path d="M76.7896 99.9998C81.0625 99.9998 84.5264 96.5359 84.5264 92.263C84.5264 87.99 81.0625 84.5261 76.7896 84.5261C72.5166 84.5261 69.0527 87.99 69.0527 92.263C69.0527 96.5359 72.5166 99.9998 76.7896 99.9998Z" stroke="white" stroke-width="4" stroke-linecap="round" stroke-linejoin="round"/>
</svg>
