<svg width="113" height="113" viewBox="0 0 113 113" fill="none" >
<path d="M67.8198 87.2229C60.8103 87.0318 56.9359 86.9362 56.1967 86.9362C55.4575 86.9362 51.564 87.0318 44.5163 87.2229V83.629H45.6059C48.6551 83.629 50.1844 82.1952 50.1844 79.3468V54.0551C50.1844 51.6559 49.1712 50.4515 47.164 50.4515C46.1107 50.5391 45.0764 50.784 44.0957 51.178V47.3546C46.7653 46.8258 49.3991 46.1299 51.9814 45.2709C55.4694 44.1969 58.8748 42.8712 62.1708 41.3041V79.3468C62.1708 82.2143 63.7001 83.629 66.7493 83.629H67.8198V87.2229ZM63.0406 26.3738C63.0584 27.3338 62.8775 28.2871 62.509 29.1738C62.1405 30.0604 61.5925 30.8612 60.8995 31.5258C60.2223 32.2069 59.4141 32.7436 58.5237 33.1034C57.6332 33.4632 56.679 33.6386 55.7188 33.6191C54.7658 33.6377 53.8191 33.4616 52.9365 33.1017C52.0539 32.7417 51.2541 32.2055 50.5859 31.5258C49.2265 30.1654 48.4629 28.3209 48.4629 26.3977C48.4629 24.4745 49.2265 22.63 50.5859 21.2696C51.2541 20.5899 52.0539 20.0536 52.9365 19.6937C53.8191 19.3338 54.7658 19.1577 55.7188 19.1763C56.679 19.1568 57.6332 19.3322 58.5237 19.692C59.4141 20.0518 60.2223 20.5885 60.8995 21.2696C61.5897 21.9268 62.1369 22.7192 62.5069 23.5975C62.877 24.4757 63.0619 25.4208 63.0501 26.3738H63.0406Z" fill="white"/>
<path d="M56.12 110.24C86.0097 110.24 110.24 86.0097 110.24 56.12C110.24 26.2303 86.0097 2 56.12 2C26.2303 2 2 26.2303 2 56.12C2 86.0097 26.2303 110.24 56.12 110.24Z" stroke="white" stroke-width="4" stroke-miterlimit="10" stroke-linecap="round"/>
</svg>
