<svg width="99" height="100" viewBox="0 0 99 100" fill="none" >
<path d="M91.8592 90.0868C78.0526 103.84 48.3072 96.4836 25.4384 73.5616C2.56965 50.6395 -4.84004 20.9474 8.91321 7.14079L10.8323 5.27504L12.3249 3.72913C12.8698 3.18114 13.5177 2.74626 14.2312 2.44951C14.9448 2.15276 15.71 2 16.4828 2C17.2557 2 18.0208 2.15276 18.7344 2.44951C19.448 2.74626 20.0959 3.18114 20.6408 3.72913L38.7119 21.8003C39.2599 22.3452 39.6948 22.9931 39.9916 23.7066C40.2883 24.4202 40.4411 25.1854 40.4411 25.9582C40.4411 26.731 40.2883 27.4962 39.9916 28.2098C39.6948 28.9234 39.2599 29.5713 38.7119 30.1162L31.5688 37.3127L30.1295 38.6987C33.3855 45.1722 37.6905 51.0623 42.8699 56.1301C49.2221 62.7986 57.0308 67.9071 65.6854 71.0561L67.3379 69.3503L72.6686 64.0196C73.2135 63.4716 73.8614 63.0367 74.575 62.7399C75.2886 62.4432 76.0538 62.2904 76.8266 62.2904C77.5994 62.2904 78.3646 62.4432 79.0782 62.7399C79.7917 63.0367 80.4396 63.4716 80.9845 64.0196L95.2709 78.3592C95.8189 78.9041 96.2537 79.552 96.5505 80.2656C96.8472 80.9791 97 81.7443 97 82.5172C97 83.29 96.8472 84.0552 96.5505 84.7687C96.2537 85.4823 95.8189 86.1302 95.2709 86.6751L93.7783 88.1677L91.8592 90.0868Z" stroke="white" stroke-width="4" stroke-linejoin="round"/>
</svg>
