<svg width="113" height="113" viewBox="0 0 113 113" fill="none" >
<path d="M25.1426 11.6826C35.4643 4.49658 47.9706 1.13876 60.5036 2.1885C73.0366 3.23824 84.81 8.62969 93.7926 17.4326" stroke="white" stroke-width="4" stroke-linecap="round" stroke-linejoin="round"/>
<path d="M11.6826 86.8624C4.49658 76.5407 1.13876 64.0344 2.1885 51.5014C3.23824 38.9684 8.62969 27.1949 17.4326 18.2124" stroke="white" stroke-width="4" stroke-linecap="round" stroke-linejoin="round"/>
<path d="M86.8629 100.322C76.887 107.269 64.8591 110.645 52.7256 109.907C40.5921 109.168 29.0627 104.357 20.0029 96.2524" stroke="white" stroke-width="4" stroke-linecap="round" stroke-linejoin="round"/>
<path d="M100.323 25.1426C107.269 35.1186 110.646 47.1464 109.907 59.2799C109.169 71.4134 104.358 82.9428 96.2529 92.0026" stroke="white" stroke-width="4" stroke-linecap="round" stroke-linejoin="round"/>
<path d="M107.433 94.5722H94.5732V81.7122" stroke="white" stroke-width="4" stroke-linecap="round" stroke-linejoin="round"/>
<path d="M94.5729 4.57227V17.4323H81.7129" stroke="white" stroke-width="4" stroke-linecap="round" stroke-linejoin="round"/>
<path d="M4.57324 17.4324H17.4332V30.2924" stroke="white" stroke-width="4" stroke-linecap="round" stroke-linejoin="round"/>
<path d="M17.4336 107.432V94.5723H30.2936" stroke="white" stroke-width="4" stroke-linecap="round" stroke-linejoin="round"/>
</svg>
