<svg width="125" height="78" viewBox="0 0 125 78" fill="none" >
<path d="M62.03 62.0298C75.0032 62.0298 85.52 51.513 85.52 38.5398C85.52 25.5666 75.0032 15.0498 62.03 15.0498C49.0569 15.0498 38.54 25.5666 38.54 38.5398C38.54 51.513 49.0569 62.0298 62.03 62.0298Z" stroke="white" stroke-width="4" stroke-linecap="round" stroke-linejoin="round"/>
<path d="M122.18 38.54C122.18 38.54 95.96 75.08 62.03 75.08C28.1 75.08 2 38.54 2 38.54C2 38.54 28.1 2 62 2C95.9 2 122.18 38.54 122.18 38.54Z" stroke="white" stroke-width="4" stroke-linecap="round" stroke-linejoin="round"/>
<path d="M62.0298 48.9801C67.7957 48.9801 72.4698 44.306 72.4698 38.5401C72.4698 32.7742 67.7957 28.1001 62.0298 28.1001C56.264 28.1001 51.5898 32.7742 51.5898 38.5401C51.5898 44.306 56.264 48.9801 62.0298 48.9801Z" stroke="white" stroke-width="4" stroke-linecap="round" stroke-linejoin="round"/>
</svg>
