<svg width="118" height="109" viewBox="0 0 118 109" fill="none" >
<path d="M109.11 42.9771C106.607 31.7468 100.476 21.6534 91.6625 14.2565C82.8494 6.8596 71.8456 2.57089 60.3515 2.05308C48.8573 1.53528 37.5125 4.81719 28.07 11.3917C18.6276 17.9662 11.6131 27.4674 8.11035 38.4271" stroke="white" stroke-width="4" stroke-linecap="round" stroke-linejoin="round"/>
<path d="M6.08008 61.1772C7.65379 73.1862 13.3413 84.2785 22.1741 92.5653C31.0069 100.852 42.4391 105.821 54.5239 106.627C66.6087 107.432 78.5991 104.024 88.4534 96.9822C98.3078 89.9407 105.417 79.7012 108.57 68.0072" stroke="white" stroke-width="4" stroke-linecap="round" stroke-linejoin="round"/>
<path d="M20.59 38.5071L7.23 41.6771C6.78978 41.7825 6.32573 41.7091 5.93958 41.4729C5.55343 41.2367 5.27668 40.857 5.17 40.4171L2 27.0571" stroke="white" stroke-width="4" stroke-miterlimit="10" stroke-linecap="round"/>
<path d="M115.73 79.3774L110.89 66.5274C110.731 66.1033 110.41 65.7597 109.997 65.5722C109.585 65.3847 109.115 65.3686 108.69 65.5274L95.8604 70.3774" stroke="white" stroke-width="4" stroke-miterlimit="10" stroke-linecap="round"/>
<path d="M47.0801 54.2975C47.0821 51.8909 47.7975 49.5389 49.136 47.5389C50.4744 45.5389 52.3758 43.9806 54.5998 43.061C56.8237 42.1414 59.2704 41.9018 61.6305 42.3725C63.9905 42.8432 66.1581 44.0031 67.8591 45.7055C69.5601 47.4079 70.7182 49.5764 71.187 51.9369C71.6557 54.2974 71.4142 56.7438 70.4927 58.967C69.5713 61.1902 68.0115 63.0903 66.0103 64.4271C64.0092 65.764 61.6567 66.4775 59.2501 66.4775C57.6511 66.4775 56.0677 66.1623 54.5905 65.5501C53.1133 64.9379 51.7713 64.0406 50.6411 62.9094C49.5108 61.7783 48.6146 60.4355 48.0036 58.9578C47.3926 57.4801 47.0788 55.8965 47.0801 54.2975V54.2975Z" stroke="white" stroke-width="4" stroke-linejoin="round"/>
<path d="M61.8003 86.5174H56.7303C55.1603 86.5174 54.1603 85.2474 53.8803 83.6674L52.9303 78.2574C50.7782 77.683 48.713 76.822 46.7903 75.6974L42.2403 78.9174C41.6655 79.3198 40.9743 79.5221 40.2732 79.4932C39.5722 79.4643 38.9 79.2058 38.3603 78.7574L34.7303 75.1974C34.2383 74.6474 33.9663 73.9353 33.9663 73.1974C33.9663 72.4595 34.2383 71.7474 34.7303 71.1974L37.8903 66.7574C36.776 64.8533 35.9312 62.8037 35.3803 60.6674L29.7303 59.6774C29.0178 59.6069 28.3539 59.2839 27.8588 58.7667C27.3636 58.2495 27.0698 57.5723 27.0303 56.8574V51.7574C27.0303 50.1874 28.2803 49.2074 29.8803 48.9174L35.4103 47.9774C35.9792 45.8756 36.8231 43.8582 37.9203 41.9774L34.6303 37.2974C34.1846 36.7437 33.95 36.0496 33.9683 35.3391C33.9866 34.6285 34.2566 33.9474 34.7303 33.4174L38.3403 29.8074C38.8979 29.3313 39.6071 29.0697 40.3403 29.0697C41.0735 29.0697 41.7827 29.3313 42.3403 29.8074L46.8303 32.9774C48.7085 31.8751 50.7266 31.0309 52.8303 30.4674L53.8303 24.7474C53.912 24.029 54.2504 23.3642 54.7832 22.8755C55.316 22.3867 56.0075 22.1069 56.7303 22.0874H61.8303C62.5728 22.1236 63.2754 22.4341 63.8019 22.9588C64.3285 23.4835 64.6415 24.185 64.6803 24.9274L65.6103 30.4274C67.7409 30.9907 69.7884 31.8313 71.7003 32.9274L76.2903 29.6874C76.8588 29.2746 77.5485 29.0623 78.2508 29.0841C78.9531 29.1058 79.6283 29.3602 80.1703 29.8074L83.7303 33.4174C84.2222 33.9674 84.4942 34.6795 84.4942 35.4174C84.4942 36.1553 84.2222 36.8674 83.7303 37.4174L80.6303 41.8274C81.7523 43.7443 82.6133 45.8025 83.1903 47.9474L88.8203 48.9474C89.5222 49.0287 90.1729 49.3551 90.6576 49.8692C91.1424 50.3833 91.4302 51.0519 91.4703 51.7574V56.8574C91.4703 58.4174 90.1903 59.3974 88.6203 59.6974L83.2403 60.6274C82.685 62.7749 81.8406 64.8371 80.7303 66.7574L83.9103 71.2774C84.3533 71.8427 84.5788 72.5483 84.5458 73.2658C84.5127 73.9833 84.2234 74.6651 83.7303 75.1874L80.1403 78.7574C79.5818 79.2316 78.8729 79.492 78.1403 79.492C77.4076 79.492 76.6988 79.2316 76.1403 78.7574L71.7303 75.7574C69.8016 76.8891 67.7251 77.7473 65.5603 78.3074L64.6303 83.8574C64.5506 84.5643 64.2222 85.2199 63.7038 85.7072C63.1854 86.1944 62.5108 86.4816 61.8003 86.5174V86.5174Z" stroke="white" stroke-width="4" stroke-linejoin="round"/>
</svg>
