<svg width="118" height="109" viewBox="0 0 118 109" fill="none" >
<path d="M109.01 42.9058C106.502 31.6933 100.373 21.618 91.5699 14.2347C82.7665 6.85148 71.7779 2.57074 60.3 2.05315C48.822 1.53556 37.4927 4.80989 28.0606 11.3708C18.6284 17.9318 11.6177 27.4146 8.11035 38.3558" stroke="black" stroke-width="4" stroke-linecap="round" stroke-linejoin="round"/>
<path d="M6.08008 61.0854C7.65393 73.0817 13.3368 84.1617 22.1612 92.4391C30.9856 100.717 42.406 105.68 54.4783 106.484C66.5506 107.288 78.5284 103.883 88.3727 96.8493C98.2169 89.8154 105.319 79.587 108.47 67.9054" stroke="black" stroke-width="4" stroke-linecap="round" stroke-linejoin="round"/>
<path d="M20.57 38.4456L7.22 41.6056C6.99999 41.6557 6.77223 41.6618 6.54985 41.6235C6.32748 41.5852 6.11488 41.5033 5.92432 41.3825C5.73375 41.2616 5.56899 41.1042 5.43953 40.9194C5.31007 40.7346 5.21846 40.526 5.17 40.3056L2 26.9956" stroke="black" stroke-width="4" stroke-miterlimit="10" stroke-linecap="round"/>
<path d="M115.64 79.3056L110.82 66.4356C110.661 66.0115 110.34 65.6679 109.927 65.4804C109.515 65.2929 109.045 65.2768 108.62 65.4356L95.8203 70.3056" stroke="black" stroke-width="4" stroke-miterlimit="10" stroke-linecap="round"/>
</svg>
