<svg width="119" height="103" viewBox="0 0 119 103" fill="none" >
<path d="M7.47222 75.875H34.8333L62.1944 100.5V2L34.8333 26.625H7.47222C6.0209 26.625 4.62902 27.2015 3.60278 28.2278C2.57654 29.254 2 30.6459 2 32.0972V70.4028C2 71.8541 2.57654 73.246 3.60278 74.2722C4.62902 75.2985 6.0209 75.875 7.47222 75.875Z" stroke="white" stroke-width="4" stroke-linejoin="round"/>
<path d="M75.875 35.5442C78.4037 37.3092 80.4689 39.6588 81.8948 42.3931C83.3208 45.1274 84.0654 48.1657 84.0654 51.2495C84.0654 54.3333 83.3208 57.3715 81.8948 60.1058C80.4689 62.8401 78.4037 65.1897 75.875 66.9547" stroke="white" stroke-width="4" stroke-linecap="round" stroke-linejoin="round"/>
<path d="M81.3477 19.6753C87.116 22.6889 91.9486 27.2252 95.3208 32.7916C98.693 38.358 100.476 44.7418 100.476 51.25C100.476 57.7582 98.693 64.142 95.3208 69.7084C91.9486 75.2748 87.116 79.8111 81.3477 82.8247" stroke="white" stroke-width="4" stroke-linecap="round" stroke-linejoin="round"/>
<path d="M86.8193 4.07886C95.8187 8.24778 103.438 14.904 108.777 23.2621C114.117 31.6202 116.954 41.3313 116.954 51.2494C116.954 61.1675 114.117 70.8786 108.777 79.2367C103.438 87.5948 95.8187 94.251 86.8193 98.42" stroke="white" stroke-width="4" stroke-linecap="round" stroke-linejoin="round"/>
</svg>
