<svg width="111" height="111" viewBox="0 0 111 111" fill="none" >
<path d="M55.4992 70.48C62.5905 70.48 68.3392 64.7314 68.3392 57.64C68.3392 50.5487 62.5905 44.8 55.4992 44.8C48.4078 44.8 42.6592 50.5487 42.6592 57.64C42.6592 64.7314 48.4078 70.48 55.4992 70.48Z" stroke="white" stroke-width="4" stroke-linecap="round" stroke-linejoin="round"/>
<path d="M27.6797 44.8H36.2397" stroke="white" stroke-width="4" stroke-linecap="round" stroke-linejoin="round"/>
<path d="M68.3391 36.2399L64.0591 27.6799H46.9391L42.6591 36.2399H21.2591C20.695 36.2509 20.157 36.4799 19.7581 36.8788C19.3591 37.2778 19.1301 37.8158 19.1191 38.3799V76.8999C19.1301 77.4641 19.3591 78.002 19.7581 78.401C20.157 78.8 20.695 79.029 21.2591 79.0399H89.7391C90.3033 79.029 90.8413 78.8 91.2402 78.401C91.6392 78.002 91.8682 77.4641 91.8791 76.8999V38.3799C91.8682 37.8158 91.6392 37.2778 91.2402 36.8788C90.8413 36.4799 90.3033 36.2509 89.7391 36.2399H68.3391Z" stroke="white" stroke-width="4" stroke-linecap="round" stroke-linejoin="round"/>
<path d="M55.5 109C85.0472 109 109 85.0472 109 55.5C109 25.9528 85.0472 2 55.5 2C25.9528 2 2 25.9528 2 55.5C2 85.0472 25.9528 109 55.5 109Z" stroke="white" stroke-width="4" stroke-linecap="round" stroke-linejoin="round"/>
<path d="M16.9795 16.98L94.0195 94.02" stroke="white" stroke-width="4" stroke-linejoin="round"/>
</svg>
