<svg width="118" height="94" viewBox="0 0 118 94" fill="none" >
<path d="M114.89 53.6479L58.7998 58.8279" stroke="black" stroke-width="4" stroke-linecap="round" stroke-linejoin="round"/>
<path d="M54.05 58.7581C54.0539 57.8171 54.3367 56.8983 54.8626 56.118C55.3885 55.3376 56.1338 54.7306 57.0045 54.3737C57.8752 54.0168 58.8322 53.926 59.7545 54.1127C60.6768 54.2995 61.523 54.7554 62.1863 55.4229C62.8496 56.0903 63.3002 56.9395 63.4811 57.8629C63.662 58.7864 63.5652 59.7427 63.2028 60.6112C62.8404 61.4796 62.2288 62.2211 61.4451 62.7421C60.6615 63.263 59.741 63.54 58.8 63.5381C58.1733 63.5394 57.5526 63.4165 56.9737 63.1763C56.3948 62.9362 55.8693 62.5837 55.4276 62.1392C54.9858 61.6947 54.6366 61.1669 54.4002 60.5866C54.1637 60.0062 54.0447 59.3847 54.05 58.7581V58.7581Z" stroke="black" stroke-width="4" stroke-linecap="round" stroke-linejoin="round"/>
<path d="M4.34961 58.7681H15.1696" stroke="black" stroke-width="4" stroke-linecap="round" stroke-linejoin="round"/>
<path d="M104.63 90.8181L94.54 83.7681" stroke="black" stroke-width="4" stroke-linecap="round" stroke-linejoin="round"/>
<path d="M14.2002 89.9481L23.0602 83.7681" stroke="black" stroke-width="4" stroke-linecap="round" stroke-linejoin="round"/>
<path d="M58.7998 4.37793V15.1879" stroke="black" stroke-width="4" stroke-linecap="round" stroke-linejoin="round"/>
<path d="M97.3104 20.3081L89.6504 27.9481" stroke="black" stroke-width="4" stroke-linecap="round" stroke-linejoin="round"/>
<path d="M20.2998 20.3081L27.9598 27.9481" stroke="black" stroke-width="4" stroke-linecap="round" stroke-linejoin="round"/>
<path d="M113.31 58.7979H102.48" stroke="black" stroke-width="4" stroke-linecap="round" stroke-linejoin="round"/>
<path d="M54.05 58.7581C54.0539 57.8171 54.3367 56.8983 54.8626 56.118C55.3885 55.3376 56.1338 54.7306 57.0045 54.3737C57.8752 54.0168 58.8322 53.926 59.7545 54.1127C60.6768 54.2995 61.523 54.7554 62.1863 55.4229C62.8496 56.0903 63.3002 56.9395 63.4811 57.8629C63.662 58.7864 63.5652 59.7427 63.2028 60.6112C62.8404 61.4796 62.2288 62.2211 61.4451 62.7421C60.6615 63.263 59.741 63.54 58.8 63.5381C58.1733 63.5394 57.5526 63.4165 56.9737 63.1763C56.3948 62.9362 55.8693 62.5837 55.4276 62.1392C54.9858 61.6947 54.6366 61.1669 54.4002 60.5866C54.1637 60.0062 54.0447 59.3847 54.05 58.7581V58.7581Z" fill="black" stroke="black" stroke-width="4" stroke-linecap="round" stroke-linejoin="round"/>
<path d="M94.5401 83.7579L105.2 91.4779C110.339 84.1818 113.686 75.7771 114.97 66.9454C116.253 58.1138 115.437 49.104 112.587 40.647C109.737 32.1899 104.933 24.5237 98.5662 18.2703C92.1991 12.017 84.4476 7.35247 75.9406 4.65528C67.4335 1.95808 58.4105 1.30413 49.6034 2.74647C40.7963 4.18882 32.4533 7.68684 25.251 12.9568C18.0487 18.2267 12.1901 25.1201 8.15036 33.0779C4.11063 41.0356 2.00356 49.8335 2.00009 58.7579C1.97969 70.4853 5.61877 81.927 12.4101 91.4879L23.0601 83.7579" stroke="black" stroke-width="4" stroke-linecap="round" stroke-linejoin="round"/>
</svg>
