<svg width="119" height="103" viewBox="0 0 119 103" fill="none" >
<path d="M7.47222 75.875H34.8333L62.1944 100.5V2L34.8333 26.625H7.47222C6.0209 26.625 4.62902 27.2015 3.60278 28.2278C2.57654 29.254 2 30.6459 2 32.0972V70.4028C2 71.8541 2.57654 73.246 3.60278 74.2722C4.62902 75.2985 6.0209 75.875 7.47222 75.875Z" stroke="black" stroke-width="4" stroke-linejoin="round"/>
<path d="M75.875 35.5439C78.4037 37.309 80.4689 39.6586 81.8948 42.3929C83.3208 45.1272 84.0654 48.1654 84.0654 51.2492C84.0654 54.333 83.3208 57.3712 81.8948 60.1056C80.4689 62.8399 78.4037 65.1894 75.875 66.9545" stroke="black" stroke-width="4" stroke-linecap="round" stroke-linejoin="round"/>
<path d="M81.3477 19.6753C87.116 22.6889 91.9486 27.2252 95.3208 32.7916C98.693 38.358 100.476 44.7418 100.476 51.25C100.476 57.7582 98.693 64.142 95.3208 69.7084C91.9486 75.2748 87.116 79.8111 81.3477 82.8247" stroke="black" stroke-width="4" stroke-linecap="round" stroke-linejoin="round"/>
<path d="M86.8193 4.07861C95.8187 8.24754 103.438 14.9038 108.777 23.2619C114.117 31.62 116.954 41.3311 116.954 51.2492C116.954 61.1672 114.117 70.8783 108.777 79.2364C103.438 87.5945 95.8187 94.2508 86.8193 98.4197" stroke="black" stroke-width="4" stroke-linecap="round" stroke-linejoin="round"/>
</svg>
