<svg width="108" height="108" viewBox="0 0 108 108" fill="none" >
<path d="M82.7627 10.9185V24.2964H96.1406" stroke="black" stroke-width="4" stroke-miterlimit="10" stroke-linecap="round"/>
<path d="M91.6816 2V15.3779H105.06" stroke="black" stroke-width="4" stroke-miterlimit="10" stroke-linecap="round"/>
<path d="M51.8156 64.6979C51.2032 65.3551 50.4648 65.8822 49.6443 66.2478C48.8237 66.6134 47.938 66.81 47.0399 66.8258C46.1417 66.8417 45.2496 66.6765 44.4167 66.34C43.5838 66.0036 42.8272 65.5029 42.1921 64.8677C41.5569 64.2325 41.0561 63.4759 40.7197 62.643C40.3833 61.8102 40.2181 60.918 40.2339 60.0199C40.2498 59.1218 40.4464 58.236 40.812 57.4155C41.1776 56.595 41.7047 55.8565 42.3618 55.2442V55.2442L48.6049 48.8228C48.1144 48.8228 47.6238 48.8228 47.0887 48.8228C44.8838 48.8228 42.7284 49.4766 40.8951 50.7016C39.0617 51.9266 37.6328 53.6677 36.789 55.7048C35.9453 57.7419 35.7245 59.9834 36.1546 62.146C36.5848 64.3085 37.6466 66.295 39.2057 67.8541C40.7648 69.4132 42.7512 70.475 44.9138 70.9051C47.0764 71.3353 49.3179 71.1145 51.355 70.2707C53.3921 69.4269 55.1332 67.998 56.3582 66.1647C57.5832 64.3314 58.237 62.176 58.237 59.971C58.237 59.4359 58.237 58.9454 58.237 58.4549L51.8156 64.6979Z" fill="black"/>
<path d="M71.6126 44.8088L68.3573 48.0195C71.2525 53.197 72.1768 59.2472 70.9597 65.053C69.7425 70.8588 66.466 76.0283 61.7351 79.607C57.0043 83.1858 51.1384 84.9323 45.2204 84.524C39.3024 84.1157 33.732 81.5802 29.5374 77.3856C25.3428 73.191 22.8073 67.6206 22.399 61.7026C21.9907 55.7847 23.7372 49.9188 27.316 45.1879C30.8948 40.457 36.0642 37.1805 41.8701 35.9634C47.6759 34.7462 53.726 35.6705 58.9036 38.5657L62.2481 35.4442C56.1873 31.6812 48.9545 30.2777 41.9262 31.501C34.8978 32.7243 28.5646 36.4889 24.1316 42.0784C19.6986 47.6679 17.4753 54.6921 17.8849 61.8143C18.2945 68.9365 21.3082 75.6596 26.3527 80.7041C31.3972 85.7486 38.1203 88.7623 45.2425 89.1719C52.3647 89.5815 59.389 87.3582 64.9784 82.9252C70.5679 78.4922 74.3325 72.159 75.5558 65.1306C76.7791 58.1023 75.3757 50.8696 71.6126 44.8088V44.8088Z" fill="black"/>
<path d="M84.5486 31.9669L81.3379 35.1776C86.6145 42.3671 89.4579 51.0534 89.4539 59.9714C89.4539 68.3501 86.9693 76.5407 82.3144 83.5073C77.6594 90.4739 71.0431 95.9038 63.3022 99.1102C55.5613 102.317 47.0434 103.155 38.8257 101.521C30.608 99.8863 23.0595 95.8515 17.1349 89.9269C11.2102 84.0023 7.17549 76.4538 5.54089 68.2361C3.90628 60.0184 4.74522 51.5005 7.95162 43.7596C11.158 36.0187 16.5878 29.4024 23.5545 24.7474C30.5211 20.0925 38.7117 17.6079 47.0904 17.6079C56.0084 17.6039 64.6947 20.4473 71.8842 25.7238L75.0949 22.5131C65.5893 15.398 53.7411 12.1481 41.9355 13.4178C30.13 14.6874 19.2438 20.3823 11.4685 29.356C3.69313 38.3296 -0.39397 49.9157 0.0299663 61.7817C0.453902 73.6477 5.3574 84.9126 13.7533 93.3085C22.1492 101.704 33.4141 106.608 45.2801 107.032C57.1461 107.456 68.7322 103.369 77.7058 95.5933C86.6795 87.818 92.3744 76.9318 93.644 65.1262C94.9136 53.3207 91.6638 41.4725 84.5486 31.9669Z" fill="black"/>
<path d="M47.0889 59.9709L82.7634 24.2964" stroke="black" stroke-width="4" stroke-miterlimit="10" stroke-linecap="round"/>
</svg>
