<svg width="118" height="94" viewBox="0 0 118 94" fill="none" >
<path d="M114.89 53.6479L58.7998 58.8279" stroke="white" stroke-width="4" stroke-linecap="round" stroke-linejoin="round"/>
<path d="M54.05 58.7578C54.0539 57.8168 54.3367 56.8981 54.8626 56.1177C55.3885 55.3374 56.1338 54.7304 57.0045 54.3735C57.8752 54.0166 58.8322 53.9258 59.7545 54.1125C60.6768 54.2992 61.523 54.7551 62.1863 55.4226C62.8496 56.0901 63.3002 56.9392 63.4811 57.8627C63.662 58.7861 63.5652 59.7425 63.2028 60.6109C62.8404 61.4793 62.2288 62.2209 61.4451 62.7418C60.6615 63.2628 59.741 63.5398 58.8 63.5378C58.1733 63.5392 57.5526 63.4162 56.9737 63.1761C56.3948 62.936 55.8693 62.5835 55.4276 62.1389C54.9858 61.6944 54.6366 61.1667 54.4002 60.5863C54.1637 60.006 54.0447 59.3845 54.05 58.7578V58.7578Z" stroke="white" stroke-width="4" stroke-linecap="round" stroke-linejoin="round"/>
<path d="M4.34961 58.7678H15.1696" stroke="white" stroke-width="4" stroke-linecap="round" stroke-linejoin="round"/>
<path d="M104.63 90.8178L94.54 83.7678" stroke="white" stroke-width="4" stroke-linecap="round" stroke-linejoin="round"/>
<path d="M14.2002 89.9478L23.0602 83.7678" stroke="white" stroke-width="4" stroke-linecap="round" stroke-linejoin="round"/>
<path d="M58.7998 4.37793V15.1879" stroke="white" stroke-width="4" stroke-linecap="round" stroke-linejoin="round"/>
<path d="M97.3104 20.3079L89.6504 27.9479" stroke="white" stroke-width="4" stroke-linecap="round" stroke-linejoin="round"/>
<path d="M20.2998 20.3079L27.9598 27.9479" stroke="white" stroke-width="4" stroke-linecap="round" stroke-linejoin="round"/>
<path d="M113.31 58.7979H102.48" stroke="white" stroke-width="4" stroke-linecap="round" stroke-linejoin="round"/>
<path d="M54.05 58.7578C54.0539 57.8168 54.3367 56.8981 54.8626 56.1177C55.3885 55.3374 56.1338 54.7304 57.0045 54.3735C57.8752 54.0166 58.8322 53.9258 59.7545 54.1125C60.6768 54.2992 61.523 54.7551 62.1863 55.4226C62.8496 56.0901 63.3002 56.9392 63.4811 57.8627C63.662 58.7861 63.5652 59.7425 63.2028 60.6109C62.8404 61.4793 62.2288 62.2209 61.4451 62.7418C60.6615 63.2628 59.741 63.5398 58.8 63.5378C58.1733 63.5392 57.5526 63.4162 56.9737 63.1761C56.3948 62.936 55.8693 62.5835 55.4276 62.1389C54.9858 61.6944 54.6366 61.1667 54.4002 60.5863C54.1637 60.006 54.0447 59.3845 54.05 58.7578V58.7578Z" fill="white" stroke="white" stroke-width="4" stroke-linecap="round" stroke-linejoin="round"/>
<path d="M94.5401 83.7579L105.2 91.4779C110.339 84.1818 113.686 75.7771 114.97 66.9454C116.253 58.1138 115.437 49.104 112.587 40.647C109.737 32.1899 104.933 24.5237 98.5662 18.2703C92.1991 12.017 84.4476 7.35247 75.9406 4.65528C67.4335 1.95808 58.4105 1.30413 49.6034 2.74647C40.7963 4.18882 32.4533 7.68684 25.251 12.9568C18.0487 18.2267 12.1901 25.1201 8.15036 33.0779C4.11063 41.0356 2.00356 49.8335 2.00009 58.7579C1.97969 70.4853 5.61877 81.927 12.4101 91.4879L23.0601 83.7579" stroke="white" stroke-width="4" stroke-linecap="round" stroke-linejoin="round"/>
</svg>
