<svg width="109" height="87" viewBox="0 0 109 87" fill="none" >
<path d="M33.4795 55.3472C39.0317 49.7622 46.5738 46.6095 54.449 46.582C62.3243 46.5544 69.8883 49.6541 75.4795 55.2002" stroke="white" stroke-width="4" stroke-linecap="round" stroke-linejoin="round"/>
<path d="M17.0166 38.7785C21.9242 33.8538 27.7541 29.9445 34.1732 27.2738C40.5924 24.6031 47.4748 23.2234 54.4273 23.2137C61.3798 23.2039 68.2661 24.5643 74.6927 27.2169C81.1193 29.8696 86.9602 33.7626 91.8816 38.6735" stroke="white" stroke-width="4" stroke-linecap="round" stroke-linejoin="round"/>
<path d="M2 23.7422C15.9251 9.82069 34.8095 2 54.5 2C74.1905 2 93.0749 9.82069 107 23.7422" stroke="white" stroke-width="4" stroke-linecap="round" stroke-linejoin="round"/>
<path d="M60.507 82.248C59.326 83.4069 57.8291 84.1912 56.204 84.5025C54.579 84.8138 52.8982 84.6383 51.3725 83.9979C49.8468 83.3575 48.5443 82.2808 47.6283 80.9029C46.7123 79.5249 46.2236 77.9072 46.2236 76.2526C46.2236 74.5979 46.7123 72.9802 47.6283 71.6022C48.5443 70.2243 49.8468 69.1476 51.3725 68.5072C52.8982 67.8668 54.579 67.6912 56.204 68.0025C57.8291 68.3138 59.326 69.0982 60.507 70.2571C61.3039 71.039 61.9369 71.972 62.369 73.0014C62.8011 74.0309 63.0236 75.1361 63.0236 76.2526C63.0236 77.369 62.8011 78.4742 62.369 79.5037C61.9369 80.5331 61.3039 81.4661 60.507 82.248Z" stroke="white" stroke-width="4" stroke-linecap="round" stroke-linejoin="round"/>
</svg>
