<svg width="106" height="116" viewBox="0 0 106 116" fill="none" >
<path d="M103.431 63.2954C103.431 73.3106 100.456 83.101 94.8836 91.4284C89.3109 99.7558 81.3903 106.246 72.1232 110.079C62.8562 113.912 52.6591 114.914 42.8213 112.961C32.9835 111.007 23.9469 106.184 16.8542 99.1019C9.76153 92.0201 4.93137 82.9972 2.9745 73.1743C1.01764 63.3515 2.02197 53.1699 5.86049 43.917C9.69901 34.6641 16.1993 26.7554 24.5394 21.1912C32.8795 15.627 42.6848 12.6572 52.7153 12.6572C66.1659 12.6572 79.0655 17.9923 88.5765 27.4888C98.0875 36.9853 103.431 49.8653 103.431 63.2954V63.2954Z" stroke="black" stroke-width="4" stroke-miterlimit="10"/>
<path d="M26.0234 63.2988H52.7157V31.2402" stroke="black" stroke-width="4" stroke-miterlimit="10" stroke-linecap="round"/>
<path d="M39.3691 2H66.0581" stroke="black" stroke-width="4" stroke-linecap="round" stroke-linejoin="round"/>
</svg>
