<svg width="102" height="102" viewBox="0 0 102 102" fill="none" >
<path d="M25.21 22.6318H99.9994L93.3973 53.5792C93.1698 55.0639 92.4012 56.412 91.2396 57.3642C90.0779 58.3164 88.6052 58.8054 87.1047 58.7371H30.3679" stroke="black" stroke-width="4" stroke-linecap="round" stroke-linejoin="round"/>
<path d="M2 2H16.5453C18.2125 2.01297 19.818 2.63271 21.0615 3.74335C22.3051 4.854 23.1016 6.37953 23.3021 8.03474L29.6979 68.0211C29.877 69.7263 30.6835 71.304 31.9608 72.4478C33.2381 73.5917 34.8949 74.2199 36.6095 74.2105H84.5263" stroke="black" stroke-width="4" stroke-linecap="round" stroke-linejoin="round"/>
<path d="M38.106 100C42.3789 100 45.8428 96.5361 45.8428 92.2632C45.8428 87.9903 42.3789 84.5264 38.106 84.5264C33.833 84.5264 30.3691 87.9903 30.3691 92.2632C30.3691 96.5361 33.833 100 38.106 100Z" stroke="black" stroke-width="4" stroke-linecap="round" stroke-linejoin="round"/>
<path d="M76.7896 100C81.0625 100 84.5264 96.5361 84.5264 92.2632C84.5264 87.9903 81.0625 84.5264 76.7896 84.5264C72.5166 84.5264 69.0527 87.9903 69.0527 92.2632C69.0527 96.5361 72.5166 100 76.7896 100Z" stroke="black" stroke-width="4" stroke-linecap="round" stroke-linejoin="round"/>
</svg>
