<svg width="113" height="113" viewBox="0 0 113 113" fill="none" >
<path d="M38.3652 56.4998C38.3652 52.9136 39.4287 49.408 41.421 46.4261C43.4134 43.4443 46.2453 41.1203 49.5585 39.7479C52.8717 38.3755 56.5175 38.0165 60.0348 38.7161C63.552 39.4157 66.7829 41.1426 69.3187 43.6785C71.8545 46.2143 73.5815 49.4451 74.2811 52.9624C74.9807 56.4797 74.6216 60.1255 73.2493 63.4387C71.8769 66.7519 69.5528 69.5837 66.571 71.5761C63.5892 73.5685 60.0836 74.6319 56.4974 74.6319C51.6884 74.6319 47.0764 72.7216 43.676 69.3212C40.2756 65.9207 38.3652 61.3087 38.3652 56.4998Z" stroke="white" stroke-width="4" stroke-linejoin="round"/>
<path d="M93.4377 37.7462C94.831 40.4152 95.9256 43.2297 96.7015 46.1388V46.1388L105.819 47.693C107.261 47.9047 108.578 48.6287 109.53 49.7323C110.481 50.8359 111.003 52.2454 111 53.7025V61.6806C111.003 63.1377 110.481 64.5472 109.53 65.6508C108.578 66.7544 107.261 67.4784 105.819 67.6901L95.9244 69.3479C94.9566 72.2769 93.671 75.0912 92.0908 77.7405V77.7405L97.2714 85.2524C98.1094 86.4323 98.5016 87.8712 98.3783 89.3131C98.255 90.755 97.6241 92.1064 96.5979 93.1269L91.0547 98.6183C90.0427 99.6405 88.7002 100.27 87.2671 100.393C85.834 100.516 84.4037 100.126 83.2319 99.2918L75.0466 93.4377C72.3117 94.8454 69.4269 95.9402 66.4468 96.7015L64.8926 105.819C64.6809 107.261 63.9569 108.578 62.8533 109.53C61.7496 110.481 60.3402 111.003 58.8831 111H51.3194C49.8623 111.003 48.4528 110.481 47.3492 109.53C46.2456 108.578 45.5216 107.261 45.3099 105.819L43.6521 95.9244C40.7231 94.9566 37.9088 93.671 35.2595 92.0908V92.0908L27.7476 97.2714C26.5677 98.1094 25.1288 98.5016 23.6869 98.3783C22.245 98.255 20.8936 97.6241 19.8731 96.5979L14.3817 91.2619C13.3595 90.2499 12.7305 88.9074 12.6071 87.4743C12.4837 86.0412 12.874 84.611 13.7082 83.4392L19.5623 75.2538C18.169 72.5848 17.0744 69.7703 16.2985 66.8612V66.8612L7.18062 65.307C5.73896 65.0953 4.42182 64.3713 3.47041 63.2677C2.519 62.1641 1.997 60.7546 2.00001 59.2975V51.3194C1.997 49.8623 2.519 48.4528 3.47041 47.3492C4.42182 46.2456 5.73896 45.5216 7.18062 45.3099L17.0756 43.6521C18.0434 40.7231 19.329 37.9088 20.9092 35.2595V35.2595L15.7286 27.7476C14.8906 26.5677 14.4984 25.1288 14.6217 23.6869C14.745 22.245 15.3759 20.8936 16.4021 19.8731L21.7381 14.3817C22.7501 13.3595 24.0926 12.7305 25.5257 12.6071C26.9588 12.4837 28.3891 12.874 29.5608 13.7082L37.7462 19.5623C40.4152 18.169 43.2297 17.0744 46.1388 16.2985L47.693 7.18062C47.9047 5.73896 48.6287 4.42182 49.7323 3.47041C50.8359 2.519 52.2454 1.997 53.7025 2.00001H61.6806C63.1377 1.997 64.5472 2.519 65.6508 3.47041C66.7544 4.42182 67.4784 5.73896 67.6901 7.18062L69.3479 17.0756C72.2769 18.0434 75.0912 19.329 77.7405 20.9092V20.9092L85.2524 15.7286C86.4323 14.8906 87.8712 14.4984 89.3131 14.6217C90.755 14.745 92.1064 15.3759 93.1269 16.4021L98.6183 21.9454C99.6405 22.9573 100.27 24.2998 100.393 25.7329C100.516 27.166 100.126 28.5963 99.2918 29.7681L93.4377 37.7462Z" stroke="white" stroke-width="4" stroke-linejoin="round"/>
</svg>
