<svg width="99" height="99" viewBox="0 0 99 99" fill="none" >
<g clip-path="url(#clip0)">
<path d="M92.4425 9.88127L89.1185 6.5124C84.9202 2.39728 79.2758 0.0922852 73.3971 0.0922852C67.5183 0.0922852 61.8739 2.39728 57.6757 6.5124L41.6398 22.5932C37.5247 26.7914 35.2197 32.4358 35.2197 38.3146C35.2197 44.1933 37.5247 49.8377 41.6398 54.036L44.9638 57.3599C47.987 60.3845 51.8274 62.4608 56.0137 63.3341V58.8423C53.053 58.0405 50.3469 56.4941 48.153 54.3504L44.829 50.9815C41.5099 47.619 39.6488 43.0843 39.6488 38.3595C39.6488 33.6347 41.5099 29.1 44.829 25.7374L60.8649 9.7016C64.2274 6.38242 68.7621 4.52133 73.4869 4.52133C78.2117 4.52133 82.7464 6.38242 86.109 9.7016L89.4329 13.0256C92.7521 16.3881 94.6132 20.9228 94.6132 25.6476C94.6132 30.3724 92.7521 34.9071 89.4329 38.2697L73.3971 54.3504C72.0852 55.665 70.5681 56.7574 68.9053 57.5845V62.5705C71.7137 61.4676 74.2666 59.8014 76.4066 57.6744L92.4425 41.6385C96.6529 37.4268 99.0182 31.7153 99.0182 25.7599C99.0182 19.8045 96.6529 14.093 92.4425 9.88127V9.88127Z" fill="white"/>
<path d="M57.4952 44.7832L54.306 41.4592C51.2828 38.4347 47.4424 36.3584 43.2561 35.4851V39.9769C46.2271 40.7536 48.9393 42.3035 51.1168 44.4688L54.4857 47.7927C57.8048 51.1553 59.6659 55.69 59.6659 60.4148C59.6659 65.1396 57.8048 69.6743 54.4857 73.0368L38.2701 89.1176C34.9076 92.4368 30.3729 94.2979 25.6481 94.2979C20.9233 94.2979 16.3886 92.4368 13.026 89.1176L9.70209 85.7936C6.38291 82.4311 4.52182 77.8964 4.52182 73.1716C4.52182 68.4468 6.38291 63.9121 9.70209 60.5495L25.7379 44.5137C27.0604 43.2357 28.5763 42.1746 30.2298 41.3694L29.556 36.653C26.9805 37.6871 24.631 39.2128 22.6386 41.1448L6.51289 57.6748C2.39776 61.873 0.0927734 67.5174 0.0927734 73.3962C0.0927734 79.2749 2.39776 84.9193 6.51289 89.1176L9.88176 92.4415C14.08 96.5567 19.7244 98.8617 25.6032 98.8617C31.4819 98.8617 37.1263 96.5567 41.3246 92.4415L57.3604 76.4057C61.5478 72.2174 63.9113 66.5446 63.9366 60.6222C63.9618 54.6997 61.6467 49.007 57.4952 44.7832Z" fill="white"/>
<path d="M43.0308 52.5991C39.2756 48.8205 37.168 43.7096 37.168 38.3824C37.168 33.0552 39.2756 27.9444 43.0308 24.1658" stroke="white" stroke-linecap="round" stroke-linejoin="round"/>
</g>
<defs>
<clipPath id="clip0">
<rect width="99" height="99" fill="white"/>
</clipPath>
</defs>
</svg>
