<svg width="88" height="101" viewBox="0 0 88 101" fill="none" >
<path d="M86 98.7398C85.89 82.3898 83 66.0098 44 66.0098C5 66.0098 2.08 82.5298 2 98.7398" stroke="black" stroke-width="4" stroke-linecap="round" stroke-linejoin="round"/>
<path d="M20.6602 40.3701C20.6602 46.5603 23.1192 52.4969 27.4963 56.874C31.8734 61.2511 37.81 63.7101 44.0002 63.7101C50.1903 63.7101 56.1269 61.2511 60.504 56.874C64.8811 52.4969 67.3402 46.5603 67.3402 40.3701" stroke="black" stroke-width="4" stroke-miterlimit="10"/>
<path d="M38.5698 24.37V5.18C38.5725 4.33742 38.9083 3.53011 39.5041 2.93431C40.0999 2.33852 40.9072 2.00264 41.7498 2H46.2498C47.0924 2.00264 47.8997 2.33852 48.4955 2.93431C49.0913 3.53011 49.4272 4.33742 49.4298 5.18V24.37" stroke="black" stroke-width="4" stroke-miterlimit="10" stroke-linecap="round"/>
<path d="M38.5701 6.8999C27.7201 9.2199 19.6301 18.2899 19.6301 29.1399C19.6533 29.4734 19.5867 29.807 19.4372 30.1059C19.2877 30.4049 19.0608 30.6584 18.7801 30.8399C18.7801 30.8399 14.5801 32.9699 14.5801 40.3299H73.1901C73.1901 32.9699 69.0001 30.8399 69.0001 30.8399C68.7171 30.6607 68.4884 30.4077 68.3386 30.1082C68.1888 29.8086 68.1236 29.4738 68.1501 29.1399C68.1501 18.2899 60.0501 9.2199 49.2101 6.8999" stroke="black" stroke-width="4" stroke-miterlimit="10"/>
</svg>
