<svg width="105" height="85" viewBox="0 0 105 85" fill="none" >
<path d="M95.6693 16.2954H8.39754C4.86428 16.2954 2 19.1597 2 22.6929V76.6026C2 80.1359 4.86428 83.0002 8.39754 83.0002H95.6693C99.2025 83.0002 102.067 80.1359 102.067 76.6026V22.6929C102.067 19.1597 99.2025 16.2954 95.6693 16.2954Z" stroke="white" stroke-width="4" stroke-miterlimit="10"/>
<path d="M39.5236 2H64.533C65.3935 2 66.2455 2.16948 67.0405 2.49877C67.8355 2.82806 68.5578 3.31071 69.1663 3.91915C69.7747 4.5276 70.2574 5.24993 70.5867 6.0449C70.9159 6.83988 71.0854 7.69192 71.0854 8.5524V16.2275H32.9712V8.5524C32.9712 6.81459 33.6615 5.14796 34.8903 3.91915C36.1192 2.69034 37.7858 2 39.5236 2V2Z" stroke="white" stroke-width="4" stroke-miterlimit="10"/>
<path d="M88.1294 16.2278V42.6213C88.1294 43.648 87.7215 44.6327 86.9955 45.3588C86.2695 46.0848 85.2848 46.4927 84.258 46.4927H19.7987C18.7719 46.4927 17.7872 46.0848 17.0612 45.3588C16.3351 44.6327 15.9272 43.648 15.9272 42.6213V16.2278" stroke="white" stroke-width="4" stroke-miterlimit="10"/>
<path d="M44.5571 38.9429H59.5008" stroke="white" stroke-width="4" stroke-miterlimit="10" stroke-linecap="round"/>
</svg>
