<svg width="113" height="104" viewBox="0 0 113 104" fill="none" >
<path d="M103.81 62.6157C101.423 73.283 95.5913 82.8682 87.2156 89.8922C78.8399 96.9163 68.3854 100.989 57.4654 101.481C46.5454 101.974 35.7667 98.8591 26.7927 92.6176C17.8186 86.3761 11.148 77.3548 7.81006 66.9457" stroke="black" stroke-width="3.81" stroke-linecap="round" stroke-linejoin="round"/>
<path d="M5.85986 45.3162C7.35702 33.8994 12.7649 23.3545 21.1627 15.4767C29.5606 7.59897 40.4292 2.87535 51.9183 2.11012C63.4073 1.3449 74.8064 4.58536 84.1748 11.2798C93.5433 17.9743 100.302 27.7088 103.3 38.8262" stroke="black" stroke-width="3.81" stroke-linecap="round" stroke-linejoin="round"/>
<path d="M19.65 66.8657L6.95 63.8657C6.74312 63.8152 6.52828 63.8063 6.31792 63.8394C6.10756 63.8725 5.90586 63.947 5.72449 64.0587C5.54313 64.1703 5.38571 64.3167 5.26135 64.4896C5.13699 64.6625 5.04816 64.8583 5 65.0657L2 77.7657" stroke="black" stroke-width="3.81" stroke-miterlimit="10" stroke-linecap="round"/>
<path d="M110.12 28.0161L105.52 40.2261C105.449 40.4297 105.339 40.6172 105.195 40.7778C105.052 40.9385 104.878 41.0691 104.684 41.1621C104.489 41.2551 104.278 41.3086 104.063 41.3196C103.848 41.3306 103.633 41.2988 103.43 41.2261L91.21 36.5461" stroke="black" stroke-width="3.81" stroke-miterlimit="10" stroke-linecap="round"/>
<path d="M56.0501 82.2159C72.8672 82.2159 86.5001 68.583 86.5001 51.7659C86.5001 34.9488 72.8672 21.3159 56.0501 21.3159C39.233 21.3159 25.6001 34.9488 25.6001 51.7659C25.6001 68.583 39.233 82.2159 56.0501 82.2159Z" stroke="black" stroke-width="3.81" stroke-miterlimit="10" stroke-linecap="round"/>
<path d="M35.5401 29.2559C35.5401 29.2559 35.1701 35.1559 36.7801 37.6259C38.0911 39.0863 39.711 40.2362 41.5221 40.9921C43.3332 41.748 45.2899 42.0909 47.2501 41.9959C47.2501 41.9959 53.2501 44.1759 53.6501 46.9359C53.6501 46.9359 53.2101 53.0459 48.9901 54.6459C48.9901 54.6459 41.7201 57.9959 40.4101 60.1759C40.4101 60.1759 34.0701 64.3059 48.5901 81.2959" stroke="black" stroke-width="3.81" stroke-miterlimit="10"/>
<path d="M64.6903 22.5459C64.6903 22.5459 66.3103 29.0259 63.6903 32.7359C63.6903 32.7359 59.4703 37.6459 59.6103 40.8959C59.6103 40.8959 58.4503 51.9559 64.6103 55.2559C64.6103 55.2559 70.1403 61.7559 68.2503 66.1259C68.2503 66.1259 61.8703 77.9559 62.9503 81.4259" stroke="black" stroke-width="3.81" stroke-miterlimit="10"/>
<path d="M76.8701 30.5459C76.8701 30.5459 73.6301 34.7859 74.4001 39.8259C74.4001 39.8259 75.0201 47.1259 78.9901 51.0459C78.9901 51.0459 82.1301 54.4859 84.7501 55.6759" stroke="black" stroke-width="3.81" stroke-miterlimit="10"/>
</svg>
