<svg width="101" height="100" viewBox="0 0 101 100" fill="none" >
<path d="M54.7379 68.2741L37.0679 85.9341C35.5712 87.409 33.5542 88.2357 31.4529 88.2357C29.3516 88.2357 27.3347 87.409 25.8379 85.9341L13.7879 73.8641C12.3131 72.3674 11.4863 70.3504 11.4863 68.2491C11.4863 66.1478 12.3131 64.1309 13.7879 62.6341L31.4479 44.9941L54.7379 68.2741Z" stroke="black" stroke-width="4" stroke-linejoin="round"/>
<path d="M27.9983 87.7739L18.4683 97.3139C18.2133 97.568 17.8681 97.7106 17.5083 97.7106C17.1484 97.7106 16.8032 97.568 16.5483 97.3139L2.36826 83.2239C2.12319 82.9612 1.99111 82.6128 2.00046 82.2537C2.00982 81.8946 2.15985 81.5535 2.41826 81.3039L11.9983 71.7739" stroke="black" stroke-width="4" stroke-miterlimit="10"/>
<path d="M39.9351 70.7793L28.9537 59.7979C28.5632 59.4074 27.93 59.4074 27.5395 59.7979L20.6947 66.6427C20.3042 67.0332 20.3042 67.6664 20.6947 68.0569L31.6761 79.0383C32.0666 79.4288 32.6997 79.4288 33.0903 79.0383L39.9351 72.1935C40.3256 71.803 40.3256 71.1698 39.9351 70.7793Z" stroke="black" stroke-width="4" stroke-miterlimit="10"/>
<path d="M63.3983 49.2843L55.5783 57.1043C55.3819 57.3155 55.1106 57.4411 54.8226 57.4542C54.5345 57.4673 54.2529 57.3668 54.0382 57.1743L42.8783 46.0143C42.6919 45.7933 42.6 45.5079 42.6225 45.2197C42.6449 44.9315 42.7799 44.6637 42.9982 44.4743L50.8082 36.6543" stroke="black" stroke-width="4" stroke-miterlimit="10"/>
<path d="M49.9982 35.8641L49.6782 26.2041L57.9982 17.8641C58.498 17.4787 59.1281 17.3029 59.7552 17.3738C60.3822 17.4447 60.9571 17.7568 61.3582 18.2441L81.1582 38.0541C81.647 38.4537 81.961 39.0279 82.0338 39.6551C82.1066 40.2822 81.9325 40.9131 81.5482 41.4141L73.2182 49.7441L64.2182 50.0641L49.9982 35.8641Z" stroke="black" stroke-width="4" stroke-miterlimit="10"/>
<path d="M63.5679 20.4943L81.4379 2.62426C81.6872 2.40589 81.9772 2.23885 82.2912 2.13271C82.6051 2.02657 82.937 1.98341 83.2677 2.00571C83.5984 2.028 83.9214 2.11531 84.2183 2.26263C84.5152 2.40996 84.7801 2.6144 84.9979 2.86426L97.1879 15.0543C97.6822 15.4976 97.9816 16.1182 98.0209 16.7811C98.0603 17.4439 97.8363 18.0956 97.3979 18.5943L79.5079 36.4243" stroke="black" stroke-width="4" stroke-miterlimit="10"/>
</svg>
