<svg width="102" height="100" viewBox="0 0 102 100" fill="none" >
<path d="M97.8904 26.4626C98.556 27.018 99.0902 27.714 99.4546 28.5006C99.819 29.2872 100.004 30.1448 99.9977 31.0117V91.4881C100.04 92.9556 99.5016 94.3805 98.4996 95.4535C97.4976 96.5265 96.1128 97.161 94.6458 97.2191H89.9406C89.2074 97.2003 88.4852 97.0371 87.8153 96.7387C87.1453 96.4403 86.5408 96.0127 86.0364 95.4803C85.532 94.948 85.1376 94.3213 84.8758 93.6362C84.6139 92.9512 84.4899 92.2212 84.5106 91.4881V33.0633H17.4113V91.4881C17.4534 92.9593 16.9121 94.3875 15.9053 95.4611C14.8985 96.5348 13.508 97.1667 12.0371 97.2191H7.3542C5.88724 97.161 4.50241 96.5265 3.50039 95.4535C2.49837 94.3805 1.96005 92.9556 2.00231 91.4881V31.0117C1.99552 30.1448 2.18099 29.2872 2.54537 28.5006C2.90975 27.714 3.44399 27.018 4.10962 26.4626L50.9387 2L97.8904 26.4626Z" stroke="black" stroke-width="3.67" stroke-linecap="round" stroke-linejoin="round"/>
<path d="M72.1009 74.73H61.4305C58.29 74.73 55.7441 77.2759 55.7441 80.4164V91.0867C55.7441 94.2272 58.29 96.7731 61.4305 96.7731H72.1009C75.2414 96.7731 77.7872 94.2272 77.7872 91.0867V80.4164C77.7872 77.2759 75.2414 74.73 72.1009 74.73Z" stroke="black" stroke-width="3.67" stroke-linecap="round" stroke-linejoin="round"/>
<path d="M72.1009 51.5049H61.4305C58.29 51.5049 55.7441 54.0508 55.7441 57.1913V67.8616C55.7441 71.0021 58.29 73.548 61.4305 73.548H72.1009C75.2414 73.548 77.7872 71.0021 77.7872 67.8616V57.1913C77.7872 54.0508 75.2414 51.5049 72.1009 51.5049Z" stroke="black" stroke-width="3.67" stroke-linecap="round" stroke-linejoin="round"/>
<path d="M50.0467 74.73H39.3763C36.2358 74.73 33.6899 77.2759 33.6899 80.4164V91.0867C33.6899 94.2272 36.2358 96.7731 39.3763 96.7731H50.0467C53.1872 96.7731 55.733 94.2272 55.733 91.0867V80.4164C55.733 77.2759 53.1872 74.73 50.0467 74.73Z" stroke="black" stroke-width="3.67" stroke-linecap="round" stroke-linejoin="round"/>
</svg>
