<svg width="118" height="76" viewBox="0 0 118 76" fill="none" >
<path d="M49.6061 66.7133C49.6061 68.1545 49.1788 69.5632 48.3781 70.7615C47.5774 71.9597 46.4394 72.8937 45.1079 73.4452C43.7764 73.9967 42.3113 74.141 40.8978 73.8599C39.4844 73.5787 38.186 72.8847 37.1669 71.8657C36.1479 70.8466 35.4539 69.5483 35.1727 68.1348C34.8916 66.7214 35.0359 65.2563 35.5874 63.9249C36.1389 62.5934 37.0728 61.4554 38.2711 60.6548C39.4694 59.8541 40.8782 59.4268 42.3194 59.4268C44.252 59.4268 46.1054 60.1944 47.4719 61.5609C48.8384 62.9274 49.6061 64.7808 49.6061 66.7133V66.7133Z" stroke="white" stroke-width="4" stroke-linecap="round" stroke-linejoin="round"/>
<path d="M16.5734 66.7133C16.5734 68.1545 16.146 69.5632 15.3454 70.7615C14.5447 71.9597 13.4067 72.8937 12.0752 73.4452C10.7437 73.9967 9.27861 74.141 7.86513 73.8599C6.45165 73.5787 5.15327 72.8847 4.13421 71.8657C3.11515 70.8466 2.42118 69.5483 2.14002 68.1348C1.85886 66.7214 2.00314 65.2563 2.55466 63.9249C3.10617 62.5934 4.04013 61.4554 5.23842 60.6548C6.43672 59.8541 7.84552 59.4268 9.28669 59.4268C11.2192 59.4268 13.0726 60.1944 14.4392 61.5609C15.8057 62.9274 16.5734 64.7808 16.5734 66.7133V66.7133Z" stroke="white" stroke-width="4" stroke-linecap="round" stroke-linejoin="round"/>
<path d="M82.6383 66.7133C82.6383 68.1545 82.211 69.5632 81.4103 70.7615C80.6096 71.9597 79.4716 72.8937 78.1402 73.4452C76.8087 73.9967 75.3436 74.141 73.9301 73.8599C72.5166 73.5787 71.2182 72.8847 70.1992 71.8657C69.1801 70.8466 68.4861 69.5483 68.205 68.1348C67.9238 66.7214 68.0681 65.2563 68.6196 63.9249C69.1711 62.5934 70.1051 61.4554 71.3034 60.6548C72.5017 59.8541 73.9105 59.4268 75.3516 59.4268C77.2842 59.4268 79.1376 60.1944 80.5041 61.5609C81.8706 62.9274 82.6383 64.7808 82.6383 66.7133Z" stroke="white" stroke-width="4" stroke-linecap="round" stroke-linejoin="round"/>
<path d="M115.673 66.7133C115.673 68.1545 115.245 69.5632 114.444 70.7615C113.644 71.9597 112.506 72.8937 111.174 73.4452C109.843 73.9967 108.378 74.141 106.964 73.8599C105.551 73.5787 104.252 72.8847 103.233 71.8657C102.214 70.8466 101.52 69.5483 101.239 68.1348C100.958 66.7214 101.102 65.2563 101.654 63.9249C102.205 62.5934 103.139 61.4554 104.338 60.6548C105.536 59.8541 106.945 59.4268 108.386 59.4268C110.318 59.4268 112.172 60.1944 113.538 61.5609C114.905 62.9274 115.673 64.7808 115.673 66.7133Z" stroke="white" stroke-width="4" stroke-linecap="round" stroke-linejoin="round"/>
<path d="M9.28662 59.4268H106.925" stroke="white" stroke-width="4" stroke-linecap="round" stroke-linejoin="round"/>
<path d="M10.7441 74H106.929" stroke="white" stroke-width="4" stroke-linecap="round" stroke-linejoin="round"/>
<path d="M71.9504 37.5669H50.0903V59.4266H71.9504V37.5669Z" stroke="white" stroke-width="4" stroke-linecap="round" stroke-linejoin="round"/>
<path d="M102.555 37.5669H80.6948V59.4266H102.555V37.5669Z" stroke="white" stroke-width="4" stroke-linecap="round" stroke-linejoin="round"/>
<path d="M57.0127 30.2808V22.9924" stroke="white" stroke-width="4" stroke-linecap="round" stroke-linejoin="round"/>
<path d="M55.7447 22.8409L18.9323 12.3136C18.2526 12.1183 17.6192 11.788 17.0701 11.3422C16.521 10.8965 16.0675 10.3447 15.7366 9.71962C15.4057 9.09459 15.2043 8.40923 15.1444 7.70457C15.0845 6.9999 15.1673 6.29036 15.388 5.61844C15.6086 4.94653 15.9625 4.32605 16.4284 3.79405C16.8944 3.26204 17.4629 2.82947 18.0999 2.52223C18.7369 2.215 19.4293 2.03937 20.1357 2.00589C20.8422 1.97242 21.5481 2.08177 22.2113 2.32739L58.0983 15.6491C59.0116 15.9928 59.7569 16.6757 60.1789 17.5555C60.601 18.4353 60.6672 19.444 60.3637 20.3714C60.0602 21.2988 59.4104 22.0732 58.5499 22.5333C57.6894 22.9934 56.6845 23.1036 55.7447 22.8409V22.8409Z" stroke="white" stroke-width="4" stroke-linecap="round" stroke-linejoin="round"/>
<path d="M26.128 14.4706L27.8914 37.9606C27.9661 39.6128 26.4195 41.0574 24.3938 41.2505C22.3681 41.4436 20.5865 40.2868 20.357 38.6492L15.1743 8.04565" stroke="white" stroke-width="4" stroke-linecap="round" stroke-linejoin="round"/>
<path d="M31.5096 44.8523H16.938V52.1407H31.5096V44.8523Z" stroke="white" stroke-width="4" stroke-linecap="round" stroke-linejoin="round"/>
</svg>
