<svg width="99" height="79" viewBox="0 0 99 79" fill="none" >
<path d="M49.4998 63.0717C60.7428 63.0717 69.857 53.9575 69.857 42.7146C69.857 31.4716 60.7428 22.3574 49.4998 22.3574C38.2569 22.3574 29.1427 31.4716 29.1427 42.7146C29.1427 53.9575 38.2569 63.0717 49.4998 63.0717Z" stroke="black" stroke-width="4" stroke-linecap="round" stroke-linejoin="round"/>
<path d="M11.0472 22.3574H26.8806" stroke="black" stroke-width="4" stroke-linecap="round" stroke-linejoin="round"/>
<path d="M69.8571 13.3095L63.0714 2H35.9286L29.1429 13.3095H6.52381C5.32402 13.3095 4.17337 13.7861 3.32499 14.6345C2.47662 15.4829 2 16.6335 2 17.8333V72.119C2 73.3188 2.47662 74.4695 3.32499 75.3179C4.17337 76.1662 5.32402 76.6429 6.52381 76.6429H92.4762C93.676 76.6429 94.8266 76.1662 95.675 75.3179C96.5234 74.4695 97 73.3188 97 72.119V17.8333C97 16.6335 96.5234 15.4829 95.675 14.6345C94.8266 13.7861 93.676 13.3095 92.4762 13.3095H69.8571Z" stroke="black" stroke-width="4" stroke-linecap="round" stroke-linejoin="round"/>
</svg>
