<svg width="104" height="95" viewBox="0 0 104 95" fill="none" >
<path d="M14.988 40.9626H2.00059V86.4187C1.98895 87.2747 2.14895 88.1244 2.47117 88.9175C2.79339 89.7106 3.27127 90.4311 3.87661 91.0364C4.48194 91.6418 5.20245 92.1197 5.99556 92.4419C6.78868 92.7641 7.63833 92.9241 8.49432 92.9125H95.0774C95.9333 92.9241 96.783 92.7641 97.5761 92.4419C98.3692 92.1197 99.0897 91.6418 99.6951 91.0364C100.3 90.4311 100.778 89.7106 101.101 88.9175C101.423 88.1244 101.583 87.2747 101.571 86.4187V40.9626H40.963" stroke="white" stroke-width="4" stroke-linecap="round" stroke-linejoin="round"/>
<path d="M84.2543 53.9504H79.9252" stroke="white" stroke-width="4" stroke-linecap="round" stroke-linejoin="round"/>
<path d="M84.2543 66.9377H79.9252" stroke="white" stroke-width="4" stroke-linecap="round" stroke-linejoin="round"/>
<path d="M84.2543 79.9243H79.9252" stroke="white" stroke-width="4" stroke-linecap="round" stroke-linejoin="round"/>
<path d="M71.2675 53.9504H66.9384" stroke="white" stroke-width="4" stroke-linecap="round" stroke-linejoin="round"/>
<path d="M71.2675 66.9377H66.9384" stroke="white" stroke-width="4" stroke-linecap="round" stroke-linejoin="round"/>
<path d="M71.2675 79.9243H66.9384" stroke="white" stroke-width="4" stroke-linecap="round" stroke-linejoin="round"/>
<path d="M58.2786 53.9504H53.9495" stroke="white" stroke-width="4" stroke-linecap="round" stroke-linejoin="round"/>
<path d="M58.2786 66.9377H53.9495" stroke="white" stroke-width="4" stroke-linecap="round" stroke-linejoin="round"/>
<path d="M58.2786 79.9243H53.9495" stroke="white" stroke-width="4" stroke-linecap="round" stroke-linejoin="round"/>
<path d="M34.4699 19.3164H21.3959C17.8334 19.3164 14.9454 22.2044 14.9454 25.7668V77.8033C14.9454 81.3657 17.8334 84.2537 21.3959 84.2537H34.4699C38.0324 84.2537 40.9203 81.3657 40.9203 77.8033V25.7668C40.9203 22.2044 38.0324 19.3164 34.4699 19.3164Z" stroke="white" stroke-width="4" stroke-linecap="round" stroke-linejoin="round"/>
<path d="M49.6208 40.9624V2H77.7603L92.8691 17.152V41.0057" stroke="white" stroke-width="4" stroke-linecap="round" stroke-linejoin="round"/>
<path d="M75.5966 2V14.9875C75.618 15.5547 75.8529 16.0929 76.2543 16.4943C76.6557 16.8957 77.1939 17.1306 77.7611 17.152H92.7833" stroke="white" stroke-width="4" stroke-linecap="round" stroke-linejoin="round"/>
</svg>
