<svg width="109" height="69" viewBox="0 0 109 69" fill="none" >
<path d="M48.5712 55.4247H9.12329V6.64562C9.12329 5.41353 9.61225 4.2319 10.4826 3.36067C11.3529 2.48945 12.5334 2 13.7642 2H81.0577C82.26 2.08629 83.3911 2.60345 84.2434 3.45668C85.0958 4.30991 85.6124 5.44206 85.6986 6.64562" stroke="white" stroke-width="4" stroke-miterlimit="10"/>
<path d="M48.3014 66.9999H11.2603C6.63014 66.9999 2 64.6848 2 60.1473V55.4246H48.3014" stroke="white" stroke-width="4" stroke-miterlimit="10"/>
<path d="M81.0173 67.0001H55.4247L55.4711 13.5754H97.274V27.4194" stroke="white" stroke-width="4" stroke-linejoin="round"/>
<path d="M106.178 34.9453H87.4795V67.0001H106.178V34.9453Z" stroke="white" stroke-width="4" stroke-linejoin="round"/>
<path d="M76.3493 62.548C77.5787 62.548 78.5753 61.5514 78.5753 60.322C78.5753 59.0926 77.5787 58.0959 76.3493 58.0959C75.1199 58.0959 74.1233 59.0926 74.1233 60.322C74.1233 61.5514 75.1199 62.548 76.3493 62.548Z" fill="white"/>
<path d="M96.8288 62.548C98.0582 62.548 99.0548 61.5514 99.0548 60.322C99.0548 59.0926 98.0582 58.0959 96.8288 58.0959C95.5994 58.0959 94.6028 59.0926 94.6028 60.322C94.6028 61.5514 95.5994 62.548 96.8288 62.548Z" fill="white"/>
</svg>
