<svg width="113" height="75" viewBox="0 0 113 75" fill="none" >
<path d="M95.9541 58.447H16.0541C14.8076 58.447 13.6121 57.9518 12.7307 57.0704C11.8493 56.189 11.3541 54.9935 11.3541 53.747V6.7C11.3541 5.45348 11.8493 4.25802 12.7307 3.3766C13.6121 2.49518 14.8076 2 16.0541 2H95.9541C97.2006 2 98.3961 2.49518 99.2775 3.3766C100.159 4.25802 100.654 5.45348 100.654 6.7V53.7C100.66 54.3212 100.543 54.9374 100.31 55.5131C100.077 56.0887 99.7313 56.6124 99.2943 57.0538C98.8572 57.4953 98.337 57.8457 97.7637 58.0848C97.1903 58.3239 96.5753 58.447 95.9541 58.447Z" stroke="white" stroke-width="4" stroke-miterlimit="10"/>
<path d="M2 58.3999H110.1V63.0999C110.1 65.5929 109.11 67.9839 107.347 69.7467C105.584 71.5095 103.193 72.4999 100.7 72.4999H11.4C8.90696 72.4999 6.51604 71.5095 4.7532 69.7467C2.99035 67.9839 2 65.5929 2 63.0999V58.3999Z" stroke="white" stroke-width="4" stroke-miterlimit="10"/>
</svg>
