<svg width="58" height="99" viewBox="0 0 58 99" fill="none" >
<path d="M53.8193 96.346H4.36707C4.0605 96.4264 3.73862 96.4283 3.43111 96.3516C3.1236 96.2749 2.84035 96.122 2.60746 95.907C2.37458 95.6921 2.19955 95.4219 2.09851 95.1215C1.99748 94.8211 1.97369 94.5001 2.02932 94.1881V4.275C1.98684 3.97773 2.0126 3.67469 2.10464 3.38885C2.19668 3.10302 2.35259 2.84189 2.56055 2.62526C2.76851 2.40864 3.02306 2.2422 3.30491 2.13857C3.58675 2.03495 3.88848 1.99685 4.18724 2.02717H53.6395C53.9502 1.97573 54.2686 1.99754 54.5694 2.09087C54.8702 2.1842 55.1451 2.34648 55.3721 2.56477C55.5991 2.78306 55.772 3.05134 55.8771 3.34826C55.9821 3.64517 56.0164 3.9625 55.9772 4.275V94.1881C56.0233 94.482 55.9993 94.7827 55.9071 95.0655C55.815 95.3484 55.6573 95.6055 55.447 95.8158C55.2366 96.0262 54.9795 96.1838 54.6967 96.276C54.4138 96.3681 54.1132 96.3921 53.8193 96.346V96.346Z" stroke="white" stroke-width="4" stroke-linecap="round" stroke-linejoin="round"/>
<path d="M55.9791 78.4526H2.03125" stroke="white" stroke-width="4" stroke-linecap="round" stroke-linejoin="round"/>
<path d="M29.0047 89.6919C30.2461 89.6919 31.2525 88.6856 31.2525 87.4441C31.2525 86.2027 30.2461 85.1963 29.0047 85.1963C27.7632 85.1963 26.7568 86.2027 26.7568 87.4441C26.7568 88.6856 27.7632 89.6919 29.0047 89.6919Z" fill="white"/>
</svg>
