<svg width="109" height="69" viewBox="0 0 109 69" fill="none" >
<path d="M48.5712 55.4247H9.12329V6.64562C9.12329 5.41353 9.61225 4.2319 10.4826 3.36067C11.3529 2.48945 12.5334 2 13.7642 2H81.0577C82.26 2.08629 83.3911 2.60345 84.2434 3.45668C85.0958 4.30991 85.6124 5.44206 85.6986 6.64562" stroke="black" stroke-width="4" stroke-miterlimit="10"/>
<path d="M48.3014 67.0001H11.2603C6.63014 67.0001 2 64.6851 2 60.1475V55.4248H48.3014" stroke="black" stroke-width="4" stroke-miterlimit="10"/>
<path d="M81.0173 66.9999H55.4247L55.4711 13.5752H97.274V27.4191" stroke="black" stroke-width="4" stroke-linejoin="round"/>
<path d="M106.178 34.9453H87.4795V67.0001H106.178V34.9453Z" stroke="black" stroke-width="4" stroke-linejoin="round"/>
<path d="M76.3493 62.5478C77.5787 62.5478 78.5753 61.5511 78.5753 60.3217C78.5753 59.0923 77.5787 58.0957 76.3493 58.0957C75.1199 58.0957 74.1233 59.0923 74.1233 60.3217C74.1233 61.5511 75.1199 62.5478 76.3493 62.5478Z" fill="black"/>
<path d="M96.8288 62.5478C98.0582 62.5478 99.0548 61.5511 99.0548 60.3217C99.0548 59.0923 98.0582 58.0957 96.8288 58.0957C95.5994 58.0957 94.6028 59.0923 94.6028 60.3217C94.6028 61.5511 95.5994 62.5478 96.8288 62.5478Z" fill="black"/>
</svg>
