<svg width="80" height="98" viewBox="0 0 80 98" fill="none" >
<path d="M76.2262 24.928L55.0378 3.69507C54.5219 3.16284 53.9052 2.73881 53.2235 2.44776C52.5418 2.15671 51.809 2.00449 51.0678 2H6.46071C5.27765 2 4.14306 2.46997 3.30651 3.30651C2.46997 4.14306 2 5.27765 2 6.46071V91.2142C2 92.3972 2.46997 93.5318 3.30651 94.3684C4.14306 95.2049 5.27765 95.6749 6.46071 95.6749H73.3713C74.5544 95.6749 75.689 95.2049 76.5255 94.3684C77.3621 93.5318 77.832 92.3972 77.832 91.2142V28.7642C77.8527 28.0474 77.7201 27.3344 77.4432 26.6728C77.1662 26.0113 76.7513 25.4164 76.2262 24.928V24.928Z" stroke="white" stroke-width="4" stroke-linecap="round" stroke-linejoin="round"/>
<path d="M51.0677 2V24.3035C51.0677 25.4866 51.5377 26.6212 52.3742 27.4577C53.2107 28.2943 54.3453 28.7642 55.5284 28.7642H77.8319" stroke="white" stroke-width="4" stroke-linecap="round" stroke-linejoin="round"/>
<path d="M15.3824 77.8318H64.4502" stroke="white" stroke-width="4" stroke-linecap="round" stroke-linejoin="round"/>
<path d="M15.3824 64.4502H64.4502" stroke="white" stroke-width="4" stroke-linecap="round" stroke-linejoin="round"/>
<path d="M15.3824 51.0676H64.4502" stroke="white" stroke-width="4" stroke-linecap="round" stroke-linejoin="round"/>
</svg>
