<svg width="78" height="98" viewBox="0 0 78 98" fill="none" >
<path d="M74.13 24.9L52.92 3.71004C51.8227 2.61767 50.3383 2.00306 48.79 2.00004H6.79C6.16191 1.99741 5.53949 2.11884 4.95846 2.35738C4.37742 2.59592 3.84922 2.94685 3.40417 3.39005C2.95911 3.83325 2.60596 4.35998 2.365 4.94001C2.12403 5.52004 1.99999 6.14195 2 6.77004V90.77C2 92.0351 2.50255 93.2484 3.3971 94.1429C4.29165 95.0375 5.50492 95.54 6.77 95.54H71.07C72.3351 95.54 73.5483 95.0375 74.4429 94.1429C75.3374 93.2484 75.84 92.0351 75.84 90.77V29.04C75.8409 28.2715 75.6903 27.5103 75.3969 26.7999C75.1035 26.0895 74.673 25.444 74.13 24.9V24.9Z" stroke="white" stroke-width="4" stroke-linecap="round" stroke-linejoin="round"/>
<path d="M48.7695 2V24.31C48.7695 25.5751 49.2721 26.7884 50.1666 27.6829C51.0612 28.5774 52.2745 29.08 53.5395 29.08H75.8395" stroke="white" stroke-width="4" stroke-linecap="round" stroke-linejoin="round"/>
<path d="M14.3096 83.2299V75.8499L24.1496 65.9999L31.5396 73.3899L51.2296 53.6899L63.5396 68.4599V83.2299H14.3096Z" stroke="white" stroke-width="4" stroke-linecap="round" stroke-linejoin="round"/>
<path d="M21.6896 56.1501C25.7654 56.1501 29.0696 52.846 29.0696 48.7701C29.0696 44.6943 25.7654 41.3901 21.6896 41.3901C17.6137 41.3901 14.3096 44.6943 14.3096 48.7701C14.3096 52.846 17.6137 56.1501 21.6896 56.1501Z" stroke="white" stroke-width="4" stroke-linecap="round" stroke-linejoin="round"/>
</svg>
