<svg width="78" height="98" viewBox="0 0 78 98" fill="none" >
<path d="M74.45 24.8879L53.7545 3.71729C53.2553 3.17957 52.6548 2.75064 51.9891 2.45636C51.3234 2.16208 50.6062 2.00853 49.8809 2.00496H6.35722C5.77825 1.97635 5.1998 2.07181 4.65907 2.2852C4.11834 2.4986 3.62727 2.82521 3.2174 3.24405C2.80752 3.66289 2.48792 4.16472 2.2791 4.71728C2.07027 5.26984 1.97686 5.86091 2.00485 6.45255V90.9569C1.97686 91.5486 2.07027 92.1397 2.2791 92.6922C2.48792 93.2448 2.80752 93.7466 3.2174 94.1654C3.62727 94.5843 4.11834 94.9109 4.65907 95.1243C5.1998 95.3377 5.77825 95.4332 6.35722 95.4045H71.6428C72.2218 95.4332 72.8002 95.3377 73.3409 95.1243C73.8816 94.9109 74.3727 94.5843 74.7826 94.1654C75.1924 93.7466 75.512 93.2448 75.7209 92.6922C75.9297 92.1397 76.0231 91.5486 75.9952 90.9569V28.6906C76.0149 27.9812 75.8875 27.2755 75.6212 26.6201C75.3548 25.9647 74.9557 25.3743 74.45 24.8879Z" stroke="black" stroke-width="4" stroke-linecap="round" stroke-linejoin="round"/>
<path d="M49.837 2.00488V24.2429C49.837 25.4225 50.2955 26.5537 51.1118 27.3878C51.928 28.2219 53.035 28.6905 54.1893 28.6905H75.9512" stroke="black" stroke-width="4" stroke-linecap="round" stroke-linejoin="round"/>
<path d="M49.8374 55.3758H28.0756V49.8163C28.0756 43.1449 32.058 37.5854 36.9762 37.5854H40.9368C45.855 37.5854 49.8374 43.1449 49.8374 49.8163V55.3758Z" stroke="black" stroke-width="4"/>
<path d="M38.9565 68.7192C41.3602 68.7192 43.3089 67.2258 43.3089 65.3836C43.3089 63.5413 41.3602 62.0479 38.9565 62.0479C36.5527 62.0479 34.6041 63.5413 34.6041 65.3836C34.6041 67.2258 36.5527 68.7192 38.9565 68.7192Z" stroke="black" stroke-width="4"/>
<path d="M38.9563 68.8745V75.1011" stroke="black" stroke-width="4" stroke-linecap="round"/>
<path d="M48.1402 82.0633H29.7732C28.1687 82.0633 26.6299 81.412 25.4953 80.2526C24.3608 79.0932 23.7234 77.5208 23.7234 75.8812V57.3791C23.7234 56.8424 23.932 56.3277 24.3034 55.9482C24.6748 55.5687 25.1785 55.3555 25.7037 55.3555H52.2096C52.7349 55.3555 53.2386 55.5687 53.6099 55.9482C53.9813 56.3277 54.19 56.8424 54.19 57.3791V75.8589C54.1957 76.6734 54.0434 77.4811 53.7416 78.235C53.4399 78.989 52.9949 79.6743 52.4322 80.2513C51.8696 80.8283 51.2005 81.2856 50.4638 81.5966C49.7271 81.9076 48.9373 82.0663 48.1402 82.0633V82.0633Z" stroke="black" stroke-width="4" stroke-linecap="round" stroke-linejoin="round"/>
</svg>
