<svg width="78" height="98" viewBox="0 0 78 98" fill="none" >
<path d="M74.13 24.9L52.92 3.71004C51.8227 2.61767 50.3383 2.00306 48.79 2.00004H6.79C6.16191 1.99741 5.53949 2.11884 4.95846 2.35738C4.37742 2.59592 3.84922 2.94685 3.40417 3.39005C2.95911 3.83325 2.60596 4.35998 2.365 4.94001C2.12403 5.52004 1.99999 6.14195 2 6.77004V90.77C2 92.0351 2.50255 93.2484 3.3971 94.1429C4.29165 95.0375 5.50492 95.54 6.77 95.54H71.07C72.3351 95.54 73.5483 95.0375 74.4429 94.1429C75.3374 93.2484 75.84 92.0351 75.84 90.77V29.04C75.8409 28.2715 75.6903 27.5103 75.3969 26.7999C75.1035 26.0895 74.673 25.444 74.13 24.9V24.9Z" stroke="black" stroke-width="4" stroke-linecap="round" stroke-linejoin="round"/>
<path d="M48.7695 2V24.31C48.7695 25.5751 49.2721 26.7884 50.1666 27.6829C51.0612 28.5774 52.2745 29.08 53.5395 29.08H75.8395" stroke="black" stroke-width="4" stroke-linecap="round" stroke-linejoin="round"/>
<path d="M9.38035 57.3998C12.0804 57.3998 14.8904 57.3398 17.7104 57.3398C22.8204 57.3398 26.5904 59.0198 26.5904 64.1298C26.5904 68.9698 22.9404 70.9898 17.4904 70.9898C15.9304 70.9898 14.7404 70.9898 13.3604 70.9898V78.3098H9.36035L9.38035 57.3998ZM17.6204 60.6698C16.0604 60.6698 14.6804 60.6698 13.3604 60.6698V67.6198C14.7104 67.6198 16.0604 67.6198 17.6204 67.6198C21.2304 67.6198 22.3904 66.2798 22.3904 64.1298C22.3904 61.9798 21.2304 60.6698 17.6204 60.6698Z" fill="black"/>
<path d="M30.3799 57.3999C32.7699 57.3999 35.1899 57.3999 37.3799 57.3999C40.9699 57.3999 43.7799 57.9499 46.0199 60.1799C46.9731 61.1925 47.7137 62.3859 48.1981 63.6895C48.6824 64.9931 48.9006 66.3806 48.8399 67.7699C48.9564 70.6369 47.948 73.4359 46.0299 75.5699C44.0299 77.5699 41.2799 78.3299 37.5799 78.3299H30.3799V57.3999ZM34.3299 74.8799C35.3299 74.9399 36.5099 74.9699 37.5499 74.9699C39.7199 74.9699 41.3699 74.8499 42.7499 73.4399C43.4242 72.6805 43.9398 71.7938 44.2661 70.832C44.5924 69.8702 44.7229 68.8529 44.6499 67.8399C44.7394 65.8018 44.0206 63.8108 42.6499 62.2999C41.2099 60.8599 39.6499 60.6699 37.2599 60.6699C36.0099 60.6699 35.1799 60.6699 34.2599 60.6699L34.3299 74.8799Z" fill="black"/>
<path d="M53.6899 57.3999H68.1999V60.6099H57.6699V66.5499H66.8199V69.6399H57.6699V78.2799H53.6699L53.6899 57.3999Z" fill="black"/>
</svg>
