<svg width="90" height="105" viewBox="0 0 90 105" fill="none" >
<path d="M83.1549 87.9286H30.643C29.3769 87.9286 28.1626 87.4256 27.2674 86.5304C26.3721 85.6351 25.8691 84.4209 25.8691 83.1548V6.77381C25.8691 5.50772 26.3721 4.29348 27.2674 3.39822C28.1626 2.50295 29.3769 2 30.643 2H64.0596L87.9287 25.869V83.1548C87.9287 84.4209 87.4257 85.6351 86.5305 86.5304C85.6352 87.4256 84.4209 87.9286 83.1549 87.9286Z" stroke="black" stroke-width="4" stroke-linejoin="round"/>
<path d="M64.0595 95.0891V97.476C64.0595 98.7421 63.5566 99.9564 62.6613 100.852C61.766 101.747 60.5518 102.25 59.2857 102.25H6.77381C5.50772 102.25 4.29348 101.747 3.39822 100.852C2.50295 99.9564 2 98.7421 2 97.476V21.0951C2 19.829 2.50295 18.6148 3.39822 17.7195C4.29348 16.8242 5.50772 16.3213 6.77381 16.3213H18.7083" stroke="black" stroke-width="4" stroke-linejoin="round"/>
<path d="M64.0594 2V21.0952C64.0594 22.3613 64.5623 23.5756 65.4576 24.4708C66.3529 25.3661 67.5671 25.869 68.8332 25.869H87.9284" stroke="black" stroke-width="4" stroke-linejoin="round"/>
</svg>
