<svg width="98" height="78" viewBox="0 0 98 78" fill="none" >
<path d="M2 2V75.85H95.54" stroke="white" stroke-width="4" stroke-linecap="round" stroke-linejoin="round"/>
<path d="M90.6202 11.84C93.3374 11.84 95.5402 9.63724 95.5402 6.92C95.5402 4.20276 93.3374 2 90.6202 2C87.903 2 85.7002 4.20276 85.7002 6.92C85.7002 9.63724 87.903 11.84 90.6202 11.84Z" stroke="white" stroke-width="4" stroke-linecap="round" stroke-linejoin="round"/>
<path d="M61.0802 43.84C63.7974 43.84 66.0002 41.6372 66.0002 38.92C66.0002 36.2028 63.7974 34 61.0802 34C58.3629 34 56.1602 36.2028 56.1602 38.92C56.1602 41.6372 58.3629 43.84 61.0802 43.84Z" stroke="white" stroke-width="4" stroke-linecap="round" stroke-linejoin="round"/>
<path d="M36.46 24.1501C39.1773 24.1501 41.38 21.9473 41.38 19.2301C41.38 16.5128 39.1773 14.3101 36.46 14.3101C33.7428 14.3101 31.54 16.5128 31.54 19.2301C31.54 21.9473 33.7428 24.1501 36.46 24.1501Z" stroke="white" stroke-width="4" stroke-linecap="round" stroke-linejoin="round"/>
<path d="M31.9803 23.1201L11.8203 41.4001" stroke="white" stroke-width="4" stroke-linecap="round" stroke-linejoin="round"/>
<path d="M40.4102 22.71L56.7102 35.88" stroke="white" stroke-width="4" stroke-linecap="round" stroke-linejoin="round"/>
<path d="M66 33.9998L87.53 11.5098" stroke="white" stroke-width="4" stroke-linecap="round" stroke-linejoin="round"/>
</svg>
