<svg width="104" height="96" viewBox="0 0 104 96" fill="none" >
<path d="M2.0166 51.7013L18.5836 10.2837L35.1507 51.7013" stroke="white" stroke-width="4" stroke-linecap="round" stroke-linejoin="round"/>
<path d="M18.584 10.2837H84.8521" stroke="white" stroke-width="4" stroke-linecap="round" stroke-linejoin="round"/>
<path d="M51.7168 93.1186V2" stroke="white" stroke-width="4" stroke-linecap="round" stroke-linejoin="round"/>
<path d="M35.1494 93.1187H68.2835" stroke="white" stroke-width="4" stroke-linecap="round" stroke-linejoin="round"/>
<path d="M35.1485 51.7012C35.2422 53.9018 34.8779 56.0979 34.0785 58.1504C33.2791 60.2028 32.0621 62.0668 30.5046 63.6243C28.9471 65.1818 27.0831 66.3988 25.0306 67.1982C22.9782 67.9976 20.7821 68.362 18.5814 68.2682C16.3808 68.362 14.1847 67.9976 12.1322 67.1982C10.0798 66.3988 8.21577 65.1818 6.65827 63.6243C5.10078 62.0668 3.88378 60.2028 3.08439 58.1504C2.285 56.0979 1.92065 53.9018 2.01442 51.7012H35.1485Z" stroke="white" stroke-width="4" stroke-linecap="round" stroke-linejoin="round"/>
<path d="M68.2842 51.7013L84.8512 10.2837L101.418 51.7013" stroke="white" stroke-width="4" stroke-linecap="round" stroke-linejoin="round"/>
<path d="M101.416 51.7012C101.51 53.9018 101.145 56.0979 100.346 58.1504C99.5467 60.2028 98.3297 62.0668 96.7722 63.6243C95.2147 65.1818 93.3507 66.3988 91.2982 67.1982C89.2458 67.9976 87.0497 68.362 84.849 68.2682C82.6484 68.362 80.4523 67.9976 78.3998 67.1982C76.3474 66.3988 74.4833 65.1818 72.9259 63.6243C71.3684 62.0668 70.1514 60.2028 69.352 58.1504C68.5526 56.0979 68.1882 53.9018 68.282 51.7012H101.416Z" stroke="white" stroke-width="4" stroke-linecap="round" stroke-linejoin="round"/>
</svg>
