<svg width="118" height="110" viewBox="0 0 118 110" fill="none" >
<path d="M88.8128 92.1301C82.9016 98.0433 75.6235 102.408 67.623 104.837C59.6225 107.266 51.1464 107.685 42.9454 106.056C34.7444 104.428 27.0716 100.802 20.6063 95.5001C14.141 90.1983 9.08278 83.3841 5.87959 75.6609C2.67641 67.9377 1.42709 59.5437 2.24226 51.2224C3.05744 42.9011 5.91195 34.9092 10.553 27.9544C15.1941 20.9996 21.4785 15.2966 28.8498 11.3503C36.221 7.40397 44.4516 5.3362 52.8128 5.33008V56.1801L88.8128 92.1801V92.1301Z" stroke="black" stroke-width="4" stroke-linecap="round" stroke-linejoin="round"/>
<path d="M69.0332 2.02V40.02L93.4332 15.58C86.7275 8.86376 78.275 4.15948 69.0332 2V2.02Z" stroke="black" stroke-width="4" stroke-linecap="round" stroke-linejoin="round"/>
<path d="M106.622 84.5801L78.2725 56.1801L106.622 27.8301C112.245 36.2139 115.247 46.0805 115.247 56.1751C115.247 66.2697 112.245 76.1363 106.622 84.5201V84.5801Z" stroke="black" stroke-width="4" stroke-linecap="round" stroke-linejoin="round"/>
</svg>
