<svg width="97" height="81" viewBox="0 0 97 81" fill="none" >
<path d="M2 2V78.413H94.5" stroke="black" stroke-width="4" stroke-linecap="round" stroke-linejoin="round"/>
<path d="M14.0654 70.3695V38.1956L30.1524 27.3771C30.7345 26.9806 31.4001 26.7236 32.0975 26.626C32.795 26.5283 33.5056 26.5927 34.1741 26.814L47.0839 31.1575C47.991 31.4492 48.9664 31.451 49.8746 31.1627C50.7828 30.8744 51.5785 30.3103 52.1513 29.5488L66.3078 10.6466C66.8778 9.88265 67.6756 9.31919 68.5861 9.03735C69.4967 8.7555 70.4733 8.76979 71.3752 9.07816L86.4567 14.1053V70.4097L14.0654 70.3695Z" stroke="black" stroke-width="4" stroke-linecap="round" stroke-linejoin="round"/>
<path d="M14.0654 52.2713L30.1524 42.2169C30.7346 41.9574 31.3649 41.8233 32.0024 41.8233C32.6398 41.8233 33.2701 41.9574 33.8524 42.2169L47.4459 53.1158C48.246 53.4558 49.1274 53.5569 49.9838 53.4071C50.8401 53.2572 51.6348 52.8627 52.272 52.2713L66.4687 39.643C67.0095 39.1656 67.6571 38.8251 68.357 38.6501C69.0569 38.4751 69.7885 38.4708 70.4904 38.6376L86.4567 40.206" stroke="black" stroke-width="4" stroke-linecap="round" stroke-linejoin="round"/>
</svg>
