<svg width="97" height="81" viewBox="0 0 97 81" fill="none" >
<path d="M2 2V78.413H94.5" stroke="white" stroke-width="4" stroke-linecap="round" stroke-linejoin="round"/>
<path d="M14.0654 70.3692V38.1953L30.1524 27.3768C30.7345 26.9804 31.4001 26.7234 32.0975 26.6257C32.795 26.5281 33.5056 26.5924 34.1741 26.8138L47.0839 31.1573C47.991 31.4489 48.9664 31.4507 49.8746 31.1624C50.7828 30.8741 51.5785 30.31 52.1513 29.5486L66.3078 10.6464C66.8778 9.88241 67.6756 9.31895 68.5861 9.0371C69.4967 8.75525 70.4733 8.76954 71.3752 9.07792L86.4567 14.1051V70.4094L14.0654 70.3692Z" stroke="white" stroke-width="4" stroke-linecap="round" stroke-linejoin="round"/>
<path d="M14.0654 52.2713L30.1524 42.2169C30.7346 41.9574 31.3649 41.8233 32.0024 41.8233C32.6398 41.8233 33.2701 41.9574 33.8524 42.2169L47.4459 53.1158C48.246 53.4558 49.1274 53.5569 49.9838 53.4071C50.8401 53.2572 51.6348 52.8627 52.272 52.2713L66.4687 39.643C67.0095 39.1656 67.6571 38.8251 68.357 38.6501C69.0569 38.4751 69.7885 38.4708 70.4904 38.6376L86.4567 40.206" stroke="white" stroke-width="4" stroke-linecap="round" stroke-linejoin="round"/>
</svg>
