<svg width="110" height="66" viewBox="0 0 110 66" fill="none" >
<path d="M105.882 41.0835C107.28 43.3798 108.013 46.0188 108 48.707C108 52.6384 106.438 56.4088 103.658 59.1888C100.878 61.9687 97.1076 63.5305 93.1762 63.5305C89.2448 63.5305 85.4743 61.9687 82.6944 59.1888C79.9145 56.4088 78.3527 52.6384 78.3527 48.707C78.3396 46.0188 79.0727 43.3798 80.4704 41.0835" stroke="black" stroke-width="4" stroke-linecap="round"/>
<path d="M4.23528 48.9598V6.0988C4.23528 5.60456 4.43161 5.13057 4.78109 4.78109C5.13057 4.43161 5.60457 4.23528 6.0988 4.23528H91.3126C91.8069 4.23528 92.2808 4.43161 92.6303 4.78109C92.9798 5.13057 93.1761 5.60456 93.1761 6.0988V10.5882H97.4114V6.0988C97.4003 4.48472 96.7542 2.93991 95.6129 1.79856C94.4715 0.657205 92.9267 0.0110937 91.3126 0H6.0988C4.48473 0.0110937 2.93991 0.657205 1.79856 1.79856C0.657206 2.93991 0.0110937 4.48472 0 6.0988V48.9598C0.0110937 50.5739 0.657206 52.1187 1.79856 53.2601C2.93991 54.4014 4.48473 55.0475 6.0988 55.0586H71.9997V50.8233H6.0988C5.85408 50.8233 5.61176 50.7751 5.38566 50.6815C5.15957 50.5878 4.95414 50.4506 4.78109 50.2775C4.60805 50.1045 4.47078 49.8991 4.37713 49.673C4.28348 49.4469 4.23528 49.2045 4.23528 48.9598V48.9598Z" fill="black"/>
<path d="M93.176 46.5889C101.363 46.5889 107.999 39.9522 107.999 31.7654C107.999 23.5786 101.363 16.9419 93.176 16.9419C84.9892 16.9419 78.3525 23.5786 78.3525 31.7654C78.3525 39.9522 84.9892 46.5889 93.176 46.5889Z" stroke="black" stroke-width="4" stroke-linecap="round"/>
<path d="M93.1748 27.5288V35.9994" stroke="black" stroke-width="4" stroke-linecap="round" stroke-linejoin="round"/>
<path d="M12.7061 10.5889H21.1766" stroke="black" stroke-width="4" stroke-linecap="round"/>
<path d="M12.7061 44.4712H21.1766" stroke="black" stroke-width="4" stroke-linecap="round"/>
<path d="M48.7068 44.4711C55.7241 44.4711 61.4127 36.8863 61.4127 27.53C61.4127 18.1737 55.7241 10.5889 48.7068 10.5889C41.6896 10.5889 36.001 18.1737 36.001 27.53C36.001 36.8863 41.6896 44.4711 48.7068 44.4711Z" stroke="black" stroke-width="4" stroke-linecap="round"/>
</svg>
