<svg width="76" height="108" viewBox="0 0 76 108" fill="none" >
<path d="M16.7695 58.6201H31.5395" stroke="black" stroke-width="4" stroke-miterlimit="10"/>
<path d="M18.9297 88.4498L29.3797 78.0098" stroke="black" stroke-width="4" stroke-miterlimit="10"/>
<path d="M43.8496 88.1499H58.6196" stroke="black" stroke-width="4" stroke-miterlimit="10"/>
<path d="M43.8496 78.3101H58.6196" stroke="black" stroke-width="4" stroke-miterlimit="10"/>
<path d="M24.1504 66V51.23" stroke="black" stroke-width="4" stroke-miterlimit="10"/>
<path d="M18.9297 78.0098L29.3797 88.4498" stroke="black" stroke-width="4" stroke-miterlimit="10"/>
<path d="M43.8496 58.6201H58.6196" stroke="black" stroke-width="4" stroke-miterlimit="10"/>
<path d="M63.5396 11.8501H11.8496V38.9301H63.5396V11.8501Z" stroke="black" stroke-width="4" stroke-miterlimit="10"/>
<path d="M66.76 2H8.62C4.96387 2 2 4.96387 2 8.62V98.76C2 102.416 4.96387 105.38 8.62 105.38H66.76C70.4161 105.38 73.38 102.416 73.38 98.76V8.62C73.38 4.96387 70.4161 2 66.76 2Z" stroke="black" stroke-width="4" stroke-miterlimit="10"/>
</svg>
