<svg width="106" height="89" viewBox="0 0 106 89" fill="none" >
<path d="M58.4897 9.39987L63.0098 5.63987C65.5798 3.49698 68.8862 2.44477 72.222 2.70826C75.5578 2.97176 78.6581 4.53006 80.8597 7.04987V7.04987C83.0642 9.56596 86.1649 11.1207 89.4999 11.3823C92.8348 11.6439 96.1399 10.5915 98.7097 8.44987L103.22 4.68987V34.4399C103.218 34.6034 103.182 34.7647 103.113 34.913C103.044 35.0613 102.944 35.1932 102.82 35.2999L98.7097 38.7499C96.1399 40.8915 92.8348 41.9439 89.4999 41.6823C86.1649 41.4207 83.0642 39.866 80.8597 37.3499V37.3499C79.287 35.5298 77.2336 34.1894 74.9345 33.482C72.6354 32.7746 70.1836 32.7288 67.8597 33.3499" stroke="black" stroke-width="3.83" stroke-linecap="round" stroke-linejoin="round"/>
<path d="M19.6598 25.5398C22.9072 25.5398 25.5398 22.9072 25.5398 19.6598C25.5398 16.4124 22.9072 13.7798 19.6598 13.7798C16.4124 13.7798 13.7798 16.4124 13.7798 19.6598C13.7798 22.9072 16.4124 25.5398 19.6598 25.5398Z" stroke="black" stroke-width="3.83" stroke-miterlimit="10"/>
<path d="M49.08 58.37C48.27 58.61 47.48 58.87 46.72 59.14L25.85 66.51C23.1026 67.4696 20.21 67.9466 17.3 67.92C8.85 67.92 2 64.23 2 59.68C2 57.37 3.76 55.29 6.59 53.79" stroke="black" stroke-width="3.83" stroke-linecap="round" stroke-linejoin="round"/>
<path d="M65.5601 84.3999C82.4601 84.3999 96.1601 78.0699 96.1601 70.2699C96.1601 62.8399 83.7101 56.7399 67.9101 56.1899" stroke="black" stroke-width="3.83" stroke-linecap="round" stroke-linejoin="round"/>
<path d="M58.5 2V86.75" stroke="black" stroke-width="3.83" stroke-miterlimit="10" stroke-linecap="round"/>
<path d="M37.31 19.6597C37.31 25.9497 29.96 38.3297 24.75 46.3197C24.1977 47.1678 23.4425 47.8646 22.5528 48.347C21.6631 48.8293 20.6671 49.082 19.655 49.082C18.6429 49.082 17.6469 48.8293 16.7572 48.347C15.8675 47.8646 15.1123 47.1678 14.56 46.3197C9.34 38.3197 2 25.9497 2 19.6597C2.10971 15.0501 4.01796 10.6661 7.31695 7.44473C10.616 4.22331 15.044 2.41992 19.655 2.41992C24.266 2.41992 28.694 4.22331 31.993 7.44473C35.292 10.6661 37.2003 15.0501 37.31 19.6597V19.6597Z" stroke="black" stroke-width="3.83" stroke-miterlimit="10"/>
</svg>
