<svg width="81" height="112" viewBox="0 0 81 112" fill="none" >
<path d="M40.5799 59.9301C50.0571 59.9301 57.7399 52.2473 57.7399 42.7701C57.7399 33.2929 50.0571 25.6101 40.5799 25.6101C31.1027 25.6101 23.4199 33.2929 23.4199 42.7701C23.4199 52.2473 31.1027 59.9301 40.5799 59.9301Z" stroke="white" stroke-width="3.49" stroke-miterlimit="10"/>
<path d="M74.13 60.7L48.53 104.82C47.6873 106.17 46.5183 107.286 45.1306 108.066C43.743 108.845 42.1815 109.263 40.59 109.28C39.0737 109.259 37.589 108.843 36.2825 108.074C34.976 107.304 33.8929 106.206 33.14 104.89L7.14 59.99C3.79296 54.0813 2.02286 47.4108 2 40.62C2 30.3773 6.06888 20.5542 13.3115 13.3115C20.5542 6.06888 30.3773 2 40.62 2C50.8627 2 60.6858 6.06888 67.9285 13.3115C75.1711 20.5542 79.24 30.3773 79.24 40.62C79.3709 47.6508 77.6058 54.5871 74.13 60.7V60.7Z" stroke="white" stroke-width="3.49" stroke-miterlimit="10"/>
</svg>
