<svg width="102" height="96" viewBox="0 0 102 96" fill="none" >
<path d="M35.4227 94L2.98608 82.5903V7.28174L35.4227 18.6915V94Z" stroke="white" stroke-width="4" stroke-linejoin="round"/>
<path d="M67.1975 78.014L35.4229 93.9998V18.6336L67.1975 2.64771V78.014Z" stroke="white" stroke-width="4" stroke-linejoin="round"/>
<path d="M9.60571 43.0281L29.4649 56.2675" stroke="white" stroke-width="4" stroke-miterlimit="10" stroke-linecap="round" stroke-dasharray="20 30"/>
<path d="M36.085 58.2536L63.2258 43.6902" stroke="white" stroke-width="4" stroke-miterlimit="10" stroke-linecap="round" stroke-dasharray="20 35"/>
<path d="M74.9295 6.93566L67.1975 2.64771V77.3903L99.6341 93.9998V44.5951" stroke="white" stroke-width="4" stroke-linecap="round" stroke-linejoin="round"/>
<path d="M98.9715 23.3804C98.9715 27.4656 94.1517 34.7223 90.73 39.9145C90.3668 40.4642 89.871 40.9157 89.2873 41.2282C88.7037 41.5406 88.0506 41.7043 87.387 41.7043C86.7234 41.7043 86.0703 41.5406 85.4866 41.2282C84.903 40.9157 84.4072 40.4642 84.044 39.9145C80.6222 34.718 75.8025 27.4612 75.8025 23.3804C75.8025 20.3398 77.0229 17.4236 79.1952 15.2735C81.3675 13.1234 84.3138 11.9155 87.3859 11.9155C90.4582 11.9155 93.4047 13.1234 95.5774 15.2734C97.75 17.4234 98.9709 20.3395 98.9715 23.3804Z" stroke="white" stroke-width="4" stroke-miterlimit="10"/>
<path d="M87.0567 27.8028C89.6158 27.8028 91.6905 25.7281 91.6905 23.169C91.6905 20.6098 89.6158 18.5352 87.0567 18.5352C84.4975 18.5352 82.4229 20.6098 82.4229 23.169C82.4229 25.7281 84.4975 27.8028 87.0567 27.8028Z" stroke="white" stroke-width="4" stroke-miterlimit="10"/>
<path d="M74.4792 44.3523L91.0285 52.9579" stroke="white" stroke-width="4" stroke-linecap="round" stroke-dasharray="20 30"/>
</svg>
