<svg width="65" height="107" viewBox="0 0 65 107" fill="none" >
<path d="M2 49.3614L7.45 45.2813C11.0906 42.5386 15.5991 41.2024 20.1463 41.5184C24.6935 41.8344 28.9737 43.7814 32.2 47.0014V47.0014C35.4253 50.2208 39.7002 52.1739 44.2454 52.5043C48.7905 52.8347 53.303 51.5205 56.96 48.8013L62.4 44.7113V5.22135L56.96 9.31135C53.3076 12.0356 48.7979 13.3567 44.2529 13.0336C39.7078 12.7105 35.4303 10.7649 32.2 7.55135V7.55135C28.9788 4.32543 24.7011 2.37105 20.1538 2.04768C15.6065 1.72432 11.0953 3.05371 7.45 5.79135L2 9.87135V105.111" stroke="white" stroke-width="3.77" stroke-linecap="round" stroke-linejoin="round"/>
<path d="M2.01025 5.22119V9.87119" stroke="white" stroke-width="3.77" stroke-linecap="round" stroke-linejoin="round"/>
</svg>
