<svg width="113" height="118" viewBox="0 0 113 118" fill="none" >
<path d="M68.2722 8.31982C81.2273 11.2923 92.637 18.925 100.329 29.7648C108.021 40.6045 111.459 53.8945 109.987 67.1045C108.516 80.3145 102.238 92.5221 92.3486 101.403C82.4595 110.285 69.6498 115.219 56.3582 115.268C43.0666 115.316 30.2212 110.476 20.2674 101.667C10.3136 92.8583 3.94658 80.6969 2.3784 67.498C0.810219 54.2991 4.1504 40.9844 11.7631 30.0887C19.3757 19.1929 30.7293 11.477 43.6622 8.40982" stroke="black" stroke-width="4" stroke-miterlimit="10" stroke-linecap="round"/>
<path d="M46.312 48.77L31.542 34" stroke="black" stroke-width="4" stroke-linecap="round" stroke-linejoin="round"/>
<path d="M66.002 48.77L80.7719 34" stroke="black" stroke-width="4" stroke-linecap="round" stroke-linejoin="round"/>
<path d="M46.312 73.3799L31.542 88.1499" stroke="black" stroke-width="4" stroke-linecap="round" stroke-linejoin="round"/>
<path d="M66.002 73.3799L80.7719 88.1499" stroke="black" stroke-width="4" stroke-linecap="round" stroke-linejoin="round"/>
<path d="M16.7715 61.08L46.3115 73.39L56.1515 100.46L66.0015 73.39L95.5415 61.08L66.0015 48.77L56.1515 2L46.3115 48.77L16.7715 61.08Z" stroke="black" stroke-width="4" stroke-linejoin="round"/>
</svg>
