<svg width="107" height="95" viewBox="0 0 107 95" fill="none" >
<path d="M4.39551 33.1316C4.39551 28.6858 6.16162 24.422 9.30532 21.2783C12.449 18.1346 16.7128 16.3685 21.1587 16.3685H61.8692V49.8948H21.1587C16.7128 49.8948 12.449 48.1287 9.30532 44.985C6.16162 41.8413 4.39551 37.5775 4.39551 33.1316V33.1316Z" stroke="white" stroke-width="4" stroke-linejoin="round"/>
<path d="M16.3684 49.8948L2 76.2369L13.9258 84.7621C14.537 85.1945 15.2319 85.4941 15.9658 85.6418C16.6998 85.7894 17.4565 85.7818 18.1873 85.6194C18.9182 85.457 19.6069 85.1434 20.2092 84.6988C20.8116 84.2542 21.3142 83.6885 21.6847 83.0379L40.3158 49.8948" stroke="white" stroke-width="4" stroke-linejoin="round"/>
<path d="M52.2899 49.8948V59.7132C52.2292 62.1711 51.2258 64.5115 49.4872 66.25C47.7487 67.9885 45.4083 68.992 42.9505 69.0527H30.7373" stroke="white" stroke-width="4" stroke-linejoin="round"/>
<path d="M81.0264 69.0524H104.974" stroke="white" stroke-width="4" stroke-linecap="round" stroke-linejoin="round"/>
<path d="M81.0264 83.4209H104.974" stroke="white" stroke-width="4" stroke-linecap="round" stroke-linejoin="round"/>
<path d="M81.0264 93H104.974" stroke="white" stroke-width="4" stroke-linecap="round" stroke-linejoin="round"/>
<path d="M81.0264 59.4739H104.974" stroke="white" stroke-width="4" stroke-linecap="round" stroke-linejoin="round"/>
<path d="M81.0264 45.1052H104.974" stroke="white" stroke-width="4" stroke-linecap="round" stroke-linejoin="round"/>
<path d="M81.0264 35.5261H104.974" stroke="white" stroke-width="4" stroke-linecap="round" stroke-linejoin="round"/>
<path d="M81.0264 25.9476H104.974" stroke="white" stroke-width="4" stroke-linecap="round" stroke-linejoin="round"/>
<path d="M81.0264 11.5791H104.974" stroke="white" stroke-width="4" stroke-linecap="round" stroke-linejoin="round"/>
<path d="M81.0264 2H104.974" stroke="white" stroke-width="4" stroke-linecap="round" stroke-linejoin="round"/>
</svg>
