<svg width="68" height="100" viewBox="0 0 68 100" fill="none" >
<path d="M17.9775 70.3169H49.9775V79.4597C49.9775 80.6722 49.4959 81.8349 48.6386 82.6922C47.7813 83.5495 46.6185 84.0312 45.4061 84.0312H22.549C21.3365 84.0312 20.1738 83.5495 19.3165 82.6922C18.4592 81.8349 17.9775 80.6722 17.9775 79.4597V70.3169Z" stroke="white" stroke-width="4" stroke-linecap="round" stroke-linejoin="round"/>
<path d="M45.6335 86.3171C45.6335 89.3482 44.4294 92.2551 42.2861 94.3984C40.1429 96.5416 37.236 97.7457 34.2049 97.7457C31.1739 97.7457 28.267 96.5416 26.1237 94.3984C23.9804 92.2551 22.7764 89.3482 22.7764 86.3171" stroke="white" stroke-width="4" stroke-linecap="round" stroke-linejoin="round"/>
<path d="M18.0229 70.3176C17.5501 65.0838 15.1756 60.2047 11.3486 56.6034C6.8801 52.1254 3.83914 46.4234 2.60992 40.2179C1.3807 34.0123 2.01837 27.5817 4.44237 21.7384C6.86637 15.8952 10.9679 10.9015 16.2288 7.38825C21.4897 3.87505 27.6739 2 34 2C40.3261 2 46.5103 3.87505 51.7712 7.38825C57.0321 10.9015 61.1336 15.8952 63.5576 21.7384C65.9816 27.5817 66.6193 34.0123 65.3901 40.2179C64.1609 46.4234 61.1199 52.1254 56.6514 56.6034V56.6034C52.8467 60.2056 50.5167 65.0936 50.1143 70.3176" stroke="white" stroke-width="4" stroke-linecap="round" stroke-linejoin="round"/>
<path d="M34.2051 70.1808V42.7522" stroke="white" stroke-width="4" stroke-linecap="round" stroke-linejoin="round"/>
</svg>
