<svg width="89" height="94" viewBox="0 0 89 94" fill="none" >
<path d="M44.4997 17.4545C48.7674 17.4545 52.227 13.9949 52.227 9.72727C52.227 5.45962 48.7674 2 44.4997 2C40.2321 2 36.7725 5.45962 36.7725 9.72727C36.7725 13.9949 40.2321 17.4545 44.4997 17.4545Z" stroke="white" stroke-width="4" stroke-miterlimit="10"/>
<path d="M44.5 17.4546V77.341" stroke="white" stroke-width="4" stroke-miterlimit="10"/>
<path d="M17.4545 59.9548H2C4.79889 69.0415 10.4364 76.9919 18.0854 82.6395C25.7344 88.287 34.992 91.3344 44.5 91.3344C54.008 91.3344 63.2656 88.287 70.9146 82.6395C78.5636 76.9919 84.2011 69.0415 87 59.9548H71.5455" stroke="white" stroke-width="4" stroke-linecap="round" stroke-linejoin="round"/>
<path d="M17.4545 59.9548H2C7.71818 77.8821 24.525 79.273 44.5 79.273C64.475 79.273 81.1273 77.8821 87 59.9548H71.5455" stroke="white" stroke-width="4" stroke-linecap="round" stroke-linejoin="round"/>
<path d="M30.9775 29.0457H58.023" stroke="white" stroke-width="4" stroke-miterlimit="10" stroke-linecap="round"/>
</svg>
