<svg width="118" height="73" viewBox="0 0 118 73" fill="none" >
<path d="M100.4 2H16.8396C14.0837 2 11.8496 4.2341 11.8496 6.99V48.7C11.8496 51.4559 14.0837 53.69 16.8396 53.69H100.4C103.156 53.69 105.39 51.4559 105.39 48.7V6.99C105.39 4.2341 103.156 2 100.4 2Z" stroke="white" stroke-width="4" stroke-miterlimit="10"/>
<path d="M2 61.0801H115.23C115.23 63.6925 114.192 66.1978 112.345 68.0451C110.498 69.8923 107.992 70.9301 105.38 70.9301H11.85C9.23762 70.9301 6.73223 69.8923 4.885 68.0451C3.03777 66.1978 2 63.6925 2 61.0801V61.0801Z" stroke="white" stroke-width="4" stroke-miterlimit="10"/>
</svg>
