<svg width="104" height="102" viewBox="0 0 104 102" fill="none" >
<path d="M9.23 2H43.23C45.8153 2.00569 48.2943 3.02961 50.13 4.85L99.47 54.19C100.157 54.8747 100.702 55.6882 101.074 56.584C101.446 57.4797 101.637 58.4401 101.637 59.41C101.637 60.3799 101.446 61.3403 101.074 62.236C100.702 63.1318 100.157 63.9453 99.47 64.63L66.4 97.74C65.0146 99.1225 63.1373 99.899 61.18 99.899C59.2228 99.899 57.3454 99.1225 55.96 97.74L4.88 46.74C3.03827 44.8956 2.00265 42.3965 2 39.79V9.24C2 7.32156 2.76141 5.48155 4.11701 4.12408C5.47261 2.7666 7.31157 2.00265 9.23 2V2Z" stroke="black" stroke-width="4" stroke-linejoin="round"/>
<path d="M28.1102 34.99C32.8709 34.99 36.7302 31.1307 36.7302 26.37C36.7302 21.6093 32.8709 17.75 28.1102 17.75C23.3495 17.75 19.4902 21.6093 19.4902 26.37C19.4902 31.1307 23.3495 34.99 28.1102 34.99Z" stroke="black" stroke-width="4" stroke-linejoin="round"/>
</svg>
