<svg width="92" height="102" viewBox="0 0 92 102" fill="none" >
<path d="M34.6525 85.3684C34.5043 86.1316 34.4267 86.9068 34.4209 87.6842C34.4209 90.7551 35.6408 93.7003 37.8123 95.8717C39.9838 98.0432 42.9289 99.2631 45.9998 99.2631C49.0708 99.2631 52.0159 98.0432 54.1874 95.8717C56.3589 93.7003 57.5788 90.7551 57.5788 87.6842C57.573 86.9068 57.4954 86.1316 57.3472 85.3684" stroke="white" stroke-width="4" stroke-linecap="round" stroke-linejoin="round"/>
<path d="M90 85.3684H2C18.2105 85.3684 18.2105 43.6842 18.2105 43.6842C18.2189 37.5956 20.2266 31.6782 23.9252 26.8416C27.6237 22.005 32.8084 18.517 38.6821 16.9137C37.408 15.3073 36.7216 13.3134 36.7368 11.2632C36.7368 8.80642 37.7128 6.45029 39.45 4.71312C41.1871 2.97594 43.5433 2 46 2C48.4567 2 50.8129 2.97594 52.55 4.71312C54.2872 6.45029 55.2632 8.80642 55.2632 11.2632C55.2784 13.3134 54.592 15.3073 53.3179 16.9137C59.1916 18.517 64.3763 22.005 68.0748 26.8416C71.7734 31.6782 73.7811 37.5956 73.7895 43.6842C73.7895 43.6842 73.7895 85.3684 90 85.3684Z" stroke="white" stroke-width="4" stroke-linecap="round" stroke-linejoin="round"/>
</svg>
