<svg width="67" height="96" viewBox="0 0 67 96" fill="none" >
<path d="M18.7279 43.8181V89.8181C18.7279 90.9272 18.2873 91.9909 17.5031 92.7751C16.7188 93.5594 15.6552 93.9999 14.5461 93.9999C13.437 93.9999 12.3733 93.5594 11.5891 92.7751C10.8048 91.9909 10.3643 90.9272 10.3643 89.8181V43.8181" stroke="white" stroke-width="4" stroke-linecap="round" stroke-linejoin="round"/>
<path d="M18.7275 6.18188V27.091" stroke="white" stroke-width="4" stroke-linecap="round" stroke-linejoin="round"/>
<path d="M10.3643 27.091V6.18188" stroke="white" stroke-width="4" stroke-linecap="round" stroke-linejoin="round"/>
<path d="M64.7274 2V89.8182C64.7274 90.9273 64.2869 91.9909 63.5026 92.7752C62.7184 93.5594 61.6547 94 60.5456 94C59.4365 94 58.3729 93.5594 57.5886 92.7752C56.8044 91.9909 56.3638 90.9273 56.3638 89.8182V56.3636H43.8184V22.9091C43.8184 17.3637 46.0213 12.0453 49.9425 8.12413C53.8637 4.20292 59.182 2 64.7274 2V2Z" stroke="white" stroke-width="4" stroke-linecap="round" stroke-linejoin="round"/>
<path d="M27.0909 6.18188V31.2728C27.0909 34.6001 25.7692 37.791 23.4164 40.1438C21.0637 42.4965 17.8727 43.8182 14.5455 43.8182C11.2182 43.8182 8.02721 42.4965 5.67448 40.1438C3.32175 37.791 2 34.6001 2 31.2728V6.18188" stroke="white" stroke-width="4" stroke-linecap="round" stroke-linejoin="round"/>
</svg>
