<svg width="97" height="98" viewBox="0 0 97 98" fill="none" >
<path d="M14.5786 96.0005C21.5256 96.0005 27.1572 90.3688 27.1572 83.4219C27.1572 76.4749 21.5256 70.8433 14.5786 70.8433C7.63163 70.8433 2 76.4749 2 83.4219C2 90.3688 7.63163 96.0005 14.5786 96.0005Z" stroke="black" stroke-width="4" stroke-linecap="round" stroke-linejoin="round"/>
<path d="M16.1777 70.4298L52.77 33.8376C50.8142 29.7042 50.1862 25.0666 50.9725 20.562C51.7588 16.0574 53.9206 11.9067 57.1611 8.68037C61.1148 4.5911 66.504 2.19975 72.189 2.01196C77.8739 1.82416 83.4091 3.85465 87.6241 7.67408L68.4132 14.8553C67.7461 18.0478 67.9931 21.3637 69.1258 24.4222C70.2586 27.4806 72.2311 30.1574 74.8168 32.1452L94.165 25.0097C93.7054 30.3411 91.3908 35.3425 87.6241 39.1434C84.7067 42.1054 81.0171 44.1899 76.9744 45.1602C72.9317 46.1304 68.6979 45.9475 64.754 44.6323L27.4756 81.8649" stroke="black" stroke-width="4" stroke-linecap="round" stroke-linejoin="round"/>
</svg>
