<svg width="102" height="70" viewBox="0 0 102 70" fill="none" >
<path d="M93.2741 2H7.78471C4.5899 2 2 4.5899 2 7.78471V62.2153C2 65.4101 4.5899 68 7.78471 68H93.2741C96.4689 68 99.0588 65.4101 99.0588 62.2153V7.78471C99.0588 4.5899 96.4689 2 93.2741 2Z" stroke="black" stroke-width="4" stroke-linecap="round" stroke-linejoin="round"/>
<path d="M44.7068 56.3529C44.7068 49.5588 45.755 42.7646 29.1774 42.7646C12.5997 42.7646 13.648 49.6364 13.648 56.3529" stroke="black" stroke-width="4" stroke-linecap="round" stroke-linejoin="round"/>
<path d="M28.9824 40.8236C33.8067 40.8236 37.7177 36.9127 37.7177 32.0883C37.7177 27.264 33.8067 23.353 28.9824 23.353C24.158 23.353 20.2471 27.264 20.2471 32.0883C20.2471 36.9127 24.158 40.8236 28.9824 40.8236Z" stroke="black" stroke-width="4" stroke-miterlimit="10"/>
<path d="M3.94141 13.647H97.1179" stroke="black" stroke-width="4" stroke-linecap="round" stroke-linejoin="round"/>
<path d="M83.529 29.1763H56.3525" stroke="black" stroke-width="4" stroke-linecap="round" stroke-linejoin="round"/>
<path d="M83.529 40.8237H56.3525" stroke="black" stroke-width="4" stroke-linecap="round" stroke-linejoin="round"/>
<path d="M83.529 52.4707H56.3525" stroke="black" stroke-width="4" stroke-linecap="round" stroke-linejoin="round"/>
</svg>
