<svg width="128" height="59" viewBox="0 0 128 59" fill="none" >
<path d="M105.38 36.4753C109.456 36.4753 112.76 33.1712 112.76 29.0953C112.76 25.0195 109.456 21.7153 105.38 21.7153C101.304 21.7153 98 25.0195 98 29.0953C98 33.1712 101.304 36.4753 105.38 36.4753Z" stroke="white" stroke-width="4" stroke-miterlimit="10"/>
<path d="M72.77 19.245C75.0652 13.3612 79.3442 8.46415 84.8671 5.40057C90.39 2.33698 96.8098 1.29938 103.017 2.46714C109.223 3.63489 114.827 6.93461 118.859 11.7959C122.891 16.6571 125.098 22.7743 125.098 29.09C125.098 35.4058 122.891 41.523 118.859 46.3842C114.827 51.2455 109.223 54.5452 103.017 55.713C96.8098 56.8807 90.39 55.8431 84.8671 52.7795C79.3442 49.7159 75.0652 44.8189 72.77 38.935H56.16L51.23 34.0051H46.31L41.39 38.935H31.54L26.62 34.0051H21.69L16.77 38.935H11.85L2 29.095L11.85 19.245H72.77Z" stroke="white" stroke-width="4" stroke-linejoin="round"/>
</svg>
