<svg width="108" height="114" viewBox="0 0 108 114" fill="none" >
<path d="M53.6348 58.2219V100.993" stroke="white" stroke-width="4" stroke-linecap="round" stroke-linejoin="round"/>
<path d="M53.6349 100.774C53.6349 103.751 52.4522 106.607 50.3469 108.712C48.2416 110.817 45.3861 112 42.4088 112C39.4314 112 36.576 110.817 34.4707 108.712C32.3654 106.607 31.1826 103.751 31.1826 100.774" stroke="white" stroke-width="4" stroke-linecap="round" stroke-linejoin="round"/>
<path d="M53.6348 6.88808V2" stroke="white" stroke-width="4" stroke-linecap="round" stroke-linejoin="round"/>
<path d="M53.6349 63.11C53.6349 54.2002 43.0471 46.8954 28.9391 46.8954C14.8312 46.8954 2 53.6986 2 62.6084V60.365C2 32.1491 25.419 8.73926 53.6349 8.73926C81.8507 8.73926 105.27 32.1491 105.27 60.365V62.6084C105.27 53.6986 92.4385 46.8954 78.3306 46.8954C64.2227 46.8954 53.6349 54.2002 53.6349 63.11Z" stroke="white" stroke-width="4" stroke-linecap="round" stroke-linejoin="round"/>
</svg>
