<svg width="120" height="44" viewBox="0 0 120 44" fill="none" >
<path d="M16.7695 41.38V11.85H56.1495L63.5395 19.23L105.39 4.45996L73.3895 41.38H16.7695Z" stroke="black" stroke-width="4" stroke-linecap="round" stroke-linejoin="round"/>
<path d="M16.77 29.08L2 19.23V4.45996L16.77 11.85" stroke="black" stroke-width="4" stroke-linecap="round" stroke-linejoin="round"/>
<path d="M112.77 9.37996L105.38 4.45996" stroke="black" stroke-width="4" stroke-linecap="round" stroke-linejoin="round"/>
<path d="M36.46 11.85V2" stroke="black" stroke-width="4" stroke-linecap="round" stroke-linejoin="round"/>
<path d="M26.6201 2H46.3101" stroke="black" stroke-width="4" stroke-linecap="round" stroke-linejoin="round"/>
<path d="M117.7 29.07C117.7 25.68 111.54 16.77 111.54 16.77C111.54 16.77 105.39 25.68 105.39 29.07C105.356 29.8992 105.491 30.7265 105.785 31.5025C106.079 32.2784 106.527 32.9868 107.102 33.5853C107.677 34.1838 108.367 34.66 109.13 34.9852C109.894 35.3105 110.715 35.4782 111.545 35.4782C112.375 35.4782 113.196 35.3105 113.959 34.9852C114.723 34.66 115.413 34.1838 115.987 33.5853C116.562 32.9868 117.01 32.2784 117.304 31.5025C117.599 30.7265 117.733 29.8992 117.7 29.07Z" stroke="black" stroke-width="4" stroke-linecap="round" stroke-linejoin="round"/>
</svg>
