<svg width="96" height="94" viewBox="0 0 96 94" fill="none" >
<path d="M66.6601 5.06L61.0801 2V76.44L88.1501 90.67V44.44" stroke="white" stroke-width="4" stroke-linecap="round" stroke-linejoin="round"/>
<path d="M93.08 19.02C93.08 23.4 87.96 32.02 84.32 37.6C83.9362 38.1923 83.4103 38.6791 82.7903 39.0162C82.1702 39.3533 81.4757 39.5299 80.77 39.5299C80.0642 39.5299 79.3697 39.3533 78.7496 39.0162C78.1296 38.6791 77.6037 38.1923 77.22 37.6C73.58 32.03 68.46 23.4 68.46 19.02C68.46 15.7551 69.7569 12.624 72.0655 10.3155C74.374 8.0069 77.5051 6.70996 80.77 6.70996C84.0348 6.70996 87.1659 8.0069 89.4744 10.3155C91.783 12.624 93.08 15.7551 93.08 19.02V19.02Z" stroke="white" stroke-width="4" stroke-miterlimit="10"/>
<path d="M31.54 91.05L2 81.37V7.52002L31.54 17.2V91.05Z" stroke="white" stroke-width="4" stroke-linejoin="round"/>
<path d="M61.08 75.85L31.54 91.21V17.37L61.08 2V75.85Z" stroke="white" stroke-width="4" stroke-linejoin="round"/>
<path d="M2 34.6001L3.67 36.4101" stroke="white" stroke-width="4" stroke-miterlimit="10" stroke-linecap="round"/>
<path d="M10.2197 43.5L26.5897 61.24" stroke="white" stroke-width="4" stroke-miterlimit="10" stroke-linecap="round" stroke-dasharray="4.83 9.66"/>
<path d="M29.8701 64.79L31.5401 66.6L33.6601 65.36" stroke="white" stroke-width="4" stroke-miterlimit="10" stroke-linecap="round"/>
<path d="M40.9697 61.1001L61.0797 49.3701H71.6197" stroke="white" stroke-width="4" stroke-miterlimit="10" stroke-linecap="round" stroke-dasharray="4.23 8.46"/>
<path d="M75.8496 49.3701H78.3096" stroke="white" stroke-width="4" stroke-miterlimit="10" stroke-linecap="round"/>
<path d="M80.7699 23.1102C83.0343 23.1102 84.8699 21.2745 84.8699 19.0102C84.8699 16.7458 83.0343 14.9102 80.7699 14.9102C78.5056 14.9102 76.6699 16.7458 76.6699 19.0102C76.6699 21.2745 78.5056 23.1102 80.7699 23.1102Z" stroke="white" stroke-width="4" stroke-miterlimit="10"/>
</svg>
