<svg width="95" height="95" viewBox="0 0 95 95" fill="none" >
<path d="M34.1271 70.0678L24.3836 60.2783L13.7209 70.987C9.61306 76.2069 6.82276 82.3393 5.58594 88.8655C12.1283 87.6357 18.2772 84.845 23.5104 80.7305L34.1271 70.0678Z" stroke="white" stroke-width="4" stroke-linecap="round" stroke-linejoin="round"/>
<path d="M34.3109 70.0677L24.5674 60.3242L77.0997 7.60799C78.3982 6.32809 80.1482 5.6106 81.9715 5.6106C83.7947 5.6106 85.5448 6.32809 86.8433 7.60799V7.60799C87.488 8.24494 87.9999 9.00354 88.3493 9.83982C88.6987 10.6761 88.8786 11.5734 88.8786 12.4798C88.8786 13.3861 88.6987 14.2834 88.3493 15.1197C87.9999 15.956 87.488 16.7146 86.8433 17.3515L34.3109 70.0677Z" stroke="white" stroke-width="4" stroke-linecap="round" stroke-linejoin="round"/>
<path d="M85.2363 19.0059C86.0909 19.8595 86.7689 20.8733 87.2315 21.9892C87.6941 23.1051 87.9322 24.3012 87.9322 25.5092C87.9322 26.7172 87.6941 27.9133 87.2315 29.0292C86.7689 30.1451 86.0909 31.1589 85.2363 32.0126L75.0791 42.9051" stroke="white" stroke-width="4" stroke-linecap="round" stroke-linejoin="round"/>
<path d="M62.1155 45.8906L93.0006 76.7298L76.7308 92.9997L45.8916 62.1145" stroke="white" stroke-width="4" stroke-linecap="round" stroke-linejoin="round"/>
<path d="M32.8852 49.1091L2 18.2699L18.2699 2L49.1091 32.8852" stroke="white" stroke-width="4" stroke-linecap="round" stroke-linejoin="round"/>
<path d="M11.7441 28.0144L18.2705 21.488" stroke="white" stroke-width="4" stroke-linecap="round" stroke-linejoin="round"/>
<path d="M21.4883 37.7561L28.0146 31.2297" stroke="white" stroke-width="4" stroke-linecap="round" stroke-linejoin="round"/>
<path d="M57.2422 73.5144L63.7685 66.988" stroke="white" stroke-width="4" stroke-linecap="round" stroke-linejoin="round"/>
<path d="M66.9863 83.2561L73.5127 76.7297" stroke="white" stroke-width="4" stroke-linecap="round" stroke-linejoin="round"/>
</svg>
