<svg width="69" height="107" viewBox="0 0 69 107" fill="none" >
<path d="M63.5467 104.17H4.4667C4.14533 104.215 3.8181 104.186 3.5091 104.088C3.20009 103.989 2.91717 103.822 2.68116 103.599C2.44514 103.377 2.26204 103.104 2.14532 102.801C2.0286 102.499 1.98123 102.174 2.0067 101.85V4.34038C1.98123 4.01696 2.0286 3.69195 2.14532 3.38926C2.26204 3.08657 2.44514 2.8139 2.68116 2.59131C2.91717 2.36873 3.20009 2.2019 3.5091 2.10309C3.8181 2.00429 4.14533 1.97602 4.4667 2.02038H63.5467C63.8681 1.97602 64.1953 2.00429 64.5043 2.10309C64.8133 2.2019 65.0962 2.36873 65.3322 2.59131C65.5683 2.8139 65.7514 3.08657 65.8681 3.38926C65.9848 3.69195 66.0322 4.01696 66.0067 4.34038V101.85C66.0322 102.174 65.9848 102.499 65.8681 102.801C65.7514 103.104 65.5683 103.377 65.3322 103.599C65.0962 103.822 64.8133 103.989 64.5043 104.088C64.1953 104.186 63.8681 104.215 63.5467 104.17V104.17Z" stroke="black" stroke-width="3.88" stroke-linecap="round" stroke-linejoin="round"/>
<path d="M66.0068 84.4805H2.00684" stroke="black" stroke-width="4" stroke-linecap="round" stroke-linejoin="round"/>
<path d="M34.0069 96.7906C35.3655 96.7906 36.4669 95.6892 36.4669 94.3306C36.4669 92.972 35.3655 91.8706 34.0069 91.8706C32.6483 91.8706 31.5469 92.972 31.5469 94.3306C31.5469 95.6892 32.6483 96.7906 34.0069 96.7906Z" fill="black"/>
</svg>
