<svg width="67" height="96" viewBox="0 0 67 96" fill="none" >
<path d="M18.7279 43.8179V89.8179C18.7279 90.927 18.2873 91.9906 17.5031 92.7749C16.7188 93.5591 15.6552 93.9997 14.5461 93.9997C13.437 93.9997 12.3733 93.5591 11.5891 92.7749C10.8048 91.9906 10.3643 90.927 10.3643 89.8179V43.8179" stroke="black" stroke-width="4" stroke-linecap="round" stroke-linejoin="round"/>
<path d="M18.7275 6.18213V27.0912" stroke="black" stroke-width="4" stroke-linecap="round" stroke-linejoin="round"/>
<path d="M10.3643 27.0912V6.18213" stroke="black" stroke-width="4" stroke-linecap="round" stroke-linejoin="round"/>
<path d="M64.7274 2V89.8182C64.7274 90.9273 64.2869 91.9909 63.5026 92.7752C62.7184 93.5594 61.6547 94 60.5456 94C59.4365 94 58.3729 93.5594 57.5886 92.7752C56.8044 91.9909 56.3638 90.9273 56.3638 89.8182V56.3636H43.8184V22.9091C43.8184 17.3637 46.0213 12.0453 49.9425 8.12413C53.8637 4.20292 59.182 2 64.7274 2V2Z" stroke="black" stroke-width="4" stroke-linecap="round" stroke-linejoin="round"/>
<path d="M27.0909 6.18213V31.273C27.0909 34.6003 25.7692 37.7913 23.4164 40.144C21.0637 42.4967 17.8727 43.8185 14.5455 43.8185C11.2182 43.8185 8.02721 42.4967 5.67448 40.144C3.32175 37.7913 2 34.6003 2 31.273V6.18213" stroke="black" stroke-width="4" stroke-linecap="round" stroke-linejoin="round"/>
</svg>
