<svg width="108" height="79" viewBox="0 0 108 79" fill="none" >
<path d="M2 10.2778H14.4167V70.2917C14.4167 71.9383 13.7626 73.5174 12.5983 74.6817C11.434 75.846 9.85489 76.5001 8.20833 76.5001C6.56178 76.5001 4.98267 75.846 3.81838 74.6817C2.65409 73.5174 2 71.9383 2 70.2917V10.2778Z" stroke="white" stroke-width="4" stroke-linejoin="round"/>
<path d="M14.4163 14.4167V2H105.472V72.3611C105.472 73.4588 105.036 74.5116 104.26 75.2877C103.483 76.0639 102.431 76.5 101.333 76.5H8.20801" stroke="white" stroke-width="4" stroke-linejoin="round"/>
<path d="M59.9441 14.4167H26.833V39.3329H59.9441V14.4167Z" stroke="white" stroke-width="4" stroke-linejoin="round"/>
<path d="M72.3613 14.4167H93.0558" stroke="white" stroke-width="4" stroke-linecap="round" stroke-linejoin="round"/>
<path d="M72.3613 26.8333H93.0558" stroke="white" stroke-width="4" stroke-linecap="round" stroke-linejoin="round"/>
<path d="M72.3613 39.25H93.0558" stroke="white" stroke-width="4" stroke-linecap="round" stroke-linejoin="round"/>
<path d="M26.833 51.6667H93.0552" stroke="white" stroke-width="4" stroke-linecap="round" stroke-linejoin="round"/>
<path d="M26.833 64.0833H93.0552" stroke="white" stroke-width="4" stroke-linecap="round" stroke-linejoin="round"/>
</svg>
