<svg width="98" height="93" viewBox="0 0 98 93" fill="none" >
<path d="M24.1504 21.7002H95.5404L89.2304 55.7602C88.9282 57.2594 88.117 58.6081 86.9342 59.5777C85.7514 60.5472 84.2698 61.0781 82.7404 61.0802H29.0804" stroke="white" stroke-width="4" stroke-linecap="round" stroke-linejoin="round"/>
<path d="M2 2H15.89C17.4849 2.00101 19.023 2.59196 20.2082 3.65906C21.3935 4.72617 22.1421 6.19401 22.31 7.78L28.44 69.94C28.6151 71.5631 29.3837 73.0642 30.5982 74.1551C31.8128 75.2459 33.3875 75.8496 35.02 75.85H80.77" stroke="white" stroke-width="4" stroke-linecap="round" stroke-linejoin="round"/>
<path d="M38.92 90.61C41.6372 90.61 43.84 88.4073 43.84 85.69C43.84 82.9728 41.6372 80.77 38.92 80.77C36.2028 80.77 34 82.9728 34 85.69C34 88.4073 36.2028 90.61 38.92 90.61Z" stroke="white" stroke-width="4" stroke-linecap="round" stroke-linejoin="round"/>
<path d="M70.92 90.61C73.6372 90.61 75.84 88.4073 75.84 85.69C75.84 82.9728 73.6372 80.77 70.92 80.77C68.2028 80.77 66 82.9728 66 85.69C66 88.4073 68.2028 90.61 70.92 90.61Z" stroke="white" stroke-width="4" stroke-linecap="round" stroke-linejoin="round"/>
</svg>
