<svg width="77" height="95" viewBox="0 0 77 95" fill="none" >
<path d="M75 19.1761H2V13.5079C2 12.7335 2.30767 11.9908 2.85527 11.4431C3.40288 10.8955 4.14554 10.5879 4.91997 10.5879H72.08C72.8544 10.5879 73.5971 10.8955 74.1447 11.4431C74.6923 11.9908 75 12.7335 75 13.5079V19.1761Z" stroke="black" stroke-width="4" stroke-linejoin="round"/>
<path d="M57.8022 92.1763H19.1552C17.9794 92.1753 16.8466 91.7339 15.9802 90.939C15.1138 90.1442 14.5766 89.0535 14.4746 87.8821L8.39844 19.1763H68.5161L62.4614 87.8821C62.355 89.048 61.8194 90.1328 60.9586 90.9263C60.0977 91.7197 58.9729 92.1651 57.8022 92.1763Z" stroke="black" stroke-width="4" stroke-linejoin="round"/>
<path d="M66.4114 10.5882H10.5879L11.962 5.11325C12.1822 4.22577 12.6927 3.43734 13.4124 2.87327C14.1321 2.30919 15.0196 2.00182 15.934 2.00001H61.0223C61.9376 1.99805 62.8271 2.30403 63.5475 2.8687C64.268 3.43337 64.7776 4.22393 64.9944 5.11325L66.4114 10.5882Z" stroke="black" stroke-width="4" stroke-linejoin="round"/>
<path d="M10.5879 36.3525H66.4114" stroke="black" stroke-width="4" stroke-linejoin="round"/>
<path d="M12.7354 68.5586H64.2648" stroke="black" stroke-width="4" stroke-linejoin="round"/>
</svg>
