<svg width="84" height="102" viewBox="0 0 84 102" fill="none" >
<path d="M20.6983 83.3969H62.5591C63.7927 83.3969 64.9758 83.887 65.848 84.7592C66.7203 85.6315 67.2103 86.8146 67.2103 88.0481V99.6761H15.9541V88.0481C15.954 87.4294 16.0773 86.8169 16.3168 86.2464C16.5564 85.676 16.9073 85.159 17.3491 84.7259C17.7909 84.2928 18.3147 83.9521 18.8898 83.7239C19.4649 83.4957 20.0797 83.3846 20.6983 83.3969V83.3969Z" stroke="black" stroke-width="4" stroke-linecap="round" stroke-linejoin="round"/>
<path d="M15.9541 2H67.1173V41.5352C67.1173 48.3199 64.4221 54.8266 59.6246 59.6241C54.8271 64.4216 48.3204 67.1168 41.5357 67.1168V67.1168C34.751 67.1168 28.2443 64.4216 23.4468 59.6241C18.6493 54.8266 15.9541 48.3199 15.9541 41.5352V2Z" stroke="black" stroke-width="4" stroke-linecap="round" stroke-linejoin="round"/>
<path d="M34.5577 67.1172V76.7452C34.5577 77.6186 34.3856 78.4835 34.0514 79.2905C33.7171 80.0974 33.2272 80.8307 32.6096 81.4483C31.992 82.0659 31.2587 82.5558 30.4518 82.8901C29.6448 83.2243 28.7799 83.3964 27.9065 83.3964H22.9297" stroke="black" stroke-width="4" stroke-linecap="round" stroke-linejoin="round"/>
<path d="M48.5117 67.1172V76.7452C48.5117 77.6186 48.6838 78.4835 49.018 79.2905C49.3523 80.0974 49.8422 80.8307 50.4598 81.4483C51.0774 82.0659 51.8107 82.5558 52.6176 82.8901C53.4246 83.2243 54.2895 83.3964 55.1629 83.3964H60.1397" stroke="black" stroke-width="4" stroke-linecap="round" stroke-linejoin="round"/>
<path d="M10.6047 36.8837H15.9536V6.65088H6.6512C5.41762 6.65088 4.23457 7.14092 3.36231 8.01318C2.49004 8.88545 2 10.0685 2 11.3021L3.44187 29.9069C3.50198 31.7703 4.28165 33.538 5.61721 34.8389C6.95277 36.1397 8.74036 36.8726 10.6047 36.8837V36.8837Z" stroke="black" stroke-width="4" stroke-linecap="round" stroke-linejoin="round"/>
<path d="M72.4651 36.8837H67.1162V6.65088H76.4186C77.6522 6.65088 78.8352 7.14092 79.7075 8.01318C80.5798 8.88545 81.0698 10.0685 81.0698 11.3021L79.6279 29.9069C79.5678 31.7703 78.7882 33.538 77.4526 34.8389C76.117 36.1397 74.3295 36.8726 72.4651 36.8837V36.8837Z" stroke="black" stroke-width="4" stroke-linecap="round" stroke-linejoin="round"/>
</svg>
