<svg width="62" height="93" viewBox="0 0 62 93" fill="none" >
<path d="M59.9999 55.7172V60.0135H2V55.7172C2 49.7453 8.91703 44.9764 14.8889 44.9764L20.1303 13.7424C19.4267 13.7871 18.7217 13.6807 18.0626 13.4304C17.4035 13.18 16.8056 12.7915 16.3091 12.291C15.8126 11.7904 15.429 11.1893 15.184 10.5282C14.939 9.8671 14.8384 9.16121 14.8889 8.45797V4.16168C14.8625 3.87297 14.8999 3.58199 14.9985 3.30937C15.0971 3.03674 15.2545 2.78915 15.4595 2.58415C15.6645 2.37916 15.9121 2.22177 16.1847 2.12316C16.4573 2.02454 16.7483 1.98712 17.037 2.01353H47.111C47.4015 1.97899 47.6959 2.01079 47.9723 2.10653C48.2486 2.20227 48.4997 2.35946 48.7065 2.56626C48.9133 2.77306 49.0705 3.02409 49.1662 3.30044C49.2619 3.57679 49.2937 3.87126 49.2592 4.16168V8.45797C49.2849 9.1736 49.16 9.88666 48.8926 10.5509C48.6251 11.2152 48.2211 11.8159 47.7068 12.3141C47.1924 12.8123 46.579 13.1969 45.9065 13.4429C45.234 13.689 44.5173 13.791 43.8029 13.7424L49.2592 44.9764C50.6713 44.9708 52.0705 45.2447 53.3762 45.7825C54.6819 46.3202 55.8682 47.1112 56.8667 48.1097C57.8652 49.1082 58.6561 50.2945 59.1939 51.6002C59.7317 52.9058 60.0056 54.3051 59.9999 55.7172V55.7172Z" stroke="black" stroke-width="4" stroke-linecap="round" stroke-linejoin="round"/>
<path d="M31.9902 60.7427V90.0863" stroke="black" stroke-width="4" stroke-miterlimit="10" stroke-linecap="round"/>
</svg>
