<svg width="114" height="114" viewBox="0 0 114 114" fill="none" >
<path d="M56.62 111.24C86.7858 111.24 111.24 86.7858 111.24 56.62C111.24 26.4542 86.7858 2 56.62 2C26.4542 2 2 26.4542 2 56.62C2 86.7858 26.4542 111.24 56.62 111.24Z" stroke="white" stroke-width="4" stroke-linecap="round" stroke-linejoin="round"/>
<path d="M56.6201 80.0229V111.23" stroke="white" stroke-width="4" stroke-linejoin="round"/>
<path d="M85.2227 49.491H108.626" stroke="white" stroke-width="4" stroke-linejoin="round"/>
<path d="M4.60449 49.491H28.0075" stroke="white" stroke-width="4" stroke-linejoin="round"/>
<path d="M68.4956 80.3706H44.7453C43.2173 80.3887 41.7196 79.9441 40.449 79.0953C39.1784 78.2465 38.1942 77.0332 37.626 75.6147L27.8731 44.3978C27.6333 43.6181 27.5797 42.7931 27.7165 41.9889C27.8532 41.1847 28.1766 40.4238 28.6606 39.7672C29.1446 39.1106 29.7758 38.5766 30.5034 38.2081C31.2311 37.8395 32.0351 37.6467 32.8508 37.645H80.3901C81.2058 37.6467 82.0097 37.8395 82.7374 38.2081C83.4651 38.5766 84.0963 39.1106 84.5803 39.7672C85.0643 40.4238 85.3877 41.1847 85.5244 41.9889C85.6612 42.7931 85.6075 43.6181 85.3678 44.3978L75.6149 75.6147C75.0466 77.0332 74.0625 78.2465 72.7919 79.0953C71.5213 79.9441 70.0236 80.3887 68.4956 80.3706V80.3706Z" stroke="white" stroke-width="4" stroke-linecap="round" stroke-linejoin="round"/>
</svg>
