<svg width="104" height="87" viewBox="0 0 104 87" fill="none" >
<path d="M14.9954 19.384H34.6392V54.1519H14.9954C13.8428 54.1519 12.7374 53.694 11.9223 52.879C11.1073 52.0639 10.6494 50.9585 10.6494 49.8059V23.73C10.6494 22.5774 11.1073 21.472 11.9223 20.6569C12.7374 19.8419 13.8428 19.384 14.9954 19.384V19.384Z" stroke="white" stroke-width="4" stroke-linecap="round" stroke-linejoin="round"/>
<path d="M12.9084 45.4599H6.34598C5.19335 45.4599 4.08794 45.002 3.27291 44.1869C2.45788 43.3719 2 42.2665 2 41.1139V32.4219C2 31.2693 2.45788 30.1639 3.27291 29.3488C4.08794 28.5338 5.19335 28.0759 6.34598 28.0759H12.9084" stroke="white" stroke-width="4" stroke-miterlimit="10"/>
<path d="M93.3076 28.0759C95.6129 28.0759 97.8237 28.9917 99.4538 30.6217C101.084 32.2518 102 34.4626 102 36.7679C102 39.0731 101.084 41.284 99.4538 42.914C97.8237 44.5441 95.6129 45.4599 93.3076 45.4599" stroke="white" stroke-width="4" stroke-linecap="round" stroke-linejoin="round"/>
<path d="M34.6377 19.3839C34.6377 19.3839 73.7515 19.3839 93.3084 2V71.5357C73.7515 54.1518 34.6377 54.1518 34.6377 54.1518" stroke="white" stroke-width="4" stroke-linecap="round" stroke-linejoin="round"/>
<path d="M15.0801 54.1519L25.4235 83.183C25.5797 83.588 25.8536 83.9369 26.21 84.1847C26.5663 84.4326 26.9887 84.5681 27.4227 84.5737H38.1572C38.4955 84.5716 38.8283 84.4889 39.1282 84.3325C39.4281 84.1761 39.6865 83.9505 39.8819 83.6744C40.0773 83.3983 40.2041 83.0796 40.2518 82.7448C40.2995 82.4099 40.2668 82.0685 40.1564 81.7488L30.291 54.1519" stroke="white" stroke-width="4" stroke-linecap="round" stroke-linejoin="round"/>
</svg>
