<svg width="94" height="96" viewBox="0 0 94 96" fill="none" >
<path d="M53.811 2L67.0264 26.204C67.4242 26.939 67.668 27.7473 67.743 28.5796C67.8179 29.4119 67.7223 30.2507 67.4621 31.0449L46.5498 91.555" stroke="white" stroke-width="4" stroke-linecap="round" stroke-linejoin="round"/>
<path d="M39.2868 2L26.0714 26.204C25.6735 26.939 25.4297 27.7473 25.3548 28.5796C25.2799 29.4119 25.3755 30.2507 25.6357 31.0449L46.548 91.555" stroke="white" stroke-width="4" stroke-linecap="round" stroke-linejoin="round"/>
<path d="M3.36737 25.1878L19.3904 5.82461C20.3022 4.62453 21.4816 3.65388 22.8346 2.98997C24.1877 2.32605 25.677 1.98719 27.1841 2.00037H65.9106C67.3652 1.98819 68.8037 2.3039 70.1195 2.92407C71.4353 3.54423 72.5944 4.4529 73.5107 5.58257L89.5338 24.9458C90.4327 25.9441 90.9769 27.2112 91.0819 28.5504C91.187 29.8896 90.847 31.226 90.1147 32.3522L53.857 90.1031C53.0622 91.3013 51.9832 92.2843 50.7162 92.9642C49.4492 93.6442 48.0337 94 46.5958 94C45.1579 94 43.7423 93.6442 42.4754 92.9642C41.2084 92.2843 40.1294 91.3013 39.3346 90.1031L2.9801 32.3522C2.27932 31.2703 1.93932 29.9942 2.00889 28.7071C2.07847 27.4199 2.55405 26.1879 3.36737 25.1878V25.1878Z" stroke="white" stroke-width="4" stroke-linecap="round" stroke-linejoin="round"/>
<path d="M2.9834 28.6243H90.118" stroke="white" stroke-width="4" stroke-linecap="round" stroke-linejoin="round"/>
</svg>
