<svg width="115" height="71" viewBox="0 0 115 71" fill="none" >
<path d="M51.2396 53.69H14.3096C13.0333 53.6035 11.8315 53.0573 10.9269 52.1527C10.0223 51.2481 9.4762 50.0464 9.38965 48.77V6.92C9.4762 5.64364 10.0223 4.44188 10.9269 3.53728C11.8315 2.63269 13.0333 2.08655 14.3096 2H85.6996C86.9753 2.08861 88.1759 2.63541 89.08 3.53959C89.9842 4.44377 90.531 5.64437 90.6196 6.92" stroke="white" stroke-width="4" stroke-miterlimit="10"/>
<path d="M51.24 68.4601H11.85C7 68.4601 2 65.9201 2 61.0801H51.24" stroke="white" stroke-width="4" stroke-miterlimit="10"/>
<path d="M85.6901 68.4601H58.6201V11.8501H102.95V26.6101" stroke="white" stroke-width="4" stroke-linejoin="round"/>
<path d="M112.78 33.96H93.0801V68.46H112.78V33.96Z" stroke="white" stroke-width="4" stroke-linejoin="round"/>
<path d="M80.7696 63.5401C82.1282 63.5401 83.2296 62.4387 83.2296 61.0801C83.2296 59.7215 82.1282 58.6201 80.7696 58.6201C79.4109 58.6201 78.3096 59.7215 78.3096 61.0801C78.3096 62.4387 79.4109 63.5401 80.7696 63.5401Z" fill="white"/>
<path d="M102.92 63.5401C104.279 63.5401 105.38 62.4387 105.38 61.0801C105.38 59.7215 104.279 58.6201 102.92 58.6201C101.561 58.6201 100.46 59.7215 100.46 61.0801C100.46 62.4387 101.561 63.5401 102.92 63.5401Z" fill="white"/>
</svg>
