<svg width="86" height="93" viewBox="0 0 86 93" fill="none" >
<path d="M64.3884 74.1711L18.7049 28.6722C18.0088 28.0616 17.451 27.3094 17.0688 26.4658C16.6867 25.6223 16.489 24.7069 16.489 23.7809C16.489 22.8548 16.6867 21.9395 17.0688 21.0959C17.451 20.2524 18.0088 19.5002 18.7049 18.8895V18.8895C19.3156 18.1933 20.0678 17.6355 20.9113 17.2534C21.7549 16.8713 22.6703 16.6736 23.5963 16.6736C24.5223 16.6736 25.4377 16.8713 26.2813 17.2534C27.1248 17.6355 27.877 18.1933 28.4877 18.8895L75.8323 66.0496C77.2314 67.2668 78.3531 68.7699 79.1218 70.4575C79.8905 72.1451 80.2882 73.9779 80.2882 75.8323C80.2882 77.6868 79.8905 79.5196 79.1218 81.2072C78.3531 82.8948 77.2314 84.3979 75.8323 85.6151C74.6109 87.0152 73.1038 88.1375 71.4124 88.9065C69.721 89.6755 67.8845 90.0733 66.0265 90.0733C64.1685 90.0733 62.3321 89.6755 60.6407 88.9065C58.9493 88.1375 57.4422 87.0152 56.2208 85.6151L10.5834 39.9316C1.63132 31.0256 0.0162522 17.8282 8.92222 8.92222C17.8282 0.0162511 31.0256 1.63132 39.9316 10.5834L84 54.6057" stroke="black" stroke-width="4" stroke-linecap="round" stroke-linejoin="round"/>
</svg>
