<svg width="99" height="90" viewBox="0 0 99 90" fill="none" >
<path d="M6.52381 19.9207H92.4762C93.676 19.9207 94.8266 20.3973 95.675 21.2456C96.5234 22.094 97 23.2447 97 24.4445V38.0159H2V24.4445C2 23.2447 2.47661 22.094 3.32499 21.2456C4.17337 20.3973 5.32402 19.9207 6.52381 19.9207V19.9207Z" stroke="white" stroke-width="4" stroke-linecap="round" stroke-linejoin="round"/>
<path d="M6.52373 38.0161H92.4761V83.2542C92.4761 84.454 91.9995 85.6046 91.1511 86.453C90.3027 87.3014 89.1521 87.778 87.9523 87.778H10.8666C9.66679 87.778 8.51615 87.3014 7.66777 86.453C6.81939 85.6046 6.34277 84.454 6.34277 83.2542V38.0161H6.52373Z" stroke="white" stroke-width="4" stroke-linecap="round" stroke-linejoin="round"/>
<path d="M49.5 87.7778V19.9207" stroke="white" stroke-width="4" stroke-linecap="round" stroke-linejoin="round"/>
<path d="M49.5019 19.9199C49.5019 19.9199 32.3566 20.1913 27.8328 17.1151C26.79 16.5359 25.9002 15.7166 25.2371 14.725C24.5739 13.7335 24.1565 12.5982 24.0195 11.4132C23.8824 10.2282 24.0296 9.02765 24.4489 7.91089C24.8681 6.79412 25.5474 5.79331 26.4305 4.99131C28.5126 3.22732 31.1105 2.18569 33.8345 2.02258C36.5586 1.85946 39.2622 2.58363 41.54 4.08655C46.0638 6.93655 49.5019 19.9199 49.5019 19.9199Z" stroke="white" stroke-width="4" stroke-linecap="round" stroke-linejoin="round"/>
<path d="M49.5 19.9184C49.5 19.9184 66.6 20.1899 71.1691 17.1137C72.2087 16.5304 73.0946 15.7079 73.7534 14.7143C74.4122 13.7208 74.8249 12.5846 74.9576 11.3999C75.0902 10.2152 74.9388 9.01589 74.516 7.90124C74.0932 6.7866 73.4112 5.78863 72.5262 4.98987C70.4511 3.22963 67.8611 2.18992 65.1448 2.02678C62.4286 1.86364 59.7328 2.58589 57.4619 4.08511C52.8929 6.93511 49.5 19.9184 49.5 19.9184Z" stroke="white" stroke-width="4" stroke-linecap="round" stroke-linejoin="round"/>
</svg>
