<svg width="102" height="102" viewBox="0 0 102 102" fill="none" >
<path d="M98.2517 57.7528L67.6786 88.2351C60.4518 95.437 50.665 99.481 40.4622 99.481C30.2595 99.481 20.4727 95.437 13.2458 88.2351C6.04391 81.0082 2 71.2214 2 61.0187C2 50.816 6.04391 41.0292 13.2458 33.8023L43.7736 3.27459C44.6194 2.45701 45.7498 2 46.9261 2C48.1025 2 49.2329 2.45701 50.0787 3.27459L59.8312 13.0271C60.6354 13.8707 61.0841 14.9915 61.0841 16.157C61.0841 17.3225 60.6354 18.4433 59.8312 19.2869L29.3035 49.86C27.8251 51.3273 26.6516 53.0728 25.8509 54.9957C25.0501 56.9187 24.6378 58.9811 24.6378 61.0641C24.6378 63.1471 25.0501 65.2095 25.8509 67.1324C26.6516 69.0554 27.8251 70.8008 29.3035 72.2682V72.2682C30.7709 73.7466 32.5163 74.9201 34.4392 75.7208C36.3622 76.5216 38.4246 76.9338 40.5076 76.9338C42.5906 76.9338 44.653 76.5216 46.576 75.7208C48.4989 74.9201 50.2443 73.7466 51.7117 72.2682L82.2848 41.7404C83.1284 40.9362 84.2492 40.4876 85.4147 40.4876C86.5802 40.4876 87.7009 40.9362 88.5446 41.7404L98.2971 51.493C99.0952 52.3424 99.5357 53.4664 99.5273 54.6319C99.5188 55.7975 99.0621 56.915 98.2517 57.7528Z" stroke="white" stroke-width="4" stroke-linecap="round" stroke-linejoin="round"/>
<path d="M34.0664 12.8909L50.0787 28.9485" stroke="white" stroke-width="4" stroke-linecap="round" stroke-linejoin="round"/>
<path d="M72.5352 51.4028L88.5928 67.4151" stroke="white" stroke-width="4" stroke-linecap="round" stroke-linejoin="round"/>
</svg>
