<svg width="91" height="105" viewBox="0 0 91 105" fill="none" >
<path d="M31.2169 27.8369C29.0538 25.6474 27.8408 22.6937 27.8408 19.6159C27.8408 16.5382 29.0538 13.5845 31.2169 11.395" stroke="black" stroke-width="4" stroke-linecap="round" stroke-linejoin="round"/>
<path d="M38.5488 2C40.7119 4.18944 41.9249 7.14318 41.9249 10.2209C41.9249 13.2987 40.7119 16.2524 38.5488 18.4419" stroke="black" stroke-width="4" stroke-linecap="round" stroke-linejoin="round"/>
<path d="M48.9767 103H20.7907C17.1118 102.818 13.632 101.275 11.0274 98.6701C8.42289 96.0656 6.87968 92.5857 6.69767 88.9068L2 37.2324H67.7674L63.0698 88.9068C62.8878 92.5857 61.3445 96.0656 58.74 98.6701C56.1355 101.275 52.6556 102.818 48.9767 103Z" stroke="black" stroke-width="4" stroke-linecap="round" stroke-linejoin="round"/>
<path d="M67.5815 45.03C69.1022 44.5566 70.6864 44.319 72.2791 44.3253C76.6398 44.3253 80.8218 46.0576 83.9053 49.141C86.9887 52.2245 88.721 56.4065 88.721 60.7672C88.721 65.1278 86.9887 69.3099 83.9053 72.3933C80.8218 75.4768 76.6398 77.209 72.2791 77.209C70.6904 77.2079 69.1094 76.9866 67.5815 76.5514L65.1387 75.7058" stroke="black" stroke-width="4" stroke-miterlimit="10"/>
</svg>
