<svg width="112" height="90" viewBox="0 0 112 90" fill="none" >
<path d="M55.75 2.14844V13.8332" stroke="black" stroke-width="4" stroke-linecap="round"/>
<path d="M19.7607 15.937L27.6129 24.6305" stroke="black" stroke-width="4" stroke-linecap="round"/>
<path d="M2.27832 50.2886L13.9164 51.5038" stroke="black" stroke-width="4" stroke-linecap="round"/>
<path d="M91.7369 15.937L83.8848 24.6305" stroke="black" stroke-width="4" stroke-linecap="round"/>
<path d="M109.221 50.2886L97.583 51.5038" stroke="black" stroke-width="4" stroke-linecap="round"/>
<path d="M89.7763 80.6244L99.1241 87.495C104.142 80.6387 107.463 72.6903 108.815 64.302C110.167 55.9137 109.511 47.3244 106.901 39.2387C104.291 31.1529 99.8014 23.8011 93.8003 17.7863C87.7991 11.7715 80.4576 7.26508 72.3778 4.63663C64.2981 2.00818 55.7103 1.33262 47.3189 2.66536C38.9275 3.99811 30.9717 7.30119 24.1039 12.3037C17.2361 17.3061 11.652 23.8655 7.80979 31.4436C3.96756 39.0218 1.97659 47.4029 2.00021 55.8994C1.96909 67.2586 5.57219 78.3299 12.2828 87.495V87.495L21.6306 80.6244" stroke="black" stroke-width="4" stroke-linecap="round" stroke-linejoin="round"/>
<path d="M55.7492 62.9094C59.6211 62.9094 62.76 59.7706 62.76 55.8986C62.76 52.0266 59.6211 48.8877 55.7492 48.8877C51.8772 48.8877 48.7383 52.0266 48.7383 55.8986C48.7383 59.7706 51.8772 62.9094 55.7492 62.9094Z" stroke="black" stroke-width="4" stroke-linecap="round" stroke-linejoin="round"/>
<path d="M62.7617 53.5613L95.4791 39.5396" stroke="black" stroke-width="4" stroke-linecap="round"/>
</svg>
