<svg width="104" height="73" viewBox="0 0 104 73" fill="none" >
<path d="M32.1689 14.9297V32.1689" stroke="white" stroke-width="4" stroke-miterlimit="10" stroke-linecap="round"/>
<path d="M23.5488 23.5491H40.788" stroke="white" stroke-width="4" stroke-miterlimit="10" stroke-linecap="round"/>
<path d="M73.1112 30.0136C76.6815 30.0136 79.5759 27.1193 79.5759 23.5489C79.5759 19.9786 76.6815 17.0842 73.1112 17.0842C69.5408 17.0842 66.6465 19.9786 66.6465 23.5489C66.6465 27.1193 69.5408 30.0136 73.1112 30.0136Z" stroke="white" stroke-width="4" stroke-miterlimit="10"/>
<path d="M96.8157 21.3941L101.126 56.9931C101.131 58.8341 100.773 60.658 100.071 62.36C99.369 64.062 98.3375 65.6083 97.0357 66.9101C95.7339 68.2119 94.1875 69.2434 92.4856 69.9453C90.7836 70.6472 88.9597 71.0056 87.1187 70.9999V70.9999C83.8085 71.0037 80.6047 69.8314 78.0787 67.6921C75.5527 65.5529 73.8688 62.5859 73.3273 59.3204L70.9569 45.098H32.1687L30.0138 59.2773C29.4723 62.5428 27.7884 65.5098 25.2624 67.649C22.7364 69.7883 19.5326 70.9606 16.2224 70.9568V70.9568C14.3634 70.9913 12.5162 70.6541 10.7892 69.9651C9.06228 69.2761 7.4903 68.2491 6.16555 66.9444C4.8408 65.6397 3.78995 64.0836 3.07465 62.3674C2.35935 60.6511 1.99402 58.8093 2.00007 56.95L6.30988 21.3941C8.46478 10.6196 14.9726 2 25.704 2H77.4216C88.153 2 94.6608 10.6196 96.8157 21.3941Z" stroke="white" stroke-width="4" stroke-linejoin="round"/>
</svg>
