<svg width="104" height="87" viewBox="0 0 104 87" fill="none" >
<path d="M14.9954 19.3838H34.6392V54.1516H14.9954C13.8428 54.1516 12.7374 53.6938 11.9223 52.8787C11.1073 52.0637 10.6494 50.9583 10.6494 49.8057V23.7298C10.6494 22.5771 11.1073 21.4717 11.9223 20.6567C12.7374 19.8417 13.8428 19.3838 14.9954 19.3838V19.3838Z" stroke="black" stroke-width="4" stroke-linecap="round" stroke-linejoin="round"/>
<path d="M12.9084 45.4596H6.34598C5.19335 45.4596 4.08794 45.0017 3.27291 44.1867C2.45788 43.3717 2 42.2663 2 41.1136V32.4217C2 31.269 2.45788 30.1636 3.27291 29.3486C4.08794 28.5336 5.19335 28.0757 6.34598 28.0757H12.9084" stroke="black" stroke-width="4" stroke-miterlimit="10"/>
<path d="M93.3076 28.0757C95.6129 28.0757 97.8237 28.9914 99.4538 30.6215C101.084 32.2516 102 34.4624 102 36.7676C102 39.0729 101.084 41.2837 99.4538 42.9138C97.8237 44.5438 95.6129 45.4596 93.3076 45.4596" stroke="black" stroke-width="4" stroke-linecap="round" stroke-linejoin="round"/>
<path d="M34.6377 19.3839C34.6377 19.3839 73.7515 19.3839 93.3084 2V71.5357C73.7515 54.1518 34.6377 54.1518 34.6377 54.1518" stroke="black" stroke-width="4" stroke-linecap="round" stroke-linejoin="round"/>
<path d="M15.0801 54.1519L25.4235 83.183C25.5797 83.588 25.8536 83.9369 26.21 84.1847C26.5663 84.4326 26.9887 84.5681 27.4227 84.5737H38.1572C38.4955 84.5716 38.8283 84.4889 39.1282 84.3325C39.4281 84.1761 39.6865 83.9505 39.8819 83.6744C40.0773 83.3983 40.2041 83.0796 40.2518 82.7448C40.2995 82.4099 40.2668 82.0685 40.1564 81.7488L30.291 54.1519" stroke="black" stroke-width="4" stroke-linecap="round" stroke-linejoin="round"/>
</svg>
