<svg width="97" height="94" viewBox="0 0 97 94" fill="none" >
<path d="M55.96 51.8729L42.04 37.9529L75.11 4.88293C76.9559 3.03702 79.4595 2 82.07 2C83.3626 2 84.6426 2.2546 85.8368 2.74925C87.031 3.2439 88.116 3.96893 89.03 4.88293C89.944 5.79693 90.6691 6.882 91.1637 8.0762C91.6584 9.2704 91.913 10.5503 91.913 11.8429C91.913 13.1355 91.6584 14.4155 91.1637 15.6097C90.6691 16.8039 89.944 17.8889 89.03 18.8029L55.96 51.8729Z" stroke="white" stroke-width="4" stroke-linecap="round" stroke-linejoin="round"/>
<path d="M54.22 50.1329L43.78 39.6929L10.71 72.7629C4.46 79.0129 2 91.9129 2 91.9129C2 91.9129 14.9 89.4529 21.15 83.2029L54.22 50.1329Z" stroke="white" stroke-width="4" stroke-linecap="round" stroke-linejoin="round"/>
<path d="M89.0304 4.88281C96.2104 12.0628 96.2104 22.0628 89.0304 29.2528L66.4004 51.8728" stroke="white" stroke-width="4" stroke-linecap="round" stroke-linejoin="round"/>
</svg>
