<svg width="102" height="103" viewBox="0 0 102 103" fill="none" >
<path d="M51 89.3588C72.1842 89.3588 89.3574 72.1856 89.3574 51.0014C89.3574 29.8172 72.1842 12.644 51 12.644C29.8158 12.644 12.6426 29.8172 12.6426 51.0014C12.6426 72.1856 29.8158 89.3588 51 89.3588Z" stroke="black" stroke-width="4" stroke-linecap="round"/>
<path d="M22.7363 20.7183C41.3094 -3.50738 59.2768 -4.96093 79.263 20.7183" stroke="black" stroke-width="4" stroke-linecap="round"/>
<path d="M20.7183 79.2645C-3.50738 60.6914 -4.96093 42.9259 20.7183 22.7378" stroke="black" stroke-width="4" stroke-linecap="round"/>
<path d="M79.263 81.2832C63.1125 105.509 42.9244 106.962 22.7363 81.2832" stroke="black" stroke-width="4" stroke-linecap="round"/>
<path d="M81.2822 22.7378C105.508 41.3108 106.961 59.2783 81.2822 79.2645" stroke="black" stroke-width="4" stroke-linecap="round"/>
<path d="M50.9994 69.1706C61.034 69.1706 69.1687 61.0359 69.1687 51.0013C69.1687 40.9667 61.034 32.832 50.9994 32.832C40.9647 32.832 32.8301 40.9667 32.8301 51.0013C32.8301 61.0359 40.9647 69.1706 50.9994 69.1706Z" stroke="black" stroke-width="4" stroke-linecap="round"/>
<path d="M38.161 38.1605L18.1748 18.1743" stroke="black" stroke-width="4" stroke-linecap="round"/>
<path d="M38.161 63.8398L18.1748 83.8261" stroke="black" stroke-width="4" stroke-linecap="round"/>
<path d="M63.8418 63.8398L83.828 83.8261" stroke="black" stroke-width="4" stroke-linecap="round"/>
<path d="M63.8418 38.1605L83.828 18.1743" stroke="black" stroke-width="4" stroke-linecap="round"/>
</svg>
