<svg width="110" height="84" viewBox="0 0 110 84" fill="none" >
<path d="M93.3721 29.4396C90.9507 29.4334 88.5599 29.9803 86.3821 31.0386C87.0352 22.7414 88.6135 14.5432 91.0878 6.59659C84.0694 4.36127 76.8458 2.83084 69.524 2.02799C68.4691 1.92715 67.4061 2.09979 66.4374 2.52925C65.4687 2.95872 64.6269 3.63052 63.9933 4.47989C63.3598 5.32925 62.9557 6.32753 62.8201 7.37847C62.6845 8.4294 62.822 9.49755 63.2193 10.4799L65.9604 18.0181C65.6167 20.7265 64.2323 23.1947 62.1005 24.9002C59.9686 26.6056 57.2567 27.4144 54.5389 27.1553C51.8212 27.4144 49.1093 26.6056 46.9774 24.9002C44.8456 23.1947 43.4612 20.7265 43.1174 18.0181L45.7672 10.7083C46.1232 9.72229 46.2219 8.6618 46.0541 7.627C45.8863 6.59219 45.4575 5.61723 44.8082 4.79419C44.159 3.97115 43.3106 3.32719 42.3433 2.92312C41.376 2.51905 40.3216 2.36821 39.2798 2.48485C32.0783 3.24114 24.9553 4.61682 17.9901 6.59659C20.3894 14.5399 21.9212 22.7197 22.5587 30.9929C20.4264 29.9491 18.0798 29.4172 15.7058 29.4396C12.3786 29.1596 9.07488 30.201 6.50978 32.3386C3.94469 34.4762 2.32454 37.5379 2 40.8611C2.32454 44.1843 3.94469 47.246 6.50978 49.3836C9.07488 51.5212 12.3786 52.5627 15.7058 52.2826C18.1837 52.308 20.6303 51.7277 22.8328 50.5922C22.3265 59.6965 20.7 68.7036 17.9901 77.4099C25.0085 79.6453 32.2321 81.1757 39.5539 81.9785C40.5866 82.0649 41.6243 81.8897 42.5714 81.469C43.5185 81.0484 44.3443 80.3959 44.9726 79.5719C45.6009 78.7478 46.0114 77.7787 46.1662 76.7541C46.3211 75.7294 46.2153 74.6823 45.8586 73.7094L43.1174 66.1712C43.4612 63.4628 44.8456 60.9946 46.9774 59.2891C49.1093 57.5836 51.8212 56.7748 54.5389 57.034C57.2567 56.7748 59.9686 57.5836 62.1005 59.2891C64.2323 60.9946 65.6167 63.4628 65.9604 66.1712L63.3107 73.4809C62.9547 74.467 62.856 75.5275 63.0238 76.5623C63.1915 77.5971 63.6203 78.572 64.2696 79.3951C64.9189 80.2181 65.7673 80.8621 66.7346 81.2662C67.7019 81.6702 68.7563 81.8211 69.7981 81.7044C77.005 80.8883 84.128 79.4515 91.0878 77.4099C88.5259 68.6947 86.9926 59.7096 86.5192 50.6379C88.7019 51.7332 91.1127 52.2968 93.5548 52.2826C96.8821 52.5627 100.186 51.5212 102.751 49.3836C105.316 47.246 106.936 44.1843 107.261 40.8611C107.1 39.1985 106.614 37.5839 105.829 36.1096C105.044 34.6353 103.976 33.3303 102.686 32.2694C101.395 31.2084 99.9088 30.4124 98.3107 29.9268C96.7125 29.4413 95.0343 29.2757 93.3721 29.4396Z" stroke="white" stroke-width="4" stroke-linecap="round" stroke-linejoin="round"/>
</svg>
