<svg width="88" height="105" viewBox="0 0 88 105" fill="none" >
<path d="M11.84 19.23H6.92C5.61595 19.2326 4.36606 19.7518 3.44395 20.6739C2.52185 21.596 2.00264 22.8459 2 24.15V98C2.00264 99.304 2.52185 100.554 3.44395 101.476C4.36606 102.398 5.61595 102.917 6.92 102.92H63.54C64.8449 102.92 66.0963 102.402 67.019 101.479C67.9416 100.556 68.46 99.3048 68.46 98V93.07" stroke="white" stroke-width="4" stroke-linejoin="round"/>
<path d="M84.1505 22.61L65.0805 3.54C64.0805 2.54 63.5405 2 61.0805 2H24.1505C23.5044 2 22.8646 2.12726 22.2677 2.37451C21.6707 2.62177 21.1284 2.98417 20.6715 3.44103C20.2146 3.8979 19.8522 4.44028 19.605 5.0372C19.3577 5.63412 19.2305 6.2739 19.2305 6.92V80.77C19.3466 82.0357 19.9023 83.2207 20.801 84.1194C21.6998 85.0182 22.8848 85.5738 24.1505 85.69H80.7705C82.0361 85.5738 83.2212 85.0182 84.1199 84.1194C85.0186 83.2207 85.5743 82.0357 85.6905 80.77V26.61C85.6871 25.1325 85.1388 23.7082 84.1505 22.61V22.61Z" stroke="white" stroke-width="4" stroke-linecap="round" stroke-linejoin="round"/>
<path d="M61.0703 2V21.69C61.1592 22.9672 61.7074 24.1691 62.6137 25.0735C63.5199 25.9779 64.7229 26.5237 66.0003 26.61H85.6903" stroke="white" stroke-width="4" stroke-linecap="round" stroke-linejoin="round"/>
</svg>
