<svg width="99" height="76" viewBox="0 0 99 76" fill="none" >
<path d="M96.7368 74C92.9474 68.3158 86.1263 64.5263 73.0526 64.5263C59.9789 64.5263 53.1579 68.3158 49.3684 74C45.5789 68.3158 38.7579 64.5263 25.6842 64.5263C12.6105 64.5263 5.78947 68.3158 2 74V11.4737C5.78947 5.78947 12.6105 2 25.6842 2C38.7579 2 45.5789 5.78947 49.3684 11.4737C53.1579 5.78947 59.9789 2 73.0526 2C86.1263 2 92.9474 5.78947 96.7368 11.4737V74Z" stroke="black" stroke-width="4" stroke-linecap="round" stroke-linejoin="round"/>
<path d="M49.3691 11.4736V74" stroke="black" stroke-width="4" stroke-linecap="round" stroke-linejoin="round"/>
<path d="M75.894 15.2632H72.1045V21.8948H75.894V15.2632Z" fill="black"/>
<path d="M78.7368 49.3682H75.8947V26.6313H69.1494V30.3829H72.1052V49.3682H69.1494V53.1577H78.7368V49.3682Z" fill="black"/>
</svg>
