<svg width="128" height="115" viewBox="0 0 128 115" fill="none" >
<path d="M88.1597 60.9799C88.176 65.3181 87.0462 69.5837 84.8846 73.345C82.723 77.1063 79.6062 80.23 75.8497 82.3999V95.5399C75.8471 96.1906 75.5867 96.8138 75.1257 97.273C74.6646 97.7321 74.0404 97.9899 73.3897 97.9899H53.6897C53.039 97.9899 52.4148 97.7321 51.9538 97.273C51.4927 96.8138 51.2324 96.1906 51.2297 95.5399V82.3999C47.4907 80.2411 44.385 77.137 42.2244 73.399C40.0638 69.661 38.9242 65.4205 38.9199 61.103C38.9156 56.7854 40.0468 52.5427 42.2 48.8004C44.3532 45.0581 47.4526 41.9478 51.1874 39.7816C54.9221 37.6154 59.1609 36.4694 63.4784 36.4586C67.7959 36.4478 72.0403 37.5726 75.7859 39.7201C79.5314 41.8676 82.6464 44.9624 84.8182 48.6939C86.9901 52.4254 88.1424 56.6624 88.1597 60.9799V60.9799Z" stroke="black" stroke-width="4" stroke-linecap="round" stroke-linejoin="round"/>
<path d="M63.54 2V19.23" stroke="black" stroke-width="4" stroke-linecap="round" stroke-linejoin="round"/>
<path d="M20.0195 20.02L32.2095 32.21" stroke="black" stroke-width="4" stroke-linecap="round" stroke-linejoin="round"/>
<path d="M2 63.54H19.23" stroke="black" stroke-width="4" stroke-linecap="round" stroke-linejoin="round"/>
<path d="M20.0195 107.05L32.2095 94.8701" stroke="black" stroke-width="4" stroke-linecap="round" stroke-linejoin="round"/>
<path d="M107.05 107.05L94.8701 94.8701" stroke="black" stroke-width="4" stroke-linecap="round" stroke-linejoin="round"/>
<path d="M125.08 63.54H107.85" stroke="black" stroke-width="4" stroke-linecap="round" stroke-linejoin="round"/>
<path d="M107.05 20.02L94.8701 32.21" stroke="black" stroke-width="4" stroke-linecap="round" stroke-linejoin="round"/>
<path d="M51.2305 105.38H75.8505" stroke="black" stroke-width="4" stroke-linecap="round" stroke-linejoin="round"/>
<path d="M53.6904 112.77H73.3804" stroke="black" stroke-width="4" stroke-linecap="round" stroke-linejoin="round"/>
</svg>
