<svg width="68" height="100" viewBox="0 0 68 100" fill="none" >
<path d="M8.84047 2V15.6786C8.84047 15.6786 6.56071 36.1964 33.9179 49.875C33.9179 49.875 58.9952 61.137 58.9952 84.0714V97.75" stroke="black" stroke-width="4" stroke-linecap="round" stroke-linejoin="round"/>
<path d="M8.84047 97.75V84.0714C8.84047 84.0714 6.56071 63.5536 33.9179 49.875C33.9179 49.875 58.9952 38.613 58.9952 15.6786V2" stroke="black" stroke-width="4" stroke-linecap="round" stroke-linejoin="round"/>
<path d="M2 2H65.8333" stroke="black" stroke-width="4" stroke-linecap="round" stroke-linejoin="round"/>
<path d="M2 97.75H65.8333" stroke="black" stroke-width="4" stroke-linecap="round" stroke-linejoin="round"/>
<path d="M8.83984 88.632L22.5184 78.5554C25.7744 76.1766 29.7024 74.8945 33.7348 74.8945C37.7673 74.8945 41.6953 76.1766 44.9513 78.5554L58.6298 88.632" stroke="black" stroke-width="4" stroke-linecap="round" stroke-linejoin="round"/>
<path d="M13.3994 29.3574L25.8013 34.8744C28.3584 36.0025 31.1225 36.5851 33.9173 36.5851C36.7121 36.5851 39.4762 36.0025 42.0332 34.8744L54.4351 29.3574" stroke="black" stroke-width="4" stroke-linecap="round" stroke-linejoin="round"/>
</svg>
