<svg width="104" height="91" viewBox="0 0 104 91" fill="none" >
<path d="M72 23.4286C72 27.7143 64.2857 32 64.2857 32L6 62C10.2857 67.1429 29.1429 62 29.1429 62C42 58.5714 68.5714 48.2857 68.5714 48.2857L67.7143 40.5714C68.5714 35.4286 87.4286 32 87.4286 32C91.3306 31.8841 95.0343 30.2533 97.7544 27.4532C100.474 24.6531 101.997 20.9038 102 17C102 13.0218 100.42 9.20644 97.6066 6.39339C94.7935 3.58035 90.9782 2 87 2C83.0962 2.00274 79.3469 3.52555 76.5468 6.24565C73.7467 8.96576 72.1159 12.6694 72 16.5714V23.4286Z" stroke="black" stroke-width="4" stroke-miterlimit="10"/>
<path d="M90.0001 58.7829C93.1952 59.636 96.0192 61.52 98.034 64.1423C100.049 66.7647 101.142 69.9787 101.143 73.2857C101.143 77.264 99.5626 81.0793 96.7496 83.8923C93.9365 86.7054 90.1212 88.2857 86.143 88.2857C82.1647 88.2857 78.3494 86.7054 75.5364 83.8923C72.7234 81.0793 71.143 77.264 71.143 73.2857C71.1412 72.2777 71.2446 71.2723 71.4516 70.2857C71.4516 70.2857 73 63.5 70.2859 61.7143L64 58L73.857 54.2144C79.3728 56.5315 84.167 57.6939 90.0474 58.7956" stroke="black" stroke-width="4" stroke-miterlimit="10"/>
<path d="M33.5 38.5L48.9286 30.7857L27.1429 22.6667C27.1429 22.6667 9.14286 16.6667 4 22.6667L33.5 38.5Z" stroke="black" stroke-width="4" stroke-miterlimit="10"/>
<path d="M58.5 46C59.8807 46 61 44.8807 61 43.5C61 42.1193 59.8807 41 58.5 41C57.1193 41 56 42.1193 56 43.5C56 44.8807 57.1193 46 58.5 46Z" stroke="black" stroke-width="2" stroke-miterlimit="10"/>
</svg>
