<svg width="98" height="78" viewBox="0 0 98 78" fill="none" >
<path d="M91.913 14.2612H6.08696C3.82979 14.2612 2 16.091 2 18.3482V71.4786C2 73.7358 3.82979 75.5656 6.08696 75.5656H91.913C94.1702 75.5656 96 73.7358 96 71.4786V18.3482C96 16.091 94.1702 14.2612 91.913 14.2612Z" stroke="black" stroke-width="4" stroke-linecap="round" stroke-linejoin="round"/>
<path d="M38.8223 2H59.2571C60.341 2 61.3806 2.43059 62.147 3.19704C62.9135 3.96349 63.344 5.00303 63.344 6.08696V14.2609H34.7354V6.08696C34.7354 5.00303 35.1659 3.96349 35.9324 3.19704C36.6988 2.43059 37.7384 2 38.8223 2V2Z" stroke="black" stroke-width="4" stroke-linecap="round" stroke-linejoin="round"/>
<path d="M96 45.6494C81.1608 52.0363 65.1548 55.2654 49 55.1312C32.8452 55.2654 16.8392 52.0363 2 45.6494" stroke="black" stroke-width="4" stroke-linecap="round" stroke-linejoin="round"/>
<path d="M42.8701 46.9565H55.131" stroke="black" stroke-width="4" stroke-linecap="round" stroke-linejoin="round"/>
</svg>
