<svg width="50" height="108" viewBox="0 0 50 108" fill="none" >
<path d="M47.7742 47.76V63.9424C47.7797 64.5503 47.6641 65.1532 47.434 65.716C47.2039 66.2787 46.864 66.79 46.4341 67.2199C46.0042 67.6498 45.493 67.9897 44.9302 68.2198C44.3675 68.4499 43.7645 68.5655 43.1566 68.56H37.3742V97.68C37.3742 99.8866 36.4976 102.003 34.9373 103.563C33.377 105.123 31.2608 106 29.0542 106H20.7342C18.5276 106 16.4114 105.123 14.8511 103.563C13.2908 102.003 12.4142 99.8866 12.4142 97.68V68.56H6.6318C6.02386 68.5655 5.42091 68.4499 4.85817 68.2198C4.29543 67.9897 3.78418 67.6498 3.35429 67.2199C2.92439 66.79 2.58447 66.2787 2.35438 65.716C2.12429 65.1532 2.00865 64.5503 2.0142 63.9424V47.76C2.0142 38.3168 0.641397 26.96 24.8942 26.96C49.147 26.96 47.7742 38.192 47.7742 47.76Z" stroke="black" stroke-width="4" stroke-linecap="round" stroke-linejoin="round"/>
<path d="M24.8921 26.96C31.7846 26.96 37.3721 21.3725 37.3721 14.48C37.3721 7.58749 31.7846 2 24.8921 2C17.9996 2 12.4121 7.58749 12.4121 14.48C12.4121 21.3725 17.9996 26.96 24.8921 26.96Z" stroke="black" stroke-width="4" stroke-miterlimit="10"/>
</svg>
