<svg width="103" height="108" viewBox="0 0 103 108" fill="none" >
<path d="M51.0059 34.0001C59.8425 34.0001 67.006 26.8367 67.006 18.0001C67.006 9.16347 59.8425 2 51.0059 2C42.1693 2 35.0059 9.16347 35.0059 18.0001C35.0059 26.8367 42.1693 34.0001 51.0059 34.0001Z" stroke="black" stroke-width="4" stroke-miterlimit="10"/>
<path d="M97.2436 33.9993L69.7235 55.3327V95.3329C69.7235 98.1619 68.5997 100.875 66.5993 102.875C64.5989 104.876 61.8858 106 59.0568 106H43.0567C40.2278 106 37.5146 104.876 35.5142 102.875C33.5138 100.875 32.39 98.1619 32.39 95.3329V55.3327L4.86992 34.3726C3.72382 33.6296 2.85054 32.5339 2.38195 31.2509C1.91336 29.968 1.87488 28.5674 2.27233 27.2606C2.66978 25.9538 3.48158 24.8118 4.58517 24.007C5.68876 23.2022 7.02422 22.7783 8.38994 22.7992C9.30603 22.7919 10.2138 22.9735 11.0566 23.3326L32.39 36.506L40.9234 35.2793C47.6628 34.3194 54.5041 34.3194 61.2435 35.2793L69.7235 36.506L91.0569 22.9593C91.9366 22.5228 92.9018 22.286 93.8836 22.2659C95.2843 22.2211 96.66 22.6451 97.7924 23.4707C98.9248 24.2963 99.7493 25.4762 100.135 26.8235C100.521 28.1708 100.446 29.6083 99.9222 30.9082C99.3984 32.208 98.4558 33.2959 97.2436 33.9993V33.9993Z" stroke="black" stroke-width="4" stroke-linecap="round" stroke-linejoin="round"/>
</svg>
