<svg width="118" height="73" viewBox="0 0 118 73" fill="none" >
<path d="M115.257 48.7702C115.257 40.8802 116.677 32.4102 98.0168 32.4102C89.8268 32.4102 85.5168 34.0702 83.2568 36.5902" stroke="white" stroke-width="4" stroke-linecap="round" stroke-linejoin="round"/>
<path d="M98.0168 31.5101C103.451 31.5101 107.857 27.1046 107.857 21.6701C107.857 16.2356 103.451 11.8301 98.0168 11.8301C92.5823 11.8301 88.1768 16.2356 88.1768 21.6701C88.1768 27.1046 92.5823 31.5101 98.0168 31.5101Z" stroke="white" stroke-width="4" stroke-miterlimit="10"/>
<path d="M34.0167 36.5602C31.7567 34.0502 27.4367 32.4102 19.2267 32.4102C0.56673 32.4102 2.02673 41.0202 2.02673 48.8102" stroke="white" stroke-width="4" stroke-linecap="round" stroke-linejoin="round"/>
<path d="M19.2267 31.5101C24.6612 31.5101 29.0667 27.1046 29.0667 21.6701C29.0667 16.2356 24.6612 11.8301 19.2267 11.8301C13.7922 11.8301 9.38672 16.2356 9.38672 21.6701C9.38672 27.1046 13.7922 31.5101 19.2267 31.5101Z" stroke="white" stroke-width="4" stroke-miterlimit="10"/>
<path d="M90.6375 70.9199C90.6375 56.7099 93.2875 41.3799 58.6375 41.3799C23.9875 41.3799 26.6375 56.9199 26.6375 70.9199" stroke="white" stroke-width="4" stroke-linecap="round" stroke-linejoin="round"/>
<path d="M58.6368 38.92C68.8319 38.92 77.0968 30.6552 77.0968 20.46C77.0968 10.2648 68.8319 2 58.6368 2C48.4416 2 40.1768 10.2648 40.1768 20.46C40.1768 30.6552 48.4416 38.92 58.6368 38.92Z" stroke="white" stroke-width="4" stroke-miterlimit="10"/>
</svg>
