<svg width="100" height="96" viewBox="0 0 100 96" fill="none" >
<path d="M26.6201 80.77L38.9201 93.08" stroke="black" stroke-width="4" stroke-linecap="round" stroke-linejoin="round"/>
<path d="M2 56.1499L16.77 70.9199" stroke="black" stroke-width="4" stroke-linecap="round" stroke-linejoin="round"/>
<path d="M16.7704 78.6099L8.86035 86.6599" stroke="black" stroke-width="4" stroke-miterlimit="10" stroke-linecap="round"/>
<path d="M68.4704 63.5401L24.1804 81.2301C22.8343 81.7721 21.3333 81.787 19.9767 81.2718C18.6201 80.7566 17.5074 79.7491 16.8604 78.4501V78.4501C16.1815 77.0936 16.062 75.5249 16.5276 74.0812C16.9932 72.6375 18.0068 71.4342 19.3504 70.7301L69.3504 44.6601C70.4072 44.1128 71.5803 43.8281 72.7704 43.8301H83.2904C84.7448 43.8396 86.1682 44.2508 87.4035 45.0185C88.6388 45.7861 89.6379 46.8803 90.2904 48.1801V48.1801C93.6804 53.3701 95.4904 58.5901 95.4904 70.9001V93.0601" stroke="black" stroke-width="4" stroke-linecap="round" stroke-linejoin="round"/>
<path d="M56.1504 93.08L61.0804 68.46" stroke="black" stroke-width="4" stroke-linecap="round" stroke-linejoin="round"/>
<path d="M77.0802 43.84C88.634 43.84 98.0002 34.4738 98.0002 22.92C98.0002 11.3662 88.634 2 77.0802 2C65.5264 2 56.1602 11.3662 56.1602 22.92C56.1602 34.4738 65.5264 43.84 77.0802 43.84Z" stroke="black" stroke-width="4"/>
</svg>
