<svg width="88" height="110" viewBox="0 0 88 110" fill="none" >
<path d="M38.8706 29.6494C46.5058 29.6494 52.6953 23.4599 52.6953 15.8247C52.6953 8.18953 46.5058 2 38.8706 2C31.2354 2 25.0459 8.18953 25.0459 15.8247C25.0459 23.4599 31.2354 29.6494 38.8706 29.6494Z" stroke="black" stroke-width="4" stroke-miterlimit="10"/>
<path d="M27.3496 37.6664V66.6523C27.3496 69.0966 28.3206 71.4409 30.0491 73.1693C31.7775 74.8977 34.1217 75.8687 36.5661 75.8687H57.3032L74.4919 98.403C74.9548 99.0612 75.5446 99.6202 76.2266 100.047C76.9087 100.474 77.6692 100.76 78.4634 100.889C79.2577 101.018 80.0697 100.987 80.8517 100.797C81.6337 100.608 82.37 100.264 83.0171 99.7855V99.7855C84.2267 98.9048 85.0662 97.6063 85.3727 96.1418C85.6793 94.6773 85.431 93.1511 84.6761 91.8593L68.7777 63.6108C68.0951 62.3906 67.0983 61.3754 65.891 60.6704C64.6836 59.9654 63.3095 59.5964 61.9114 59.6016H50.3908V37.6664C50.3906 36.6665 50.0863 35.6903 49.5184 34.8673C48.9506 34.0442 48.1459 33.4133 47.2111 33.0582V33.0582C41.9803 30.937 36.1288 30.937 30.898 33.0582V33.0582C29.8944 33.351 29.0098 33.9551 28.372 34.7834C27.7342 35.6118 27.3762 36.6214 27.3496 37.6664V37.6664Z" stroke="black" stroke-width="4" stroke-linecap="round" stroke-linejoin="round"/>
<path d="M51.7294 89.5572C50.5815 93.6059 48.4435 97.3051 45.5083 100.321C42.5732 103.337 38.9333 105.574 34.9172 106.831C30.901 108.089 26.6351 108.326 22.5042 107.522C18.3734 106.718 14.5077 104.899 11.256 102.227C8.00438 99.5557 5.46909 96.1166 3.87897 92.2202C2.28884 88.3239 1.69393 84.093 2.14792 79.9092C2.60192 75.7254 4.09053 71.7206 6.47941 68.256C8.86829 64.7914 12.0823 61.9762 15.8313 60.0645" stroke="black" stroke-width="4" stroke-linecap="round" stroke-linejoin="round"/>
<path d="M15.8296 59.603V43.4741H2.00488" stroke="black" stroke-width="4" stroke-linecap="round" stroke-linejoin="round"/>
</svg>
