<svg width="88" height="110" viewBox="0 0 88 110" fill="none" >
<path d="M38.8706 29.6494C46.5058 29.6494 52.6953 23.4599 52.6953 15.8247C52.6953 8.18953 46.5058 2 38.8706 2C31.2354 2 25.0459 8.18953 25.0459 15.8247C25.0459 23.4599 31.2354 29.6494 38.8706 29.6494Z" stroke="white" stroke-width="4" stroke-miterlimit="10"/>
<path d="M27.3496 37.6667V66.6525C27.3496 69.0969 28.3206 71.4411 30.0491 73.1695C31.7775 74.8979 34.1217 75.869 36.5661 75.869H57.3032L74.4919 98.4032C74.9548 99.0614 75.5446 99.6204 76.2266 100.047C76.9087 100.474 77.6692 100.761 78.4634 100.889C79.2577 101.018 80.0697 100.987 80.8517 100.797C81.6337 100.608 82.37 100.264 83.0171 99.7857V99.7857C84.2267 98.9051 85.0662 97.6066 85.3727 96.1421C85.6793 94.6775 85.431 93.1514 84.6761 91.8595L68.7777 63.6111C68.0951 62.3909 67.0983 61.3756 65.891 60.6706C64.6836 59.9657 63.3095 59.5966 61.9114 59.6019H50.3908V37.6667C50.3906 36.6667 50.0863 35.6905 49.5184 34.8675C48.9506 34.0445 48.1459 33.4136 47.2111 33.0584V33.0584C41.9803 30.9372 36.1288 30.9372 30.898 33.0584V33.0584C29.8944 33.3512 29.0098 33.9554 28.372 34.7837C27.7342 35.612 27.3762 36.6216 27.3496 37.6667V37.6667Z" stroke="white" stroke-width="4" stroke-linecap="round" stroke-linejoin="round"/>
<path d="M51.7294 89.5569C50.5815 93.6057 48.4435 97.3048 45.5083 100.321C42.5732 103.336 38.9333 105.574 34.9172 106.831C30.901 108.088 26.6351 108.326 22.5042 107.522C18.3734 106.718 14.5077 104.898 11.256 102.227C8.00438 99.5554 5.46909 96.1163 3.87897 92.22C2.28884 88.3237 1.69393 84.0927 2.14792 79.9089C2.60192 75.7252 4.09053 71.7203 6.47941 68.2558C8.86829 64.7912 12.0823 61.976 15.8313 60.0642" stroke="white" stroke-width="4" stroke-linecap="round" stroke-linejoin="round"/>
<path d="M15.8296 59.603V43.4741H2.00488" stroke="white" stroke-width="4" stroke-linecap="round" stroke-linejoin="round"/>
</svg>
