<svg width="95" height="102" viewBox="0 0 95 102" fill="none" >
<path d="M16.7998 87.5264L21.7298 92.4464V99.7964" stroke="white" stroke-width="4" stroke-linecap="round" stroke-linejoin="round"/>
<path d="M2 72.7163L6.96 77.6763" stroke="white" stroke-width="4" stroke-linecap="round" stroke-linejoin="round"/>
<path d="M58.6501 70.2564L14.3601 87.9464C13.014 88.4884 11.513 88.5033 10.1564 87.9881C8.79975 87.4729 7.68708 86.4654 7.04011 85.1664V85.1664C6.36115 83.8099 6.24164 82.2412 6.70728 80.7975C7.17292 79.3538 8.18652 78.1505 9.53011 77.4464L59.5301 51.3764C60.5869 50.8291 61.76 50.5444 62.9501 50.5464H73.4701C74.9245 50.5559 76.3479 50.9671 77.5832 51.7348C78.8185 52.5024 79.8176 53.5966 80.4701 54.8964V54.8964C83.8601 60.0864 85.6701 65.3064 85.6701 77.6164V99.7764" stroke="white" stroke-width="4" stroke-linecap="round" stroke-linejoin="round"/>
<path d="M46.3398 99.7963L51.2698 75.1763" stroke="white" stroke-width="4" stroke-linecap="round" stroke-linejoin="round"/>
<path d="M48.7998 92.4063L85.7298 89.9463" stroke="white" stroke-width="4" stroke-linecap="round" stroke-linejoin="round"/>
<path d="M48.7998 82.5664L85.7298 80.1064" stroke="white" stroke-width="4" stroke-linejoin="round"/>
<path d="M92.4102 25.8666L38.9502 25.9466L46.4402 23.1166C46.4402 23.1166 49.9002 8.94655 51.0002 7.99655C63.7202 -3.39345 95.0702 0.946552 90.4502 25.2866" stroke="white" stroke-width="4" stroke-linecap="round" stroke-linejoin="round"/>
<path d="M87.8598 25.9463C88.0731 27.1647 88.1802 28.3993 88.1798 29.6363C88.1798 35.1846 85.9758 40.5057 82.0525 44.429C78.1293 48.3522 72.8082 50.5563 67.2598 50.5563C61.7115 50.5563 56.3904 48.3522 52.4672 44.429C48.5439 40.5057 46.3398 35.1846 46.3398 29.6363C46.3395 28.3993 46.4466 27.1647 46.6598 25.9463" stroke="white" stroke-width="4"/>
</svg>
