<svg width="50" height="108" viewBox="0 0 50 108" fill="none" >
<path d="M47.7742 47.7602V63.9426C47.7797 64.5505 47.6641 65.1535 47.434 65.7162C47.2039 66.279 46.864 66.7902 46.4341 67.2201C46.0042 67.65 45.493 67.9899 44.9302 68.22C44.3675 68.4501 43.7645 68.5658 43.1566 68.5602H37.3742V97.6802C37.3742 99.8868 36.4976 102.003 34.9373 103.563C33.377 105.124 31.2608 106 29.0542 106H20.7342C18.5276 106 16.4114 105.124 14.8511 103.563C13.2908 102.003 12.4142 99.8868 12.4142 97.6802V68.5602H6.6318C6.02386 68.5658 5.42091 68.4501 4.85817 68.22C4.29543 67.9899 3.78418 67.65 3.35429 67.2201C2.92439 66.7902 2.58447 66.279 2.35438 65.7162C2.12429 65.1535 2.00865 64.5505 2.0142 63.9426V47.7602C2.0142 38.317 0.641397 26.9602 24.8942 26.9602C49.147 26.9602 47.7742 38.1922 47.7742 47.7602Z" stroke="white" stroke-width="4" stroke-linecap="round" stroke-linejoin="round"/>
<path d="M24.8921 26.96C31.7846 26.96 37.3721 21.3725 37.3721 14.48C37.3721 7.58749 31.7846 2 24.8921 2C17.9996 2 12.4121 7.58749 12.4121 14.48C12.4121 21.3725 17.9996 26.96 24.8921 26.96Z" stroke="white" stroke-width="4" stroke-miterlimit="10"/>
</svg>
