<svg width="50" height="108" viewBox="0 0 50 108" fill="none" >
<path d="M47.7742 47.76V63.9424C47.7742 65.167 47.2877 66.3415 46.4217 67.2075C45.5558 68.0735 44.3813 68.56 43.1566 68.56H37.3742L45.6942 93.52H33.2142V97.68C33.2142 99.8866 32.3376 102.003 30.7773 103.563C29.217 105.123 27.1008 106 24.8942 106V106C22.6876 106 20.5714 105.123 19.0111 103.563C17.4508 102.003 16.5742 99.8866 16.5742 97.68V93.52H4.0942L12.4142 68.56H6.5902C5.98575 68.56 5.38729 68.4403 4.82938 68.2077C4.27146 67.9751 3.76515 67.6343 3.33968 67.205C2.91421 66.7757 2.57802 66.2663 2.35051 65.7063C2.12301 65.1463 2.0087 64.5468 2.0142 63.9424V47.76C2.0142 38.3168 0.641397 26.96 24.8942 26.96C49.147 26.96 47.7742 38.192 47.7742 47.76Z" stroke="white" stroke-width="4" stroke-linecap="round" stroke-linejoin="round"/>
<path d="M24.8521 26.96C31.7446 26.96 37.3321 21.3725 37.3321 14.48C37.3321 7.58749 31.7446 2 24.8521 2C17.9596 2 12.3721 7.58749 12.3721 14.48C12.3721 21.3725 17.9596 26.96 24.8521 26.96Z" stroke="white" stroke-width="4" stroke-miterlimit="10"/>
</svg>
