<svg width="97" height="101" viewBox="0 0 97 101" fill="none" >
<path d="M10.6559 31.8299L2.57591 29.9399C2.26591 29.9399 2.01591 29.8199 2.00591 29.3599C1.82591 20.9599 5.81591 11.5399 5.81591 11.5399C5.89329 11.3723 6.01552 11.2295 6.16907 11.1271C6.32262 11.0247 6.5015 10.9668 6.68591 10.9599L15.4559 9.60986" stroke="white" stroke-width="4"/>
<path d="M85.7056 31.8101L93.7056 29.9201C94.0156 29.9201 94.2555 29.8001 94.2655 29.3401C94.4555 20.9401 90.4656 11.5201 90.4656 11.5201C90.3814 11.3557 90.2561 11.2159 90.1019 11.1142C89.9477 11.0126 89.7698 10.9526 89.5855 10.9401L80.9355 9.6001" stroke="white" stroke-width="4"/>
<path d="M23.5858 88.9399V96.7299C23.5858 96.9952 23.4804 97.2495 23.2929 97.437C23.1054 97.6246 22.851 97.7299 22.5858 97.7299H15.7258C15.5903 97.7367 15.4549 97.7159 15.3277 97.6687C15.2006 97.6215 15.0843 97.5489 14.9861 97.4553C14.8879 97.3618 14.8097 97.2492 14.7564 97.1245C14.703 96.9998 14.6756 96.8656 14.6758 96.7299V87.9399" fill="white"/>
<path d="M23.5858 88.9399V96.7299C23.5858 96.9952 23.4804 97.2495 23.2929 97.437C23.1054 97.6246 22.851 97.7299 22.5858 97.7299H15.7258C15.5903 97.7367 15.4549 97.7159 15.3277 97.6687C15.2006 97.6215 15.0843 97.5489 14.9861 97.4553C14.8879 97.3618 14.8097 97.2492 14.7564 97.1245C14.703 96.9998 14.6756 96.8656 14.6758 96.7299V87.9399" stroke="white" stroke-width="4.91"/>
<path d="M72.6963 88.9399V96.7299C72.6963 96.9952 72.8016 97.2495 72.9892 97.437C73.1767 97.6246 73.4311 97.7299 73.6963 97.7299H80.5163C80.7815 97.7299 81.0359 97.6246 81.2234 97.437C81.4109 97.2495 81.5163 96.9952 81.5163 96.7299V87.9399" fill="white"/>
<path d="M72.6963 88.9399V96.7299C72.6963 96.9952 72.8016 97.2495 72.9892 97.437C73.1767 97.6246 73.4311 97.7299 73.6963 97.7299H80.5163C80.7815 97.7299 81.0359 97.6246 81.2234 97.437C81.4109 97.2495 81.5163 96.9952 81.5163 96.7299V87.9399" stroke="white" stroke-width="4.91"/>
<path d="M48.1958 2C62.8858 2 73.5158 3.14 74.6858 3.24C76.1521 3.43465 77.5219 4.07994 78.6056 5.08669C79.6894 6.09344 80.4337 7.41194 80.7358 8.86C81.5258 12.08 85.7958 22.38 86.2758 40.86C86.5658 52.49 86.2758 79.45 85.8658 85.91C85.7858 87.2 85.4258 87.91 83.9458 88.03C82.3058 88.21 68.7058 89.2 48.1958 89.2C27.6858 89.2 14.0858 88.2 12.4458 88.03C10.8058 87.86 10.6058 87.2 10.5258 85.91C10.1158 79.45 9.81579 52.49 10.1158 40.91C10.5958 22.43 14.8558 12.13 15.6558 8.91C15.9535 7.46849 16.69 6.15443 17.7643 5.14819C18.8385 4.14196 20.1979 3.49286 21.6558 3.29C22.8258 3.19 33.4458 2.05 48.1458 2.05" stroke="white" stroke-width="4"/>
<path d="M10.2158 74.8501C10.2158 76.1101 13.2658 77.3701 14.3558 77.7201C15.4458 78.0701 17.8158 78.7201 17.8158 78.7201L24.9958 80.5901L22.1558 72.0101C21.8221 71.0275 21.2516 70.1423 20.4947 69.4324C19.7378 68.7226 18.8177 68.2101 17.8158 67.9401L14.3058 66.8001C13.0358 66.3801 10.0158 64.9001 9.92578 63.3501" fill="white"/>
<path d="M10.2158 74.8501C10.2158 76.1101 13.2658 77.3701 14.3558 77.7201C15.4458 78.0701 17.8158 78.7201 17.8158 78.7201L24.9958 80.5901L22.1558 72.0101C21.8221 71.0275 21.2516 70.1423 20.4947 69.4324C19.7378 68.7226 18.8177 68.2101 17.8158 67.9401L14.3058 66.8001C13.0358 66.3801 10.0158 64.9001 9.92578 63.3501" stroke="white" stroke-width="0.97" stroke-linecap="round" stroke-linejoin="round"/>
<path d="M86.1757 74.8499C86.1757 76.1099 83.1257 77.3699 82.0357 77.7199C80.9457 78.0699 78.5657 78.7199 78.5657 78.7199L71.3857 80.5899L74.1657 72.0099C74.4994 71.0273 75.0699 70.142 75.8268 69.4322C76.5838 68.7224 77.5038 68.2098 78.5057 67.9399L81.9757 66.8099C83.2457 66.3899 86.2657 64.9099 86.3557 63.3599" fill="white"/>
<path d="M86.1757 74.8499C86.1757 76.1099 83.1257 77.3699 82.0357 77.7199C80.9457 78.0699 78.5657 78.7199 78.5657 78.7199L71.3857 80.5899L74.1657 72.0099C74.4994 71.0273 75.0699 70.142 75.8268 69.4322C76.5838 68.7224 77.5038 68.2098 78.5057 67.9399L81.9757 66.8099C83.2457 66.3899 86.2657 64.9099 86.3557 63.3599" stroke="white" stroke-width="0.97" stroke-linecap="round" stroke-linejoin="round"/>
<path d="M11.1055 56.25C15.3955 60.25 31.6755 62.61 48.1955 62.61C64.7155 62.61 80.9955 60.21 85.2855 56.25" stroke="white" stroke-width="4" stroke-linecap="round" stroke-linejoin="round"/>
</svg>
