<svg width="113" height="76" viewBox="0 0 113 76" fill="none" >
<path d="M52.7487 29.1384C50.7263 26.3669 48.2477 23.9593 45.4187 22.0184C42.7987 20.0184 18.5487 13.1584 18.5487 13.1584L24.6187 32.0384C24.6187 32.0384 30.5487 37.7584 40.1187 32.2784L42.2787 28.1984L42.9087 27.8484C43.6087 30.1184 40.6387 39.7484 39.4487 42.5084C38.7704 44.2497 37.7503 45.8375 36.4487 47.1784C36.012 47.6563 35.4784 48.0356 34.8834 48.2908C34.2885 48.546 33.6459 48.6713 32.9987 48.6584C31.7347 48.6579 30.5017 48.2667 29.4687 47.5384C27.7287 46.2484 27.0687 44.1584 25.7687 42.8284L22.6287 41.6584L21.3487 33.9884L2.59867 5.79839C2.59867 5.79839 1.13867 3.79839 2.77867 2.33839C3.99867 1.18839 11.7087 3.33839 11.7087 3.33839L15.7587 6.92839L19.4587 6.78839C19.4587 6.78839 49.4587 11.7084 52.0487 12.7884C55.5917 14.0551 58.5292 16.6072 60.2787 19.9384C61.5571 22.8756 62.6755 25.8801 63.6287 28.9384L71.6287 45.2684L67.1287 47.9584V40.2784C64.8014 39.7974 62.42 39.6326 60.0487 39.7884L52.7487 29.1384Z" stroke="white" stroke-width="4" stroke-linejoin="round"/>
<path d="M92.6586 63.5285C93.8277 63.8637 94.8385 64.6058 95.5087 65.6207C96.1788 66.6356 96.4642 67.8566 96.3133 69.0634C96.1625 70.2702 95.5853 71.3834 94.686 72.2021C93.7866 73.0209 92.6243 73.4913 91.4086 73.5285H43.7186C42.4415 73.5361 41.2081 73.0644 40.262 72.2065C39.3159 71.3486 38.7262 70.167 38.6093 68.8952C38.4924 67.6235 38.857 66.3542 39.6308 65.3382C40.4047 64.3223 41.5315 63.6336 42.7886 63.4084C43.0886 63.3484 55.2986 61.4084 55.2986 61.4084H81.4086C81.4086 61.4084 92.2586 63.4285 92.6586 63.5285Z" stroke="white" stroke-width="4" stroke-linejoin="round"/>
<path d="M59.349 55.2285L67.1589 47.9385V40.2585C62.0089 38.9485 53.699 40.4885 53.699 40.4885C53.249 42.1685 50.079 52.3385 51.109 56.9685L59.349 55.2285Z" stroke="white" stroke-width="4" stroke-linejoin="round"/>
<path d="M67.1584 47.9484L80.6984 39.8184H104.978L107.458 40.2384L110.008 43.2384L108.948 45.2384C110.033 48.2684 110.66 51.4433 110.808 54.6584C110.859 55.1804 110.802 55.7073 110.64 56.2062C110.478 56.7051 110.216 57.1654 109.868 57.5584H77.5584V61.5584H58.3984V57.5584H51.1384C51.1384 57.5584 51.1384 57.3484 51.0684 57.0384L59.3484 55.2284L67.1584 47.9384" stroke="white" stroke-width="4" stroke-linejoin="round"/>
<path d="M58.3984 57.5183H78.5784" stroke="white" stroke-width="4" stroke-linejoin="round"/>
</svg>
