<svg width="120" height="62" viewBox="0 0 120 62" fill="none" >
<path d="M119.06 34.05L117.82 33.27L117.22 28C117.16 27.67 116.94 26.78 116.94 26.78C116.94 26.78 116.94 26.72 116.94 26.68C116.374 25.2384 115.338 24.0299 114 23.25C112.15 22.16 107.91 21.08 104.68 20.36C103.14 20.02 102.08 19.81 101.23 19.69L99.23 1.78004C99.1756 1.2886 98.9411 0.834704 98.5718 0.505988C98.2024 0.177272 97.7244 -0.0029626 97.23 3.68437e-05V3.68437e-05C93.81 3.68437e-05 90.29 3.31774e-05 86.93 0.0900332H86.84C79.07 0.270033 72.19 0.670039 69.53 0.940039C69.0535 0.989864 68.6108 1.20906 68.2823 1.55775C67.9538 1.90644 67.7614 2.36145 67.74 2.84003V3.36002C67.7278 3.63183 67.7711 3.90327 67.8674 4.15775C67.9637 4.41223 68.1109 4.64441 68.3 4.84003C68.5703 5.12392 68.918 5.32214 69.3 5.41004C66.217 11.3997 64.1009 17.8392 63.03 24.49C62.95 24.94 62.88 25.41 62.82 25.88L61.42 16.31C61.3661 15.929 61.2035 15.5717 60.9517 15.2808C60.6998 14.9899 60.3694 14.7778 60 14.67L57.29 13.95H57.21L56.93 13.63C56.583 13.2357 56.0949 12.9937 55.571 12.9563C55.0471 12.9189 54.5295 13.089 54.13 13.43L33.23 31.27C32.9356 31.5211 32.7203 31.8522 32.6102 32.2231C32.5002 32.5941 32.5001 32.989 32.61 33.36L24.07 40.64L20.93 38.47L19.03 35.47C18.8493 35.1884 18.6008 34.9566 18.3073 34.7958C18.0138 34.6351 17.6846 34.5506 17.35 34.55H9.83C9.56102 34.5411 9.29326 34.5901 9.04483 34.6936C8.7964 34.7971 8.57309 34.9528 8.39 35.15C8.20158 35.3425 8.05397 35.571 7.95603 35.8219C7.85808 36.0728 7.81181 36.3408 7.82 36.61L8.03 44.5C7.45 45.61 6.63 47.5 5.25 50.62C4.19 53.02 3.15 55.42 2.67 56.54L1.07 57.4C0.756123 57.5647 0.491639 57.8098 0.303627 58.1102C0.115616 58.4107 0.0108309 58.7557 6.27933e-07 59.11V59.48C-0.000208492 59.7439 0.0518165 60.0053 0.153077 60.249C0.254338 60.4927 0.402832 60.714 0.590001 60.9C0.963351 61.2756 1.47042 61.4878 2 61.49H22.62C22.9424 61.4895 23.26 61.411 23.5455 61.2613C23.8311 61.1115 24.0762 60.895 24.26 60.63L28.48 54.57C28.6761 54.2906 28.7975 53.9656 28.8325 53.626C28.8675 53.2865 28.815 52.9436 28.68 52.63L27.27 49.35C27.3959 48.5027 27.4527 47.6465 27.44 46.79L30.83 43.92C30.7545 44.4769 30.7144 45.038 30.71 45.6C30.7294 49.1379 32.0992 52.5349 34.5393 55.0967C36.9794 57.6586 40.3057 59.1919 43.8385 59.3834C47.3712 59.5749 50.8438 58.4102 53.5466 56.1271C56.2493 53.8441 57.9782 50.6151 58.38 47.1H76.74C77.118 50.3343 78.622 53.3325 80.9884 55.5693C83.3548 57.8062 86.4328 59.1392 89.6833 59.3347C92.9337 59.5303 96.1493 58.576 98.7668 56.6389C101.384 54.7019 103.237 51.9057 104 48.74C104.016 48.7014 104.036 48.6645 104.06 48.63L104.45 47.37L114.67 46.32C114.963 46.29 115.246 46.1955 115.498 46.0434C115.751 45.8912 115.967 45.6852 116.13 45.44L119.63 40.2C119.851 39.8718 119.969 39.4855 119.97 39.09V35.74C119.972 35.4046 119.89 35.074 119.731 34.7787C119.572 34.4834 119.341 34.2328 119.06 34.05V34.05ZM88.92 4.05002L95.47 4.00004L97.17 19.54C94.65 19.74 91.17 20.22 88.92 20.54V4.05002ZM67 25.17C69.18 12.27 74.39 4.68001 74.44 4.60001C77.25 4.43001 80.91 4.26003 84.91 4.15003V22.5C83.64 24.98 80.75 30.5 79.51 32.3C79.2259 32.7124 78.8529 33.0558 78.4185 33.305C77.9841 33.5542 77.4994 33.7029 77 33.74H76.81C73.57 33.92 69.93 34.11 69.21 34.1C67.37 33.8 66.43 33.04 66.42 31.83C66.4636 29.5995 66.6574 27.3745 67 25.17V25.17ZM60.06 34.47C60.28 35.96 60.78 39.34 63.94 39.73V43.1H58.23C57.8394 40.991 56.9664 39.001 55.6792 37.2853C54.3921 35.5697 52.7256 34.1749 50.81 33.21C51.81 30.54 53.44 25.95 54.51 22.85L57.15 18.06L57.68 18.2L60.06 34.47ZM49.37 25.35L41.46 32.11H41.3C40.0809 32.4186 38.91 32.893 37.82 33.52L37.33 32.95L50.69 21.55C50.49 22.18 50 23.64 49.37 25.35V25.35ZM21.57 57.49H6.57C8.51 53.02 11.2 46.87 11.68 45.93C11.9093 45.5769 12.0212 45.1605 12 44.74L11.83 38.48H16.2L17.73 40.88C17.8735 41.1048 18.0605 41.2986 18.28 41.45L23 44.74C23.18 44.93 23.35 45.22 23.43 46.1C23.4243 46.1432 23.4243 46.1869 23.43 46.23C23.43 46.29 23.43 46.34 23.43 46.41C23.4856 47.2908 23.4251 48.175 23.25 49.04C23.1244 49.477 23.1563 49.9442 23.34 50.36L24.56 53.2L21.57 57.49ZM44.57 55.49C42.5287 55.4993 40.5352 54.8728 38.8662 53.6975C37.1971 52.5223 35.9353 50.8567 35.256 48.9317C34.5766 47.0068 34.5133 44.9181 35.0749 42.9556C35.6365 40.9931 36.7952 39.2541 38.39 37.98C38.48 37.93 38.57 37.9 38.66 37.84C39.8546 36.8893 41.2554 36.2317 42.75 35.92V35.92C43.3364 35.8042 43.9323 35.744 44.53 35.74C47.1503 35.74 49.6634 36.781 51.5162 38.6338C53.3691 40.4867 54.41 42.9997 54.41 45.62C54.41 48.2404 53.3691 50.7534 51.5162 52.6062C49.6634 54.4591 47.1503 55.5 44.53 55.5L44.57 55.49ZM67.92 43.11V39.74C68.3988 39.6444 68.8532 39.4524 69.2555 39.1756C69.6578 38.8988 69.9995 38.5431 70.26 38.13C71.42 38.13 73.41 38 76.93 37.79C77.843 37.7654 78.7428 37.5651 79.58 37.2C78.2101 38.9344 77.2741 40.9709 76.85 43.14H67.85L67.92 43.11ZM90.51 55.49C87.8922 55.4847 85.3833 54.4418 83.5332 52.5898C81.683 50.7378 80.6426 48.2278 80.64 45.61C80.6738 42.9994 81.7272 40.5055 83.5753 38.6612C85.4233 36.8169 87.9193 35.7685 90.53 35.74C93.1503 35.74 95.6634 36.781 97.5162 38.6338C99.3691 40.4867 100.41 42.9997 100.41 45.62C100.41 48.2404 99.3691 50.7534 97.5162 52.6062C95.6634 54.4591 93.1503 55.5 90.53 55.5L90.51 55.49ZM115.99 38.49L113.35 42.44L104.2 43.38C103.666 40.1368 101.999 37.1878 99.4965 35.0568C96.9938 32.9258 93.817 31.7507 90.53 31.74C87.9519 31.7537 85.4308 32.4993 83.26 33.89C84.79 31.47 87.26 26.69 88.26 24.74C91.26 24.3 96.67 23.55 98.91 23.49C99.0517 23.5204 99.1954 23.5404 99.34 23.55C100.84 23.6567 102.327 23.9045 103.78 24.29C108.55 25.34 111.12 26.23 111.93 26.71C112.4 26.9882 112.792 27.3803 113.07 27.85C113.07 28.02 113.23 28.45 113.25 28.57L114 34.74C114.034 35.0393 114.136 35.3269 114.297 35.5814C114.458 35.836 114.674 36.0508 114.93 36.21L116.06 36.91L115.99 38.49Z" fill="white"/>
</svg>
