<svg width="89" height="108" viewBox="0 0 89 108" fill="none" >
<path d="M82.6002 47.2075L75.7402 53.1375" stroke="white" stroke-width="3.79" stroke-miterlimit="10"/>
<path d="M86.5599 30.5977H83.1099C82.4306 30.5977 81.8799 31.1483 81.8799 31.8277V46.6077C81.8799 47.287 82.4306 47.8377 83.1099 47.8377H86.5599C87.2392 47.8377 87.7899 47.287 87.7899 46.6077V31.8277C87.7899 31.1483 87.2392 30.5977 86.5599 30.5977Z" fill="white"/>
<path d="M86.5597 31.5477C86.5973 31.5477 86.6346 31.5553 86.6692 31.5699C86.7038 31.5846 86.7352 31.6062 86.7613 31.6332C86.7874 31.6603 86.8079 31.6924 86.8213 31.7275C86.8348 31.7626 86.841 31.8001 86.8397 31.8377V46.6077C86.841 46.6453 86.8348 46.6828 86.8213 46.7179C86.8079 46.7531 86.7874 46.7851 86.7613 46.8122C86.7352 46.8393 86.7038 46.8608 86.6692 46.8755C86.6346 46.8902 86.5973 46.8977 86.5597 46.8977H83.1097C83.0721 46.8977 83.0348 46.8902 83.0002 46.8755C82.9655 46.8608 82.9342 46.8393 82.9081 46.8122C82.8819 46.7851 82.8615 46.7531 82.8481 46.7179C82.8346 46.6828 82.8283 46.6453 82.8297 46.6077V31.8377C82.8283 31.8001 82.8346 31.7626 82.8481 31.7275C82.8615 31.6924 82.8819 31.6603 82.9081 31.6332C82.9342 31.6062 82.9655 31.5846 83.0002 31.5699C83.0348 31.5553 83.0721 31.5477 83.1097 31.5477H86.5597ZM86.5597 29.6577H83.1097C82.8234 29.6577 82.5399 29.7141 82.2754 29.8237C82.0109 29.9332 81.7706 30.0938 81.5682 30.2962C81.3658 30.4987 81.2052 30.739 81.0956 31.0035C80.9861 31.268 80.9297 31.5514 80.9297 31.8377V46.6077C80.9297 47.1868 81.159 47.7423 81.5676 48.1528C81.9761 48.5632 82.5306 48.7951 83.1097 48.7977H86.5597C87.1388 48.7951 87.6932 48.5632 88.1018 48.1528C88.5103 47.7423 88.7397 47.1868 88.7397 46.6077V31.8377C88.7266 31.2683 88.4912 30.7265 88.0838 30.3284C87.6763 29.9304 87.1293 29.7076 86.5597 29.7077V29.6577Z" fill="white"/>
<path d="M6.12988 47.2075L12.9999 53.1375" stroke="white" stroke-width="3.79" stroke-miterlimit="10"/>
<path d="M5.6302 30.5977H2.1802C1.50089 30.5977 0.950195 31.1483 0.950195 31.8277V46.6077C0.950195 47.287 1.50089 47.8377 2.1802 47.8377H5.6302C6.30951 47.8377 6.8602 47.287 6.8602 46.6077V31.8277C6.8602 31.1483 6.30951 30.5977 5.6302 30.5977Z" fill="white"/>
<path d="M5.62999 31.5477C5.66762 31.5477 5.70486 31.5553 5.7395 31.5699C5.77414 31.5846 5.80547 31.6062 5.8316 31.6332C5.85774 31.6603 5.87815 31.6924 5.89162 31.7275C5.90509 31.7626 5.91133 31.8001 5.90999 31.8377V46.6077C5.91133 46.6453 5.90509 46.6828 5.89162 46.7179C5.87815 46.7531 5.85774 46.7851 5.8316 46.8122C5.80547 46.8393 5.77414 46.8608 5.7395 46.8755C5.70486 46.8902 5.66762 46.8977 5.62999 46.8977H2.17999C2.14237 46.8977 2.10512 46.8902 2.07048 46.8755C2.03584 46.8608 2.00451 46.8393 1.97838 46.8122C1.95224 46.7851 1.93183 46.7531 1.91837 46.7179C1.9049 46.6828 1.89865 46.6453 1.89999 46.6077V31.8377C1.89865 31.8001 1.9049 31.7626 1.91837 31.7275C1.93183 31.6924 1.95224 31.6603 1.97838 31.6332C2.00451 31.6062 2.03584 31.5846 2.07048 31.5699C2.10512 31.5553 2.14237 31.5477 2.17999 31.5477H5.62999ZM5.62999 29.6577H2.17999C1.60182 29.6577 1.04733 29.8874 0.638504 30.2962C0.229675 30.705 1.19201e-10 31.2596 1.19172e-10 31.8377V46.6077C-6.03706e-06 47.1868 0.229349 47.7423 0.637894 48.1528C1.04644 48.5632 1.6009 48.7951 2.17999 48.7977H5.62999C6.20908 48.7951 6.76356 48.5632 7.1721 48.1528C7.58065 47.7423 7.81 47.1868 7.81 46.6077V31.8377C7.81 31.2596 7.58032 30.705 7.17149 30.2962C6.76266 29.8874 6.20816 29.6577 5.62999 29.6577V29.6577Z" fill="white"/>
<path d="M44.3703 100.958H14.1603C13.5783 100.963 13.002 100.842 12.4718 100.602C11.9416 100.362 11.4701 100.009 11.0903 99.5678C10.3533 98.7419 9.94426 97.6748 9.94033 96.5678C9.82033 92.1778 9.43033 76.2078 9.94033 72.1278C10.2403 69.7378 12.0403 69.2879 13.6903 68.6979C13.8366 68.6458 13.9618 68.5471 14.0467 68.4171C14.1316 68.287 14.1715 68.1327 14.1603 67.9779V66.3278L13.1603 48.5678C13.1401 48.2101 13.1602 47.8511 13.2203 47.4978L13.4403 46.2278C13.4885 45.974 13.5119 45.7162 13.5103 45.4578L13.6503 29.8478C13.6503 29.7178 13.6503 29.5978 13.6503 29.4678C13.8003 27.8078 14.9003 15.6478 15.1903 13.0478C15.3003 12.0478 15.9103 7.16785 16.3403 5.44785C16.5199 4.60806 16.9649 3.84834 17.6096 3.28106C18.2543 2.71377 19.0645 2.36904 19.9203 2.29784C22.8403 1.78784 34.9203 2.10784 44.3803 2.01784C53.8803 2.10784 65.9203 1.78784 68.8403 2.29784C69.6961 2.36904 70.5063 2.71377 71.151 3.28106C71.7958 3.84834 72.2408 4.60806 72.4203 5.44785C72.8503 7.16785 73.4203 12.0478 73.5703 13.0478C73.8603 15.6478 74.9603 27.8078 75.1103 29.4678C75.1103 29.5978 75.1103 29.7178 75.1103 29.8478L75.2503 45.4578C75.2487 45.7162 75.2722 45.974 75.3203 46.2278L75.5403 47.4978C75.6005 47.8511 75.6206 48.2101 75.6003 48.5678L74.6003 66.3278V67.9779C74.5891 68.1327 74.6291 68.287 74.7139 68.4171C74.7988 68.5471 74.924 68.6458 75.0703 68.6979C76.7203 69.2879 78.5203 69.6978 78.8203 72.1278C79.3203 76.2178 78.9303 92.2479 78.8203 96.5979C78.8089 97.5778 78.475 98.5267 77.8703 99.2978C77.489 99.8037 76.9948 100.214 76.4271 100.495C75.8594 100.776 75.2339 100.921 74.6003 100.918H44.3703V100.958Z" stroke="white" stroke-width="4" stroke-miterlimit="10"/>
<path d="M13.5996 32.0575C17.4896 29.5775 44.3296 29.6275 44.3296 29.6275H44.4096C44.4096 29.6275 71.2496 29.6275 75.1396 32.0575" stroke="white" stroke-width="4" stroke-miterlimit="10"/>
<path d="M13.5303 45.8877C14.4103 47.5277 16.7303 50.2477 19.9503 50.2477H68.7903C72.0103 50.2477 74.3303 47.5277 75.2103 45.8877" stroke="white" stroke-width="4" stroke-miterlimit="10"/>
<path d="M76.7503 100.958H69.0703C68.518 100.958 68.0703 101.405 68.0703 101.958V106.038C68.0703 106.59 68.518 107.038 69.0703 107.038H76.7503C77.3026 107.038 77.7503 106.59 77.7503 106.038V101.958C77.7503 101.405 77.3026 100.958 76.7503 100.958Z" fill="white" stroke="white" stroke-width="0.06" stroke-miterlimit="10" stroke-linecap="round"/>
<path d="M19.6497 100.958H11.9697C11.4174 100.958 10.9697 101.405 10.9697 101.958V106.038C10.9697 106.59 11.4174 107.038 11.9697 107.038H19.6497C20.202 107.038 20.6497 106.59 20.6497 106.038V101.958C20.6497 101.405 20.202 100.958 19.6497 100.958Z" fill="white" stroke="white" stroke-width="0.06" stroke-miterlimit="10" stroke-linecap="round"/>
<path d="M70.9701 75.1978L65.8301 86.7978L72.8201 85.2978" stroke="white" stroke-width="4" stroke-linecap="round" stroke-linejoin="round"/>
<path d="M17.7897 75.1577L22.9197 86.7677L15.9297 85.2577" stroke="white" stroke-width="4" stroke-linecap="round" stroke-linejoin="round"/>
<path d="M28.6504 91.5876L62.2804 60.4976H63.4904C64.0106 60.4973 64.5104 60.6998 64.8838 61.062C65.2572 61.4242 65.4748 61.9176 65.4904 62.4376C65.4904 62.4376 62.1404 78.0676 60.4904 90.9576C60.4029 91.4096 60.1622 91.8177 59.8087 92.1128C59.4553 92.408 59.0108 92.5721 58.5504 92.5776H30.3104C30.3104 92.5776 28.9804 92.4176 28.6504 91.5876Z" fill="white"/>
<path d="M56.5897 60.4976L27.7997 87.1476C27.7997 87.1476 25.0597 71.5576 23.3997 63.0776C23.3997 63.0776 22.8497 60.6176 25.2597 60.4976H56.5897Z" fill="white"/>
</svg>
