<svg width="108" height="87" viewBox="0 0 108 87" fill="none" >
<path d="M107.586 54.7116V54.6016L106.876 45.4516C106.846 44.9985 106.646 44.5734 106.316 44.2616L104.176 42.2616C103.832 41.9313 103.373 41.7483 102.896 41.7516H70.1564C70.0364 40.3616 69.8164 38.7516 69.5564 37.1216L77.6264 23.7216C77.8237 23.401 77.918 23.0275 77.8964 22.6516L77.4564 15.8916C77.4364 15.5718 77.3338 15.2627 77.1585 14.9944C76.9832 14.7262 76.7413 14.5082 76.4564 14.3616L70.4564 11.2816C70.147 11.1265 69.8016 11.0574 69.4564 11.0816L52.1064 12.1816L18.8864 10.5716L11.0164 7.8916L10.0164 2.72159C9.9369 2.0911 9.66619 1.50007 9.24068 1.02808C8.81517 0.556083 8.25528 0.225784 7.63637 0.081607C7.1595 -0.0209552 6.66691 -0.026911 6.18771 0.0641204C5.7085 0.155152 5.25241 0.341322 4.84637 0.611606L1.33637 2.4516C1.19386 2.53019 1.06266 2.62776 0.946368 2.74161C0.600926 3.03872 0.335653 3.41785 0.174904 3.84418C0.014155 4.27052 -0.0369204 4.7304 0.0263675 5.18161C0.0215632 5.26154 0.0215632 5.34168 0.0263675 5.4216L2.18637 55.5616C2.19705 55.804 2.25557 56.0419 2.35854 56.2615C2.46151 56.4812 2.60691 56.6784 2.78637 56.8416L5.88637 59.6716C6.11412 59.8778 6.38871 60.0255 6.68637 60.1016L11.9264 61.4016C13.195 62.4122 14.7859 62.9307 16.4064 62.8616C18.9903 62.8501 21.5014 62.0049 23.5664 60.4516C27.0164 57.7216 27.5664 53.2116 26.9464 49.9016C26.6264 48.2516 25.4564 44.0616 24.5064 40.6916C24.0464 39.0616 23.6464 37.6316 23.4364 36.8216C23.32 36.3929 23.0549 36.0196 22.6884 35.7686C22.322 35.5176 21.8781 35.4052 21.4364 35.4516C20.9857 35.5058 20.571 35.7247 20.2719 36.0662C19.9729 36.4077 19.8106 36.8477 19.8164 37.3016V39.3016L19.0064 40.8716C18.9089 41.0591 18.8446 41.2622 18.8164 41.4716C18.0764 46.8516 13.5164 48.7816 11.0864 49.4716L13.8164 20.5616L53.6064 26.2016C53.8015 26.2366 54.0013 26.2366 54.1964 26.2016L63.8164 24.4516L62.2364 26.9016C61.7464 26.8316 61.2364 26.7716 60.6764 26.7216C52.7464 26.1816 41.3564 28.0016 40.8764 28.0716C40.6011 28.1188 40.3398 28.2268 40.1114 28.3877C39.8831 28.5486 39.6935 28.7583 39.5564 29.0016C39.4199 29.2452 39.3401 29.5165 39.3228 29.7952C39.3054 30.0739 39.3511 30.3529 39.4564 30.6116C39.6256 31.0304 39.8402 31.4295 40.0964 31.8016C37.1564 40.0216 36.4764 48.9916 36.3464 53.7416C36.3315 53.8511 36.3315 53.9621 36.3464 54.0716V57.2316V59.4516C36.336 59.5447 36.336 59.6386 36.3464 59.7316C36.3464 60.2223 36.5413 60.6928 36.8882 61.0397C37.2352 61.3867 37.7057 61.5816 38.1964 61.5816H51.1964V67.2516H50.3364L42.4064 66.2516C41.1365 65.7336 39.7778 65.4687 38.4064 65.4716C36.6628 65.4755 34.9466 65.9045 33.4064 66.7216L25.9964 64.2316C25.7433 64.1418 25.4731 64.1109 25.2064 64.1416L22.2064 64.4716C21.913 64.5048 21.6318 64.6076 21.3864 64.7716C20.858 65.1161 20.4681 65.6358 20.2852 66.2394C20.1023 66.843 20.1381 67.4918 20.3864 68.0716L20.9164 70.0716C21.0169 72.1042 20.5641 74.1259 19.6064 75.9216C19.3788 76.2231 19.2272 76.575 19.1646 76.9476C19.1019 77.3201 19.13 77.7022 19.2464 78.0616C19.3654 78.399 19.5652 78.7021 19.8285 78.9445C20.0917 79.1868 20.4103 79.3609 20.7564 79.4516C21.2138 79.5651 21.6868 79.6022 22.1564 79.5616H23.7664C24.1463 79.5526 24.5143 79.4269 24.8202 79.2015C25.1262 78.976 25.3553 78.6618 25.4764 78.3016L27.8564 71.3016C27.9064 71.1701 27.9367 71.032 27.9464 70.8916L28.9464 71.2016C28.1231 72.7394 27.6937 74.4573 27.6964 76.2016C27.6964 77.612 27.9742 79.0086 28.5139 80.3116C29.0536 81.6147 29.8447 82.7986 30.842 83.7959C31.8393 84.7932 33.0233 85.5843 34.3263 86.1241C35.6294 86.6638 37.026 86.9416 38.4364 86.9416C39.8468 86.9416 41.2433 86.6638 42.5464 86.1241C43.8494 85.5843 45.0334 84.7932 46.0307 83.7959C47.028 82.7986 47.8191 81.6147 48.3588 80.3116C48.8986 79.0086 49.1764 77.612 49.1764 76.2016C49.172 75.6186 49.1218 75.0368 49.0264 74.4616L50.5264 77.4616C50.6837 77.7632 50.9207 78.0159 51.2116 78.1923C51.5025 78.3686 51.8362 78.4617 52.1764 78.4616H69.8164C70.1565 78.4617 70.4902 78.3686 70.7812 78.1923C71.0721 78.0159 71.3091 77.7632 71.4664 77.4616L72.4664 75.5616C72.4664 75.7916 72.4664 76.0216 72.4664 76.2616C72.467 78.8119 73.3752 81.2787 75.0284 83.2206C76.6815 85.1626 78.9717 86.4528 81.4892 86.8606C84.0067 87.2683 86.5871 86.7669 88.7687 85.4461C90.9503 84.1253 92.5907 82.0713 93.3964 79.6516H100.016C100.46 79.65 100.889 79.4905 101.226 79.2016L101.736 78.7616C101.936 78.587 102.097 78.3719 102.207 78.1305C102.317 77.8891 102.375 77.627 102.376 77.3616V67.7316C102.376 67.4887 102.329 67.2481 102.236 67.0236C102.143 66.7992 102.006 66.5953 101.835 66.4235C101.663 66.2517 101.459 66.1154 101.234 66.0224C101.01 65.9294 100.769 65.8816 100.526 65.8816H92.8164L87.0664 66.2516C85.6149 65.6853 84.0569 65.4437 82.5021 65.5439C80.9472 65.6441 79.4332 66.0837 78.0664 66.8316L71.6464 67.2516H71.3164V61.5816H104.116C104.585 61.5814 105.035 61.4026 105.376 61.0816L107.046 59.5316C107.237 59.3568 107.389 59.1432 107.49 58.9053C107.592 58.6673 107.642 58.4104 107.636 58.1516L107.586 54.7116ZM38.4664 83.2416C37.0919 83.2624 35.7416 82.8781 34.5841 82.1366C33.4266 81.3951 32.513 80.3292 31.9574 79.0718C31.4018 77.8144 31.2286 76.4212 31.4596 75.0661C31.6906 73.711 32.3155 72.4539 33.2564 71.4516C33.2564 71.4516 33.3064 71.4516 33.3264 71.3916C33.7276 70.9574 34.1811 70.5745 34.6764 70.2516V70.2516C35.6331 69.6366 36.7265 69.2666 37.8601 69.1742C38.9937 69.0818 40.1326 69.2698 41.1764 69.7216V69.7216C42.6765 70.3885 43.8992 71.5547 44.6364 73.0216L44.7364 73.1716C45.1897 74.1067 45.4256 75.1323 45.4264 76.1716C45.4318 78.0293 44.7037 79.8142 43.4004 81.1381C42.0971 82.462 40.324 83.2179 38.4664 83.2416ZM98.5964 75.9016H94.7264V69.5316H98.5964V75.9016ZM85.8764 69.7316H85.9564C87.4347 70.3967 88.6413 71.5468 89.3764 72.9916C89.4072 73.0487 89.4441 73.1024 89.4864 73.1516C89.9361 74.088 90.1718 75.1128 90.1764 76.1516C90.1764 78.0187 89.4347 79.8094 88.1144 81.1296C86.7941 82.4499 85.0035 83.1916 83.1364 83.1916C81.2692 83.1916 79.4786 82.4499 78.1583 81.1296C76.8381 79.8094 76.0964 78.0187 76.0964 76.1516C76.104 75.112 76.3432 74.0872 76.7964 73.1516C76.7964 73.0916 76.8664 73.0516 76.8964 72.9916C77.4995 71.8112 78.4254 70.8264 79.5664 70.1516L79.7964 69.9816C80.7226 69.4787 81.7504 69.1914 82.8032 69.1412C83.856 69.091 84.9065 69.2791 85.8764 69.6916V69.7316ZM70.3964 71.3516L68.6764 74.7216H53.3464L51.6264 71.3516C51.5466 71.1842 51.4383 71.0319 51.3064 70.9016H70.7164C70.5844 71.0319 70.4762 71.1842 70.3964 71.3516V71.3516ZM11.3364 53.2016C14.8164 52.4516 19.8164 50.0116 21.8164 44.7216C22.4864 47.1516 23.1364 49.5616 23.3364 50.6016C23.7664 52.8516 23.4564 55.8516 21.3364 57.6016C18.9464 59.4916 15.4264 59.6016 14.4364 58.6716C13.2775 57.4316 12.1827 56.1333 11.1564 54.7816C11.1364 54.3716 11.2264 53.8016 11.3364 53.2016ZM53.8164 22.5016L12.3864 16.6216C12.1388 16.5881 11.887 16.6049 11.646 16.6709C11.4051 16.7369 11.1799 16.8508 10.9839 17.0057C10.7879 17.1606 10.6251 17.3534 10.5053 17.5726C10.3854 17.7919 10.311 18.033 10.2864 18.2816L6.82637 55.2816C6.82136 55.3615 6.82136 55.4417 6.82637 55.5216L5.92637 54.7016L3.81637 5.38159L6.59637 3.8916L7.65637 9.58161C7.70965 9.89869 7.84465 10.1964 8.04807 10.4454C8.25149 10.6944 8.51629 10.8861 8.81637 11.0016L17.9464 14.1016C18.1103 14.1607 18.2823 14.1944 18.4564 14.2016L52.0364 15.8316H52.2464L69.1964 14.7616L73.7964 17.1216L74.1264 22.2616L68.4664 31.6616C68.4064 31.4416 68.3564 31.2316 68.3064 31.0316C68.2564 30.8316 68.3064 30.8116 68.2264 30.7016C68.1228 30.2329 67.9685 29.7769 67.7664 29.3416V29.3416C67.3616 28.6869 66.7489 28.1869 66.0264 27.9216L69.2464 22.9216C69.4404 22.6189 69.542 22.2662 69.5388 21.9066C69.5355 21.5471 69.4276 21.1963 69.2281 20.8971C69.0287 20.5979 68.7464 20.3633 68.4157 20.222C68.0851 20.0808 67.7204 20.0389 67.3664 20.1016L53.8164 22.5016ZM62.8164 30.7716L63.4564 30.9116H63.5564C63.8984 30.9975 64.2329 31.1112 64.5564 31.2516C64.7864 32.0916 65.2864 34.3216 65.7564 37.0016C66.0799 38.7753 66.3135 40.5643 66.4564 42.3616L59.2164 45.8916V30.3716L60.3764 30.4216C61.2164 30.5016 62.0664 30.6216 62.8164 30.7716V30.7716ZM44.0564 31.9016C44.1279 31.7296 44.1717 31.5473 44.1864 31.3616C46.9164 31.0016 51.3464 30.4916 55.5664 30.3616V47.5516C55.5615 47.6115 55.5615 47.6717 55.5664 47.7316L53.7564 48.6216C53.1064 48.6916 52.4764 48.7716 51.8564 48.8616L51.3764 48.9316L49.9564 49.1516L49.4964 49.2216C48.2964 49.4316 47.1364 49.6516 46.0564 49.8716L45.7764 49.9316L44.4164 50.2316L44.1864 50.2816C42.6064 50.6516 41.2464 51.0016 40.1864 51.2816C40.4921 44.6644 41.7934 38.131 44.0464 31.9016H44.0564ZM67.6164 61.5316V66.0916H54.9464V61.5316H67.6164ZM103.396 57.8316H40.0664V55.1716L40.3964 55.0816L40.6264 55.0116L41.0364 54.9016L41.2764 54.8316L41.7664 54.7016H41.8664L42.9864 54.4116L43.3264 54.3216L43.8864 54.1916L44.3064 54.0916L44.8664 53.9516L45.5064 53.8116L46.2964 53.6416L46.9764 53.4916L47.4864 53.3916L48.2364 53.2416L48.7064 53.1516L49.9364 52.9316H50.1064L51.2664 52.7416L51.6564 52.6816L52.6564 52.5416H53.0064L54.4164 52.3716C54.6294 52.3517 54.8366 52.2906 55.0264 52.1916L68.8164 45.4516H102.156L103.246 46.4516L103.886 54.8316V57.3416L103.396 57.8316Z" fill="white"/>
</svg>
