<svg width="114" height="73" viewBox="0 0 114 73" fill="none" >
<path d="M11.7695 29.71L20.7695 3.02C30.2695 1.66 81.5995 1.66 91.0995 3.02L100.1 29.69" stroke="white" stroke-width="4" stroke-linecap="round" stroke-linejoin="round"/>
<path d="M55.9199 17.3301V56.1501" stroke="white" stroke-width="4" stroke-linecap="round" stroke-linejoin="round"/>
<path d="M11.71 56.11C7.51 47.29 4.51 38.11 5.71 33.32C6.65 29.61 51.89 17.63 51.89 17.63C54.5251 17.0501 57.2549 17.0501 59.89 17.63C59.89 17.63 105.13 29.63 106.07 33.32C107.3 38.15 104.31 47.32 100.07 56.11" stroke="white" stroke-width="4" stroke-linecap="round" stroke-linejoin="round"/>
<path d="M2 72.1098C4.16233 72.145 6.29842 71.6325 8.20946 70.6202C10.1205 69.6078 11.7444 68.1285 12.93 66.3198C14.117 68.1272 15.7411 69.6055 17.6519 70.6177C19.5626 71.6298 21.698 72.1431 23.86 72.1098C26.019 72.1416 28.151 71.6275 30.0582 70.6153C31.9655 69.6031 33.5862 68.1256 34.77 66.3198C35.9809 68.1038 37.6101 69.5643 39.5153 70.5738C41.4205 71.5832 43.5439 72.111 45.7 72.111C47.8561 72.111 49.9795 71.5832 51.8847 70.5738C53.7899 69.5643 55.4191 68.1038 56.63 66.3198C57.8409 68.1038 59.4701 69.5643 61.3753 70.5738C63.2805 71.5832 65.4039 72.111 67.56 72.111C69.7161 72.111 71.8395 71.5832 73.7447 70.5738C75.6499 69.5643 77.2791 68.1038 78.49 66.3198C79.7021 68.1038 81.3322 69.5642 83.2382 70.5735C85.1442 71.5829 87.2682 72.1105 89.425 72.1105C91.5818 72.1105 93.7058 71.5829 95.6118 70.5735C97.5178 69.5642 99.148 68.1038 100.36 66.3198C101.547 68.1314 103.174 69.6125 105.089 70.625C107.004 71.6375 109.144 72.1484 111.31 72.1098" stroke="white" stroke-width="0.15" stroke-miterlimit="10"/>
<path d="M2 70.9199C4.16418 70.9528 6.30148 70.4373 8.21268 69.4214C10.1239 68.4055 11.7467 66.9222 12.93 65.1099C14.117 66.9172 15.7411 68.3955 17.6519 69.4077C19.5626 70.4199 21.698 70.9331 23.86 70.8999C26.019 70.9316 28.151 70.4175 30.0582 69.4053C31.9655 68.3931 33.5862 66.9156 34.77 65.1099C35.9809 66.8939 37.6101 68.3543 39.5153 69.3638C41.4205 70.3733 43.5439 70.901 45.7 70.901C47.8561 70.901 49.9795 70.3733 51.8847 69.3638C53.7899 68.3543 55.4191 66.8939 56.63 65.1099C57.8409 66.8939 59.4701 68.3543 61.3753 69.3638C63.2805 70.3733 65.4039 70.901 67.56 70.901C69.7161 70.901 71.8395 70.3733 73.7447 69.3638C75.6499 68.3543 77.2791 66.8939 78.49 65.1099C79.7021 66.8939 81.3322 68.3542 83.2382 69.3636C85.1442 70.3729 87.2682 70.9006 89.425 70.9006C91.5818 70.9006 93.7058 70.3729 95.6118 69.3636C97.5178 68.3542 99.148 66.8939 100.36 65.1099C101.546 66.9185 103.169 68.3979 105.081 69.4102C106.992 70.4225 109.128 70.935 111.29 70.8999" stroke="white" stroke-width="4" stroke-linecap="round" stroke-linejoin="round"/>
</svg>
