<svg width="94" height="95" viewBox="0 0 94 95" fill="none" >
<path d="M58.9717 73.0408H91.0185" stroke="white" stroke-width="4" stroke-linecap="round" stroke-linejoin="round"/>
<path d="M91.0187 66.0489H71.4346V18.0122V9.11655L39.3877 5.55827V2H91.0187" stroke="white" stroke-width="4" stroke-linecap="round" stroke-linejoin="round"/>
<path d="M39.3879 92.7367C45.7792 92.7367 50.9604 87.5591 50.9604 81.1723C50.9604 74.7855 45.7792 69.6079 39.3879 69.6079C32.9966 69.6079 27.8154 74.7855 27.8154 81.1723C27.8154 87.5591 32.9966 92.7367 39.3879 92.7367Z" stroke="white" stroke-width="4" stroke-linecap="round" stroke-linejoin="round"/>
<path d="M21.5842 83.8404H5.56076C4.61639 83.8404 3.71069 83.4656 3.04292 82.7983C2.37515 82.1309 2 81.2259 2 80.2822V67.8282L3.60233 65.4264C4.87923 63.5142 5.56071 61.2669 5.56076 58.9681V45.0553C5.53444 44.8247 5.53444 44.5919 5.56076 44.3614L10.1364 21.4639C10.3341 20.4876 10.8644 19.6099 11.6371 18.9806C12.4097 18.3512 13.3769 18.0091 14.3737 18.0124H35.7382L38.3198 15.4326C38.6308 15.1221 39 14.8759 39.4063 14.708C39.8126 14.5401 40.248 14.4538 40.6877 14.4541H62.444V64.2699L53.5421 67.8282" stroke="white" stroke-width="4" stroke-linecap="round" stroke-linejoin="round"/>
</svg>
