<svg width="99" height="86" viewBox="0 0 99 86" fill="none" >
<path d="M57.9502 68.7092H96.6846" stroke="white" stroke-width="4" stroke-linecap="round" stroke-linejoin="round"/>
<path d="M96.6852 60.1017H55.7988V2H96.6852" stroke="white" stroke-width="4" stroke-linecap="round" stroke-linejoin="round"/>
<path d="M38.5828 83.7723C44.5252 83.7723 49.3424 78.9551 49.3424 73.0127C49.3424 67.0704 44.5252 62.2532 38.5828 62.2532C32.6405 62.2532 27.8232 67.0704 27.8232 73.0127C27.8232 78.9551 32.6405 83.7723 38.5828 83.7723Z" stroke="white" stroke-width="4" stroke-linecap="round" stroke-linejoin="round"/>
<path d="M21.3673 75.1647H5.72286C5.23318 75.1675 4.74781 75.0731 4.29484 74.8871C3.84188 74.701 3.43033 74.4269 3.08406 74.0806C2.7378 73.7344 2.4637 73.3228 2.27762 72.8698C2.09154 72.4169 1.99721 71.9315 2.00006 71.4418V46.1784C2.00433 44.0338 2.64052 41.9381 3.82917 40.153L6.30389 36.4302L11.8988 14.0072C12.148 13.0302 12.6973 12.1559 13.4693 11.5074C14.2414 10.8589 15.1973 10.4688 16.2027 10.392L47.1257 8.45532V55.7974" stroke="white" stroke-width="4" stroke-linecap="round" stroke-linejoin="round"/>
</svg>
