<svg width="104" height="97" viewBox="0 0 104 97" fill="none" >
<path d="M89.8043 71.6902L77.3643 75.9502L81.6943 62.1602" stroke="white" stroke-width="4" stroke-linecap="round" stroke-linejoin="round"/>
<path d="M80.4141 87.1902V94.1602H87.2941V87.1602" fill="white"/>
<path d="M80.4141 87.1902V94.1602H87.2941V87.1602" stroke="white" stroke-width="4.92" stroke-linecap="round" stroke-linejoin="round"/>
<path d="M25.0544 2C22.4544 2 19.9944 2.61 18.5044 3.94C17.6344 4.72 15.8144 6.46 14.4144 7.94C13.4083 9.12593 12.7782 10.5846 12.6044 12.13C12.6044 12.13 10.9844 33.25 10.9844 37.7V83.21C10.9842 84.067 11.3205 84.8897 11.9208 85.5013C12.5212 86.1128 13.3376 86.4643 14.1944 86.48H89.0244C89.8794 86.4642 90.6937 86.1121 91.2908 85.5C91.888 84.8879 92.2198 84.0651 92.2144 83.21V37.7C92.2144 33.25 90.6044 12.13 90.6044 12.13C90.4305 10.5846 89.8004 9.12593 88.7944 7.94C87.4044 6.46 85.5844 4.72 84.7244 3.94C83.2344 2.61 80.7844 2 78.1844 2H25.0544Z" stroke="white" stroke-width="4" stroke-linecap="round" stroke-linejoin="round"/>
<path d="M93.6443 36.59H99.6443C99.8814 36.5961 100.117 36.5527 100.336 36.4623C100.556 36.3719 100.754 36.2367 100.917 36.0653C101.081 35.8939 101.207 35.6901 101.288 35.467C101.368 35.2439 101.401 35.0065 101.384 34.77L100.194 17.25C100.147 16.7531 99.9155 16.2919 99.5454 15.957C99.1753 15.6221 98.6934 15.4377 98.1943 15.44H92.1943" stroke="white" stroke-width="4" stroke-linecap="round" stroke-linejoin="round"/>
<path d="M10.5636 36.59H3.75362C3.51663 36.5974 3.28071 36.5553 3.06099 36.4661C2.84128 36.377 2.64264 36.2429 2.47783 36.0725C2.31303 35.902 2.1857 35.699 2.10403 35.4764C2.02236 35.2538 1.98816 35.0166 2.00362 34.78L3.19362 17.25C3.24103 16.7531 3.47249 16.2919 3.84255 15.957C4.21261 15.6221 4.69452 15.4377 5.19362 15.44H12.0036" stroke="white" stroke-width="4" stroke-linecap="round" stroke-linejoin="round"/>
<path d="M15.9141 87.1602V94.1602H22.8341V87.1902" fill="white"/>
<path d="M15.9141 87.1602V94.1602H22.8341V87.1902" stroke="white" stroke-width="4.92" stroke-linecap="round" stroke-linejoin="round"/>
<path d="M32.5342 65.3599H69.6542" stroke="white" stroke-width="4" stroke-linecap="round" stroke-linejoin="round"/>
<path d="M37.1738 74.96H65.0138" stroke="white" stroke-width="4" stroke-linecap="round" stroke-linejoin="round"/>
<path d="M57.1444 44.65H24.1444C24.0253 44.6486 23.9072 44.6709 23.7969 44.7156C23.6865 44.7602 23.5861 44.8263 23.5015 44.91C23.4169 44.9937 23.3497 45.0934 23.3038 45.2032C23.258 45.3131 23.2344 45.4309 23.2344 45.55V54.14C23.2343 54.2581 23.258 54.375 23.3041 54.4838C23.3502 54.5926 23.4177 54.6909 23.5026 54.7731C23.5876 54.8552 23.6881 54.9194 23.7984 54.9618C23.9086 55.0042 24.0263 55.024 24.1444 55.02H29.4244C29.7044 54.93 57.1444 44.65 57.1444 44.65Z" fill="white" stroke="white" stroke-width="0.96" stroke-linecap="round" stroke-linejoin="round"/>
<path d="M78.0534 44.6499H73.0534L45.5234 55.0199H78.0534C78.1706 55.024 78.2873 55.0042 78.3965 54.9615C78.5057 54.9189 78.605 54.8544 78.6883 54.772C78.7717 54.6896 78.8373 54.591 78.8812 54.4823C78.9251 54.3736 78.9462 54.2571 78.9434 54.1399V45.5499C78.9448 45.4322 78.9227 45.3154 78.8786 45.2062C78.8345 45.0971 78.7691 44.9978 78.6863 44.9141C78.6035 44.8304 78.505 44.7639 78.3964 44.7186C78.2877 44.6732 78.1712 44.6499 78.0534 44.6499V44.6499Z" fill="white" stroke="white" stroke-width="0.96" stroke-linecap="round" stroke-linejoin="round"/>
<path d="M12.3242 71.6902L24.7642 75.9502L20.4342 62.1602" stroke="white" stroke-width="4" stroke-linecap="round" stroke-linejoin="round"/>
</svg>
