<svg width="116" height="60" viewBox="0 0 116 60" fill="none" >
<path d="M114.62 13.72L105.25 1.72C105.05 1.46494 104.79 1.26248 104.494 1.13008C104.198 0.997678 103.874 0.939311 103.55 0.960007L44.75 4.57001L42.58 1C42.4064 0.699176 42.1574 0.448767 41.8575 0.273422C41.5577 0.0980771 41.2173 0.00384191 40.87 0H5.51002C4.97958 0 4.47088 0.210712 4.0958 0.585785C3.72073 0.960858 3.51002 1.46957 3.51002 2V5C3.51002 5.53043 3.72073 6.03914 4.0958 6.41422C4.47088 6.78929 4.97958 7 5.51002 7H11.85L9.85002 16.12C9.81859 16.2646 9.80184 16.412 9.80002 16.56V18.72L1.27002 22.05C0.894425 22.1972 0.572143 22.4546 0.345489 22.7884C0.118836 23.1221 -0.00159348 23.5166 1.59227e-05 23.92V43.31C-0.00122776 43.817 0.190162 44.3056 0.535467 44.6769C0.880772 45.0482 1.35421 45.2745 1.86002 45.31L6.05002 45.61L4.35002 49.29C4.2413 49.5296 4.18092 49.7883 4.17236 50.0513C4.16379 50.3143 4.2072 50.5764 4.30009 50.8225C4.39299 51.0687 4.53354 51.2941 4.71371 51.4859C4.89387 51.6776 5.11011 51.832 5.35002 51.94C5.61224 52.0655 5.89932 52.1304 6.19002 52.13C6.57255 52.131 6.94733 52.0222 7.26992 51.8166C7.5925 51.611 7.84935 51.3172 8.01002 50.97L10.38 45.84L12.66 45.95C13.4366 49.7213 15.4777 53.1144 18.4455 55.5676C21.4134 58.0208 25.1299 59.387 28.98 59.44C38.21 59.44 45.72 51.67 45.72 42.12C45.72 42.01 45.72 41.9 45.72 41.78H62.51C62.51 41.9 62.51 42 62.51 42.12C62.51 51.67 70.02 59.44 79.25 59.44C88.48 59.44 95.99 51.67 95.99 42.12C95.9732 38.0272 94.5265 34.069 91.9 30.93L97.48 22.71L113.76 16.71C114.056 16.6018 114.323 16.4251 114.538 16.1942C114.753 15.9633 114.91 15.6849 114.997 15.3816C115.084 15.0783 115.097 14.7588 115.037 14.4492C114.977 14.1396 114.844 13.8486 114.65 13.6L114.62 13.72ZM20.84 9.34V14.65H14.38L15.53 9.45L20.84 9.34ZM7.09002 41.72L3.98002 41.5V25.32L12.51 21.98C12.884 21.8334 13.2052 21.5775 13.4317 21.2458C13.6582 20.914 13.7796 20.5217 13.78 20.12V18.61H22.84C23.3704 18.61 23.8792 18.3993 24.2542 18.0242C24.6293 17.6491 24.84 17.1404 24.84 16.61V9.13L29.84 9.03C30.0417 9.25772 30.2193 9.50572 30.37 9.77L37.37 26.51L29.61 23.88C29.4041 23.8087 29.1879 23.7716 28.97 23.77H17.43C17.0492 23.771 16.6765 23.8806 16.3559 24.0861C16.0353 24.2916 15.78 24.5844 15.62 24.93L7.83002 41.72H7.09002ZM19.61 27.77C19.1207 28.1112 18.65 28.4783 18.2 28.87L18.71 27.77H19.61ZM12.2 41.83C12.2049 41.8699 12.2049 41.9101 12.2 41.95H12.15L12.2 41.83ZM28.93 55.47C21.93 55.47 16.19 49.47 16.19 42.15C16.19 34.83 21.9 28.83 28.93 28.83C35.96 28.83 41.67 34.93 41.67 42.15C41.67 49.37 35.96 55.47 28.93 55.47ZM45.1 37.81C44.5125 35.5833 43.4932 33.4937 42.1 31.66L70.96 27.09C68.9825 28.2573 67.2568 29.8062 65.8834 31.6466C64.51 33.4869 63.5163 35.582 62.96 37.81H45.1ZM82.71 25.23L91.91 23.78L88.91 28.17C87.0732 26.7648 84.9605 25.763 82.71 25.23ZM79.22 55.47C72.22 55.47 66.48 49.47 66.48 42.15C66.48 34.83 72.19 28.83 79.22 28.83C86.25 28.83 91.96 34.93 91.96 42.15C91.96 49.37 86.25 55.47 79.22 55.47V55.47ZM95.65 19.14L42.13 27.6L33.97 8.12L33.89 7.95C32.9477 6.27584 31.5642 4.89229 29.89 3.95H39.76L41.97 7.59C42.1536 7.90888 42.4215 8.17097 42.7444 8.3474C43.0672 8.52383 43.4325 8.60777 43.8 8.59L102.8 4.96001L109.8 13.96L95.65 19.14Z" fill="white"/>
</svg>
