<svg width="99" height="86" viewBox="0 0 99 86" fill="none" >
<path d="M57.9502 68.7095H96.6846" stroke="black" stroke-width="4" stroke-linecap="round" stroke-linejoin="round"/>
<path d="M96.6852 60.1017H55.7988V2H96.6852" stroke="black" stroke-width="4" stroke-linecap="round" stroke-linejoin="round"/>
<path d="M38.5828 83.7726C44.5252 83.7726 49.3424 78.9553 49.3424 73.013C49.3424 67.0706 44.5252 62.2534 38.5828 62.2534C32.6405 62.2534 27.8232 67.0706 27.8232 73.013C27.8232 78.9553 32.6405 83.7726 38.5828 83.7726Z" stroke="black" stroke-width="4" stroke-linecap="round" stroke-linejoin="round"/>
<path d="M21.3673 75.1649H5.72286C5.23318 75.1678 4.74781 75.0734 4.29484 74.8873C3.84188 74.7012 3.43033 74.4271 3.08406 74.0809C2.7378 73.7346 2.4637 73.323 2.27762 72.8701C2.09154 72.4171 1.99721 71.9317 2.00006 71.4421V46.1786C2.00433 44.034 2.64052 41.9383 3.82917 40.1533L6.30389 36.4304L11.8988 14.0075C12.148 13.0305 12.6973 12.1562 13.4693 11.5076C14.2414 10.8591 15.1973 10.469 16.2027 10.3923L47.1257 8.45557V55.7977" stroke="black" stroke-width="4" stroke-linecap="round" stroke-linejoin="round"/>
</svg>
