<svg width="98" height="90" viewBox="0 0 98 90" fill="none" >
<path d="M33.8632 87.9998C40.0742 87.9998 45.1092 82.9776 45.1092 76.7824C45.1092 70.5871 40.0742 65.5649 33.8632 65.5649C27.6522 65.5649 22.6172 70.5871 22.6172 76.7824C22.6172 82.9776 27.6522 87.9998 33.8632 87.9998Z" stroke="white" stroke-width="4" stroke-linecap="round" stroke-linejoin="round"/>
<path d="M80.7216 87.9998C86.9326 87.9998 91.9676 82.9776 91.9676 76.7824C91.9676 70.5871 86.9326 65.5649 80.7216 65.5649C74.5106 65.5649 69.4756 70.5871 69.4756 76.7824C69.4756 82.9776 74.5106 87.9998 80.7216 87.9998Z" stroke="white" stroke-width="4" stroke-linecap="round" stroke-linejoin="round"/>
<path d="M15.1207 80.5218H6.10516C5.56135 80.5218 5.02295 80.4141 4.52123 80.2048C4.01952 79.9956 3.56449 79.689 3.18258 79.3028C2.80067 78.9166 2.4995 78.4586 2.29655 77.9554C2.09361 77.4522 1.99294 76.9137 2.00039 76.3713V35.6521L6.59249 14.2269C6.88395 12.8813 7.62895 11.676 8.70332 10.8119C9.77768 9.94775 11.1165 9.47703 12.4966 9.47815H30.1153L30.9588 8.63682C32.8247 6.78085 35.3524 5.73875 37.9875 5.73901H54.4817V61.8261L46.9843 65.5652" stroke="white" stroke-width="4" stroke-linecap="round" stroke-linejoin="round"/>
<path d="M50.7334 71.1738H63.8537" stroke="white" stroke-width="4" stroke-linecap="round" stroke-linejoin="round"/>
<path d="M95.7168 61.8262H60.1045V2H95.7168" stroke="white" stroke-width="4" stroke-linecap="round" stroke-linejoin="round"/>
</svg>
