<svg width="118" height="41" viewBox="0 0 118 41" fill="none" >
<path d="M117.094 14.492L114.094 5.39197C113.961 4.99286 113.707 4.64564 113.365 4.39969C113.024 4.15374 112.614 4.02159 112.194 4.02197H59.2639L57.9739 2.02197C57.8136 1.77429 57.6004 1.56515 57.3498 1.40955C57.0991 1.25395 56.817 1.15572 56.5239 1.12195L51.4339 0.531954C51.0123 0.484296 50.5865 0.571966 50.2179 0.78229C49.8494 0.992614 49.5573 1.31471 49.3839 1.70197C49.2099 2.08917 49.1635 2.5217 49.2516 2.93698C49.3397 3.35227 49.5577 3.72877 49.8739 4.01196L52.8739 6.67197L56.6239 17.382L55.2139 20.322L48.3839 20.452V19.452L49.7939 18.122C49.992 17.9358 50.15 17.7112 50.2583 17.4619C50.3666 17.2125 50.423 16.9438 50.4239 16.672V9.67197C50.4301 9.19259 50.2639 8.72693 49.9555 8.35983C49.6472 7.99274 49.2172 7.74864 48.7439 7.67197L46.2239 7.25196L45.9839 1.91196C45.9608 1.39728 45.7398 0.911398 45.3673 0.555575C44.9947 0.199752 44.4991 0.0014333 43.9839 0.0019552C43.2939 0.0019552 26.8539 -0.108037 20.9839 1.32196C20.5696 1.42355 20.1986 1.65495 19.9251 1.98239C19.6517 2.30983 19.4901 2.71616 19.4639 3.14197L19.0539 9.63196C11.1839 10.942 2.25394 13.062 0.873939 16.042C-0.606061 19.262 0.203939 26.632 0.373939 28.042C0.427437 28.4663 0.615585 28.8624 0.910759 29.172C1.20593 29.4815 1.59258 29.6883 2.01394 29.762L18.6739 32.712C18.8102 32.7272 18.9477 32.7272 19.0839 32.712L21.6639 32.642C22.1833 34.3889 23.1067 35.9889 24.3592 37.3127C25.6118 38.6365 27.1584 39.6469 28.8739 40.262L29.0839 40.332C29.2739 40.402 29.4739 40.452 29.6839 40.512L30.1239 40.622L30.6339 40.732L31.2539 40.832L31.6539 40.882C32.0139 40.882 32.3639 40.9319 32.7239 40.9319C33.0839 40.9319 33.4439 40.932 33.7939 40.882H34.1039C34.3539 40.882 34.6139 40.812 34.8639 40.762H35.1639C35.4939 40.692 35.8239 40.602 36.1639 40.502C36.5032 40.3991 36.837 40.279 37.1639 40.142L37.3839 40.052C37.6339 39.942 37.8739 39.822 38.1139 39.692L38.3439 39.572C38.6139 39.422 38.8839 39.262 39.1439 39.082H39.2139C39.4946 38.8932 39.7649 38.6895 40.0239 38.472L40.2539 38.272C40.4239 38.132 40.5839 37.982 40.7439 37.832L41.0539 37.522L41.3739 37.162C42.2663 36.1631 42.9771 35.0158 43.4739 33.772H67.7439C68.2431 35.0177 68.9535 36.1679 69.8439 37.172C69.9439 37.292 70.0539 37.402 70.1539 37.512L70.4739 37.832C70.6339 37.982 70.7939 38.132 70.9639 38.272L71.1939 38.482C71.4539 38.6953 71.7239 38.8953 72.0039 39.082H72.0739C72.3339 39.262 72.6039 39.422 72.8739 39.572L73.1039 39.692C73.3403 39.8226 73.5841 39.9395 73.8339 40.042L74.0539 40.142C74.3739 40.272 74.7039 40.402 75.0539 40.502C75.3739 40.602 75.7039 40.692 76.0539 40.762H76.3539C76.6039 40.812 76.8639 40.852 77.1139 40.882H77.4239C77.7739 40.882 78.1339 40.9319 78.4939 40.9319C78.9519 40.9272 79.4093 40.8971 79.8639 40.842L80.2739 40.782C80.5939 40.782 80.9139 40.672 81.2239 40.592L81.6539 40.482C81.9839 40.382 82.3139 40.272 82.6539 40.152L82.9439 40.042C83.3401 39.8756 83.7273 39.6886 84.1039 39.482L84.4439 39.272C84.7137 39.1138 84.9742 38.9401 85.2239 38.752L85.5739 38.492C85.8539 38.272 86.1239 38.042 86.3839 37.802C86.4453 37.7539 86.5022 37.7003 86.5539 37.642C87.2399 36.9712 87.841 36.219 88.3439 35.402V35.402C88.5964 35.8205 88.8771 36.2215 89.1839 36.602V36.602C89.4746 36.9559 89.7886 37.29 90.1239 37.602L90.3139 37.772C90.5639 38.012 90.8239 38.232 91.0939 38.452L91.4639 38.722C91.7139 38.902 91.9639 39.062 92.2239 39.222L92.5839 39.442C92.9572 39.6486 93.3411 39.8355 93.7339 40.002L94.0439 40.112C94.3573 40.232 94.6906 40.342 95.0439 40.442L95.4839 40.552C95.7939 40.632 96.1039 40.692 96.4139 40.742L96.8339 40.802C97.2886 40.8572 97.746 40.8872 98.2039 40.892C101.22 40.8529 104.1 39.6349 106.229 37.4986C108.358 35.3624 109.565 32.4777 109.594 29.462V29.382C109.594 29.052 109.594 28.722 109.534 28.382C109.534 28.232 109.534 28.092 109.474 27.942C109.414 27.792 109.474 27.542 109.384 27.342L109.264 26.812L109.134 26.322C109.074 26.132 109.014 25.952 108.944 25.762L108.794 25.342C108.714 25.152 108.634 24.962 108.544 24.772C108.454 24.582 108.434 24.532 108.374 24.412C108.314 24.292 108.174 24.012 108.054 23.822L107.894 23.552L107.484 22.912L107.424 22.842C107.244 22.582 107.054 22.342 106.854 22.102L116.144 16.852C116.552 16.6299 116.869 16.273 117.043 15.8425C117.216 15.4119 117.234 14.9345 117.094 14.492ZM25.1939 29.492C25.1966 27.4957 25.9908 25.582 27.4024 24.1704C28.8139 22.7588 30.7277 21.9646 32.7239 21.962C34.7139 21.9878 36.6153 22.7891 38.0234 24.1954C39.4316 25.6017 40.2355 27.502 40.2639 29.492C40.2617 30.0093 40.2081 30.5252 40.1039 31.032C40.0728 31.107 40.0461 31.1838 40.0239 31.262C39.6298 32.8976 38.7006 34.3546 37.3839 35.402V35.402C36.7767 35.8702 36.1025 36.2444 35.3839 36.512L35.2139 36.582C34.8673 36.6965 34.5131 36.7868 34.1539 36.852H33.9539C33.5705 36.9159 33.1826 36.9493 32.7939 36.952C32.5542 36.9669 32.3137 36.9669 32.0739 36.952L31.7039 36.902L31.3839 36.852L30.8739 36.732H30.7239C30.5239 36.672 30.3239 36.612 30.1239 36.532C28.8591 36.037 27.7513 35.2101 26.917 34.1383C26.0828 33.0665 25.5532 31.7895 25.3839 30.442C25.3679 30.3296 25.3411 30.2192 25.3039 30.112C25.2139 29.872 25.1939 29.662 25.1939 29.462V29.492ZM70.8939 29.492C70.8966 27.494 71.6922 25.5787 73.1059 24.1668C74.5196 22.755 76.4359 21.962 78.4339 21.962C80.423 21.9879 82.3232 22.7895 83.7298 24.1961C85.1364 25.6027 85.938 27.5029 85.9639 29.492C85.9623 30.0061 85.9087 30.5187 85.8039 31.022C85.7728 31.1004 85.7461 31.1805 85.7239 31.262C85.3298 32.8976 84.4006 34.3546 83.0839 35.402V35.402C82.4768 35.8702 81.8025 36.2444 81.0839 36.512L80.9139 36.582C80.5673 36.6965 80.2131 36.7868 79.8539 36.852H79.6539C79.2738 36.9154 78.8893 36.9489 78.5039 36.952C78.1152 36.9493 77.7274 36.9159 77.3439 36.852H77.1439C76.7848 36.7868 76.4306 36.6965 76.0839 36.582L75.9139 36.512C75.1953 36.2444 74.5211 35.8702 73.9139 35.402V35.402C72.5972 34.3546 71.6681 32.8976 71.2739 31.262C71.2518 31.1805 71.2251 31.1004 71.1939 31.022C71.0399 30.5138 70.9394 29.991 70.8939 29.462V29.492ZM90.5639 29.492C90.5666 27.4957 91.3608 25.582 92.7723 24.1704C94.1839 22.7588 96.0977 21.9646 98.0939 21.962C99.5708 21.9654 101.013 22.4112 102.234 23.242C102.285 23.3005 102.342 23.354 102.404 23.4019C103.875 24.4457 104.936 25.97 105.404 27.712C105.404 27.712 105.404 27.712 105.404 27.772C105.469 28.0187 105.519 28.2691 105.554 28.522C105.549 28.5618 105.549 28.6021 105.554 28.642C105.569 28.9251 105.569 29.2088 105.554 29.492C105.551 31.4882 104.757 33.402 103.346 34.8135C101.934 36.2251 100.02 37.0193 98.0239 37.022V37.022C97.6352 37.0193 97.2474 36.9859 96.8639 36.922H96.6639C96.3247 36.8556 95.9905 36.7654 95.6639 36.652L95.4739 36.582C95.1301 36.4525 94.796 36.2987 94.4739 36.122V36.122C94.1245 35.9311 93.7902 35.7138 93.4739 35.472H93.4139C93.0973 35.2285 92.8028 34.9574 92.5339 34.662V34.662C91.6858 33.7204 91.0845 32.5831 90.7839 31.352C90.7652 31.2773 90.7418 31.2038 90.7139 31.132C90.6092 30.5818 90.569 30.0214 90.5939 29.462L90.5639 29.492ZM103.564 19.4019C101.886 18.4635 99.9965 17.968 98.0739 17.962C96.089 17.9638 94.1381 18.4785 92.4106 19.4561C90.6831 20.4338 89.2375 21.8412 88.2139 23.542C87.1878 21.857 85.7499 20.4608 84.0355 19.4847C82.3211 18.5085 80.3866 17.9845 78.4139 17.962C75.3559 17.9646 72.4237 19.1799 70.2604 21.3413C68.0971 23.5028 66.8792 26.4339 66.8739 29.492C66.869 29.5719 66.869 29.652 66.8739 29.732H44.2039C44.2089 29.652 44.2089 29.5719 44.2039 29.492C44.1625 26.4452 42.933 23.535 40.7775 21.3813C38.622 19.2277 35.7108 18.0008 32.6639 17.962C29.7392 17.9683 26.926 19.0849 24.793 21.086C22.6601 23.0872 21.3666 25.8236 21.1739 28.742L19.1039 28.802L4.10394 26.162C3.84394 23.162 3.78394 19.312 4.37394 17.852C5.70394 16.532 14.0639 14.482 21.1739 13.372C21.6258 13.3018 22.0401 13.079 22.3476 12.7405C22.6551 12.4021 22.8373 11.9685 22.8639 11.512L23.2639 4.97196C28.2639 4.18196 37.8739 4.06196 41.9439 4.04196L42.1739 9.09195C42.193 9.55084 42.3694 9.9892 42.6735 10.3334C42.9776 10.6776 43.3909 10.9066 43.8439 10.982L46.2839 11.382V15.822L44.8439 17.1819C44.6402 17.3759 44.4797 17.6106 44.3729 17.8708C44.266 18.131 44.2153 18.4108 44.2239 18.692L44.3239 22.552C44.337 23.0737 44.5534 23.5696 44.9271 23.934C45.3008 24.2983 45.8021 24.5021 46.3239 24.502L56.3239 24.312C56.6958 24.3053 57.0584 24.1951 57.3711 23.9937C57.6838 23.7923 57.9341 23.5078 58.0939 23.172L60.3939 18.382C60.5088 18.1454 60.5759 17.8885 60.5913 17.6259C60.6068 17.3634 60.5703 17.1004 60.4839 16.852L57.3539 7.92197C57.5666 7.99401 57.7894 8.03114 58.0139 8.03195H110.594L112.594 14.192L103.564 19.4019Z" fill="white"/>
</svg>
