<svg width="105" height="106" viewBox="0 0 105 106" fill="none" >
<path d="M59.6885 50.1206C65.5535 50.1206 70.1205 51.9955 70.1205 59.0143V84.3011C70.0809 85.8523 70.3572 87.3954 70.9326 88.8364C71.5081 90.2775 72.3707 91.5864 73.4679 92.6837C74.5651 93.7809 75.8741 94.6435 77.3152 95.2189C78.7562 95.7944 80.2993 96.0707 81.8505 96.0311C87.3309 96.0311 96.2726 93.8678 95.6957 82.2339C95.4795 79.3958 95.1104 76.5713 94.59 73.7729C94.59 73.7729 90.9364 47.0439 90.9364 40.5059" stroke="black" stroke-width="4" stroke-linecap="round" stroke-linejoin="round"/>
<path d="M59.6888 100.599V6.80738C59.6888 5.53238 59.1823 4.30961 58.2807 3.40805C57.3792 2.50649 56.1564 2 54.8814 2H11.615C10.34 2 9.11723 2.50649 8.21567 3.40805C7.31411 4.30961 6.80762 5.53238 6.80762 6.80738V100.599" stroke="black" stroke-width="4" stroke-linecap="round" stroke-linejoin="round"/>
<path d="M2 103.002H64.4959" stroke="black" stroke-width="4" stroke-linecap="round" stroke-linejoin="round"/>
<path d="M102.954 21.2764V28.4874C103.102 30.1027 102.892 31.7307 102.341 33.2559C101.789 34.7812 100.908 36.1664 99.7615 37.3134C98.6145 38.4603 97.2293 39.3408 95.704 39.8926C94.1788 40.4443 92.5508 40.6537 90.9355 40.5059V40.5059C89.3203 40.6537 87.6923 40.4443 86.167 39.8926C84.6417 39.3408 83.2565 38.4603 82.1096 37.3134C80.9627 36.1664 80.0821 34.7812 79.5304 33.2559C78.9787 31.7307 78.7693 30.1027 78.9171 28.4874V21.2764H102.954Z" stroke="black" stroke-width="4" stroke-linecap="round" stroke-linejoin="round"/>
<path d="M83.7251 18.8732V11.6621" stroke="black" stroke-width="4" stroke-linecap="round" stroke-linejoin="round"/>
<path d="M98.1475 18.8732V11.6621" stroke="black" stroke-width="4" stroke-linecap="round" stroke-linejoin="round"/>
<path d="M28.4403 78.9649L45.2661 50.1206H26.0366" stroke="black" stroke-width="4" stroke-linecap="round" stroke-linejoin="round"/>
<path d="M35.6515 30.8911L18.8257 59.7354H38.0552" stroke="black" stroke-width="4" stroke-linecap="round" stroke-linejoin="round"/>
</svg>
