<svg width="107" height="107" viewBox="0 0 107 107" fill="none" >
<path d="M53.5 105C81.9427 105 105 81.9427 105 53.5C105 25.0573 81.9427 2 53.5 2C25.0573 2 2 25.0573 2 53.5C2 81.9427 25.0573 105 53.5 105Z" stroke="white" stroke-width="4" stroke-linecap="round"/>
<path d="M68.4602 67.3804C63.5555 67.3804 60.8579 65.3695 60.3183 61.8871C59.1164 63.6492 57.487 65.0775 55.5826 66.0383C53.6783 66.999 51.5612 67.4608 49.4298 67.3804C47.8028 67.5138 46.1667 67.2797 44.6424 66.6953C43.1182 66.111 41.7448 65.1914 40.624 64.0046C39.5031 62.8178 38.6634 61.3942 38.1671 59.8391C37.6707 58.284 37.5304 56.6371 37.7564 55.0204C37.7564 46.6823 42.6612 37.3143 53.2064 37.3143C54.9299 37.1601 56.6634 37.4646 58.2311 38.1968C59.7989 38.929 61.1451 40.0628 62.1331 41.4833L62.8198 38.05H68.215L65.2722 53.5C63.8988 61.1514 65.2721 63.3095 68.8526 63.3095C75.9645 63.3095 78.6621 56.0504 78.6621 48.2519C78.6621 35.99 70.5202 26.3276 55.2664 26.3276C51.679 26.275 48.1173 26.9412 44.7914 28.2869C41.4654 29.6325 38.4426 31.6305 35.901 34.1629C33.3594 36.6953 31.3506 39.711 29.993 43.032C28.6353 46.3531 27.9563 49.9123 27.996 53.5C27.7739 56.8362 28.265 60.1814 29.4366 63.313C30.6081 66.4445 32.4333 69.2907 34.7906 71.6619C37.1479 74.0331 39.9832 75.875 43.1078 77.065C46.2325 78.2549 49.5747 78.7657 52.9122 78.5633C58.3296 78.594 63.7152 77.7323 68.8526 76.0128L69.6864 80.28C64.1618 82.0075 58.4063 82.884 52.6179 82.8795C48.7099 83.1224 44.7944 82.5432 41.1242 81.1792C37.4539 79.8153 34.1105 77.6968 31.3096 74.9607C28.5088 72.2246 26.3128 68.9315 24.8634 65.2941C23.414 61.6568 22.7435 57.7559 22.895 53.8433C22.8597 49.5479 23.6928 45.2898 25.3443 41.3244C26.9957 37.359 29.4315 33.7683 32.5053 30.7678C35.5791 27.7673 39.2275 25.4189 43.2316 23.8636C47.2356 22.3083 51.5127 21.5782 55.806 21.7171C72.4821 21.7171 84.0574 32.7038 84.0574 47.6143C84.0574 58.4047 78.9564 67.3804 68.4602 67.3804ZM53.1574 41.6304C45.6531 41.6304 43.3479 49.2819 43.3479 54.7262C43.3479 60.1704 45.4569 63.0152 50.2145 63.0152C58.2583 63.0152 60.4655 54.9224 60.4655 49.7724C60.4655 44.6224 58.4055 41.6304 53.1574 41.6304V41.6304Z" fill="white"/>
</svg>
