<svg width="103" height="103" viewBox="0 0 103 103" fill="none" >
<path d="M55.7137 59.7862H37.4546C39.5146 69.1498 45.2265 74.4871 54.0751 74.4871C56.9277 74.5445 59.7474 73.8687 62.264 72.5243C64.7807 71.1799 66.91 69.212 68.4483 66.8089L72.4278 69.9925C70.3542 73.011 67.5482 75.4536 64.2727 77.0913C60.9972 78.7291 57.3595 79.5084 53.7005 79.3562C48.1498 79.4629 42.7584 77.4983 38.5776 73.8455C34.3968 70.1928 31.7265 65.1137 31.0874 59.5989H23.4092V54.9171H30.5255C30.5255 53.6998 30.5255 52.4357 30.5255 51.1716C30.4311 49.8624 30.4311 48.5481 30.5255 47.2389H23.4092V42.5571H31.1342C32.0238 37.1263 34.8437 32.1991 39.0756 28.6812C43.3074 25.1632 48.6668 23.2909 54.1687 23.4084C57.6384 23.3259 61.0766 24.0832 64.1906 25.6157C67.3046 27.1482 70.002 29.4106 72.0533 32.2103L67.6524 35.7684C66.2021 33.4962 64.2016 31.6268 61.8363 30.3337C59.471 29.0406 56.8176 28.3655 54.1219 28.3712C45.7883 28.3712 39.7019 33.6148 37.5951 43.1189H55.7137V47.8007H36.9865C36.9146 49.095 36.9146 50.3923 36.9865 51.6866C36.9865 52.9975 36.9865 54.2616 36.9865 55.4789H55.7137V59.7862Z" fill="black"/>
<path d="M51.4999 100.659C78.6497 100.659 100.659 78.6497 100.659 51.4999C100.659 24.3501 78.6497 2.34082 51.4999 2.34082C24.3501 2.34082 2.34082 24.3501 2.34082 51.4999C2.34082 78.6497 24.3501 100.659 51.4999 100.659Z" stroke="black" stroke-width="4" stroke-linecap="round"/>
</svg>
