<svg width="107" height="107" viewBox="0 0 107 107" fill="none" >
<path d="M78.0237 67.6746C76.4786 72.4035 73.3912 76.4769 69.256 79.2426C65.1208 82.0083 60.177 83.3062 55.2166 82.9284C39.9137 82.9284 28.9761 71.6475 28.9761 53.4999C28.9761 33.2922 42.4642 24.0713 54.9713 24.0713C59.6151 23.9224 64.1937 25.1953 68.0942 27.7197C71.9948 30.2441 75.0313 33.8996 76.7975 38.197L71.3532 40.6984C70.0738 37.3569 67.7959 34.4907 64.8296 32.4898C61.8633 30.4889 58.3526 29.4504 54.7751 29.5156C44.377 29.5156 35.4994 37.7065 35.4994 53.4508C35.4994 67.7727 43.0527 77.288 55.1185 77.288C58.8116 77.5217 62.4783 76.5278 65.5477 74.4608C68.6171 72.3938 70.9169 69.3699 72.0889 65.8599L78.0237 67.6746Z" fill="black"/>
<path d="M53.5 105C81.9427 105 105 81.9427 105 53.5C105 25.0573 81.9427 2 53.5 2C25.0573 2 2 25.0573 2 53.5C2 81.9427 25.0573 105 53.5 105Z" stroke="black" stroke-width="4" stroke-linecap="round"/>
</svg>
