<svg width="107" height="107" viewBox="0 0 107 107" fill="none" >
<path d="M32.7534 82.9284L35.7944 67.9199H25.9849V63.0151H36.7753L40.4049 44.377H30.5953V39.4722H41.4839L44.4268 24.4637H50.1163L47.2715 39.4722H64.9287L67.8715 24.0713H73.5611L70.6182 39.0799H80.4277V43.9846H69.6863L65.9587 62.6227H75.7682V67.5275H64.9287L62.0839 82.9284H56.2963L59.2392 67.9199H41.4839L38.7863 82.9284H32.7534ZM60.2691 62.8189L63.8987 44.1808H46.1434L42.4158 62.8189H60.2691Z" fill="black"/>
<path d="M53.5 105C81.9427 105 105 81.9427 105 53.5C105 25.0573 81.9427 2 53.5 2C25.0573 2 2 25.0573 2 53.5C2 81.9427 25.0573 105 53.5 105Z" stroke="black" stroke-width="4" stroke-linecap="round"/>
</svg>
