<svg width="107" height="107" viewBox="0 0 107 107" fill="none" >
<path d="M51.097 87.8332V79.0046C44.4881 78.1979 38.436 74.8999 34.1755 69.7836L37.8051 65.7617C39.8351 68.3655 42.4211 70.4829 45.3741 71.9594C48.3271 73.4359 51.5726 74.2342 54.8736 74.296C61.8874 74.296 66.6941 70.7646 66.6941 65.3694C66.6941 51.2436 36.0884 60.4646 36.0884 40.8456C36.0884 33.1451 42.3665 28.4365 51.097 27.897V19.1665H56.0017V27.946C61.389 28.6441 66.3919 31.1111 70.2255 34.9598L66.7922 39.3251C64.9704 37.2123 62.7106 35.5212 60.1697 34.3694C57.6288 33.2175 54.8676 32.6324 52.0779 32.6546C45.3584 32.6546 41.4836 35.7446 41.4836 40.4532C41.4836 54.3336 72.1384 45.1127 72.1384 64.977C72.1384 73.266 64.7322 78.5632 55.7565 79.0536V87.8332H51.097Z" fill="black"/>
<path d="M53.5 105C81.9427 105 105 81.9427 105 53.5C105 25.0573 81.9427 2 53.5 2C25.0573 2 2 25.0573 2 53.5C2 81.9427 25.0573 105 53.5 105Z" stroke="black" stroke-width="4" stroke-linecap="round"/>
</svg>
