<svg width="107" height="107" viewBox="0 0 107 107" fill="none" >
<path d="M51.097 87.8334V79.0048C44.4881 78.1981 38.436 74.9002 34.1755 69.7839L37.8051 65.762C39.8351 68.3657 42.4211 70.4831 45.3741 71.9597C48.3271 73.4362 51.5726 74.2345 54.8736 74.2963C61.8874 74.2963 66.6941 70.7648 66.6941 65.3696C66.6941 51.2439 36.0884 60.4648 36.0884 40.8458C36.0884 33.1453 42.3665 28.4367 51.097 27.8972V19.1667H56.0017V27.9463C61.389 28.6443 66.3919 31.1113 70.2255 34.9601L66.7922 39.3253C64.9704 37.2125 62.7106 35.5215 60.1697 34.3696C57.6288 33.2177 54.8676 32.6326 52.0779 32.6548C45.3584 32.6548 41.4836 35.7448 41.4836 40.4534C41.4836 54.3339 72.1384 45.1129 72.1384 64.9772C72.1384 73.2663 64.7322 78.5634 55.7565 79.0539V87.8334H51.097Z" fill="white"/>
<path d="M53.5 105C81.9427 105 105 81.9427 105 53.5C105 25.0573 81.9427 2 53.5 2C25.0573 2 2 25.0573 2 53.5C2 81.9427 25.0573 105 53.5 105Z" stroke="white" stroke-width="4" stroke-linecap="round"/>
</svg>
