<svg width="107" height="107" viewBox="0 0 107 107" fill="none" >
<path d="M53.5 105C81.9427 105 105 81.9427 105 53.5C105 25.0573 81.9427 2 53.5 2C25.0573 2 2 25.0573 2 53.5C2 81.9427 25.0573 105 53.5 105Z" stroke="black" stroke-width="4" stroke-linecap="round"/>
<path d="M68.4602 67.3807C63.5555 67.3807 60.8579 65.3697 60.3183 61.8874C59.1164 63.6495 57.487 65.0778 55.5826 66.0385C53.6783 66.9993 51.5612 67.4611 49.4298 67.3807C47.8028 67.5141 46.1667 67.2799 44.6424 66.6956C43.1182 66.1113 41.7448 65.1917 40.624 64.0049C39.5031 62.8181 38.6634 61.3945 38.1671 59.8393C37.6707 58.2842 37.5304 56.6374 37.7564 55.0207C37.7564 46.6826 42.6612 37.3145 53.2064 37.3145C54.9299 37.1604 56.6634 37.4649 58.2311 38.1971C59.7989 38.9293 61.1451 40.0631 62.1331 41.4836L62.8198 38.0502H68.215L65.2722 53.5002C63.8988 61.1516 65.2721 63.3097 68.8526 63.3097C75.9645 63.3097 78.6621 56.0507 78.6621 48.2521C78.6621 35.9902 70.5202 26.3278 55.2664 26.3278C51.679 26.2752 48.1173 26.9414 44.7914 28.2871C41.4654 29.6328 38.4426 31.6307 35.901 34.1631C33.3594 36.6956 31.3506 39.7112 29.993 43.0323C28.6353 46.3533 27.9563 49.9126 27.996 53.5002C27.7739 56.8364 28.265 60.1816 29.4366 63.3132C30.6081 66.4448 32.4333 69.2909 34.7906 71.6621C37.1479 74.0333 39.9832 75.8752 43.1078 77.0652C46.2325 78.2552 49.5747 78.766 52.9122 78.5636C58.3296 78.5943 63.7152 77.7326 68.8526 76.0131L69.6864 80.2802C64.1618 82.0077 58.4063 82.8843 52.6179 82.8797C48.7099 83.1227 44.7944 82.5435 41.1242 81.1795C37.4539 79.8155 34.1105 77.6971 31.3096 74.9609C28.5088 72.2248 26.3128 68.9318 24.8634 65.2944C23.414 61.657 22.7435 57.7561 22.895 53.8435C22.8597 49.5482 23.6928 45.29 25.3443 41.3246C26.9957 37.3593 29.4315 33.7686 32.5053 30.768C35.5791 27.7675 39.2275 25.4191 43.2316 23.8638C47.2356 22.3085 51.5127 21.5784 55.806 21.7174C72.4821 21.7174 84.0574 32.704 84.0574 47.6145C84.0574 58.405 78.9564 67.3807 68.4602 67.3807ZM53.1574 41.6307C45.6531 41.6307 43.3479 49.2821 43.3479 54.7264C43.3479 60.1707 45.4569 63.0155 50.2145 63.0155C58.2583 63.0155 60.4655 54.9226 60.4655 49.7726C60.4655 44.6226 58.4055 41.6307 53.1574 41.6307V41.6307Z" fill="black"/>
</svg>
