<svg width="107" height="107" viewBox="0 0 107 107" fill="none" >
<path d="M32.7534 82.9287L35.7944 67.9201H25.9849V63.0153H36.7753L40.4049 44.3772H30.5953V39.4725H41.4839L44.4268 24.4639H50.1163L47.2715 39.4725H64.9287L67.8715 24.0715H73.5611L70.6182 39.0801H80.4277V43.9849H69.6863L65.9587 62.623H75.7682V67.5277H64.9287L62.0839 82.9287H56.2963L59.2392 67.9201H41.4839L38.7863 82.9287H32.7534ZM60.2691 62.8191L63.8987 44.1811H46.1434L42.4158 62.8191H60.2691Z" fill="white"/>
<path d="M53.5 105C81.9427 105 105 81.9427 105 53.5C105 25.0573 81.9427 2 53.5 2C25.0573 2 2 25.0573 2 53.5C2 81.9427 25.0573 105 53.5 105Z" stroke="white" stroke-width="4" stroke-linecap="round"/>
</svg>
