<svg width="107" height="114" viewBox="0 0 107 114" fill="none" >
<path d="M71.9686 87.0977C63.4352 85.5102 55.4967 81.6242 49.0086 75.8583C42.5204 70.0925 37.7287 62.6655 35.1496 54.3776C32.5706 46.0898 32.302 37.2552 34.3728 28.826C36.4437 20.3967 40.7754 12.6924 46.9013 6.54309C47.32 6.13305 47.591 5.59577 47.6719 5.01532C47.7527 4.43486 47.6388 3.84398 47.348 3.33514C47.0573 2.8263 46.606 2.42821 46.0649 2.20316C45.5238 1.97811 44.9233 1.9388 44.3575 2.09138C35.6323 4.2302 27.5554 8.4516 20.8183 14.3942C14.0812 20.3368 8.88456 27.8235 5.67327 36.2134C2.46198 44.6033 1.33173 53.6465 2.37926 62.5687C3.4268 71.4909 6.62092 80.0263 11.6882 87.4442C16.7554 94.8622 23.5448 100.942 31.4752 105.162C39.4055 109.383 48.2405 111.618 57.2238 111.678C66.2071 111.738 75.071 109.62 83.0568 105.505C91.0425 101.39 97.9122 95.4016 103.078 88.0517C103.64 87.63 104.012 87.0023 104.111 86.3066C104.21 85.6109 104.029 84.9041 103.608 84.3419C103.186 83.7797 102.558 83.408 101.862 83.3086C101.167 83.2092 100.46 83.3903 99.8978 83.812C91.1379 87.7183 81.396 88.8644 71.9686 87.0977V87.0977Z" stroke="white" stroke-width="4" stroke-linejoin="round"/>
</svg>
