<svg width="105" height="103" viewBox="0 0 105 103" fill="none" >
<path d="M24.6409 51.289C24.6409 52.0998 24.9747 52.3382 25.7854 52.4813C26.3577 52.5767 27.0731 52.5767 27.6453 52.5767H34.2743C36.3249 52.5767 39.0433 52.6243 40.3786 53.9597C41.3324 54.9135 41.6662 55.8673 41.6662 57.298C41.6662 58.681 41.1893 60.1117 40.0924 61.1132C38.7094 62.3531 36.5634 62.4485 34.3219 62.4485H28.4084C27.5023 62.4485 27.0731 62.6869 27.0731 63.6407V65.4053C27.0731 66.1206 27.5023 66.4544 28.4084 66.4544C29.7914 66.5021 30.8883 66.5021 32.0328 66.5021H36.1819C37.851 66.5021 39.0909 66.9313 39.8063 67.599C41.0462 68.7436 41.4754 70.4604 41.4754 72.2726C41.4754 74.2279 40.9032 76.4693 38.8525 77.3278C37.8033 77.757 36.8495 77.8524 35.6573 77.8524H25.6901C24.9747 77.8524 24.6409 78.2816 24.6409 79.0923V80.4276C24.6409 81.286 24.8793 81.6676 26.0239 81.7629C26.9777 81.8583 28.5515 81.906 29.696 81.906H34.2266C38.1371 81.906 41.3324 81.7152 43.7169 78.4246C44.9091 76.7555 45.6722 74.5141 45.6722 71.8911C45.6722 68.3144 44.0984 65.8822 41.7616 64.4038C44.1461 62.6392 45.8629 60.2071 45.8629 57.2026C45.8629 53.3397 44.2892 50.8598 41.237 49.5722C39.1863 48.6661 36.8018 48.523 34.3219 48.523H28.5515C27.693 48.523 26.7869 48.523 25.7854 48.6184C25.1178 48.6661 24.6409 49.0476 24.6409 49.7629V51.289ZM74.598 55.295C73.6442 52.5767 72.3089 50.8598 70.5444 49.906C68.8752 48.9999 66.8245 48.523 64.3447 48.523C61.7694 48.523 59.5757 48.9999 57.8111 49.906C55.9989 50.8598 54.7113 52.5767 53.8052 55.295C52.9468 57.9179 52.4699 61.2085 52.4699 65.1668C52.4699 69.1251 52.9468 72.3203 53.8052 74.991C54.7113 77.7093 55.9989 79.5692 57.8111 80.523C59.5757 81.4291 61.7694 81.906 64.3447 81.906C66.8245 81.906 68.9229 81.4291 70.5444 80.523C72.3566 79.5692 73.6442 77.7093 74.598 74.991C75.5041 72.3203 75.981 69.1251 75.981 65.1668C75.981 61.2085 75.5041 57.9179 74.598 55.295ZM71.1166 72.7495C70.5921 74.7525 69.7336 76.1832 68.5414 76.8986C67.3014 77.6616 65.9184 77.9954 64.3447 77.9954C62.6278 77.9954 61.1971 77.6139 59.9572 76.9462C58.7172 76.2309 57.8111 74.7525 57.2865 72.7495C56.7143 70.6035 56.6189 68.1236 56.6189 64.9761C56.6189 61.7808 56.8573 59.3963 57.3819 57.441C57.9065 55.5811 58.7172 54.1981 59.9572 53.4828C61.1971 52.7674 62.6278 52.4336 64.3447 52.4336C65.9184 52.4336 67.3014 52.7674 68.5414 53.4828C69.6859 54.1981 70.6397 55.5811 71.069 57.441C71.5459 59.3963 71.832 61.8285 71.832 64.9761C71.832 68.1713 71.6412 70.6989 71.1166 72.7495Z" fill="white"/>
<path d="M23.2607 2V12.6356" stroke="white" stroke-width="4" stroke-miterlimit="10" stroke-linecap="round"/>
<path d="M81.7393 2V12.6356" stroke="white" stroke-width="4" stroke-miterlimit="10" stroke-linecap="round"/>
<path d="M2 36.552H103" stroke="white" stroke-width="4" stroke-miterlimit="10"/>
<path d="M103 20.604V91.0362C103 92.258 102.759 93.4678 102.291 94.5964C101.823 95.725 101.138 96.7504 100.273 97.6138C99.4088 98.4772 98.3827 99.1618 97.2535 99.6283C96.1244 100.095 94.9143 100.334 93.6925 100.333H11.3075C10.0857 100.334 8.87564 100.095 7.74647 99.6283C6.6173 99.1618 5.59117 98.4772 4.72675 97.6138C3.86233 96.7504 3.17657 95.725 2.7087 94.5964C2.24082 93.4678 2 92.258 2 91.0362V20.604H103Z" stroke="white" stroke-width="4" stroke-miterlimit="10"/>
</svg>
