<svg width="105" height="103" viewBox="0 0 105 103" fill="none" >
<path d="M24.6409 51.2893C24.6409 52.1 24.9747 52.3385 25.7854 52.4815C26.3577 52.5769 27.0731 52.5769 27.6453 52.5769H34.2743C36.3249 52.5769 39.0433 52.6246 40.3786 53.9599C41.3324 54.9137 41.6662 55.8675 41.6662 57.2982C41.6662 58.6812 41.1893 60.1119 40.0924 61.1134C38.7094 62.3533 36.5634 62.4487 34.3219 62.4487H28.4084C27.5023 62.4487 27.0731 62.6872 27.0731 63.641V65.4055C27.0731 66.1209 27.5023 66.4547 28.4084 66.4547C29.7914 66.5024 30.8883 66.5024 32.0328 66.5024H36.1819C37.851 66.5024 39.0909 66.9316 39.8063 67.5992C41.0462 68.7438 41.4754 70.4606 41.4754 72.2729C41.4754 74.2282 40.9032 76.4696 38.8525 77.328C37.8033 77.7572 36.8495 77.8526 35.6573 77.8526H25.6901C24.9747 77.8526 24.6409 78.2818 24.6409 79.0925V80.4279C24.6409 81.2863 24.8793 81.6678 26.0239 81.7632C26.9777 81.8586 28.5515 81.9062 29.696 81.9062H34.2266C38.1371 81.9062 41.3324 81.7155 43.7169 78.4249C44.9091 76.7557 45.6722 74.5143 45.6722 71.8913C45.6722 68.3146 44.0984 65.8824 41.7616 64.404C44.1461 62.6395 45.8629 60.2073 45.8629 57.2028C45.8629 53.3399 44.2892 50.8601 41.237 49.5724C39.1863 48.6663 36.8018 48.5232 34.3219 48.5232H28.5515C27.693 48.5232 26.7869 48.5232 25.7854 48.6186C25.1178 48.6663 24.6409 49.0478 24.6409 49.7632V51.2893ZM74.598 55.2952C73.6442 52.5769 72.3089 50.8601 70.5444 49.9063C68.8752 49.0001 66.8245 48.5232 64.3447 48.5232C61.7694 48.5232 59.5757 49.0001 57.8111 49.9063C55.9989 50.8601 54.7113 52.5769 53.8052 55.2952C52.9468 57.9182 52.4699 61.2088 52.4699 65.1671C52.4699 69.1253 52.9468 72.3206 53.8052 74.9912C54.7113 77.7095 55.9989 79.5694 57.8111 80.5232C59.5757 81.4293 61.7694 81.9062 64.3447 81.9062C66.8245 81.9062 68.9229 81.4293 70.5444 80.5232C72.3566 79.5694 73.6442 77.7095 74.598 74.9912C75.5041 72.3206 75.981 69.1253 75.981 65.1671C75.981 61.2088 75.5041 57.9182 74.598 55.2952ZM71.1166 72.7498C70.5921 74.7527 69.7336 76.1834 68.5414 76.8988C67.3014 77.6618 65.9184 77.9957 64.3447 77.9957C62.6278 77.9957 61.1971 77.6141 59.9572 76.9465C58.7172 76.2311 57.8111 74.7527 57.2865 72.7498C56.7143 70.6037 56.6189 68.1238 56.6189 64.9763C56.6189 61.7811 56.8573 59.3966 57.3819 57.4413C57.9065 55.5814 58.7172 54.1984 59.9572 53.483C61.1971 52.7677 62.6278 52.4338 64.3447 52.4338C65.9184 52.4338 67.3014 52.7677 68.5414 53.483C69.6859 54.1984 70.6397 55.5814 71.069 57.4413C71.5459 59.3966 71.832 61.8288 71.832 64.9763C71.832 68.1715 71.6412 70.6991 71.1166 72.7498Z" fill="black"/>
<path d="M23.2607 2V12.6356" stroke="black" stroke-width="4" stroke-miterlimit="10" stroke-linecap="round"/>
<path d="M81.7393 2V12.6356" stroke="black" stroke-width="4" stroke-miterlimit="10" stroke-linecap="round"/>
<path d="M2 36.5522H103" stroke="black" stroke-width="4" stroke-miterlimit="10"/>
<path d="M103 20.604V91.0362C103 92.258 102.759 93.4678 102.291 94.5964C101.823 95.725 101.138 96.7504 100.273 97.6138C99.4088 98.4772 98.3827 99.1618 97.2535 99.6283C96.1244 100.095 94.9143 100.334 93.6925 100.333H11.3075C10.0857 100.334 8.87564 100.095 7.74647 99.6283C6.6173 99.1618 5.59117 98.4772 4.72675 97.6138C3.86233 96.7504 3.17657 95.725 2.7087 94.5964C2.24082 93.4678 2 92.258 2 91.0362V20.604H103Z" stroke="black" stroke-width="4" stroke-miterlimit="10"/>
</svg>
