<svg width="131" height="87" viewBox="0 0 131 87" fill="none" >
<path d="M97.205 57.8056C97.205 77.8231 82.9974 85.0001 65.4699 85.0001C47.9424 85.0001 33.7349 77.6766 33.7349 57.8056C33.7349 46.1369 44.5248 34.1752 53.5571 26.2658C56.8028 23.2739 61.0555 21.6128 65.4699 21.6128C69.8843 21.6128 74.137 23.2739 77.3828 26.2658C86.4151 34.1752 97.205 46.1369 97.205 57.8056Z" stroke="black" stroke-width="4" stroke-linecap="round" stroke-linejoin="round"/>
<path d="M65.4702 21.5293V2" stroke="black" stroke-width="4" stroke-linecap="round" stroke-linejoin="round"/>
<path d="M2 31.2939L43.4997 36.1763" stroke="black" stroke-width="4" stroke-linecap="round" stroke-linejoin="round"/>
<path d="M128.94 31.2939L87.4404 36.1763" stroke="black" stroke-width="4" stroke-linecap="round" stroke-linejoin="round"/>
<path d="M115.514 53.2639C120.233 53.2639 124.058 49.4386 124.058 44.7198C124.058 40.0011 120.233 36.1758 115.514 36.1758C110.795 36.1758 106.97 40.0011 106.97 44.7198C106.97 49.4386 110.795 53.2639 115.514 53.2639Z" stroke="black" stroke-width="4" stroke-linecap="round" stroke-linejoin="round"/>
<path d="M15.4264 53.2639C20.1451 53.2639 23.9704 49.4386 23.9704 44.7198C23.9704 40.0011 20.1451 36.1758 15.4264 36.1758C10.7076 36.1758 6.88232 40.0011 6.88232 44.7198C6.88232 49.4386 10.7076 53.2639 15.4264 53.2639Z" stroke="black" stroke-width="4" stroke-linecap="round" stroke-linejoin="round"/>
<path d="M53.2642 41.0586H77.6757" stroke="black" stroke-width="4" stroke-linecap="round" stroke-linejoin="round"/>
</svg>
