<svg width="131" height="87" viewBox="0 0 131 87" fill="none" >
<path d="M97.205 57.8056C97.205 77.8231 82.9974 85.0001 65.4699 85.0001C47.9424 85.0001 33.7349 77.6766 33.7349 57.8056C33.7349 46.1369 44.5248 34.1752 53.5571 26.2658C56.8028 23.2739 61.0555 21.6128 65.4699 21.6128C69.8843 21.6128 74.137 23.2739 77.3828 26.2658C86.4151 34.1752 97.205 46.1369 97.205 57.8056Z" stroke="white" stroke-width="4" stroke-linecap="round" stroke-linejoin="round"/>
<path d="M65.4702 21.5293V2" stroke="white" stroke-width="4" stroke-linecap="round" stroke-linejoin="round"/>
<path d="M2 31.2942L43.4997 36.1765" stroke="white" stroke-width="4" stroke-linecap="round" stroke-linejoin="round"/>
<path d="M128.94 31.2942L87.4404 36.1765" stroke="white" stroke-width="4" stroke-linecap="round" stroke-linejoin="round"/>
<path d="M115.514 53.2641C120.233 53.2641 124.058 49.4388 124.058 44.7201C124.058 40.0013 120.233 36.176 115.514 36.176C110.795 36.176 106.97 40.0013 106.97 44.7201C106.97 49.4388 110.795 53.2641 115.514 53.2641Z" stroke="white" stroke-width="4" stroke-linecap="round" stroke-linejoin="round"/>
<path d="M15.4264 53.2641C20.1451 53.2641 23.9704 49.4388 23.9704 44.7201C23.9704 40.0013 20.1451 36.176 15.4264 36.176C10.7076 36.176 6.88232 40.0013 6.88232 44.7201C6.88232 49.4388 10.7076 53.2641 15.4264 53.2641Z" stroke="white" stroke-width="4" stroke-linecap="round" stroke-linejoin="round"/>
<path d="M53.2642 41.0586H77.6757" stroke="white" stroke-width="4" stroke-linecap="round" stroke-linejoin="round"/>
</svg>
