<svg width="93" height="103" viewBox="0 0 93 103" fill="none" >
<path d="M17.8037 94.4004H75.0037" stroke="black" stroke-width="4" stroke-linecap="round" stroke-linejoin="round"/>
<path d="M19.916 85.6001L15.604 101" stroke="black" stroke-width="4" stroke-linecap="round" stroke-linejoin="round"/>
<path d="M72.8486 85.6001L77.2046 101" stroke="black" stroke-width="4" stroke-linecap="round" stroke-linejoin="round"/>
<path d="M59.6043 87.8H33.2043C15.6043 87.8 -1.99575 74.6 2.80025 55.02L9.84025 19.82C10.4667 15.1206 12.6956 10.7813 16.1506 7.53473C19.6056 4.28818 24.075 2.33325 28.8043 2H64.0043C68.7165 2.30447 73.1809 4.21923 76.6495 7.42344C80.118 10.6276 82.38 14.9266 83.0563 19.6L90.0963 54.8C94.8043 74.6 77.4683 87.8 59.6043 87.8Z" stroke="black" stroke-width="4" stroke-linecap="round" stroke-linejoin="round"/>
<path d="M20.0039 48.1997L26.6039 59.1997" stroke="black" stroke-width="4" stroke-linecap="round" stroke-linejoin="round"/>
<path d="M70.6039 48.1997L64.0039 59.1997" stroke="black" stroke-width="4" stroke-linecap="round" stroke-linejoin="round"/>
<path d="M57.3596 41.5998H35.3596C32.8689 41.5291 30.4651 40.6684 28.4957 39.1419C26.5263 37.6154 25.0932 35.5022 24.4036 33.1078L22.2916 25.7158C21.8016 24.0016 21.7096 22.1981 22.0228 20.4429C22.336 18.6877 23.046 17.0273 24.0987 15.5884C25.1514 14.1494 26.5189 12.97 28.0968 12.1401C29.6748 11.3102 31.4215 10.8518 33.2036 10.7998H59.6036C61.412 10.8052 63.1944 11.2295 64.8113 12.0394C66.4281 12.8494 67.8352 14.023 68.9223 15.4681C70.0093 16.9133 70.7467 18.5906 71.0766 20.3686C71.4065 22.1466 71.3199 23.9769 70.8236 25.7158L68.7116 33.1078C68.0024 35.5665 66.5099 37.7263 64.4609 39.2591C62.4119 40.7919 59.9185 41.6138 57.3596 41.5998Z" stroke="black" stroke-width="4" stroke-linecap="round" stroke-linejoin="round"/>
</svg>
