<svg width="112" height="103" viewBox="0 0 112 103" fill="none" >
<path d="M2 99.9993C4.13631 100.033 6.24649 99.5263 8.13459 98.5263C10.0227 97.5263 11.6275 96.0654 12.8 94.2793C13.9725 96.0654 15.5773 97.5263 17.4654 98.5263C19.3535 99.5263 21.4637 100.033 23.6 99.9993C25.7363 100.033 27.8465 99.5263 29.7346 98.5263C31.6227 97.5263 33.2275 96.0654 34.4 94.2793C35.5946 96.0447 37.2037 97.4904 39.0865 98.4898C40.9693 99.4891 43.0684 100.012 45.2 100.012C47.3316 100.012 49.4307 99.4891 51.3135 98.4898C53.1963 97.4904 54.8054 96.0447 56 94.2793C57.1946 96.0447 58.8037 97.4904 60.6865 98.4898C62.5693 99.4891 64.6684 100.012 66.8 100.012C68.9316 100.012 71.0307 99.4891 72.9135 98.4898C74.7963 97.4904 76.4054 96.0447 77.6 94.2793C78.7945 96.0447 80.4037 97.4904 82.2865 98.4898C84.1693 99.4891 86.2684 100.012 88.4 100.012C90.5316 100.012 92.6307 99.4891 94.5135 98.4898C96.3963 97.4904 98.0054 96.0447 99.2 94.2793C100.372 96.0654 101.977 97.5263 103.865 98.5263C105.754 99.5263 107.864 100.033 110 99.9993" stroke="black" stroke-width="4" stroke-linecap="round" stroke-linejoin="round"/>
<path d="M10.0004 88.0005L8.80038 60.2005C8.66625 59.6516 8.64992 59.0806 8.75247 58.5249C8.85502 57.9693 9.07412 57.4417 9.39534 56.9768C9.71657 56.512 10.1326 56.1205 10.6161 55.8281C11.0996 55.5357 11.6395 55.3491 12.2004 55.2805L56.0004 48.0005L100 57.1605C100.538 57.2503 101.053 57.4493 101.511 57.7451C101.969 58.0409 102.362 58.4274 102.666 58.8807C102.969 59.3341 103.177 59.8447 103.276 60.3812C103.374 60.9177 103.362 61.4688 103.24 62.0005L102 88.0005" stroke="black" stroke-width="4" stroke-linecap="round" stroke-linejoin="round"/>
<path d="M56 88.0005V48.0005" stroke="black" stroke-width="4" stroke-linecap="round" stroke-linejoin="round"/>
<path d="M30.0399 52V32H17.9199V16H94.0399V32H81.9199V52" stroke="black" stroke-width="4" stroke-linecap="round" stroke-linejoin="round"/>
<path d="M26 23.9995H38" stroke="black" stroke-width="4" stroke-linecap="round" stroke-linejoin="round"/>
<path d="M86 23.9995H74" stroke="black" stroke-width="4" stroke-linecap="round" stroke-linejoin="round"/>
<path d="M62 23.9995H50" stroke="black" stroke-width="4" stroke-linecap="round" stroke-linejoin="round"/>
<path d="M38 16V2" stroke="black" stroke-width="4" stroke-linecap="round" stroke-linejoin="round"/>
<path d="M32 16V8" stroke="black" stroke-width="4" stroke-linecap="round" stroke-linejoin="round"/>
</svg>
