<svg width="85" height="105" viewBox="0 0 85 105" fill="none" >
<path d="M69.0263 86.861H15.9737C14.0086 86.874 12.0632 86.4696 10.2662 85.6746C8.46905 84.8797 6.86121 83.7122 5.54895 82.2495C4.23669 80.7868 3.24993 79.0622 2.65392 77.1897C2.05791 75.3171 1.86624 73.3394 2.09158 71.3873L8.67895 9.49257C8.8144 7.66334 9.64651 5.9558 11.0037 4.72195C12.361 3.48811 14.1399 2.82202 15.9737 2.86099H69.0263C70.8601 2.82202 72.639 3.48811 73.9963 4.72195C75.3535 5.9558 76.1856 7.66334 76.3211 9.49257L82.9084 71.3873C83.1338 73.3394 82.9421 75.3171 82.3461 77.1897C81.7501 79.0622 80.7633 80.7868 79.451 82.2495C78.1388 83.7122 76.5309 84.8797 74.7338 85.6746C72.9367 86.4696 70.9914 86.874 69.0263 86.861Z" stroke="white" stroke-width="4" stroke-linecap="round" stroke-linejoin="round"/>
<path d="M31.4473 11.7031H53.5525" stroke="white" stroke-width="4" stroke-linecap="round" stroke-linejoin="round"/>
<path d="M65.9307 47.0722H19.0675C18.6725 47.074 18.2816 46.993 17.9198 46.8345C17.558 46.676 17.2334 46.4435 16.9668 46.152C16.7003 45.8605 16.4978 45.5164 16.3722 45.1419C16.2467 44.7674 16.201 44.3707 16.2381 43.9775L17.9623 23.1543C18.0278 22.4466 18.3533 21.7883 18.8759 21.3065C19.3985 20.8248 20.081 20.5538 20.7917 20.5459H64.2065C64.9172 20.5538 65.5997 20.8248 66.1223 21.3065C66.6449 21.7883 66.9704 22.4466 67.0359 23.1543L68.7602 43.9775C68.7972 44.3707 68.7515 44.7674 68.626 45.1419C68.5005 45.5164 68.2979 45.8605 68.0314 46.152C67.7649 46.4435 67.4402 46.676 67.0784 46.8345C66.7166 46.993 66.3257 47.074 65.9307 47.0722Z" stroke="white" stroke-width="4" stroke-linecap="round" stroke-linejoin="round"/>
<path d="M19.2895 73.5983C22.3416 73.5983 24.8158 71.1241 24.8158 68.072C24.8158 65.0199 22.3416 62.5457 19.2895 62.5457C16.2374 62.5457 13.7632 65.0199 13.7632 68.072C13.7632 71.1241 16.2374 73.5983 19.2895 73.5983Z" stroke="white" stroke-width="4" stroke-linecap="round" stroke-linejoin="round"/>
<path d="M65.7104 73.5983C68.7625 73.5983 71.2367 71.1241 71.2367 68.072C71.2367 65.0199 68.7625 62.5457 65.7104 62.5457C62.6583 62.5457 60.1841 65.0199 60.1841 68.072C60.1841 71.1241 62.6583 73.5983 65.7104 73.5983Z" stroke="white" stroke-width="4" stroke-linecap="round" stroke-linejoin="round"/>
<path d="M13.7632 95.7039H71.2369" stroke="white" stroke-width="4" stroke-linecap="round" stroke-linejoin="round"/>
<path d="M15.9296 86.8616L11.5527 102.335" stroke="white" stroke-width="4" stroke-linecap="round" stroke-linejoin="round"/>
<path d="M69.1147 86.8616L73.4474 102.335" stroke="white" stroke-width="4" stroke-linecap="round" stroke-linejoin="round"/>
</svg>
