<svg width="110" height="85" viewBox="0 0 110 85" fill="none" >
<path d="M6.24023 69.8424H103.76V42.2824C103.761 39.5662 103.028 36.9002 101.64 34.5656L86.6731 9.12553C85.4024 6.95879 83.5876 5.16168 81.4086 3.91224C79.2295 2.66281 76.7618 2.00443 74.2499 2.00232H35.7507C33.1845 1.95628 30.6526 2.59615 28.4165 3.85584C26.1804 5.11554 24.3211 6.94937 23.0307 9.16793L8.36024 34.5656C6.97214 36.9002 6.23973 39.5662 6.24023 42.2824V69.8424Z" stroke="black" stroke-width="4" stroke-linecap="round" stroke-linejoin="round"/>
<path d="M6.24068 69.8423V80.4423C6.2349 80.7223 6.28579 81.0006 6.39029 81.2604C6.49478 81.5202 6.65073 81.7562 6.84875 81.9542C7.04677 82.1522 7.28279 82.3082 7.54261 82.4127C7.80243 82.5172 8.08069 82.5681 8.36068 82.5623H19.0455C19.3183 82.5568 19.5874 82.4976 19.8374 82.388C20.0874 82.2785 20.3133 82.1208 20.5023 81.9239C20.6913 81.7271 20.8396 81.4949 20.9389 81.2407C21.0381 80.9864 21.0863 80.7151 21.0807 80.4423V69.8423" stroke="black" stroke-width="4" stroke-linecap="round" stroke-linejoin="round"/>
<path d="M88.9199 69.8423V80.4423C88.9308 80.9787 89.1487 81.4901 89.528 81.8694C89.9074 82.2488 90.4187 82.4667 90.9551 82.4775H101.64C101.913 82.4831 102.184 82.4349 102.438 82.3357C102.693 82.2365 102.925 82.0881 103.122 81.8991C103.318 81.7101 103.476 81.4842 103.586 81.2342C103.695 80.9842 103.754 80.7151 103.76 80.4423V69.8423" stroke="black" stroke-width="4" stroke-linecap="round" stroke-linejoin="round"/>
<path d="M99.5204 16.8423L108 18.9623V23.2023L97.4004 25.3223L99.5204 16.8423Z" stroke="black" stroke-width="4" stroke-linecap="round" stroke-linejoin="round"/>
<path d="M10.48 16.8423L2 18.9623V23.2023L12.6 25.3223L10.48 16.8423Z" stroke="black" stroke-width="4" stroke-linecap="round" stroke-linejoin="round"/>
<path d="M35.9199 42.2822H74.08V49.575C74.0755 50.488 73.7364 51.3677 73.127 52.0475C72.5175 52.7274 71.6799 53.1601 70.7728 53.2638L61.6144 54.2814C57.2171 54.7479 52.7828 54.7479 48.3855 54.2814L39.2271 53.2638C38.32 53.1601 37.4824 52.7274 36.8729 52.0475C36.2635 51.3677 35.9244 50.488 35.9199 49.575V42.2822Z" stroke="black" stroke-width="4" stroke-linecap="round" stroke-linejoin="round"/>
<path d="M95.2803 40.1621V48.6421" stroke="black" stroke-width="4" stroke-linecap="round" stroke-linejoin="round"/>
<path d="M14.7202 40.1621V48.6421" stroke="black" stroke-width="4" stroke-linecap="round" stroke-linejoin="round"/>
<path d="M84.6802 46.5219L95.2802 44.4019" stroke="black" stroke-width="4" stroke-linecap="round" stroke-linejoin="round"/>
<path d="M25.3202 46.5219L14.7202 44.4019" stroke="black" stroke-width="4" stroke-linecap="round" stroke-linejoin="round"/>
</svg>
