<svg width="107" height="93" viewBox="0 0 107 93" fill="none" >
<path d="M23.0682 67.4518C22.3659 80.3268 9.02273 90.8609 9.02273 90.8609C21.9323 88.0977 33.8162 81.791 43.3405 72.6486C46.7096 73.0827 50.103 73.3016 53.5 73.3041C81.9655 73.3041 105 57.3391 105 37.6755C105 18.0118 81.9655 2 53.5 2C25.0345 2 2 17.965 2 37.6755C2 49.4736 10.2868 60.9909 23.0682 67.4518Z" stroke="white" stroke-width="4" stroke-linecap="round" stroke-linejoin="round"/>
<path d="M27.7503 44.1365C31.6288 44.1365 34.773 40.9923 34.773 37.1138C34.773 33.2352 31.6288 30.0911 27.7503 30.0911C23.8717 30.0911 20.7275 33.2352 20.7275 37.1138C20.7275 40.9923 23.8717 44.1365 27.7503 44.1365Z" stroke="white" stroke-width="4" stroke-linecap="round" stroke-linejoin="round"/>
<path d="M55.8411 44.1365C59.7196 44.1365 62.8638 40.9923 62.8638 37.1138C62.8638 33.2352 59.7196 30.0911 55.8411 30.0911C51.9625 30.0911 48.8184 33.2352 48.8184 37.1138C48.8184 40.9923 51.9625 44.1365 55.8411 44.1365Z" stroke="white" stroke-width="4" stroke-linecap="round" stroke-linejoin="round"/>
<path d="M83.9314 44.1365C87.81 44.1365 90.9541 40.9923 90.9541 37.1138C90.9541 33.2352 87.81 30.0911 83.9314 30.0911C80.0529 30.0911 76.9087 33.2352 76.9087 37.1138C76.9087 40.9923 80.0529 44.1365 83.9314 44.1365Z" stroke="white" stroke-width="4" stroke-linecap="round" stroke-linejoin="round"/>
</svg>
