<svg width="109" height="100" viewBox="0 0 109 100" fill="none" >
<path d="M100.164 47.5053L60.7103 94.9503C59.9518 95.8609 59.0023 96.5936 57.9291 97.0964C56.8558 97.5992 55.6852 97.8598 54.5 97.8598C53.3148 97.8598 52.1442 97.5992 51.0709 97.0964C49.9977 96.5936 49.0482 95.8609 48.2897 94.9503L8.83594 47.5053C6.22204 44.5369 4.28182 41.0378 3.14861 37.2483C2.0154 33.4589 1.71608 29.4691 2.2712 25.553C2.82633 21.6369 4.22274 17.8875 6.36448 14.5623C8.50623 11.2371 11.3425 8.41507 14.6784 6.2901C18.0143 4.16512 21.7708 2.78759 25.6896 2.25219C29.6084 1.71678 33.5967 2.03619 37.3804 3.18846C41.164 4.34073 44.6534 6.29854 47.6086 8.92735C50.5638 11.5562 52.9148 14.7936 54.5 18.4173C56.0852 14.7936 58.4362 11.5562 61.3914 8.92735C64.3466 6.29854 67.836 4.34073 71.6196 3.18846C75.4033 2.03619 79.3916 1.71678 83.3104 2.25219C87.2292 2.78759 90.9857 4.16512 94.3216 6.2901C97.6575 8.41507 100.494 11.2371 102.636 14.5623C104.777 17.8875 106.174 21.6369 106.729 25.553C107.284 29.4691 106.985 33.4589 105.851 37.2483C104.718 41.0378 102.778 44.5369 100.164 47.5053Z" stroke="white" stroke-width="4" stroke-linecap="round" stroke-linejoin="round"/>
</svg>
