<svg width="115" height="111" viewBox="0 0 115 111" fill="none" >
<path d="M67.7235 85.02H48.7446" stroke="black" stroke-width="4" stroke-linecap="round" stroke-linejoin="round"/>
<path d="M29.7658 85.0296H27.3946C26.9962 85.0296 26.601 85.0296 26.209 85.0296C23.0531 85.0932 19.9161 84.5265 16.9818 83.3628C14.0476 82.199 11.375 80.4615 9.12053 78.2521C6.86609 76.0426 5.0751 73.4056 3.85243 70.4953C2.62977 67.5851 2 64.4602 2 61.3036C2 58.147 2.62977 55.0221 3.85243 52.1119C5.0751 49.2017 6.86609 46.5646 9.12053 44.3552C11.375 42.1457 14.0476 40.4082 16.9818 39.2444C19.9161 38.0807 23.0531 37.514 26.209 37.5776C27.0492 37.5756 27.8889 37.6174 28.7248 37.7029C27.5548 34.094 27.1502 30.2807 27.5368 26.5066C27.9234 22.7325 29.0928 19.0805 30.9703 15.7838C32.8477 12.487 35.392 9.61802 38.4407 7.35991C41.4893 5.1018 44.9754 3.50422 48.6762 2.66918C52.377 1.83414 56.2113 1.77999 59.9342 2.51018C63.6571 3.24038 67.1869 4.73887 70.2981 6.90998C73.4093 9.0811 76.0336 11.8771 78.0034 15.1195C79.9732 18.3619 81.2453 21.9795 81.7383 25.7411C82.2106 25.7411 82.7022 25.7411 83.1552 25.7411C90.7157 25.7369 97.9923 28.6202 103.498 33.8016C109.004 38.9831 112.323 46.0715 112.777 53.6183C113.231 61.1651 110.786 68.6004 105.941 74.4047C101.097 80.209 94.2183 83.944 86.712 84.8464" stroke="black" stroke-width="4" stroke-linecap="round" stroke-linejoin="round"/>
<path d="M27.3945 99.2568L39.2503 108.751L51.1157 99.2568" stroke="black" stroke-width="4" stroke-linecap="round" stroke-linejoin="round"/>
<path d="M39.25 108.751V73.1646" stroke="black" stroke-width="4" stroke-linecap="round" stroke-linejoin="round"/>
<path d="M65.3521 99.2568L77.2174 108.751L89.0828 99.2568" stroke="black" stroke-width="4" stroke-linecap="round" stroke-linejoin="round"/>
<path d="M77.2178 108.751V73.1646" stroke="black" stroke-width="4" stroke-linecap="round" stroke-linejoin="round"/>
<path d="M84.3406 61.2605H75.8584V59.4291C80.861 55.7953 81.8248 54.8314 81.8248 53.482C81.8378 53.2419 81.798 53.0019 81.7084 52.7789C81.6188 52.5558 81.4815 52.355 81.3061 52.1906C81.1307 52.0262 80.9214 51.9022 80.693 51.8272C80.4646 51.7522 80.2225 51.7282 79.9838 51.7566C79.7495 51.7391 79.5142 51.7708 79.2928 51.8495C79.0715 51.9282 78.869 52.0523 78.6985 52.2139C78.5279 52.3754 78.3929 52.5707 78.3022 52.7875C78.2115 53.0042 78.167 53.2374 78.1717 53.4723C78.1721 53.8738 78.2305 54.2731 78.3452 54.6579H76.2922C76.1318 54.2941 76.056 53.8986 76.0705 53.5012C76.0705 51.3421 77.8054 50.0698 80.0609 50.0698C82.5959 50.0698 84.0128 51.4193 84.0128 53.3856C84.0128 55.3519 83.1839 56.3543 78.7597 59.4098C79.6561 59.4098 80.7838 59.352 81.7766 59.352H84.3406V61.2605Z" fill="black"/>
<path d="M54.027 48.431C52.8414 52.383 49.7956 54.4746 45.6412 54.4746C40.2435 54.4746 36.4072 50.619 36.4072 44.4213C36.4072 37.5584 41.1206 34.3101 45.6412 34.3101C47.4421 34.2148 49.2232 34.7235 50.7022 35.7555C52.1812 36.7874 53.2733 38.2836 53.8053 40.0067L50.3257 40.9706C50.0197 39.9592 49.3897 39.0765 48.5328 38.4582C47.676 37.8399 46.6397 37.5204 45.5834 37.5488C42.6917 37.5488 40.2724 39.9007 40.2724 44.296C40.2724 48.4889 42.4219 51.2167 45.7087 51.2167C46.8193 51.2738 47.9155 50.9452 48.8115 50.2864C49.7074 49.6276 50.348 48.6792 50.6245 47.6021L54.027 48.431Z" fill="black"/>
<path d="M66.1139 54.475C60.3306 54.475 56.4751 50.6194 56.4751 44.4506C56.4751 38.2817 60.5138 34.3105 66.22 34.3105C71.9261 34.3105 75.8588 38.1661 75.8588 44.3349C75.8588 50.5038 71.8201 54.475 66.1139 54.475ZM66.1139 37.5781C62.4994 37.5781 60.3306 40.2963 60.3306 44.3928C60.3306 48.4893 62.5283 51.2171 66.1428 51.2171C69.7574 51.2171 71.9261 48.5085 71.9261 44.412C71.9261 40.3155 69.8056 37.5781 66.1428 37.5781H66.1139Z" fill="black"/>
</svg>
