<svg width="85" height="104" viewBox="0 0 85 104" fill="none" >
<path d="M40.8389 101.573V25.1929" stroke="white" stroke-width="4" stroke-linecap="round" stroke-linejoin="round"/>
<path d="M10.7495 101.573H70.9278" stroke="white" stroke-width="4" stroke-linecap="round" stroke-linejoin="round"/>
<path d="M40.8389 67.8732L63.9844 52.9675" stroke="white" stroke-width="4" stroke-linecap="round" stroke-linejoin="round"/>
<path d="M40.8387 52.9674L22.3223 43.7092" stroke="white" stroke-width="4" stroke-linecap="round" stroke-linejoin="round"/>
<path d="M40.8389 39.0804L50.0971 32.1367" stroke="white" stroke-width="4" stroke-linecap="round" stroke-linejoin="round"/>
<path d="M82.5 46.4395C82.5 62.9654 70.9273 76.3435 56.7159 76.3435C54.5185 76.3551 52.3325 76.0272 50.2352 75.3714C46.9052 77.4034 43.0725 78.4618 39.1717 78.4266C35.946 78.5338 32.7453 77.8267 29.865 76.3704C26.9848 74.9141 24.5179 72.7556 22.6921 70.0942C11.073 68.9832 2 57.5956 2 43.338C2 29.0804 11.2582 17.6928 22.6921 16.5818C23.2476 8.48093 31.3022 2.04648 41.2085 2.04648C45.5794 1.72693 49.9106 3.06366 53.3412 5.79099C56.7718 8.51831 59.0506 12.4366 59.7248 16.767C72.5474 18.4798 82.5 31.1172 82.5 46.4395Z" stroke="white" stroke-width="4" stroke-linecap="round" stroke-linejoin="round"/>
</svg>
