<svg width="110" height="63" viewBox="0 0 110 63" fill="none" >
<path d="M14.6904 14.6907H19.811C21.9175 14.7043 23.9586 13.9594 25.5612 12.5921L35.2987 4.19771C36.8952 2.81527 38.9369 2.05521 41.0489 2.05713H72.276C74.3879 2.05521 76.4296 2.81527 78.0262 4.19771L87.7637 12.5921C89.3603 13.9746 91.402 14.7346 93.5139 14.7327H96.5359" stroke="black" stroke-width="4" stroke-linejoin="round"/>
<path d="M62.9575 18.8874L51.4572 29.0447C50.0219 30.2776 48.1744 30.9235 46.2836 30.8535C44.3928 30.7835 42.5981 30.0026 41.258 28.6669V28.6669C40.5333 27.9515 39.9625 27.0955 39.5807 26.1514C39.1989 25.2074 39.0141 24.1953 39.0376 23.1772C39.0612 22.1591 39.2927 21.1566 39.7178 20.2313C40.1429 19.3059 40.7528 18.4773 41.5098 17.7962L55.6124 4.95273C57.6198 3.11973 60.2391 2.10195 62.9575 2.09863H69.2533" stroke="black" stroke-width="4" stroke-linecap="round"/>
<path d="M58.7607 23.0845L81.8453 44.0705H96.5356" stroke="black" stroke-width="4"/>
<path d="M14.6904 44.0705H19.4333C20.5958 44.0704 21.7468 44.3003 22.8201 44.7469C23.8934 45.1935 24.8678 45.848 25.6871 46.6728L34.9629 55.9486C36.8264 57.7991 39.346 58.8376 41.9722 58.8376C44.5985 58.8376 47.1181 57.7991 48.9816 55.9486L50.3666 54.5635L56.5785 59.5582C57.7595 60.4851 59.238 60.9495 60.7369 60.8645C62.2359 60.7795 63.6524 60.1509 64.7211 59.0965L69.2541 54.5635L72.8636 55.4449C74.2616 55.8055 75.7372 55.7202 77.0843 55.2009C78.4313 54.6817 79.5824 53.7544 80.3766 52.5488V52.5488C81.3415 51.1404 81.8539 49.4712 81.8457 47.764V44.0705L58.761 23.0845" stroke="black" stroke-width="4" stroke-linejoin="round"/>
<path d="M14.6902 10.4932H2.09863V48.268H14.6902V10.4932Z" stroke="black" stroke-width="4"/>
<path d="M107.029 10.4932H94.437V48.268H107.029V10.4932Z" stroke="black" stroke-width="4"/>
</svg>
