<svg width="99" height="101" viewBox="0 0 99 101" fill="none" >
<path d="M86.9062 85.9572C90.3312 84.3252 93.2581 81.808 95.3843 78.6659C97.5105 75.5237 98.7589 71.8707 99.0002 68.0844C99.0002 57.5589 88.97 48.7257 75.39 46.084L71.7577 49.7163C84.8836 51.2023 94.8725 58.8797 94.8725 68.0844C94.5722 71.3443 93.3761 74.4577 91.4165 77.0802C89.457 79.7026 86.8103 81.732 83.7691 82.944C83.4121 83.1242 83.1138 83.4023 82.9091 83.7459C82.7044 84.0895 82.6019 84.4842 82.6134 84.884C82.911 88.448 84.2135 91.8544 86.3696 94.7078C81.7865 93.0986 77.6346 90.4577 74.2342 86.9891C74.0474 86.7801 73.8183 86.6133 73.5621 86.4994C73.306 86.3856 73.0286 86.3274 72.7483 86.3287H72.4594C70.6016 86.6112 68.7248 86.7492 66.8457 86.7414C51.4908 86.7414 38.984 78.4861 38.984 68.0844C39.0368 65.0034 40.1112 62.0271 42.0385 59.6227H37.333C35.8322 62.1911 35.0349 65.1097 35.0215 68.0844C35.0215 80.4674 49.3857 90.8691 67.0108 90.8691C68.7445 90.8691 70.4368 90.8691 72.1291 90.5802C77.8242 95.73 84.8428 99.1892 92.3959 100.569H92.7262C93.1256 100.556 93.5137 100.433 93.8484 100.215C94.1831 99.9967 94.4517 99.6909 94.6249 99.3308C94.8019 98.9165 94.8412 98.4563 94.7372 98.0179C94.6332 97.5796 94.3913 97.1861 94.047 96.8955C90.6316 94.041 88.1453 90.2325 86.9062 85.9572V85.9572Z" fill="white"/>
<path d="M17.1898 48.3123C16.6945 57.5583 7.24213 65.3596 7.24213 65.3596C16.5587 63.6982 25.1755 59.318 32.0081 52.7702C34.3706 53.1527 36.7564 53.3734 39.1489 53.4306C59.7872 53.4306 76.2979 41.9145 76.2979 27.7153C76.2979 13.5162 59.7872 2 39.1489 2C18.5106 2 2 13.5162 2 27.7153C2 36.0945 8.19149 43.6481 17.1898 48.3123Z" stroke="white" stroke-width="4" stroke-linecap="round" stroke-linejoin="round"/>
</svg>
