<svg width="111" height="72" viewBox="0 0 111 72" fill="none" >
<path d="M59 57.125L59 29.125" stroke="white" stroke-width="4" stroke-miterlimit="10" stroke-linecap="round"/>
<path d="M46 42L59 29L71.9999 42" stroke="white" stroke-width="4" stroke-miterlimit="10" stroke-linecap="round"/>
<path d="M108.619 50.4691C108.625 52.9673 108.137 55.4421 107.183 57.7512C106.23 60.0604 104.83 62.1585 103.063 63.925C101.296 65.6916 99.1984 67.0918 96.8892 68.0452C94.58 68.9987 92.1053 69.4867 89.607 69.4811H22.0086C16.9663 69.7388 12.0281 67.9829 8.28046 64.5997C4.53277 61.2165 2.28256 56.4831 2.02484 51.4408C1.76712 46.3985 3.52301 41.4603 6.90623 37.7126C10.2894 33.9649 15.0229 31.7147 20.0652 31.457C20.0016 30.7261 20.0016 29.991 20.0652 29.2601C20.0871 25.382 21.6316 21.6678 24.3659 18.9177C27.1002 16.1676 30.8055 14.6017 34.6833 14.5574C37.7096 14.5351 40.666 15.4664 43.1331 17.2191C45.4568 11.889 49.5422 7.51975 54.7045 4.84387C59.8668 2.16799 65.7921 1.34814 71.487 2.52179C77.1819 3.69544 82.3002 6.79122 85.9839 11.2901C89.6675 15.789 91.6926 21.4176 91.7195 27.2321C91.7175 28.6489 91.5902 30.0627 91.3392 31.457C96.0792 31.8809 100.487 34.0708 103.688 37.5925C106.888 41.1142 108.649 45.7102 108.619 50.4691V50.4691Z" stroke="white" stroke-width="4" stroke-linecap="round" stroke-linejoin="round"/>
</svg>
