<svg width="112" height="72" viewBox="0 0 112 72" fill="none" >
<path d="M55.6555 57.8388C67.9912 57.8388 77.9912 47.8388 77.9912 35.5032C77.9912 23.1675 67.9912 13.1675 55.6555 13.1675C43.3198 13.1675 33.3198 23.1675 33.3198 35.5032C33.3198 47.8388 43.3198 57.8388 55.6555 57.8388Z" stroke="black" stroke-width="4" stroke-linecap="round" stroke-linejoin="round"/>
<path d="M107.475 30.6343C108.659 31.98 109.312 33.7111 109.312 35.5035C109.312 37.296 108.659 39.027 107.475 40.3727C99.2553 49.6644 79.2872 69.0071 55.6561 69.0071C32.0249 69.0071 12.0568 49.6644 3.83729 40.3727C2.65318 39.027 2 37.296 2 35.5035C2 33.7111 2.65318 31.98 3.83729 30.6343C12.0568 21.3427 32.0249 2 55.6561 2C79.2872 2 99.2553 21.3427 107.475 30.6343Z" stroke="black" stroke-width="4" stroke-linecap="round" stroke-linejoin="round"/>
<path d="M55.656 44.4379C60.5902 44.4379 64.5902 40.4379 64.5902 35.5036C64.5902 30.5693 60.5902 26.5693 55.656 26.5693C50.7217 26.5693 46.7217 30.5693 46.7217 35.5036C46.7217 40.4379 50.7217 44.4379 55.656 44.4379Z" stroke="black" stroke-width="4" stroke-linecap="round" stroke-linejoin="round"/>
</svg>
