<svg width="65" height="109" viewBox="0 0 65 109" fill="none" >
<path d="M8.55135 56.5793L3.04882 9.98247C2.77296 8.16437 3.22955 6.31108 4.31844 4.82922C5.40732 3.34735 7.03956 2.35794 8.85704 2.07805V2.07805C10.6867 1.80232 12.551 2.26357 14.041 3.36062C15.5311 4.45766 16.5251 6.10093 16.8051 7.92994L21.6526 45.6615L35.6273 7.49323C35.8965 6.6156 36.3361 5.79964 36.9208 5.09196C37.5056 4.38428 38.224 3.79877 39.0352 3.36887C39.8463 2.93897 40.7342 2.67313 41.6481 2.58652C42.562 2.49991 43.484 2.59424 44.3614 2.86412V2.86412C45.2423 3.1283 46.0619 3.56484 46.7727 4.14839C47.4835 4.73193 48.0713 5.45086 48.502 6.26344C48.9326 7.07601 49.1976 7.96604 49.2815 8.88185C49.3653 9.79766 49.2665 10.721 48.9906 11.5983L34.7539 55.5748" stroke="white" stroke-width="4" stroke-linecap="round" stroke-linejoin="round"/>
<path d="M47.8539 59.9432L51.5659 50.8596C52.1788 49.0875 52.0631 47.1446 51.2443 45.4577C50.4254 43.7709 48.9704 42.4781 47.1988 41.8634L40.6919 39.6362" stroke="white" stroke-width="4" stroke-miterlimit="10"/>
<path d="M43.8794 75.227C44.222 76.3607 44.822 77.4 45.6326 78.2635C46.4432 79.1271 47.4424 79.7917 48.5522 80.2054C50.2572 80.7539 52.1069 80.6352 53.7279 79.8734C55.3489 79.1115 56.6206 77.7631 57.2863 76.1004L62.5268 62.5624C63.2781 60.3733 63.1297 57.9756 62.1144 55.8958C61.099 53.816 59.2997 52.2242 57.1117 51.47L52.2205 49.7668L48.1591 59.9422" stroke="white" stroke-width="4" stroke-miterlimit="10"/>
<path d="M60.2569 69.6812V85.8831C60.2627 88.6317 59.7255 91.3545 58.6763 93.895C57.6271 96.4355 56.0865 98.7438 54.1429 100.687C52.1993 102.631 49.891 104.172 47.3505 105.221C44.8099 106.27 42.0872 106.807 39.3386 106.801H22.9183C17.3704 106.801 12.0498 104.598 8.12684 100.675C4.20389 96.7516 2 91.431 2 85.8831V66.9299C1.99999 65.4352 2.29512 63.9551 2.86846 62.5747C3.44181 61.1942 4.28207 59.9406 5.34106 58.8857C6.40004 57.8307 7.6569 56.9953 9.03953 56.4273C10.4222 55.8592 11.9033 55.5698 13.3981 55.5755H41.6531C44.1201 55.5755 46.4861 56.5555 48.2306 58.3C49.975 60.0444 50.955 62.4104 50.955 64.8774C50.9206 67.3216 49.9254 69.6541 48.1847 71.3703C46.4439 73.0865 44.0976 74.0485 41.6531 74.0483H21.6519" stroke="white" stroke-width="4" stroke-miterlimit="10" stroke-linecap="round"/>
<path d="M36.9814 90.5123C37.0045 88.3585 36.6003 86.2215 35.792 84.225C34.9837 82.2285 33.7875 80.4121 32.2726 78.8809C30.7577 77.3498 28.9542 76.1343 26.9664 75.3048C24.9787 74.4753 22.8461 74.0482 20.6922 74.0483H18.334" stroke="white" stroke-width="4" stroke-linecap="round" stroke-linejoin="round"/>
</svg>
