<svg width="101" height="96" viewBox="0 0 101 96" fill="none" >
<path d="M2.00014 55.9893H18.4316L18.4316 6.69475H2.00014L2.00014 55.9893Z" stroke="black" stroke-width="4" stroke-linecap="round" stroke-linejoin="round"/>
<path d="M20.779 53.642L31.2952 57.163C33.6169 57.9063 35.6083 59.433 36.9288 61.4822L47.8675 77.8667C48.5952 78.9245 49.1352 80.0997 49.4637 81.3408L52.4683 90.073C52.8031 91.0618 53.4322 91.9246 54.2714 92.5456C55.1106 93.1665 56.1196 93.516 57.163 93.5471H58.1959C60.6861 93.5471 63.0744 92.5578 64.8352 90.797C66.5961 89.0361 67.5853 86.6479 67.5853 84.1577C68.0811 79.3374 67.2703 74.4724 65.238 70.0735L58.1959 60.6841H84.6741C85.8326 60.7028 86.9833 60.4907 88.059 60.0603C89.1347 59.6298 90.1141 58.9895 90.9399 58.1768C91.7657 57.3641 92.4216 56.3951 92.8692 55.3264C93.3168 54.2577 93.5472 53.1106 93.5471 51.9519V46.553C94.223 46.5596 94.8924 46.4203 95.5095 46.1444C96.1266 45.8685 96.6769 45.4625 97.1226 44.9544C97.5684 44.4462 97.8992 43.8478 98.0923 43.2C98.2855 42.5522 98.3365 41.8703 98.2418 41.201V37.2105C98.2418 35.3428 97.4999 33.5517 96.1792 32.231C94.8586 30.9104 93.0674 30.1684 91.1997 30.1684V23.1264C91.1997 21.2587 90.4578 19.4675 89.1372 18.1469C87.8165 16.8262 86.0253 16.0843 84.1577 16.0843V9.69948C84.1639 8.68665 83.969 7.68265 83.5843 6.74571C83.1996 5.80877 82.6327 4.95753 81.9165 4.24133C81.2003 3.52514 80.349 2.95825 79.4121 2.57353C78.4751 2.18881 77.4712 1.99391 76.4583 2.00014H53.3603C50.4559 2.01 47.5827 2.6006 44.9098 3.73719L36.8819 7.16433C34.0232 8.40774 30.9384 9.04706 27.8211 9.04222H18.4316" stroke="black" stroke-width="4" stroke-linecap="round" stroke-linejoin="round"/>
</svg>
