<svg width="87" height="114" viewBox="0 0 87 114" fill="none" >
<path d="M38.127 34.7581C38.127 34.7581 52.3082 10.4399 71.0275 55.9039C71.0275 55.9039 76.3743 72.3856 44.5558 88.9409C37.3249 93.1496 31.1689 98.9784 26.5719 105.969C26.5719 105.969 19.1137 117.093 8.0103 107.545C8.0103 107.545 -3.75487 96.9559 5.63626 86.2622C5.63626 86.2622 9.95365 79.9594 21.3932 76.5454C21.3932 76.5454 42.4024 72.123 38.3581 57.343C38.2951 57.343 33.4105 41.6281 38.127 34.7581Z" stroke="black" stroke-width="4" stroke-miterlimit="10"/>
<path d="M64.9537 19.8746C68.1063 14.5204 67.8494 8.52382 64.3799 6.48094C60.9104 4.43806 55.5421 7.12244 52.3895 12.4767C49.2369 17.8309 49.4937 23.8275 52.9632 25.8703C56.4328 27.9132 61.8011 25.2288 64.9537 19.8746Z" stroke="black" stroke-width="4" stroke-miterlimit="10"/>
<path d="M73.1844 32.022C76.2322 28.4911 76.8481 24.0276 74.56 22.0526C72.272 20.0775 67.9463 21.3389 64.8985 24.8698C61.8506 28.4008 61.2348 32.8643 63.5228 34.8393C65.8109 36.8143 70.1366 35.553 73.1844 32.022Z" stroke="black" stroke-width="4" stroke-miterlimit="10"/>
<path d="M77.9057 43.5349C80.8927 40.8699 81.9145 37.1408 80.188 35.2058C78.4615 33.2707 74.6405 33.8625 71.6535 36.5275C68.6665 39.1926 67.6447 42.9217 69.3712 44.8567C71.0977 46.7918 74.9187 46.2 77.9057 43.5349Z" stroke="black" stroke-width="4" stroke-miterlimit="10"/>
<path d="M79.4058 53.1841C81.9431 51.8144 83.2806 49.3715 82.3932 47.7276C81.5059 46.0837 78.7296 45.8614 76.1923 47.231C73.655 48.6006 72.3175 51.0436 73.2049 52.6875C74.0922 54.3313 76.8685 54.5537 79.4058 53.1841Z" stroke="black" stroke-width="4" stroke-miterlimit="10"/>
<path d="M79.6201 61.5155C81.6864 60.8913 83.0341 59.3017 82.6303 57.9651C82.2265 56.6284 80.2241 56.0508 78.1578 56.675C76.0916 57.2992 74.7438 58.8888 75.1476 60.2254C75.5514 61.5621 77.5538 62.1397 79.6201 61.5155Z" stroke="black" stroke-width="3.00854" stroke-miterlimit="10"/>
</svg>
