<svg width="105" height="100" viewBox="0 0 105 100" fill="none" >
<path d="M52.2502 28.7399C56.0346 28.7399 59.1025 25.6721 59.1025 21.8877C59.1025 18.1033 56.0346 15.0354 52.2502 15.0354C48.4658 15.0354 45.3979 18.1033 45.3979 21.8877C45.3979 25.6721 48.4658 28.7399 52.2502 28.7399Z" stroke="white" stroke-width="4" stroke-linecap="round" stroke-linejoin="round"/>
<path d="M95.5105 83.5581H8.85205V97.2626H95.5105V83.5581Z" stroke="white" stroke-width="4" stroke-linecap="round" stroke-linejoin="round"/>
<path d="M92.6777 37.8764H11.8209C11.6016 37.8685 11.3897 37.795 11.2126 37.6655C11.0355 37.5359 10.9014 37.3561 10.8275 37.1494C10.7537 36.9428 10.7436 36.7187 10.7986 36.5063C10.8535 36.2938 10.9709 36.1027 11.1357 35.9577L50.8332 2.51863C51.229 2.18375 51.7308 2 52.2493 2C52.7678 2 53.2695 2.18375 53.6654 2.51863L93.3629 35.9577C93.5277 36.1027 93.6451 36.2938 93.7 36.5063C93.7549 36.7187 93.7448 36.9428 93.671 37.1494C93.5972 37.3561 93.4631 37.5359 93.286 37.6655C93.1089 37.795 92.897 37.8685 92.6777 37.8764V37.8764Z" stroke="white" stroke-width="4" stroke-linecap="round" stroke-linejoin="round"/>
<path d="M2 97.2627H102.5" stroke="white" stroke-width="4" stroke-linecap="round" stroke-linejoin="round"/>
<path d="M17.9888 83.558V37.8762" stroke="white" stroke-width="4" stroke-linecap="round" stroke-linejoin="round"/>
<path d="M40.8296 83.558V37.8762" stroke="white" stroke-width="4" stroke-linecap="round" stroke-linejoin="round"/>
<path d="M86.5112 83.558V37.8762" stroke="white" stroke-width="4" stroke-linecap="round" stroke-linejoin="round"/>
<path d="M63.6704 83.558V37.8762" stroke="white" stroke-width="4" stroke-linecap="round" stroke-linejoin="round"/>
</svg>
