<svg width="108" height="96" viewBox="0 0 108 96" fill="none" >
<path d="M2 93.0801H105.38" stroke="black" stroke-width="4" stroke-linecap="round" stroke-linejoin="round"/>
<path d="M46.3098 73.7899C46.3474 74.8371 46.1735 75.8811 45.7987 76.8595C45.4238 77.838 44.8557 78.7309 44.1281 79.485C43.4006 80.2391 42.5286 80.8388 41.5642 81.2484C40.5997 81.6581 39.5627 81.8692 38.5148 81.8692C37.467 81.8692 36.43 81.6581 35.4655 81.2484C34.5011 80.8388 33.6291 80.2391 32.9016 79.485C32.174 78.7309 31.6059 77.838 31.231 76.8595C30.8562 75.8811 30.6823 74.8371 30.7198 73.7899C30.7198 69.4899 38.5098 53.6899 38.5098 53.6899C38.5098 53.6899 46.3098 69.4899 46.3098 73.7899Z" stroke="black" stroke-width="4" stroke-linecap="round" stroke-linejoin="round"/>
<path d="M38.1001 83.23V93.08" stroke="black" stroke-width="4" stroke-linecap="round" stroke-linejoin="round"/>
<path d="M22.51 73.7899C22.5476 74.837 22.3737 75.881 21.9989 76.8595C21.624 77.8379 21.0559 78.7309 20.3283 79.4849C19.6008 80.239 18.7288 80.8387 17.7644 81.2484C16.7999 81.658 15.7629 81.8691 14.715 81.8691C13.6672 81.8691 12.6301 81.658 11.6657 81.2484C10.7013 80.8387 9.82928 80.239 9.10175 79.4849C8.37421 78.7309 7.80607 77.8379 7.43123 76.8595C7.05638 75.881 6.88253 74.837 6.92004 73.7899C6.92004 69.4899 14.72 41.3799 14.72 41.3799C14.72 41.3799 22.51 69.4899 22.51 73.7899Z" stroke="black" stroke-width="4" stroke-linecap="round" stroke-linejoin="round"/>
<path d="M14.3101 83.23V93.08" stroke="black" stroke-width="4" stroke-linecap="round" stroke-linejoin="round"/>
<path d="M2 31.5401L26.61 11.8501L58.62 51.2301L78.31 36.4601L105.39 66.0001" stroke="black" stroke-width="4" stroke-linecap="round" stroke-linejoin="round"/>
<path d="M77.08 19.24C81.8407 19.24 85.7 15.3807 85.7 10.62C85.7 5.85931 81.8407 2 77.08 2C72.3193 2 68.46 5.85931 68.46 10.62C68.46 15.3807 72.3193 19.24 77.08 19.24Z" stroke="black" stroke-width="4" stroke-linecap="round" stroke-linejoin="round"/>
</svg>
