<svg width="95" height="107" viewBox="0 0 95 107" fill="none" >
<path d="M65.3472 85.2402C64.5315 82.6218 63.207 80.1902 61.4498 78.0846C59.6925 75.9791 57.537 74.2411 55.1068 72.9702C52.6765 71.6993 50.0194 70.9205 47.2876 70.6785C44.5558 70.4365 41.8031 70.736 39.1873 71.5598L36.314 72.439" stroke="black" stroke-width="4" stroke-linecap="round" stroke-linejoin="round"/>
<path d="M92.1301 48.0381V77.0499C92.1301 94.0324 81.4088 104.925 68.2002 104.925" stroke="black" stroke-width="4" stroke-linecap="round" stroke-linejoin="round"/>
<path d="M47.1001 51.3179V9.5049C47.1001 7.51447 47.8908 5.60558 49.2982 4.19814C50.7056 2.7907 52.6146 2 54.605 2C56.5954 2 58.5043 2.7907 59.9118 4.19814C61.3192 5.60558 62.1099 7.51447 62.1099 9.5049V51.3179" stroke="black" stroke-width="4" stroke-miterlimit="10" stroke-linecap="round"/>
<path d="M32.0913 68.4721V18.082C32.0913 16.0916 32.882 14.1827 34.2894 12.7753C35.6969 11.3679 37.6058 10.5771 39.5962 10.5771C41.5866 10.5771 43.4955 11.3679 44.903 12.7753C46.3104 14.1827 47.1011 16.0916 47.1011 18.082V51.318" stroke="black" stroke-width="4" stroke-miterlimit="10" stroke-linecap="round"/>
<path d="M62.1108 51.318V18.082C62.1108 16.0916 62.9015 14.1827 64.309 12.7753C65.7164 11.3679 67.6253 10.5771 69.6157 10.5771C71.6062 10.5771 73.5151 11.3679 74.9225 12.7753C76.33 14.1827 77.1206 16.0916 77.1206 18.082V53.4623" stroke="black" stroke-width="4" stroke-miterlimit="10" stroke-linecap="round"/>
<path d="M77.1201 53.4622V28.8032C77.1201 26.8128 77.9108 24.9039 79.3182 23.4965C80.7257 22.089 82.6346 21.2983 84.625 21.2983C86.6154 21.2983 88.5244 22.089 89.9318 23.4965C91.3392 24.9039 92.1299 26.8128 92.1299 28.8032V70.6162" stroke="black" stroke-width="4" stroke-miterlimit="10" stroke-linecap="round"/>
<path d="M68.5425 104.924H57.8212C53.7334 104.925 49.6857 104.118 45.9104 102.55C42.135 100.983 38.7063 98.6853 35.8211 95.7894L4.23629 64.1402C3.53232 63.4433 2.97252 62.6145 2.58884 61.7013C2.20516 60.788 2.00507 59.8081 2.0001 58.8175C1.99512 57.8269 2.1853 56.8451 2.55978 55.928C2.93426 55.0109 3.4857 54.1765 4.18263 53.4726C4.87956 52.7686 5.70834 52.2088 6.62162 51.8251C7.53489 51.4414 8.5148 51.2414 9.50538 51.2364C10.496 51.2314 11.4778 51.4216 12.3949 51.7961C13.312 52.1706 14.1463 52.722 14.8503 53.419L36.2929 72.7173" stroke="black" stroke-width="4" stroke-miterlimit="10" stroke-linecap="round"/>
</svg>
