<svg width="76" height="101" viewBox="0 0 76 101" fill="none" >
<path d="M46.2927 73.453C46.2797 70.2839 45.6426 67.1483 44.4178 64.2254C43.193 61.3025 41.4045 58.6495 39.1543 56.4178C36.9042 54.1861 34.2365 52.4195 31.3037 51.2188C28.3708 50.0181 25.2301 49.4068 22.061 49.4199H18.6348" stroke="white" stroke-width="4" stroke-linecap="round" stroke-linejoin="round"/>
<path d="M10.292 32.9349V15.9032C10.2985 14.8208 10.5182 13.7502 10.9384 12.7526C11.3587 11.755 11.9713 10.85 12.7413 10.0892C13.5113 9.3284 14.4237 8.72672 15.4262 8.31851C16.4288 7.9103 17.502 7.70357 18.5844 7.71011H21.663C23.055 7.72306 24.3862 8.28176 25.3705 9.26605C26.3548 10.2503 26.9135 11.5816 26.9265 12.9736V30.2039" stroke="white" stroke-width="4" stroke-miterlimit="10"/>
<path d="M52.9467 44.2065C54.8568 44.1806 56.6806 43.4069 58.0267 42.0515C59.3728 40.6961 60.1339 38.8671 60.1467 36.9569V13.9169C60.1476 12.3045 59.521 10.7551 58.3996 9.59668C57.2782 8.4382 55.75 7.76156 54.1385 7.70996H50.0667C49.2354 7.74687 48.4202 7.95191 47.6704 8.31268C46.9205 8.67345 46.2516 9.18247 45.7039 9.809C45.1563 10.4355 44.7413 11.1666 44.4841 11.9579C44.2269 12.7493 44.1328 13.5846 44.2074 14.4134V29.31" stroke="white" stroke-width="4" stroke-miterlimit="10"/>
<path d="M67.197 38.1992H66.8991C65.1166 38.1992 63.4065 37.4946 62.1414 36.2388C60.8764 34.9831 60.1591 33.2782 60.146 31.4957V19.3799C60.146 18.5997 60.3004 17.8272 60.6005 17.1071C60.9005 16.3869 61.3403 15.7333 61.8942 15.184C62.4482 14.6346 63.1055 14.2004 63.8281 13.9064C64.5508 13.6124 65.3245 13.4644 66.1046 13.4709H68.0412C68.8213 13.4644 69.595 13.6124 70.3177 13.9064C71.0403 14.2004 71.6976 14.6346 72.2516 15.184C72.8056 15.7333 73.2452 16.3869 73.5453 17.1071C73.8454 17.8272 73.9998 18.5997 73.9998 19.3799V31.744C73.9227 33.4915 73.1705 35.1409 71.9016 36.345C70.6328 37.549 68.9462 38.2137 67.197 38.1992V38.1992Z" stroke="white" stroke-width="4" stroke-miterlimit="10"/>
<path d="M26.9268 31.7933V7.85952C26.9267 7.08587 27.0799 6.31987 27.3775 5.60573C27.675 4.89159 28.1111 4.24345 28.6604 3.69871C29.2098 3.15397 29.8616 2.72341 30.5782 2.43189C31.2948 2.14037 32.0621 1.99365 32.8357 2.00021H37.8012C41.0288 2.00021 44.3557 3.73814 44.3557 6.96573V32.0416" stroke="white" stroke-width="4" stroke-miterlimit="10"/>
<path d="M74 32.9348V71.3679C73.9606 78.6815 71.0208 85.6806 65.8261 90.8288C60.6313 95.977 53.606 98.8536 46.2924 98.8272H29.7076C22.394 98.8536 15.3687 95.977 10.1739 90.8288C4.97916 85.6806 2.03941 78.6815 2 71.3679V46.5403C2.02627 42.1767 3.78153 38.0015 6.88105 34.9299C9.98058 31.8583 14.1715 30.1409 18.5352 30.1541H43.3628C45.9458 30.153 48.4277 31.1583 50.2818 32.9567C52.1359 34.7552 53.2163 37.2053 53.2938 39.7872C53.2037 42.3604 52.1177 44.798 50.265 46.5859C48.4122 48.3738 45.9375 49.3723 43.3628 49.3707H18.5352" stroke="white" stroke-width="4" stroke-linecap="round" stroke-linejoin="round"/>
</svg>
