<svg width="107" height="93" viewBox="0 0 107 93" fill="none" >
<path d="M23.0682 67.4518C22.3659 80.3268 9.02273 90.8609 9.02273 90.8609C21.9323 88.0977 33.8162 81.791 43.3405 72.6486C46.7096 73.0827 50.103 73.3016 53.5 73.3041C81.9655 73.3041 105 57.3391 105 37.6755C105 18.0118 81.9655 2 53.5 2C25.0345 2 2 17.965 2 37.6755C2 49.4736 10.2868 60.9909 23.0682 67.4518Z" stroke="black" stroke-width="4" stroke-linecap="round" stroke-linejoin="round"/>
<path d="M27.7503 44.1368C31.6288 44.1368 34.773 40.9926 34.773 37.114C34.773 33.2355 31.6288 30.0913 27.7503 30.0913C23.8717 30.0913 20.7275 33.2355 20.7275 37.114C20.7275 40.9926 23.8717 44.1368 27.7503 44.1368Z" stroke="black" stroke-width="4" stroke-linecap="round" stroke-linejoin="round"/>
<path d="M55.8411 44.1368C59.7196 44.1368 62.8638 40.9926 62.8638 37.114C62.8638 33.2355 59.7196 30.0913 55.8411 30.0913C51.9625 30.0913 48.8184 33.2355 48.8184 37.114C48.8184 40.9926 51.9625 44.1368 55.8411 44.1368Z" stroke="black" stroke-width="4" stroke-linecap="round" stroke-linejoin="round"/>
<path d="M83.9314 44.1368C87.81 44.1368 90.9541 40.9926 90.9541 37.114C90.9541 33.2355 87.81 30.0913 83.9314 30.0913C80.0529 30.0913 76.9087 33.2355 76.9087 37.114C76.9087 40.9926 80.0529 44.1368 83.9314 44.1368Z" stroke="black" stroke-width="4" stroke-linecap="round" stroke-linejoin="round"/>
</svg>
