<svg width="101" height="96" viewBox="0 0 101 96" fill="none" >
<path d="M98.2875 39.5581H81.856V88.8526H98.2875V39.5581Z" stroke="white" stroke-width="4" stroke-linecap="round" stroke-linejoin="round"/>
<path d="M79.5091 41.9051L68.9929 38.384C66.6712 37.6408 64.6797 36.1141 63.3592 34.0649L52.4206 17.6803C51.6928 16.6226 51.1529 15.4474 50.8244 14.2063L47.8197 5.47409C47.485 4.48528 46.8558 3.6225 46.0167 3.00152C45.1775 2.38054 44.1685 2.03107 43.125 2H41.9513C39.4611 2 37.0729 2.98924 35.312 4.7501C33.5512 6.51096 32.5619 8.8992 32.5619 11.3894V11.3894C32.0661 16.2097 32.8769 21.0746 34.9093 25.4736L41.9513 34.863H15.4732C13.1572 34.863 10.9362 35.783 9.29858 37.4206C7.66098 39.0582 6.74098 41.2793 6.74098 43.5952V48.9472C6.06504 48.9405 5.39563 49.0799 4.77853 49.3558C4.16143 49.6317 3.61118 50.0376 3.16542 50.5458C2.71966 51.0539 2.38889 51.6524 2.19574 52.3002C2.00258 52.948 1.9516 53.6298 2.04627 54.2991V58.3366C2.04627 60.2043 2.7882 61.9954 4.10884 63.3161C5.42949 64.6367 7.22067 65.3787 9.08834 65.3787V65.3787V72.4207C9.08834 74.2884 9.83027 76.0796 11.1509 77.4002C12.4716 78.7209 14.2627 79.4628 16.1304 79.4628V85.8476C16.1242 86.8604 16.3191 87.8644 16.7038 88.8014C17.0885 89.7383 17.6554 90.5896 18.3716 91.3058C19.0878 92.022 19.939 92.5888 20.876 92.9736C21.8129 93.3583 22.8169 93.5532 23.8297 93.5469H46.9277C49.8322 93.5371 52.7054 92.9465 55.3782 91.8099L63.4062 88.3828C66.2794 87.133 69.3808 86.4935 72.5139 86.5049H81.9034" stroke="white" stroke-width="4" stroke-linecap="round" stroke-linejoin="round"/>
</svg>
